<?xml version="1.0" encoding="utf-8"?>
<!-- Generator: Adobe Illustrator 27.0.0, SVG Export Plug-In . SVG Version: 6.00 Build 0)  -->
<svg version="1.1" id="图层_1" xmlns:serif="http://www.serif.com/"
	 xmlns="http://www.w3.org/2000/svg" xmlns:xlink="http://www.w3.org/1999/xlink" x="0px" y="0px" viewBox="0 0 710.7 807.5"
	 style="enable-background:new 0 0 710.7 807.5;" xml:space="preserve">
<style type="text/css">
	
		.st0{fill-rule:evenodd;clip-rule:evenodd;fill:#333333;stroke:#29586E;stroke-width:21.9;stroke-linecap:square;stroke-linejoin:round;stroke-miterlimit:1.5;}
	.st1{enable-background:new    ;}
	.st2{fill:#FFFFFF;}
	.st3{font-family:'TimesNewRomanPS-BoldItalicMT';}
	.st4{font-size:154.7669px;}
	.st5{fill:#CC3300;}
	.st6{fill:#00D447;}
	.st7{fill:#1F39FF;}
	.st8{fill:#9EC46E;}
	.st9{fill:#66CC00;}
	.st10{fill:#3333FF;}
	.st11{fill:#66CC00;stroke:#66CC00;stroke-miterlimit:10;}
	.st12{fill:none;stroke:#66CC00;stroke-width:5;stroke-miterlimit:10;}
	.st13{fill:#00F475;}
	.st14{fill:#2AFFDE;}
	.st15{fill:#FFFF66;}
	.st16{fill:#55DBFF;}
	.st17{fill:#FBFF0A;}
	.st18{fill:#FF94C1;}
	.st19{fill:#FFA80A;}
	.st20{fill:#4A78FF;}
	.st21{fill:#93C900;}
	.st22{fill:#E95500;}
	.st23{fill:#E9F200;}
	.st24{fill:#990000;}
	.st25{fill:#CCFFFF;}
	.st26{fill:#82C3DF;}
	.st27{fill:none;stroke:#82C3DF;stroke-width:10;stroke-miterlimit:10;}
	.st28{fill:#CCE0FF;}
	.st29{fill:#0099EB;}
	.st30{fill:#CCFF66;}
	.st31{fill:#0066FF;}
	.st32{fill:#009966;}
	.st33{fill:#B01E23;}
	.st34{fill:none;stroke:#B01E23;stroke-width:3;stroke-miterlimit:10;}
</style>
<path class="st0" d="M355.3,26.5L26.4,216l2.7,378.1l326.5,187l328.6-187.3V218.1L355.3,26.5L355.3,26.5z"/>
<text transform="matrix(1 0 0 1 43.1473 327.5152)" class="st1"><tspan x="0" y="0" class="st2 st3 st4">infer</tspan><tspan x="309.5" y="0" class="st5 st3 st4">C</tspan><tspan x="412.8" y="0" class="st6 st3 st4">S</tspan><tspan x="498.8" y="0" class="st7 st3 st4">N</tspan></text>
<path class="st8" d="M421.8,491.3c-8,0-14.4,6.4-14.5,14.5c0,8,6.5,14.4,14.5,14.4s14.4-6.4,14.5-14.4
	C436.3,497.8,429.8,491.3,421.8,491.3 M421.8,524.6c-10.4,0-18.9-8.4-18.9-18.9c0-1.1,0.1-2.2,0.3-3.2c0.3-1.5,0.7-2.9,1.3-4.2
	c2.9-6.7,9.6-11.5,17.3-11.5c6.5,0,12.3,3.3,15.6,8.3c0.8,1.2,1.5,2.5,2,3.9c0.8,2,1.2,4.3,1.2,6.6c0,7.2-4.1,13.5-10.1,16.7
	c-1.3,0.7-2.7,1.2-4.1,1.6C424.9,524.4,423.4,524.5,421.8,524.6 M405.2,453.6c-8,0-14.4-6.4-14.4-14.5c0-8,6.4-14.4,14.4-14.5
	c8,0,14.4,6.5,14.5,14.5C419.7,447.2,413.2,453.6,405.2,453.6"/>
<path class="st8" d="M405.2,424.7c-8,0-14.4,6.4-14.4,14.5c0,8,6.4,14.4,14.4,14.5c8,0,14.4-6.4,14.5-14.5
	C419.6,431.2,413.2,424.8,405.2,424.7"/>
<path class="st9" d="M362.5,474.7c-8,0-14.4,6.5-14.5,14.5c0,8,6.5,14.4,14.5,14.4s14.4-6.4,14.5-14.4
	C377,481.1,370.5,474.7,362.5,474.7 M362.5,507.9c-10.2,0-18.6-8.2-18.9-18.4v-0.9c0.2-10.2,8.6-18.4,18.9-18.4
	c3.9,0,7.5,1.2,10.5,3.2c1.2,0.8,2.4,1.8,3.3,2.8c3.1,3.4,5,7.9,5,12.8c0,0.9-0.1,1.9-0.2,2.8c-0.2,1.5-0.6,2.9-1.2,4.2
	c-0.6,1.6-1.5,3.1-2.6,4.5c-0.9,1.2-1.9,2.2-3.1,3.1C371.1,506.3,367,507.9,362.5,507.9 M379.2,559.7c-8,0-14.4-6.5-14.5-14.5
	c0-8,6.5-14.4,14.5-14.5c8,0,14.4,6.5,14.5,14.5C393.6,553.2,387.2,559.7,379.2,559.7"/>
<g>
	<path class="st10" d="M614,471.9l-4-3.9c0.4-0.3,0.8-0.8,1.2-1.2l3.3,3.2L614,471.9"/>
	<path class="st10" d="M631.9,489.5l-16.4-16.2l0.5-1.9l17.2,16.9C632.7,488.7,632.2,489.1,631.9,489.5"/>
	<path class="st10" d="M630.4,492.1l-12.2-4.8c0.3-0.5,0.5-1,0.6-1.6l12.2,4.9C630.8,491.1,630.6,491.6,630.4,492.1"/>
	<path class="st10" d="M614.5,477.1c-0.5-0.2-1.1-0.3-1.6-0.4l1.2-4.8l0.5-1.9l1-4l0.4-1.6l3.5-14.3c0.5,0.2,1.1,0.3,1.6,0.4
		l-3.5,14.3l-0.4,1.6l-1.2,4.9l-0.5,1.9L614.5,477.1"/>
	<path class="st10" d="M621.8,448.9c-3,0-5.5-2.5-5.5-5.5s2.5-5.5,5.5-5.5s5.5,2.5,5.5,5.5C627.4,446.4,624.9,448.9,621.8,448.9"/>
	<path class="st10" d="M621.8,437.9c-3,0-5.5,2.5-5.5,5.5s2.5,5.5,5.5,5.5s5.5-2.5,5.5-5.5C627.3,440.3,624.9,437.9,621.8,437.9"/>
	<path class="st10" d="M621.1,453.8c-0.4,0-0.7,0-1.1-0.1c-0.7-0.1-1.3-0.2-1.9-0.5c-0.6-0.2-1.2-0.5-1.8-0.9
		c-0.6-0.4-1.1-0.8-1.5-1.3c-1.4-1.5-2.3-3.6-2.3-5.8c0-4.7,3.8-8.5,8.5-8.5s8.5,3.8,8.5,8.5c0,0.8-0.1,1.5-0.4,2.3
		c-0.1,0.6-0.5,1.3-0.7,1.8C627.1,452,624.4,453.8,621.1,453.8"/>
	<path class="st10" d="M602.2,472.5c-5.6,0-10.3-4.5-10.4-10.1v-0.4c0.1-5.6,4.8-10.1,10.4-10.1c2.2,0,4.2,0.6,5.8,1.7
		c0.7,0.4,1.3,1,1.9,1.6c1.7,1.9,2.7,4.3,2.7,7.1c0,0.6,0,1-0.1,1.6c-0.1,0.9-0.3,1.6-0.6,2.3c-0.3,0.9-0.9,1.7-1.4,2.5
		c-0.4,0.6-1,1.2-1.7,1.7C606.8,471.6,604.6,472.5,602.2,472.5"/>
	<path class="st10" d="M611.9,489.4c-3,0-5.5-2.5-5.5-5.5s2.5-5.5,5.5-5.5s5.5,2.5,5.5,5.5S615,489.3,611.9,489.4"/>
	<path class="st10" d="M611.9,478.3c-3,0-5.5,2.5-5.5,5.5s2.5,5.5,5.5,5.5s5.5-2.5,5.5-5.5S615,478.4,611.9,478.3"/>
	<path class="st10" d="M612.6,492.7c-4.9,0-8.8-3.9-8.8-8.8s3.9-8.8,8.8-8.8c0.4,0,0.7,0,1.1,0.1c0.7,0.1,1.3,0.2,2,0.5
		c3.3,1.2,5.6,4.4,5.6,8.2c0,0.9-0.1,1.6-0.2,2.3c-0.1,0.6-0.5,1.3-0.7,2C618.9,490.9,615.9,492.7,612.6,492.7"/>
	<path class="st10" d="M637.3,499.7c-3,0-5.5-2.5-5.5-5.5s2.5-5.5,5.5-5.5s5.5,2.5,5.5,5.5S640.3,499.7,637.3,499.7"/>
	<path class="st10" d="M637.3,488.7c-3,0-5.5,2.5-5.5,5.5s2.5,5.5,5.5,5.5s5.5-2.5,5.5-5.5C642.8,491.1,640.3,488.7,637.3,488.7"/>
	<path class="st10" d="M637.3,501.4c-4,0-7.2-3.2-7.2-7.2c0-0.7,0.1-1.4,0.3-2c0.2-0.5,0.4-1.1,0.7-1.5c0.2-0.4,0.5-0.8,0.8-1.1
		c0.4-0.4,0.8-0.8,1.2-1.1c0.3-0.2,0.7-0.4,1-0.6c0.5-0.2,1-0.4,1.6-0.6c0.5-0.1,1.1-0.2,1.6-0.2c0.6,0,1.3,0.1,1.9,0.2
		c0.5,0.1,1.1,0.3,1.6,0.6c2.2,1.2,3.8,3.6,3.8,6.3C644.5,498.1,641.3,501.3,637.3,501.4"/>
	<path class="st10" d="M664.7,470.2h-5.3c0,19.3-15.7,35-35.1,35.1c-19.3,0-35-15.7-35.1-35.1c0-19.3,15.7-35,35.1-35.1
		c19.3,0,35,15.7,35.1,35.1h10.7c0-25.2-20.4-45.8-45.8-45.8c-25.3,0-45.8,20.4-45.8,45.8s20.4,45.8,45.8,45.8
		c25.2,0,45.8-20.4,45.8-45.8L664.7,470.2"/>
	<path class="st10" d="M643.3,473.2c-0.4,0-0.8,0-1.3-0.1c-0.8-0.1-1.6-0.3-2.3-0.6c-0.7-0.3-1.4-0.6-2.1-1.1
		c-0.7-0.4-1.3-1-1.8-1.6c-1.7-1.8-2.7-4.2-2.7-6.9c0-5.6,4.5-10.2,10.2-10.2c5.6,0,10.2,4.5,10.2,10.2c0,1-0.1,1.8-0.4,2.7
		c-0.1,0.7-0.6,1.6-0.8,2.1C650.5,471.1,647.2,473.2,643.3,473.2"/>
	<path class="st10" d="M603.8,464.4c0.1-0.7,0.1-1.4,0.1-2.1l6.6,0.1l2.6,0.1l5.5,0.1l2.2,0l19.6,0.3c-0.1,0.7-0.1,1.4-0.1,2.1
		l-19.6-0.3l-2.2,0l-6.7-0.1l-2.6-0.1L603.8,464.4"/>
</g>
<g>
	<path class="st11" d="M388.5,498.5l-8.5-2.3c0.5-1.3,0.9-2.8,1.2-4.2l8.3,2.3L388.5,498.5 M403.3,502.6l-10.5-2.9l1-4.3l10.7,3
		C403.9,499.7,403.5,501.1,403.3,502.6 M384.7,514l-10.4-10.2c1.1-0.9,2.2-2,3.1-3.1l8.5,8.4L384.7,514 M431.5,560l-43.1-42.4l1.2-5
		l45.1,44.4C433.6,557.9,432.5,558.9,431.5,560 M427.7,567l-31.9-12.7c0.7-1.3,1.3-2.7,1.6-4.1l32,12.7
		C428.7,564.2,428.1,565.5,427.7,567 M450.5,475.2l-48.2-36.5l0.5-5.1l50.4,38.2C452.3,472.9,451.3,474,450.5,475.2 M487.4,496.5
		l-59.9,8.3l-3.2-4l62.7-8.7C487,493.6,487.1,495,487.4,496.5"/>
	<path class="st11" d="M385.9,527.7c-1.4-0.5-2.8-0.9-4.2-1.1l3.1-12.6l1.2-5l2.6-10.5l1-4.3l9.1-37.4c1.4,0.5,2.8,0.9,4.3,1
		l-9.1,37.5l-1,4.3l-3.1,13l-1.2,5L385.9,527.7"/>
	<path class="st11" d="M437.4,555.4l-11-31.4c1.4-0.4,2.8-0.9,4.1-1.6l11,31.5C440.1,554.3,438.7,554.8,437.4,555.4"/>
	<path class="st11" d="M419.7,527.7c-12.9,0-23.1-10.4-23.3-23.3c0-12.9,10.4-23.1,23.3-23.3c12.9,0,23.1,10.4,23.3,23.3
		C443,517.3,432.6,527.7,419.7,527.7"/>
	<path class="st11" d="M405.2,458c-0.8,0-1.5,0-2.3-0.2c-1.5-0.2-2.9-0.5-4.3-1s-2.7-1.2-3.9-2c-1.2-0.8-2.4-1.8-3.3-2.8
		c-3.1-3.4-5-7.9-5-12.8c0-10.4,8.4-18.9,18.9-18.9s18.9,8.4,18.9,18.9c0,1.7-0.2,3.5-0.7,5c-0.4,1.4-0.9,2.8-1.7,4.1
		C418.5,454.1,412.3,458,405.2,458"/>
	<path class="st11" d="M362.6,503.6c-8,0-14.4-6.5-14.5-14.5c0-8,6.5-14.4,14.5-14.5c8,0,14.4,6.4,14.5,14.5
		C377,497.1,370.5,503.5,362.6,503.6"/>
	<path class="st11" d="M379.2,530.8c-8,0-14.4,6.5-14.5,14.5c0,8,6.5,14.4,14.5,14.4s14.4-6.4,14.5-14.4
		C393.6,537.3,387.2,530.9,379.2,530.8"/>
	<path class="st11" d="M379.2,564.1c-10.4,0-18.9-8.4-18.9-18.9c0-10.4,8.4-18.9,18.9-18.9c0.8,0,1.7,0,2.5,0.2
		c1.5,0.2,2.9,0.6,4.2,1.1c7.1,2.7,12.1,9.6,12.1,17.6c0,1.7-0.2,3.3-0.6,4.9c-0.4,1.4-0.9,2.8-1.6,4.1
		C392.5,560.1,386.3,564.1,379.2,564.1"/>
	<path class="st11" d="M442.4,582.9c-8,0-14.4-6.5-14.5-14.5c0-8,6.5-14.4,14.5-14.5c8,0,14.4,6.4,14.4,14.5
		C456.8,576.4,450.3,582.8,442.4,582.9"/>
	<circle class="st12" cx="419.4" cy="506.2" r="104"/>
	<path class="st11" d="M491.3,514.8c-0.8,0-1.5,0-2.3-0.2c-1.5-0.2-2.9-0.5-4.3-1s-2.7-1.2-3.9-2c-1.2-0.8-2.4-1.8-3.3-2.8
		c-3.1-3.4-5-7.9-5-12.8c0-10.4,8.4-18.9,18.9-18.9s18.9,8.4,18.9,18.9c0,1.7-0.2,3.5-0.7,5c-0.4,1.4-0.9,2.8-1.7,4.1
		C504.6,510.8,498.4,514.8,491.3,514.8"/>
	<path class="st11" d="M441.8,485c-0.8,0-1.5,0-2.3-0.2c-1.5-0.2-2.9-0.5-4.3-1s-2.7-1.2-3.9-2c-1.2-0.8-2.4-1.8-3.3-2.8
		c-3.1-3.4-5-7.9-5-12.8c0-10.4,8.4-18.9,18.9-18.9s18.9,8.4,18.9,18.9c0,1.7-0.2,3.5-0.7,5c-0.4,1.4-0.9,2.8-1.7,4.1
		C455.1,481.1,448.9,485,441.8,485"/>
</g>
<g>
	<path class="st13" d="M383.6,716.4l-2.3-2.2c0.2-0.2,0.5-0.4,0.7-0.7l1.9,1.8L383.6,716.4"/>
	<path class="st13" d="M393.8,726.5l-9.4-9.3l0.3-1.1l9.9,9.7C394.3,726.1,394.1,726.3,393.8,726.5"/>
	<path class="st13" d="M393,728l-7-2.8c0.1-0.3,0.3-0.6,0.4-0.9l7,2.8C393.3,727.4,393.1,727.7,393,728"/>
	<path class="st13" d="M383.9,719.4c-0.3-0.1-0.6-0.2-0.9-0.2l0.7-2.7l0.3-1.1l0.6-2.3l0.2-0.9l2-8.2c0.3,0.1,0.6,0.2,0.9,0.2
		l-2,8.2l-0.2,0.9l-0.7,2.8l-0.3,1.1L383.9,719.4"/>
	<path class="st13" d="M388.1,703.2c-1.7,0-3.2-1.4-3.2-3.2c0-1.7,1.4-3.2,3.2-3.2c1.7,0,3.2,1.4,3.2,3.2
		C391.3,701.8,389.9,703.2,388.1,703.2"/>
	<path class="st13" d="M388.1,696.9c-1.7,0-3.2,1.4-3.2,3.2c0,1.7,1.4,3.2,3.2,3.2c1.7,0,3.2-1.4,3.2-3.2
		C391.3,698.3,389.8,696.9,388.1,696.9"/>
	<path class="st13" d="M388.1,704.2c-0.2,0-0.3,0-0.5,0c-0.3,0-0.6-0.1-0.9-0.2c-0.3-0.1-0.6-0.3-0.9-0.4c-0.3-0.2-0.5-0.4-0.7-0.6
		c-0.7-0.7-1.1-1.7-1.1-2.8c0-2.3,1.8-4.1,4.1-4.1c2.3,0,4.1,1.8,4.1,4.1c0,0.4,0,0.8-0.1,1.1c-0.1,0.3-0.2,0.6-0.4,0.9
		C391,703.3,389.7,704.2,388.1,704.2"/>
	<path class="st13" d="M378.8,714.2c-1.7,0-3.2-1.4-3.2-3.2c0-1.7,1.4-3.2,3.2-3.2c1.7,0,3.2,1.4,3.2,3.2
		C381.9,712.7,380.5,714.1,378.8,714.2"/>
	<path class="st13" d="M378.8,707.8c-1.7,0-3.2,1.4-3.2,3.2c0,1.7,1.4,3.2,3.2,3.2s3.2-1.4,3.2-3.2
		C381.9,709.2,380.5,707.8,378.8,707.8 M378.8,715.1c-2.2,0-4.1-1.8-4.1-4v-0.2c0-2.2,1.9-4,4.1-4c0.8,0,1.6,0.3,2.3,0.7
		c0.3,0.2,0.5,0.4,0.7,0.6c0.7,0.7,1.1,1.7,1.1,2.8c0,0.2,0,0.4,0,0.6c0,0.3-0.1,0.6-0.3,0.9c-0.1,0.4-0.3,0.7-0.6,1
		c-0.2,0.3-0.4,0.5-0.7,0.7C380.6,714.8,379.7,715.1,378.8,715.1 M382.4,726.4c-1.7,0-3.2-1.4-3.2-3.2c0-1.7,1.4-3.2,3.2-3.2
		c1.7,0,3.2,1.4,3.2,3.2C385.6,725,384.2,726.4,382.4,726.4"/>
	<path class="st13" d="M382.4,720.1c-1.7,0-3.2,1.4-3.2,3.2c0,1.7,1.4,3.2,3.2,3.2s3.2-1.4,3.2-3.2
		C385.6,721.5,384.2,720.1,382.4,720.1 M382.4,727.4c-2.3,0-4.1-1.8-4.1-4.1s1.8-4.1,4.1-4.1c0.2,0,0.4,0,0.5,0
		c0.3,0,0.6,0.1,0.9,0.2c1.5,0.6,2.6,2.1,2.6,3.9c0,0.4,0,0.7-0.1,1.1c-0.1,0.3-0.2,0.6-0.4,0.9C385.3,726.5,384,727.4,382.4,727.4
		 M397,732.4c-1.7,0-3.2-1.4-3.2-3.2c0-1.7,1.4-3.2,3.2-3.2c1.7,0,3.2,1.4,3.2,3.2C400.1,730.9,398.7,732.4,397,732.4"/>
	<path class="st13" d="M397,726c-1.7,0-3.2,1.4-3.2,3.2c0,1.7,1.4,3.2,3.2,3.2c1.7,0,3.2-1.4,3.2-3.2S398.7,726.1,397,726
		 M397,733.3c-2.3,0-4.1-1.8-4.1-4.1c0-0.4,0.1-0.8,0.2-1.2c0.1-0.3,0.2-0.6,0.4-0.9c0.1-0.2,0.3-0.4,0.4-0.6
		c0.2-0.2,0.4-0.5,0.7-0.7c0.2-0.1,0.4-0.3,0.6-0.4c0.3-0.1,0.6-0.2,0.9-0.3c0.3-0.1,0.6-0.1,0.9-0.1c0.4,0,0.7,0,1.1,0.1
		c0.3,0.1,0.6,0.2,0.9,0.4c1.3,0.7,2.2,2.1,2.2,3.6C401.1,731.5,399.3,733.3,397,733.3"/>
	<path class="st13" d="M412.7,715.4h-3.1c0,11.1-9,20.1-20.1,20.1c-11.1,0-20.1-9-20.1-20.1c0-11.1,9-20.1,20.1-20.1
		c11.1,0,20.1,9,20.1,20.1h6.1c0-14.5-11.7-26.3-26.3-26.3s-26.3,11.7-26.3,26.3c0,14.5,11.7,26.3,26.3,26.3
		c14.5,0,26.3-11.7,26.3-26.3H412.7"/>
	<path class="st13" d="M399.3,719.3c-1.7,0-3.2-1.4-3.2-3.2c0-1.7,1.4-3.2,3.2-3.2c1.7,0,3.2,1.4,3.2,3.2
		C402.4,717.9,401,719.3,399.3,719.3"/>
	<path class="st13" d="M382.6,722.5c-0.1-0.3-0.2-0.6-0.3-0.9l2.6-1l1-0.4l2.2-0.9l0.9-0.4l7.8-3.1c0.1,0.3,0.2,0.6,0.4,0.9
		l-7.9,3.1l-0.9,0.4l-2.7,1.1l-1,0.4L382.6,722.5"/>
</g>
<g>
	<path class="st14" d="M434.9,707l1.4-1.3c-0.1-0.1-0.3-0.3-0.4-0.4l-1.1,1.1L434.9,707"/>
	<path class="st14" d="M428.7,713.1l5.7-5.6l-0.2-0.7l-5.9,5.8C428.4,712.8,428.6,712.9,428.7,713.1"/>
	<path class="st14" d="M429.2,714l4.2-1.7c-0.1-0.2-0.2-0.3-0.2-0.5l-4.2,1.7C429.1,713.6,429.2,713.8,429.2,714"/>
	<path class="st14" d="M434.7,708.8c0.2-0.1,0.4-0.1,0.6-0.1l-0.4-1.6l-0.2-0.7l-0.3-1.4l-0.1-0.6l-1.2-4.9
		c-0.2,0.1-0.4,0.1-0.6,0.1l1.2,4.9l0.1,0.6l0.4,1.7l0.2,0.7L434.7,708.8"/>
	<path class="st14" d="M423.3,708c1,0,1.9,0.8,1.9,1.9c0,1-0.8,1.9-1.9,1.9c-1,0-1.9-0.8-1.9-1.9C421.4,708.9,422.3,708.1,423.3,708
		"/>
	<path class="st14" d="M432.5,700c0.1,0,0.2,0,0.2,0c0.2,0,0.3-0.1,0.5-0.1c0.2-0.1,0.3-0.1,0.4-0.2c0.1-0.1,0.3-0.2,0.4-0.3
		c0.3-0.4,0.5-0.8,0.5-1.4c0-1.1-0.9-2-2-2s-2,0.9-2,2c0,0.2,0,0.4,0.1,0.5c0,0.2,0.1,0.3,0.2,0.4C431,699.6,431.7,700,432.5,700"/>
	<path class="st14" d="M437.8,705.6c1,0,1.9-0.9,1.9-1.9c0-1-0.9-1.9-1.9-1.9c-1,0-1.9,0.8-1.9,1.9
		C435.9,704.8,436.7,705.6,437.8,705.6"/>
	<path class="st14" d="M437.8,701.8c1,0,1.9,0.9,1.9,1.9c0,1-0.9,1.9-1.9,1.9c-1,0-1.9-0.8-1.9-1.9
		C435.9,702.7,436.7,701.8,437.8,701.8 M437.8,706.2c1.3,0,2.4-1.1,2.5-2.4v-0.1c0-1.3-1.1-2.4-2.5-2.4c-0.5,0-1,0.2-1.4,0.4
		c-0.2,0.1-0.3,0.2-0.4,0.4c-0.4,0.4-0.7,1-0.7,1.7c0,0.1,0,0.2,0,0.4c0,0.2,0.1,0.4,0.2,0.6c0.1,0.2,0.2,0.4,0.3,0.6
		c0.1,0.2,0.3,0.3,0.4,0.4C436.7,706,437.2,706.2,437.8,706.2 M435.6,713c1,0,1.9-0.9,1.9-1.9c0-1-0.9-1.9-1.9-1.9
		c-1,0-1.9,0.9-1.9,1.9C433.7,712.2,434.5,713,435.6,713"/>
	<path class="st14" d="M435.6,709.2c1,0,1.9,0.9,1.9,1.9c0,1-0.9,1.9-1.9,1.9s-1.9-0.8-1.9-1.9C433.7,710.1,434.5,709.2,435.6,709.2
		 M435.6,713.6c1.4,0,2.5-1.1,2.5-2.5c0-1.4-1.1-2.5-2.5-2.5c-0.1,0-0.2,0-0.3,0c-0.2,0-0.4,0.1-0.6,0.1c-0.9,0.4-1.6,1.3-1.6,2.3
		c0,0.2,0,0.4,0.1,0.6c0,0.2,0.1,0.4,0.2,0.5C433.8,713.1,434.6,713.6,435.6,713.6 M426.8,716.6c1,0,1.9-0.9,1.9-1.9
		c0-1-0.9-1.9-1.9-1.9c-1,0-1.9,0.8-1.9,1.9C424.9,715.7,425.8,716.6,426.8,716.6"/>
	<path class="st14" d="M426.8,712.8c1,0,1.9,0.9,1.9,1.9c0,1-0.9,1.9-1.9,1.9c-1,0-1.9-0.8-1.9-1.9S425.8,712.8,426.8,712.8
		 M426.8,717.1c1.4,0,2.5-1.1,2.5-2.5c0-0.2,0-0.5-0.1-0.7c-0.1-0.2-0.1-0.4-0.2-0.5c-0.1-0.1-0.2-0.3-0.3-0.4
		c-0.1-0.1-0.3-0.3-0.4-0.4c-0.1-0.1-0.2-0.2-0.4-0.2c-0.2-0.1-0.4-0.1-0.5-0.2c-0.2,0-0.4-0.1-0.6-0.1c-0.2,0-0.4,0-0.6,0.1
		c-0.2,0-0.4,0.1-0.5,0.2c-0.8,0.4-1.3,1.2-1.3,2.2C424.4,716,425.5,717.1,426.8,717.1"/>
	<path class="st14" d="M417.4,706.4h1.8c0,6.7,5.4,12,12.1,12.1c6.7,0,12-5.4,12.1-12.1c0-6.7-5.4-12-12.1-12.1
		c-6.7,0-12,5.4-12.1,12.1h-3.7c0-8.7,7-15.8,15.8-15.8s15.8,7,15.8,15.8c0,8.7-7,15.8-15.8,15.8c-8.7,0-15.8-7-15.8-15.8H417.4"/>
	<path class="st14" d="M427.3,708.6c0.2,0,0.3,0,0.5,0c0.3,0,0.6-0.1,0.9-0.2c0.3-0.1,0.6-0.2,0.8-0.4c0.3-0.2,0.5-0.4,0.7-0.6
		c0.6-0.7,1-1.6,1-2.7c0-2.2-1.8-3.9-3.9-3.9c-2.2,0-3.9,1.8-3.9,3.9c0,0.4,0,0.7,0.1,1.1c0.1,0.3,0.2,0.6,0.3,0.8
		C424.5,707.8,425.8,708.6,427.3,708.6"/>
	<path class="st14" d="M435.2,711.9c0.1-0.2,0.2-0.3,0.4-0.4l-1.3-1.1l-0.5-0.4l-1.1-0.9l-0.4-0.4l-3.9-3.3
		c-0.1,0.2-0.2,0.3-0.4,0.4l3.9,3.3l0.4,0.4l1.3,1.1l0.5,0.4L435.2,711.9"/>
	<path class="st14" d="M423.3,709.4c0.2,0.1,0.3,0.2,0.5,0.3l1-1.4l0.4-0.6l0.8-1.2l0.3-0.5l2.9-4.2c-0.2-0.1-0.3-0.2-0.5-0.3
		l-2.9,4.2l-0.3,0.5l-1,1.4l-0.4,0.6L423.3,709.4"/>
</g>
<g>
	<path class="st2" d="M352.6,753.3l-1.1-1.1c0.1-0.1,0.2-0.2,0.3-0.3l0.9,0.9L352.6,753.3"/>
	<path class="st2" d="M357.4,758.1l-4.5-4.4l0.1-0.5l4.7,4.6C357.6,757.9,357.5,758,357.4,758.1"/>
	<path class="st2" d="M357,758.9l-3.3-1.3c0.1-0.1,0.1-0.3,0.2-0.4l3.3,1.3C357.1,758.6,357.1,758.7,357,758.9"/>
	<path class="st2" d="M352.7,754.8c-0.1-0.1-0.3-0.1-0.4-0.1l0.3-1.3l0.1-0.5l0.3-1.1l0.1-0.4l0.9-3.9c0.1,0.1,0.3,0.1,0.4,0.1
		l-1,3.9l-0.1,0.4l-0.3,1.4l-0.1,0.5L352.7,754.8"/>
	<path class="st2" d="M361,753.6c-0.8,0-1.5,0.7-1.5,1.5c0,0.8,0.7,1.5,1.5,1.5c0.8,0,1.5-0.7,1.5-1.5
		C362.5,754.3,361.9,753.6,361,753.6"/>
	<path class="st2" d="M353.9,749.8c-0.1,0-0.2,0-0.2,0c-0.2,0-0.3-0.1-0.4-0.1c-0.1-0.1-0.3-0.1-0.4-0.2s-0.2-0.2-0.3-0.3
		c-0.3-0.4-0.5-0.8-0.5-1.3c0-1.1,0.9-2,2-2s2,0.9,2,2c0,0.2,0,0.4-0.1,0.5c0,0.2-0.1,0.3-0.2,0.4
		C355.3,749.4,354.7,749.8,353.9,749.8"/>
	<path class="st2" d="M350.2,752.3c-0.8,0-1.5-0.7-1.5-1.5c0-0.8,0.7-1.5,1.5-1.5c0.8,0,1.5,0.7,1.5,1.5
		C351.8,751.6,351.1,752.3,350.2,752.3"/>
	<path class="st2" d="M350.2,749.2c-0.8,0-1.5,0.7-1.5,1.5c0,0.8,0.7,1.5,1.5,1.5s1.5-0.7,1.5-1.5
		C351.7,749.9,351.1,749.3,350.2,749.2 M350.2,752.7c-1.1,0-1.9-0.9-2-1.9v-0.1c0-1.1,0.9-1.9,2-1.9c0.4,0,0.8,0.1,1.1,0.3
		c0.1,0.1,0.2,0.2,0.3,0.3c0.3,0.4,0.5,0.8,0.5,1.3c0,0.1,0,0.2,0,0.3c0,0.2-0.1,0.3-0.1,0.4c-0.1,0.2-0.2,0.3-0.3,0.5
		c-0.1,0.1-0.2,0.2-0.3,0.3C351.1,752.5,350.7,752.7,350.2,752.7 M352,758.1c-0.8,0-1.5-0.7-1.5-1.5c0-0.8,0.7-1.5,1.5-1.5
		c0.8,0,1.5,0.7,1.5,1.5C353.5,757.4,352.8,758.1,352,758.1"/>
	<path class="st2" d="M352,755.1c-0.8,0-1.5,0.7-1.5,1.5c0,0.8,0.7,1.5,1.5,1.5s1.5-0.7,1.5-1.5C353.5,755.8,352.8,755.1,352,755.1
		 M352,758.6c-1.1,0-2-0.9-2-2s0.9-2,2-2c0.1,0,0.2,0,0.3,0c0.2,0,0.3,0.1,0.4,0.1c0.7,0.3,1.3,1,1.3,1.8c0,0.2,0,0.3-0.1,0.5
		c0,0.2-0.1,0.3-0.2,0.4C353.4,758.1,352.7,758.6,352,758.6 M358.9,760.9c-0.8,0-1.5-0.7-1.5-1.5c0-0.8,0.7-1.5,1.5-1.5
		c0.8,0,1.5,0.7,1.5,1.5C360.4,760.2,359.7,760.9,358.9,760.9"/>
	<path class="st2" d="M358.9,757.9c-0.8,0-1.5,0.7-1.5,1.5c0,0.8,0.7,1.5,1.5,1.5s1.5-0.7,1.5-1.5S359.7,757.9,358.9,757.9
		 M358.9,761.4c-1.1,0-2-0.9-2-2c0-0.2,0-0.4,0.1-0.6c0-0.2,0.1-0.3,0.2-0.4c0.1-0.1,0.1-0.2,0.2-0.3c0.1-0.1,0.2-0.2,0.3-0.3
		c0.1-0.1,0.2-0.1,0.3-0.2c0.1-0.1,0.3-0.1,0.4-0.2c0.1,0,0.3-0.1,0.4-0.1c0.2,0,0.3,0,0.5,0.1c0.2,0,0.3,0.1,0.4,0.2
		c0.6,0.3,1,1,1,1.7C360.9,760.5,360,761.4,358.9,761.4"/>
	<path class="st2" d="M366.4,752.9h-1.5c0,5.3-4.3,9.6-9.6,9.6c-5.3,0-9.6-4.3-9.6-9.6c0-5.3,4.3-9.6,9.6-9.6c5.3,0,9.6,4.3,9.6,9.6
		h2.9c0-6.9-5.6-12.5-12.5-12.5s-12.5,5.6-12.5,12.5s5.6,12.5,12.5,12.5c6.9,0,12.5-5.6,12.5-12.5H366.4"/>
	<path class="st2" d="M359.8,752.9c-0.1,0-0.2,0-0.3,0c-0.2,0-0.4-0.1-0.6-0.1c-0.2-0.1-0.4-0.2-0.5-0.3c-0.2-0.1-0.3-0.2-0.5-0.4
		c-0.4-0.5-0.7-1.1-0.7-1.8c0-1.5,1.2-2.6,2.6-2.6s2.6,1.2,2.6,2.6c0,0.2,0,0.5-0.1,0.7c-0.1,0.2-0.1,0.4-0.2,0.6
		C361.7,752.3,360.8,752.9,359.8,752.9"/>
	<path class="st2" d="M353.5,756.3c-0.1-0.1-0.2-0.2-0.3-0.3l1-0.9l0.4-0.4l0.8-0.8l0.3-0.3l2.9-2.7c0.1,0.1,0.2,0.2,0.3,0.3l-3,2.7
		l-0.3,0.3l-1,0.9l-0.4,0.4L353.5,756.3"/>
	<path class="st2" d="M361.2,755.5c-0.2,0-0.3,0.1-0.4,0.1l-0.3-1.3l-0.1-0.5l-0.3-1.1l-0.1-0.4l-1-3.9c0.1,0,0.3-0.1,0.4-0.1l1,3.9
		l0.1,0.4l0.3,1.3l0.1,0.5L361.2,755.5"/>
</g>
<g>
	<path class="st15" d="M377.6,674l1.6-1.5c-0.2-0.1-0.3-0.3-0.5-0.5l-1.3,1.3L377.6,674"/>
	<path class="st15" d="M370.5,681l6.5-6.4l-0.2-0.8l-6.8,6.7C370.2,680.6,370.4,680.8,370.5,681"/>
	<path class="st15" d="M371.1,682l4.8-1.9c-0.1-0.2-0.2-0.4-0.2-0.6l-4.8,1.9C371,681.6,371,681.8,371.1,682"/>
	<path class="st15" d="M377.4,676.1c0.2-0.1,0.4-0.1,0.6-0.2l-0.5-1.9l-0.2-0.8l-0.4-1.6l-0.2-0.6l-1.4-5.7
		c-0.2,0.1-0.4,0.1-0.6,0.2l1.4,5.7l0.2,0.6l0.5,2l0.2,0.8L377.4,676.1"/>
	<path class="st15" d="M374.5,664.9c1.2,0,2.2-1,2.2-2.2c0-1.2-1-2.2-2.2-2.2c-1.2,0-2.2,1-2.2,2.2
		C372.3,663.9,373.3,664.9,374.5,664.9"/>
	<path class="st15" d="M374.5,660.5c1.2,0,2.2,1,2.2,2.2c0,1.2-1,2.2-2.2,2.2c-1.2,0-2.2-1-2.2-2.2
		C372.3,661.5,373.3,660.5,374.5,660.5"/>
	<path class="st15" d="M374.5,665.5c0.1,0,0.2,0,0.3,0c0.2,0,0.4-0.1,0.6-0.2c0.2-0.1,0.4-0.2,0.6-0.3c0.2-0.1,0.4-0.3,0.5-0.4
		c0.5-0.5,0.8-1.2,0.8-1.9c0-1.6-1.3-2.8-2.8-2.8c-1.6,0-2.8,1.3-2.8,2.8c0,0.3,0,0.5,0.1,0.8c0.1,0.2,0.1,0.4,0.3,0.6
		C372.5,665,373.4,665.5,374.5,665.5"/>
	<path class="st15" d="M380.9,672.4c1.2,0,2.2-1,2.2-2.2c0-1.2-1-2.2-2.2-2.2c-1.2,0-2.2,1-2.2,2.2
		C378.8,671.5,379.7,672.4,380.9,672.4"/>
	<path class="st15" d="M381,668.1c1.2,0,2.2,1,2.2,2.2c0,1.2-1,2.2-2.2,2.2s-2.2-1-2.2-2.2C378.8,669,379.8,668.1,381,668.1
		 M381,673.1c1.5,0,2.8-1.2,2.8-2.8v-0.1c0-1.5-1.3-2.8-2.8-2.8c-0.6,0-1.1,0.2-1.6,0.5c-0.2,0.1-0.4,0.3-0.5,0.4
		c-0.5,0.5-0.8,1.2-0.8,1.9c0,0.1,0,0.3,0,0.4c0,0.2,0.1,0.4,0.2,0.6c0.1,0.2,0.2,0.5,0.4,0.7c0.1,0.2,0.3,0.3,0.5,0.5
		C379.7,672.8,380.3,673.1,381,673.1 M378.4,680.9c1.2,0,2.2-1,2.2-2.2c0-1.2-1-2.2-2.2-2.2c-1.2,0-2.2,1-2.2,2.2
		C376.3,679.9,377.2,680.9,378.4,680.9"/>
	<path class="st15" d="M378.4,676.6c1.2,0,2.2,1,2.2,2.2c0,1.2-1,2.2-2.2,2.2s-2.2-1-2.2-2.2C376.3,677.5,377.2,676.6,378.4,676.6
		 M378.4,681.6c1.6,0,2.8-1.3,2.8-2.8s-1.3-2.8-2.8-2.8c-0.1,0-0.3,0-0.4,0c-0.2,0-0.4,0.1-0.6,0.2c-1.1,0.4-1.8,1.4-1.8,2.7
		c0,0.3,0,0.5,0.1,0.7c0.1,0.2,0.1,0.4,0.2,0.6C376.4,681,377.4,681.6,378.4,681.6 M368.4,685c1.2,0,2.2-1,2.2-2.2
		c0-1.2-1-2.2-2.2-2.2c-1.2,0-2.2,1-2.2,2.2C366.2,684,367.2,685,368.4,685"/>
	<path class="st15" d="M368.4,680.6c1.2,0,2.2,1,2.2,2.2c0,1.2-1,2.2-2.2,2.2s-2.2-1-2.2-2.2C366.2,681.6,367.2,680.6,368.4,680.6
		 M368.4,685.7c1.6,0,2.8-1.3,2.8-2.8c0-0.3,0-0.6-0.1-0.8c-0.1-0.2-0.2-0.4-0.3-0.6c-0.1-0.2-0.2-0.3-0.3-0.4
		c-0.1-0.2-0.3-0.3-0.5-0.5c-0.1-0.1-0.3-0.2-0.4-0.2c-0.2-0.1-0.4-0.2-0.6-0.2c-0.2,0-0.4-0.1-0.6-0.1c-0.3,0-0.5,0-0.7,0.1
		c-0.2,0.1-0.4,0.1-0.6,0.2c-0.9,0.5-1.5,1.4-1.5,2.5C365.5,684.4,366.8,685.7,368.4,685.7"/>
	<path class="st15" d="M357.5,673.3h2.1c0,7.7,6.2,13.9,13.9,13.9c7.7,0,13.9-6.2,13.9-13.9c0-7.7-6.2-13.9-13.9-13.9
		c-7.7,0-13.9,6.2-13.9,13.9h-4.2c0-10,8.1-18.1,18.1-18.1s18.1,8.1,18.1,18.1s-8.1,18.1-18.1,18.1c-10,0-18.1-8.1-18.1-18.1H357.5"
		/>
	<path class="st15" d="M364.7,675.9c0.1,0,0.2,0,0.3,0c0.2,0,0.4-0.1,0.6-0.2c0.2-0.1,0.4-0.2,0.6-0.3c0.2-0.1,0.4-0.3,0.5-0.4
		c0.5-0.5,0.8-1.2,0.8-1.9c0-1.6-1.3-2.8-2.8-2.8s-2.8,1.3-2.8,2.8c0,0.3,0,0.5,0.1,0.8c0.1,0.2,0.1,0.4,0.3,0.6
		C362.7,675.3,363.6,675.9,364.7,675.9"/>
	<path class="st15" d="M367.7,682.9c0.2-0.1,0.4-0.2,0.6-0.2l-0.6-1.8l-0.3-0.7l-0.5-1.6l-0.2-0.6l-1.9-5.5
		c-0.2,0.1-0.4,0.2-0.6,0.2l1.9,5.5l0.2,0.6l0.7,1.9l0.3,0.7L367.7,682.9"/>
</g>
<g>
	<path class="st16" d="M312.3,699.8l-3.5,3.5c0.4,0.3,0.7,0.7,1,1.1l2.9-2.8L312.3,699.8"/>
	<path class="st16" d="M328,684.3l-14.5,14.3l0.4,1.7l15.2-15C328.7,685,328.4,684.7,328,684.3"/>
	<path class="st16" d="M326.8,682l-10.8,4.3c0.2,0.4,0.4,0.9,0.6,1.4l10.8-4.3C327.1,682.9,326.9,682.5,326.8,682"/>
	<path class="st16" d="M312.7,695.2c-0.5,0.2-0.9,0.3-1.4,0.4l1,4.2l0.4,1.7l0.9,3.6l0.3,1.4l3.1,12.6c0.5-0.2,0.9-0.3,1.4-0.3
		l-3.1-12.7l-0.3-1.4l-1.1-4.4l-0.4-1.7L312.7,695.2"/>
	<path class="st16" d="M318.4,713c-0.3,0-0.6,0-0.9,0.1c-0.6,0.1-1.1,0.2-1.6,0.4c-0.5,0.2-1,0.4-1.5,0.8s-0.9,0.7-1.3,1.1
		c-1.2,1.3-1.9,3-1.9,4.8c0,3.9,3.2,7.1,7.1,7.1s7.1-3.2,7.1-7.1c0-0.7-0.1-1.3-0.3-1.9c-0.1-0.5-0.4-1.1-0.6-1.5
		C323.4,714.5,321.1,713,318.4,713"/>
	<path class="st16" d="M305.9,711.7c-2.7,0-4.9-2.2-4.9-4.9c0-2.7,2.2-4.9,4.9-4.9s4.9,2.2,4.9,4.9
		C310.8,709.5,308.6,711.7,305.9,711.7"/>
	<path class="st16" d="M310.4,684.4c-2.7,0-4.9,2.2-4.9,4.9c0,2.7,2.2,4.9,4.9,4.9c2.7,0,4.9-2.2,4.9-4.9
		C315.3,686.6,313.1,684.4,310.4,684.4"/>
	<path class="st16" d="M310.4,694.2c-2.7,0-4.9-2.2-4.9-4.9c0-2.7,2.2-4.9,4.9-4.9c2.7,0,4.9,2.2,4.9,4.9
		C315.3,692,313.1,694.2,310.4,694.2 M310.4,682.9c-3.5,0-6.4,2.8-6.4,6.4s2.8,6.4,6.4,6.4c0.3,0,0.6,0,0.8-0.1
		c0.5-0.1,1-0.2,1.4-0.4c2.4-0.9,4.1-3.2,4.1-5.9c0-0.6-0.1-1.1-0.2-1.7c-0.1-0.5-0.3-0.9-0.6-1.4
		C314.9,684.3,312.8,682.9,310.4,682.9 M332.9,675.3c-2.7,0-4.9,2.2-4.9,4.9c0,2.7,2.2,4.9,4.9,4.9c2.7,0,4.9-2.2,4.9-4.9
		C337.7,677.5,335.5,675.3,332.9,675.3"/>
	<path class="st16" d="M332.9,685c-2.7,0-4.9-2.2-4.9-4.9c0-2.7,2.2-4.9,4.9-4.9s4.9,2.2,4.9,4.9C337.7,682.8,335.5,685,332.9,685
		 M332.9,673.8c-3.5,0-6.4,2.8-6.4,6.4c0,0.6,0.1,1.2,0.3,1.8c0.1,0.5,0.3,0.9,0.6,1.4c0.2,0.3,0.4,0.7,0.7,1c0.3,0.4,0.7,0.7,1.1,1
		c0.3,0.2,0.6,0.4,0.9,0.6c0.4,0.2,0.9,0.4,1.4,0.5c0.5,0.1,0.9,0.2,1.4,0.2c0.6,0,1.1-0.1,1.6-0.2c0.5-0.1,0.9-0.3,1.4-0.6
		c2-1.1,3.3-3.2,3.3-5.6C339.2,676.7,336.4,673.8,332.9,673.8"/>
	<path class="st16" d="M357.1,701.4h-4.7c0-17.1-13.9-31-31.1-31.1c-17.1,0-31,13.9-31.1,31.1c0,17.1,13.9,31,31.1,31.1
		c17.1,0,31-13.9,31.1-31.1h9.5c0,22.3-18.1,40.5-40.5,40.5s-40.5-18.1-40.5-40.5s18.1-40.5,40.5-40.5c22.3,0,40.5,18.1,40.5,40.5
		H357.1"/>
	<path class="st16" d="M336.2,697.7c-0.4,0-0.8,0-1.1,0.1c-0.7,0.1-1.5,0.3-2.2,0.5c-0.7,0.3-1.4,0.6-2,1c-0.6,0.4-1.2,0.9-1.7,1.4
		c-1.6,1.7-2.5,4-2.5,6.4c0,5.2,4.2,9.5,9.5,9.5s9.5-4.2,9.5-9.5c0-0.9-0.1-1.7-0.3-2.5c-0.2-0.7-0.5-1.4-0.8-2
		C342.9,699.7,339.7,697.7,336.2,697.7"/>
	<path class="st16" d="M332.9,683l1.7,20.3l1.6,0.8l-1.8-21.3C333.9,682.9,333.4,683,332.9,683"/>
</g>
<g>
	<path class="st17" d="M469.7,673.9l2.5-2.5c-0.3-0.2-0.5-0.5-0.8-0.8l-2.1,2L469.7,673.9"/>
	<path class="st17" d="M458.3,685.1l10.5-10.4l-0.3-1.2l-11,10.9C457.8,684.6,458,684.9,458.3,685.1"/>
	<path class="st17" d="M469.4,677.2c0.3-0.1,0.7-0.2,1-0.3l-0.8-3.1l-0.3-1.2l-0.6-2.6l-0.3-1l-2.2-9.1c-0.3,0.1-0.7,0.2-1,0.3
		l2.2,9.2l0.3,1l0.8,3.2l0.3,1.2L469.4,677.2"/>
	<path class="st17" d="M455.9,663.4c1.9,0,3.5-1.6,3.5-3.5c0-1.9-1.6-3.5-3.5-3.5c-1.9,0-3.5,1.6-3.5,3.5
		C452.3,661.9,453.9,663.4,455.9,663.4"/>
	<path class="st17" d="M458.8,669.8c1.4,0,2.6,1.1,2.6,2.6c0,1.4-1.1,2.6-2.6,2.6c-1.4,0-2.6-1.1-2.6-2.6
		C456.2,671,457.4,669.8,458.8,669.8"/>
	<path class="st17" d="M465.7,663.4c0.1,0,0.2,0,0.3,0c0.2,0,0.4-0.1,0.6-0.2c0.2-0.1,0.4-0.2,0.6-0.3s0.4-0.3,0.5-0.4
		c0.5-0.5,0.8-1.2,0.8-1.9c0-1.6-1.3-2.9-2.9-2.9s-2.9,1.3-2.9,2.9c0,0.3,0,0.5,0.1,0.8c0.1,0.2,0.1,0.4,0.3,0.6
		C463.7,662.8,464.7,663.4,465.7,663.4"/>
	<path class="st17" d="M475.1,671.3c1.9,0,3.5-1.6,3.5-3.5c0-1.9-1.6-3.5-3.5-3.5c-1.9,0-3.5,1.6-3.5,3.5
		C471.6,669.7,473.2,671.3,475.1,671.3"/>
	<path class="st17" d="M475.1,664.3c1.9,0,3.5,1.6,3.5,3.5c0,1.9-1.6,3.5-3.5,3.5s-3.5-1.6-3.5-3.5
		C471.6,665.8,473.2,664.3,475.1,664.3 M475.1,672.4c2.5,0,4.5-2,4.6-4.5v-0.2c-0.1-2.5-2.1-4.5-4.6-4.5c-0.9,0-1.8,0.3-2.6,0.8
		c-0.3,0.2-0.6,0.4-0.8,0.7c-0.8,0.8-1.2,1.9-1.2,3.1c0,0.2,0,0.5,0.1,0.7c0.1,0.4,0.1,0.7,0.3,1c0.2,0.4,0.4,0.8,0.6,1.1
		c0.2,0.3,0.5,0.5,0.8,0.8C473,672,474,672.4,475.1,672.4 M471,685.1c1.9,0,3.5-1.6,3.5-3.5c0-1.9-1.6-3.5-3.5-3.5
		c-1.9,0-3.5,1.6-3.5,3.5C467.5,683.5,469.1,685,471,685.1"/>
	<path class="st17" d="M471,678c1.9,0,3.5,1.6,3.5,3.5c0,1.9-1.6,3.5-3.5,3.5s-3.5-1.6-3.5-3.5C467.5,679.6,469.1,678,471,678
		 M471,686.1c2.5,0,4.6-2.1,4.6-4.6s-2.1-4.6-4.6-4.6c-0.2,0-0.4,0-0.6,0c-0.4,0-0.7,0.1-1,0.3c-1.7,0.7-3,2.3-3,4.3
		c0,0.4,0.1,0.8,0.2,1.2c0.1,0.4,0.2,0.7,0.4,1C467.8,685.2,469.3,686.1,471,686.1 M454.8,691.7c1.9,0,3.5-1.6,3.5-3.5
		c0-1.9-1.6-3.5-3.5-3.5c-1.9,0-3.5,1.6-3.5,3.5C451.3,690.1,452.8,691.7,454.8,691.7"/>
	<path class="st17" d="M454.8,684.6c1.9,0,3.5,1.6,3.5,3.5c0,1.9-1.6,3.5-3.5,3.5s-3.5-1.6-3.5-3.5
		C451.3,686.2,452.8,684.6,454.8,684.6 M454.8,692.7c2.5,0,4.6-2.1,4.6-4.6c0-0.5-0.1-0.9-0.2-1.3c-0.1-0.4-0.3-0.7-0.4-1
		c-0.1-0.3-0.3-0.5-0.5-0.7c-0.2-0.3-0.5-0.5-0.8-0.7c-0.2-0.1-0.4-0.3-0.7-0.4c-0.3-0.2-0.7-0.3-1-0.4c-0.3-0.1-0.7-0.1-1-0.1
		c-0.4,0-0.8,0.1-1.2,0.2c-0.4,0.1-0.7,0.2-1,0.4c-1.4,0.8-2.4,2.3-2.4,4.1C450.2,690.7,452.2,692.7,454.8,692.7"/>
	<path class="st17" d="M437.2,672.8h3.4c0,12.4,10.1,22.4,22.5,22.5c12.4,0,22.4-10,22.5-22.5c0-12.4-10.1-22.4-22.5-22.5
		c-12.4,0-22.4,10.1-22.5,22.5h-6.8c0-16.2,13.1-29.3,29.3-29.3c16.2,0,29.3,13.1,29.3,29.3c0,16.2-13.1,29.3-29.3,29.3
		c-16.2,0-29.3-13.1-29.3-29.3H437.2"/>
	<path class="st17" d="M451.3,672.6c1.9,0,3.5-1.6,3.5-3.5c0-1.9-1.6-3.5-3.5-3.5c-1.9,0-3.5,1.6-3.5,3.5
		C447.7,671,449.3,672.6,451.3,672.6"/>
	<path class="st17" d="M453.6,687.5c0.3-0.1,0.7-0.1,1.1-0.2l-0.4-3.1L454,683l-0.3-2.6l-0.1-1.1l-1.2-9.3c-0.3,0.1-0.7,0.1-1.1,0.1
		l1.2,9.4l0.1,1.1l0.4,3.2l0.2,1.2L453.6,687.5"/>
	<path class="st17" d="M458.7,674.2c0.3-0.1,0.5-0.2,0.8-0.3l-0.6-3.1l-0.2-1.2l-0.5-2.6l-0.2-1l-1.8-9.1c-0.3,0.1-0.5,0.2-0.8,0.3
		l1.8,9.2l0.2,1l0.6,3.2l0.2,1.2L458.7,674.2"/>
	<path class="st17" d="M471.9,683.4c0.2-0.3,0.4-0.6,0.6-0.9l-2.5-1.9l-1-0.8l-2.1-1.6l-0.9-0.7l-7.5-5.7c-0.2,0.3-0.4,0.6-0.7,0.9
		l7.5,5.7l0.9,0.7l2.6,2l1,0.8L471.9,683.4"/>
</g>
<g>
	<path class="st18" d="M252.3,665.7l-15-6c0.3-0.6,0.6-1.2,0.8-1.9l15,6C252.7,664.3,252.4,665,252.3,665.7"/>
	<path class="st18" d="M220.2,630.6c0.2-0.7,0.2-1.3,0.2-2l6,0.6l2.4,0.2l5.1,0.5l2.1,0.2l18,1.7c-0.1,0.7-0.2,1.4-0.2,2.1
		l-18.1-1.7l-2.1-0.2l-6.2-0.6l-2.4-0.2L220.2,630.6"/>
	<path class="st18" d="M255.5,614.9c-3.7,0-6.8-3-6.8-6.8c0-3.7,3-6.8,6.8-6.8c3.7,0,6.8,3,6.8,6.8
		C262.3,611.9,259.3,614.9,255.5,614.9"/>
	<path class="st18" d="M273.9,646.5c-3.7,0-6.8,3-6.8,6.8c0,3.7,3,6.8,6.8,6.8c3.7,0,6.8-3,6.8-6.8
		C280.7,649.5,277.7,646.5,273.9,646.5"/>
	<path class="st18" d="M239.4,622.4c-0.3,0-0.6,0-0.9-0.1c-0.6-0.1-1.2-0.2-1.7-0.4c-0.6-0.2-1.1-0.5-1.6-0.8
		c-0.5-0.3-0.9-0.7-1.3-1.1c-1.2-1.3-2-3.1-2-5.1c0-4.1,3.3-7.5,7.5-7.5c4.1,0,7.5,3.3,7.5,7.5c0,0.7-0.1,1.4-0.3,2
		c-0.2,0.6-0.4,1.1-0.7,1.6C244.7,620.9,242.2,622.4,239.4,622.4"/>
	<path class="st18" d="M221.7,635.9c-3.7,0-6.8-3-6.8-6.8c0-3.7,3-6.8,6.8-6.8c3.7,0,6.8,3,6.8,6.8
		C228.5,632.8,225.4,635.9,221.7,635.9"/>
	<path class="st18" d="M221.7,622.3c-3.7,0-6.8,3-6.8,6.8c0,3.7,3,6.8,6.8,6.8c3.7,0,6.8-3,6.8-6.8
		C228.4,625.4,225.4,622.3,221.7,622.3"/>
	<path class="st18" d="M221.7,637.9c-4.8,0-8.7-3.8-8.9-8.6v-0.4c0.1-4.8,4-8.6,8.9-8.6c1.8,0,3.5,0.6,4.9,1.5
		c0.6,0.4,1.1,0.8,1.6,1.3c1.5,1.6,2.4,3.7,2.4,6c0,0.4,0,0.9-0.1,1.3c-0.1,0.7-0.3,1.4-0.6,2c-0.3,0.8-0.7,1.5-1.2,2.1
		c-0.4,0.6-0.9,1-1.4,1.5C225.7,637.2,223.7,637.9,221.7,637.9"/>
	<path class="st18" d="M229.5,662.3c-3.7,0-6.8-3-6.8-6.8c0-3.7,3-6.8,6.8-6.8c3.7,0,6.8,3,6.8,6.8
		C236.3,659.2,233.2,662.2,229.5,662.3"/>
	<path class="st18" d="M229.5,648.7c-3.7,0-6.8,3-6.8,6.8c0,3.7,3,6.8,6.8,6.8c3.7,0,6.8-3,6.8-6.8
		C236.3,651.7,233.2,648.7,229.5,648.7"/>
	<path class="st18" d="M231.9,667c-5.9,0-10.7-4.8-10.7-10.7s4.8-10.7,10.7-10.7c0.5,0,0.9,0,1.4,0.1c0.8,0.1,1.7,0.3,2.4,0.6
		c4,1.5,6.9,5.4,6.9,10c0,1-0.1,1.9-0.4,2.8c-0.2,0.8-0.5,1.6-0.9,2.3C239.5,664.7,236,667,231.9,667"/>
	<path class="st18" d="M256.1,673.3c-3.7,0-6.8-3-6.8-6.8c0-3.7,3-6.8,6.8-6.8c3.7,0,6.8,3,6.8,6.8
		C262.9,670.3,259.9,673.3,256.1,673.3"/>
	<path class="st18" d="M294.4,638.7h-6.6c0,23.8-19.4,43.1-43.2,43.2c-23.8,0-43.1-19.3-43.2-43.2c0-23.8,19.4-43.1,43.2-43.2
		c23.8,0,43.1,19.4,43.2,43.2H301c0-31.1-25.2-56.3-56.3-56.3s-56.3,25.2-56.3,56.3s25.2,56.3,56.3,56.3c31.1,0,56.3-25.2,56.3-56.3
		H294.4"/>
	<path class="st18" d="M262.9,647c-0.6,0-1.2,0-1.7-0.1c-1.1-0.1-2.2-0.4-3.3-0.8c-1.1-0.4-2.1-0.9-3-1.5c-0.9-0.6-1.8-1.4-2.6-2.2
		c-2.4-2.6-3.8-6-3.8-9.8c0-8,6.5-14.5,14.5-14.5c8,0,14.5,6.5,14.5,14.5c0,1.3-0.2,2.6-0.5,3.9c-0.3,1.1-0.7,2.2-1.3,3.1
		C273.1,644,268.4,647,262.9,647"/>
	<path class="st18" d="M262.4,638.1l-20.2-19.9l0.6-2.3l21.2,20.9C263.4,637.1,262.9,637.6,262.4,638.1"/>
	<path class="st18" d="M273.8,654.3l-13.1-25.2l1.3-2l13.7,26.4C275,653.7,274.4,654,273.8,654.3"/>
	<path class="st18" d="M262,637.8l-6.5-27.6l1.7-1.7l6.8,28.9C263.3,637.5,262.6,637.6,262,637.8"/>
	<path class="st18" d="M254.7,639.5l-22.9,16.7l-2.2-0.9l24-17.5C253.9,638.4,254.3,638.9,254.7,639.5"/>
</g>
<g>
	<path class="st19" d="M510.8,647.6l-2.2-2.2c0.2-0.2,0.5-0.4,0.7-0.7l1.8,1.8L510.8,647.6"/>
	<path class="st19" d="M520.8,657.5l-9.2-9.1l0.3-1.1l9.7,9.5C521.3,657.1,521,657.3,520.8,657.5"/>
	<path class="st19" d="M520,659l-6.8-2.7c0.1-0.3,0.3-0.6,0.3-0.9l6.9,2.7C520.3,658.4,520.1,658.7,520,659"/>
	<path class="st19" d="M511.1,650.6c-0.3-0.1-0.6-0.2-0.9-0.2l0.7-2.7l0.3-1.1l0.6-2.3l0.2-0.9l2-8c0.3,0.1,0.6,0.2,0.9,0.2l-2,8
		l-0.2,0.9l-0.7,2.8l-0.3,1.1L511.1,650.6"/>
	<path class="st19" d="M515.2,634.7c-1.7,0-3.1-1.4-3.1-3.1c0-1.7,1.4-3.1,3.1-3.1c1.7,0,3.1,1.4,3.1,3.1
		C518.3,633.3,516.9,634.7,515.2,634.7"/>
	<path class="st19" d="M515.2,628.5c-1.7,0-3.1,1.4-3.1,3.1c0,1.7,1.4,3.1,3.1,3.1c1.7,0,3.1-1.4,3.1-3.1
		C518.3,629.9,516.9,628.5,515.2,628.5"/>
	<path class="st19" d="M515.2,635.6c-0.2,0-0.3,0-0.5,0c-0.3,0-0.6-0.1-0.9-0.2c-0.3-0.1-0.6-0.3-0.8-0.4c-0.3-0.2-0.5-0.4-0.7-0.6
		c-0.7-0.7-1.1-1.7-1.1-2.7c0-2.2,1.8-4,4-4s4,1.8,4,4c0,0.4,0,0.7-0.1,1.1c-0.1,0.3-0.2,0.6-0.4,0.9
		C518.1,634.8,516.7,635.6,515.2,635.6"/>
	<path class="st19" d="M506.1,645.4c-1.7,0-3.1-1.4-3.1-3.1c0-1.7,1.4-3.1,3.1-3.1c1.7,0,3.1,1.4,3.1,3.1
		C509.2,644,507.8,645.4,506.1,645.4"/>
	<path class="st19" d="M506.1,639.2c-1.7,0-3.1,1.4-3.1,3.1c0,1.7,1.4,3.1,3.1,3.1s3.1-1.4,3.1-3.1
		C509.2,640.6,507.8,639.2,506.1,639.2 M506.1,646.3c-2.2,0-4-1.8-4-3.9v-0.2c0-2.2,1.8-3.9,4-3.9c0.8,0,1.6,0.3,2.2,0.7
		c0.3,0.2,0.5,0.4,0.7,0.6c0.7,0.7,1.1,1.7,1.1,2.7c0,0.2,0,0.4,0,0.6c0,0.3-0.1,0.6-0.3,0.9c-0.1,0.3-0.3,0.7-0.6,1
		c-0.2,0.3-0.4,0.5-0.7,0.7C507.9,646,507,646.3,506.1,646.3 M509.6,657.4c-1.7,0-3.1-1.4-3.1-3.1c0-1.7,1.4-3.1,3.1-3.1
		c1.7,0,3.1,1.4,3.1,3.1C512.7,656,511.3,657.4,509.6,657.4"/>
	<path class="st19" d="M509.6,651.2c-1.7,0-3.1,1.4-3.1,3.1c0,1.7,1.4,3.1,3.1,3.1s3.1-1.4,3.1-3.1
		C512.7,652.6,511.3,651.3,509.6,651.2 M509.6,658.4c-2.2,0-4-1.8-4-4s1.8-4,4-4c0.2,0,0.4,0,0.5,0c0.3,0,0.6,0.1,0.9,0.2
		c1.5,0.6,2.6,2,2.6,3.8c0,0.4,0,0.7-0.1,1c-0.1,0.3-0.2,0.6-0.3,0.9C512.5,657.5,511.2,658.4,509.6,658.4 M523.9,663.2
		c-1.7,0-3.1-1.4-3.1-3.1c0-1.7,1.4-3.1,3.1-3.1c1.7,0,3.1,1.4,3.1,3.1C527,661.8,525.6,663.2,523.9,663.2"/>
	<path class="st19" d="M523.9,657c-1.7,0-3.1,1.4-3.1,3.1c0,1.7,1.4,3.1,3.1,3.1s3.1-1.4,3.1-3.1C527,658.4,525.6,657.1,523.9,657
		 M523.9,664.2c-2.2,0-4-1.8-4-4c0-0.4,0.1-0.8,0.2-1.1c0.1-0.3,0.2-0.6,0.4-0.9c0.1-0.2,0.3-0.4,0.4-0.6c0.2-0.2,0.4-0.5,0.7-0.6
		c0.2-0.1,0.4-0.3,0.6-0.3c0.3-0.1,0.6-0.2,0.9-0.3c0.3-0.1,0.6-0.1,0.9-0.1c0.4,0,0.7,0,1,0.1c0.3,0.1,0.6,0.2,0.9,0.3
		c1.3,0.7,2.1,2,2.1,3.6C527.9,662.4,526.1,664.2,523.9,664.2"/>
	<path class="st19" d="M539.3,646.7h-3c0,10.9-8.8,19.7-19.7,19.7c-10.9,0-19.7-8.8-19.7-19.7c0-10.9,8.8-19.7,19.7-19.7
		c10.9,0,19.7,8.8,19.7,19.7h6c0-14.2-11.5-25.7-25.7-25.7c-14.2,0-25.7,11.5-25.7,25.7c0,14.2,11.5,25.7,25.7,25.7
		c14.2,0,25.7-11.5,25.7-25.7H539.3"/>
</g>
<g>
	<path class="st20" d="M342.4,619.5l3,3c-0.3,0.3-0.6,0.6-0.9,0.9l-2.5-2.4L342.4,619.5"/>
	<path class="st20" d="M328.9,606.2l12.4,12.3l-0.4,1.4l-13-12.8C328.3,606.8,328.6,606.5,328.9,606.2"/>
	<path class="st20" d="M330,604.2l9.2,3.7c-0.2,0.4-0.4,0.8-0.5,1.2l-9.3-3.7C329.7,605,329.9,604.6,330,604.2"/>
	<path class="st20" d="M342.1,615.5c0.4,0.2,0.8,0.3,1.2,0.3l-0.9,3.6l-0.4,1.4l-0.7,3l-0.3,1.2l-2.6,10.8c-0.4-0.1-0.8-0.3-1.2-0.3
		l2.6-10.8l0.3-1.2l0.9-3.8l0.4-1.4L342.1,615.5"/>
	<path class="st20" d="M336.5,636.9c2.3,0,4.2,1.9,4.2,4.2c0,2.3-1.9,4.2-4.2,4.2c-2.3,0-4.2-1.9-4.2-4.2
		C332.3,638.8,334.2,637,336.5,636.9"/>
	<path class="st20" d="M336.5,645.3c2.3,0,4.2-1.9,4.2-4.2c0-2.3-1.9-4.2-4.2-4.2c-2.3,0-4.2,1.9-4.2,4.2
		C332.3,643.4,334.2,645.3,336.5,645.3"/>
	<path class="st20" d="M336.5,635.7c0.2,0,0.4,0,0.7,0c0.4,0.1,0.8,0.2,1.2,0.3c0.4,0.2,0.8,0.3,1.1,0.6c0.4,0.2,0.7,0.5,1,0.8
		c0.9,1,1.4,2.3,1.4,3.7c0,3-2.4,5.4-5.4,5.4s-5.4-2.4-5.4-5.4c0-0.5,0.1-1,0.2-1.5c0.1-0.4,0.3-0.8,0.5-1.2
		C332.7,636.8,334.5,635.7,336.5,635.7"/>
	<path class="st20" d="M331.8,614.6c3.9,0,7,3.1,7,7c0,3.9-3.1,7-7,7c-3.9,0-7-3.1-7-7C324.8,617.8,327.9,614.7,331.8,614.6"/>
	<path class="st20" d="M323.5,638.3c2.3,0,4.2-1.9,4.2-4.2c0-2.3-1.9-4.2-4.2-4.2s-4.2,1.9-4.2,4.2
		C319.4,636.4,321.2,638.3,323.5,638.3"/>
	<path class="st20" d="M347.7,621.3c2.4,0,4.3,1.9,4.3,4.2v0.2c-0.1,2.3-2,4.2-4.3,4.2c-0.9,0-1.7-0.3-2.4-0.7
		c-0.3-0.2-0.5-0.4-0.8-0.7c-0.7-0.8-1.2-1.8-1.2-2.9c0-0.2,0-0.4,0.1-0.7c0.1-0.3,0.1-0.7,0.3-1c0.1-0.4,0.3-0.7,0.6-1
		c0.2-0.3,0.4-0.5,0.7-0.7C345.8,621.6,346.7,621.3,347.7,621.3"/>
	<path class="st20" d="M344,606.3c2.3,0,4.2,1.9,4.2,4.2c0,2.3-1.9,4.2-4.2,4.2c-2.3,0-4.2-1.9-4.2-4.2
		C339.9,608.2,341.7,606.3,344,606.3"/>
	<path class="st20" d="M344,614.6c2.3,0,4.2-1.9,4.2-4.2c0-2.3-1.9-4.2-4.2-4.2s-4.2,1.9-4.2,4.2C339.9,612.8,341.7,614.6,344,614.6
		 M344,605c3,0,5.4,2.4,5.4,5.4s-2.4,5.4-5.4,5.4c-0.2,0-0.5,0-0.7,0c-0.4-0.1-0.8-0.2-1.2-0.3c-2-0.8-3.5-2.8-3.5-5.1
		c0-0.5,0.1-1,0.2-1.4c0.1-0.4,0.3-0.8,0.5-1.2C340.2,606.2,342,605,344,605 M324.8,598.5c2.3,0,4.2,1.9,4.2,4.2
		c0,2.3-1.9,4.2-4.2,4.2c-2.3,0-4.2-1.9-4.2-4.2C320.6,600.3,322.5,598.5,324.8,598.5"/>
	<path class="st20" d="M324.8,606.8c2.3,0,4.2-1.9,4.2-4.2c0-2.3-1.9-4.2-4.2-4.2s-4.2,1.9-4.2,4.2
		C320.6,604.9,322.5,606.8,324.8,606.8 M324.8,597.2c3,0,5.4,2.4,5.4,5.4c0,0.5-0.1,1.1-0.2,1.5c-0.1,0.4-0.3,0.8-0.5,1.2
		c-0.2,0.3-0.4,0.6-0.6,0.8c-0.3,0.3-0.6,0.6-0.9,0.9c-0.2,0.2-0.5,0.3-0.8,0.5c-0.4,0.2-0.8,0.3-1.2,0.4c-0.4,0.1-0.8,0.1-1.2,0.1
		c-0.5,0-1-0.1-1.4-0.2c-0.4-0.1-0.8-0.3-1.2-0.5c-1.7-0.9-2.9-2.7-2.9-4.8C319.4,599.7,321.8,597.2,324.8,597.2"/>
	<path class="st20" d="M304,620.8h4c0-14.7,11.9-26.5,26.6-26.6c14.7,0,26.5,11.9,26.6,26.6c0,14.7-11.9,26.5-26.6,26.6
		c-14.7,0-26.5-11.9-26.6-26.6H300c0,19.1,15.5,34.7,34.7,34.7c19.2,0,34.7-15.5,34.7-34.7s-15.5-34.7-34.7-34.7
		c-19.1,0-34.7,15.5-34.7,34.7H304"/>
	<path class="st20" d="M318.1,614.4c3,0,5.4,2.4,5.4,5.3v0.3c-0.1,2.9-2.5,5.3-5.4,5.3c-1.1,0-2.2-0.3-3-0.9c-0.4-0.2-0.7-0.5-1-0.8
		c-0.9-1-1.4-2.3-1.4-3.7c0-0.3,0-0.5,0.1-0.8c0.1-0.4,0.2-0.8,0.3-1.2c0.2-0.5,0.4-0.9,0.7-1.3c0.3-0.3,0.6-0.6,0.9-0.9
		C315.6,614.9,316.8,614.5,318.1,614.4"/>
	<path class="st20" d="M336.8,622.2l9.5,3c-0.2,0.4-0.3,0.8-0.4,1.2l-9.5-3C336.5,623,336.7,622.6,336.8,622.2"/>
	<path class="st20" d="M323.5,633.4l5-8.6c0.3,0.3,0.7,0.5,1.1,0.6l-5,8.6C324.3,633.8,323.9,633.6,323.5,633.4"/>
	<path class="st20" d="M319.2,619.7l9.9,1c-0.1,0.4-0.1,0.8-0.1,1.3l-9.9-1C319.2,620.5,319.2,620.1,319.2,619.7"/>
</g>
<g>
	<path class="st21" d="M565.7,570.7l-5.2-5.1c0.6-0.5,1.1-1,1.5-1.6l4.3,4.2L565.7,570.7"/>
	<path class="st21" d="M588.9,593.6l-21.4-21.1l0.6-2.5l22.5,22.1C590,592.6,589.4,593.1,588.9,593.6"/>
	<path class="st21" d="M587.1,597.1l-15.9-6.3c0.3-0.6,0.6-1.3,0.8-2l15.9,6.3C587.6,595.7,587.3,596.4,587.1,597.1"/>
	<path class="st21" d="M566.3,577.5c-0.7-0.3-1.4-0.4-2.1-0.5l1.5-6.3l0.6-2.5l1.3-5.3l0.5-2.1l4.5-18.6c0.7,0.2,1.4,0.4,2.1,0.5
		l-4.6,18.7l-0.5,2.1l-1.6,6.5l-0.6,2.5L566.3,577.5"/>
	<path class="st21" d="M573.5,546.5c-0.4,0-0.8,0-1.1-0.1c-0.7-0.1-1.5-0.3-2.1-0.5c-0.7-0.3-1.3-0.6-1.9-1
		c-0.6-0.4-1.2-0.9-1.7-1.4c-1.5-1.7-2.5-3.9-2.5-6.4c0-5.2,4.2-9.4,9.4-9.4s9.4,4.2,9.4,9.4c0,0.9-0.1,1.7-0.3,2.5
		c-0.2,0.7-0.5,1.4-0.8,2C580.2,544.5,577.1,546.5,573.5,546.5"/>
	<path class="st21" d="M556.9,553.8c-4,0-7.2,3.2-7.2,7.2c0,4,3.2,7.2,7.2,7.2s7.2-3.2,7.2-7.2C564.1,557,560.9,553.8,556.9,553.8"
		/>
	<path class="st21" d="M562.9,593.5c-4,0-7.2-3.2-7.2-7.2c0-4,3.2-7.2,7.2-7.2c4,0,7.2,3.2,7.2,7.2
		C570.1,590.2,566.9,593.5,562.9,593.5"/>
	<path class="st21" d="M562.9,579.1c-4,0-7.2,3.2-7.2,7.2c0,4,3.2,7.2,7.2,7.2s7.2-3.2,7.2-7.2C570.1,582.3,566.9,579.1,562.9,579.1
		 M562.9,595.7c-5.2,0-9.4-4.2-9.4-9.4c0-5.2,4.2-9.4,9.4-9.4c0.4,0,0.8,0,1.2,0.1c0.7,0.1,1.5,0.3,2.1,0.5c3.5,1.3,6,4.8,6,8.8
		c0,0.9-0.1,1.7-0.3,2.4c-0.2,0.7-0.5,1.4-0.8,2C569.6,593.7,566.5,595.7,562.9,595.7 M596.1,607c-4,0-7.2-3.2-7.2-7.2
		c0-4,3.2-7.2,7.2-7.2c4,0,7.2,3.2,7.2,7.2C603.2,603.7,600,606.9,596.1,607"/>
	<path class="st21" d="M596.1,592.6c-4,0-7.2,3.2-7.2,7.2c0,4,3.2,7.2,7.2,7.2s7.2-3.2,7.2-7.2C603.2,595.8,600,592.6,596.1,592.6
		 M596.1,609.1c-5.2,0-9.4-4.2-9.4-9.4c0-0.9,0.1-1.8,0.4-2.7c0.2-0.7,0.5-1.4,0.9-2c0.3-0.5,0.6-1,1-1.4c0.5-0.6,1-1.1,1.6-1.5
		c0.4-0.3,0.9-0.6,1.3-0.8c0.6-0.3,1.3-0.6,2.1-0.7c0.7-0.2,1.4-0.2,2.1-0.2c0.8,0,1.6,0.1,2.4,0.3c0.7,0.2,1.4,0.5,2,0.8
		c2.9,1.6,4.9,4.7,4.9,8.3C605.4,604.9,601.2,609.1,596.1,609.1"/>
	<path class="st21" d="M631.8,568.4h-7c0,25.3-20.6,45.7-45.8,45.8c-25.3,0-45.7-20.4-45.8-45.8c0-25.3,20.6-45.7,45.8-45.8
		c25.3,0,45.7,20.6,45.8,45.8h13.9c0-32.9-26.7-59.8-59.8-59.8s-59.8,26.7-59.8,59.8c0,33.1,26.7,59.8,59.8,59.8
		c32.9,0,59.8-26.7,59.8-59.8H631.8"/>
	<path class="st21" d="M584.3,577.5c-0.5,0-1,0-1.5-0.1c-0.9-0.1-1.9-0.3-2.7-0.7c-0.9-0.3-1.7-0.8-2.5-1.3
		c-0.8-0.5-1.5-1.1-2.1-1.8c-2-2.2-3.2-5-3.2-8.2c0-6.6,5.4-12,12-12c6.7,0,12,5.4,12,12c0,1.1-0.1,2.2-0.4,3.2
		c-0.2,0.9-0.6,1.8-1.1,2.6C592.8,575,588.8,577.5,584.3,577.5"/>
	<path class="st21" d="M607.1,586.9c-0.4,0-0.8,0-1.1-0.1c-0.7-0.1-1.5-0.3-2.1-0.5c-0.7-0.3-1.3-0.6-1.9-1s-1.2-0.9-1.7-1.4
		c-1.5-1.7-2.5-3.9-2.5-6.4c0-5.2,4.2-9.4,9.4-9.4s9.4,4.2,9.4,9.4c0,0.9-0.1,1.7-0.3,2.5c-0.2,0.7-0.5,1.4-0.8,2
		C613.7,585,610.6,586.9,607.1,586.9"/>
	<path class="st21" d="M599.8,554.6c-0.4,0-0.8,0-1.1-0.1c-0.7-0.1-1.5-0.3-2.1-0.5c-0.7-0.3-1.3-0.6-1.9-1s-1.2-0.9-1.7-1.4
		c-1.5-1.7-2.5-3.9-2.5-6.4c0-5.2,4.2-9.4,9.4-9.4s9.4,4.2,9.4,9.4c0,0.9-0.1,1.7-0.3,2.5c-0.2,0.7-0.5,1.4-0.8,2
		C606.4,552.6,603.3,554.6,599.8,554.6"/>
	<path class="st21" d="M607.7,581.4c-0.7,0-1.4,0.2-2.2,0.4l-1.2-6.3l-0.5-2.5l-1-5.3l-0.4-2.2l-3.7-18.8c0.7-0.1,1.5-0.2,2.2-0.4
		l3.7,18.9l0.4,2.2l1.3,6.5l0.5,2.5L607.7,581.4"/>
	<path class="st21" d="M582,569.2c-0.5-0.5-1.1-1-1.7-1.4l4-5l1.6-2l3.4-4.2l1.4-1.7l12-14.9c0.5,0.5,1.1,1,1.7,1.4l-12.1,15
		l-1.4,1.7l-4.2,5.2l-1.6,2L582,569.2"/>
	<path class="st21" d="M563.6,586.2c-0.4-0.6-0.9-1.1-1.5-1.6l4.7-4.4l1.8-1.8l3.9-3.7l1.6-1.5l13.9-13.2c0.4,0.6,0.9,1.1,1.5,1.6
		l-14,13.2l-1.6,1.5l-4.8,4.6l-1.8,1.8L563.6,586.2"/>
</g>
<g>
	<path class="st22" d="M271.5,551.7l-3.3-3.3c0.4-0.3,0.7-0.6,1-1l2.7,2.7L271.5,551.7"/>
	<path class="st22" d="M286.5,566.4l-13.8-13.6l0.4-1.6l14.5,14.3C287.2,565.8,286.8,566.1,286.5,566.4"/>
	<path class="st22" d="M285.3,568.7l-10.2-4.1c0.2-0.4,0.4-0.9,0.5-1.3l10.3,4.1C285.6,567.8,285.4,568.2,285.3,568.7"/>
	<path class="st22" d="M271.9,556.1c-0.4-0.2-0.9-0.3-1.4-0.4l1-4l0.4-1.6l0.8-3.4l0.3-1.4l2.9-12c0.4,0.2,0.9,0.3,1.4,0.3l-2.9,12
		l-0.3,1.4l-1,4.2l-0.4,1.6L271.9,556.1"/>
	<path class="st22" d="M278.1,532.3c-2.6,0-4.6-2.1-4.6-4.6c0-2.6,2.1-4.6,4.6-4.6c2.6,0,4.6,2.1,4.6,4.6
		C282.7,530.2,280.7,532.3,278.1,532.3"/>
	<path class="st22" d="M278.1,523c-2.6,0-4.6,2.1-4.6,4.6c0,2.6,2.1,4.6,4.6,4.6c2.6,0,4.6-2.1,4.6-4.6
		C282.7,525.1,280.6,523,278.1,523"/>
	<path class="st22" d="M278.1,533.7c-0.2,0-0.5,0-0.7,0c-0.5-0.1-0.9-0.2-1.4-0.3c-0.5-0.2-0.9-0.4-1.3-0.6
		c-0.4-0.3-0.8-0.6-1.1-0.9c-1-1.1-1.6-2.5-1.6-4.1c0-3.3,2.7-6.1,6.1-6.1c3.3,0,6.1,2.7,6.1,6.1c0,0.6-0.1,1.1-0.2,1.6
		c-0.1,0.5-0.3,0.9-0.5,1.3C282.3,532.4,280.4,533.7,278.1,533.7"/>
	<path class="st22" d="M264.4,548.3c-2.6,0-4.6-2.1-4.6-4.6c0-2.6,2.1-4.6,4.6-4.6c2.6,0,4.6,2.1,4.6,4.6
		C269,546.2,267,548.3,264.4,548.3"/>
	<path class="st22" d="M264.4,539c-2.6,0-4.6,2.1-4.6,4.6c0,2.6,2.1,4.6,4.6,4.6s4.6-2.1,4.6-4.6C269,541.1,266.9,539,264.4,539
		 M264.4,549.7c-3.3,0-6-2.6-6.1-5.9v-0.3c0.1-3.3,2.8-5.9,6.1-5.9c1.2,0,2.4,0.4,3.4,1c0.4,0.3,0.8,0.6,1.1,0.9
		c1,1.1,1.6,2.5,1.6,4.1c0,0.3,0,0.6-0.1,0.9c-0.1,0.5-0.2,0.9-0.4,1.4c-0.2,0.5-0.5,1-0.8,1.4c-0.3,0.4-0.6,0.7-1,1
		C267.1,549.2,265.8,549.7,264.4,549.7 M269.7,566.3c-2.6,0-4.6-2.1-4.6-4.6c0-2.6,2.1-4.6,4.6-4.6c2.6,0,4.6,2.1,4.6,4.6
		C274.4,564.3,272.3,566.3,269.7,566.3"/>
	<path class="st22" d="M269.7,557.1c-2.6,0-4.6,2.1-4.6,4.6c0,2.6,2.1,4.6,4.6,4.6s4.6-2.1,4.6-4.6
		C274.4,559.1,272.3,557.1,269.7,557.1 M269.7,567.7c-3.3,0-6.1-2.7-6.1-6.1c0-3.3,2.7-6.1,6.1-6.1c0.3,0,0.5,0,0.8,0
		c0.5,0.1,0.9,0.2,1.4,0.4c2.3,0.9,3.9,3.1,3.9,5.6c0,0.5-0.1,1.1-0.2,1.6c-0.1,0.5-0.3,0.9-0.5,1.3
		C274,566.5,272,567.7,269.7,567.7 M291.1,575c-2.6,0-4.6-2.1-4.6-4.6c0-2.6,2.1-4.6,4.6-4.6c2.6,0,4.6,2.1,4.6,4.6
		C295.7,572.9,293.6,575,291.1,575"/>
	<path class="st22" d="M291.1,565.7c-2.6,0-4.6,2.1-4.6,4.6c0,2.6,2.1,4.6,4.6,4.6c2.6,0,4.6-2.1,4.6-4.6S293.6,565.8,291.1,565.7
		 M291.1,576.4c-3.3,0-6.1-2.7-6.1-6.1c0-0.6,0.1-1.2,0.2-1.7c0.1-0.5,0.3-0.9,0.6-1.3c0.2-0.3,0.4-0.6,0.7-0.9c0.3-0.4,0.7-0.7,1-1
		c0.3-0.2,0.6-0.4,0.9-0.5c0.4-0.2,0.9-0.4,1.3-0.5c0.4-0.1,0.9-0.2,1.4-0.2c0.5,0,1.1,0.1,1.6,0.2c0.5,0.1,0.9,0.3,1.3,0.5
		c1.9,1,3.2,3,3.2,5.3C297.1,573.7,294.4,576.4,291.1,576.4"/>
	<path class="st22" d="M314.1,550.2h-4.5c0,16.3-13.2,29.4-29.5,29.5c-16.3,0-29.4-13.2-29.5-29.5c0-16.3,13.2-29.4,29.5-29.5
		c16.3,0,29.4,13.2,29.5,29.5h9c0-21.2-17.2-38.5-38.5-38.5c-21.3,0-38.5,17.2-38.5,38.5s17.2,38.5,38.5,38.5
		c21.2,0,38.5-17.2,38.5-38.5H314.1"/>
	<path class="st22" d="M293.6,550.9c-0.2,0-0.5,0-0.7,0c-0.5-0.1-0.9-0.2-1.4-0.3c-0.5-0.2-0.9-0.4-1.3-0.6
		c-0.4-0.3-0.8-0.6-1.1-0.9c-1-1.1-1.6-2.5-1.6-4.1c0-3.3,2.7-6.1,6.1-6.1c3.3,0,6.1,2.7,6.1,6.1c0,0.6-0.1,1.1-0.2,1.6
		c-0.1,0.5-0.3,0.9-0.5,1.3C297.9,549.6,295.9,550.9,293.6,550.9"/>
	<path class="st22" d="M293.9,545l-13.8-13.6l0.4-1.6L295,544C294.6,544.3,294.3,544.6,293.9,545"/>
</g>
<g>
	<path class="st23" d="M539,438.3l-3.2-3.1c0.3-0.3,0.7-0.6,0.9-1l2.6,2.5L539,438.3"/>
	<path class="st23" d="M553.2,452.3l-13.1-12.9l0.4-1.5l13.7,13.5C553.8,451.6,553.5,451.9,553.2,452.3"/>
	<path class="st23" d="M552.1,454.4l-9.7-3.9c0.2-0.4,0.4-0.8,0.5-1.2l9.7,3.9C552.4,453.5,552.2,453.9,552.1,454.4"/>
	<path class="st23" d="M539.4,442.5c-0.4-0.2-0.8-0.3-1.3-0.3l0.9-3.8l0.4-1.5l0.8-3.2l0.3-1.3l2.8-11.3c0.4,0.1,0.9,0.3,1.3,0.3
		l-2.8,11.4l-0.3,1.3l-1,3.9l-0.4,1.5L539.4,442.5"/>
	<path class="st23" d="M545.2,420c-2.4,0-4.4-2-4.4-4.4c0-2.4,2-4.4,4.4-4.4c2.4,0,4.4,2,4.4,4.4C549.6,418,547.7,420,545.2,420"/>
	<path class="st23" d="M545.2,411.3c-2.4,0-4.4,2-4.4,4.4c0,2.4,2,4.4,4.4,4.4c2.4,0,4.4-2,4.4-4.4
		C549.6,413.2,547.6,411.3,545.2,411.3"/>
	<path class="st23" d="M545.2,421.3c-0.2,0-0.5,0-0.7,0c-0.4-0.1-0.9-0.2-1.3-0.3c-0.4-0.2-0.8-0.4-1.2-0.6c-0.4-0.3-0.7-0.5-1-0.9
		c-0.9-1-1.5-2.4-1.5-3.9c0-3.2,2.6-5.7,5.7-5.7s5.7,2.6,5.7,5.7c0,0.5-0.1,1-0.2,1.5c-0.1,0.4-0.3,0.9-0.5,1.2
		C549.3,420.2,547.4,421.3,545.2,421.3"/>
	<path class="st23" d="M532.3,435.1c-2.4,0-4.4-2-4.4-4.4c0-2.4,2-4.4,4.4-4.4c2.4,0,4.4,2,4.4,4.4
		C536.7,433.2,534.7,435.1,532.3,435.1"/>
	<path class="st23" d="M532.3,426.4c-2.4,0-4.4,2-4.4,4.4c0,2.4,2,4.4,4.4,4.4c2.4,0,4.4-2,4.4-4.4
		C536.7,428.4,534.7,426.4,532.3,426.4 M532.3,436.5c-3.1,0-5.6-2.5-5.7-5.6v-0.3c0.1-3.1,2.6-5.6,5.7-5.6c1.2,0,2.3,0.4,3.2,1
		c0.4,0.3,0.7,0.5,1,0.9c0.9,1,1.5,2.4,1.5,3.9c0,0.3,0,0.6-0.1,0.9c-0.1,0.4-0.2,0.9-0.4,1.3c-0.2,0.5-0.5,0.9-0.8,1.4
		c-0.3,0.4-0.6,0.7-0.9,1C534.9,436,533.6,436.5,532.3,436.5 M537.3,452.2c-2.4,0-4.4-2-4.4-4.4c0-2.4,2-4.4,4.4-4.4
		c2.4,0,4.4,2,4.4,4.4C541.7,450.2,539.8,452.2,537.3,452.2"/>
	<path class="st23" d="M537.3,443.4c-2.4,0-4.4,2-4.4,4.4c0,2.4,2,4.4,4.4,4.4c2.4,0,4.4-2,4.4-4.4
		C541.7,445.4,539.8,443.4,537.3,443.4 M537.3,453.5c-3.2,0-5.7-2.6-5.7-5.7c0-3.2,2.6-5.7,5.7-5.7c0.3,0,0.5,0,0.7,0
		c0.4,0.1,0.9,0.2,1.3,0.3c2.1,0.8,3.7,2.9,3.7,5.3c0,0.5-0.1,1-0.2,1.5c-0.1,0.4-0.3,0.9-0.5,1.2
		C541.4,452.3,539.5,453.5,537.3,453.5 M557.5,460.4c-2.4,0-4.4-2-4.4-4.4c0-2.4,2-4.4,4.4-4.4c2.4,0,4.4,2,4.4,4.4
		C561.9,458.4,559.9,460.4,557.5,460.4"/>
	<path class="st23" d="M557.5,451.6c-2.4,0-4.4,2-4.4,4.4c0,2.4,2,4.4,4.4,4.4s4.4-2,4.4-4.4C561.9,453.6,559.9,451.6,557.5,451.6
		 M557.5,461.7c-3.2,0-5.7-2.6-5.7-5.7c0-0.6,0.1-1.1,0.2-1.6c0.1-0.4,0.3-0.8,0.5-1.2c0.2-0.3,0.4-0.6,0.6-0.9
		c0.3-0.3,0.6-0.6,1-0.9c0.3-0.2,0.5-0.4,0.8-0.5c0.4-0.2,0.8-0.3,1.3-0.4c0.4-0.1,0.8-0.1,1.3-0.1c0.5,0,1,0.1,1.5,0.2
		c0.4,0.1,0.9,0.3,1.2,0.5c1.8,1,3,2.9,3,5C563.2,459.1,560.7,461.7,557.5,461.7"/>
	<path class="st23" d="M579.3,436.9h-4.2c0,15.4-12.5,27.8-27.9,27.9c-15.4,0-27.8-12.4-27.9-27.9c0-15.4,12.5-27.8,27.9-27.9
		c15.4,0,27.8,12.5,27.9,27.9h8.5c0-20.1-16.2-36.4-36.4-36.4c-20.1,0-36.4,16.2-36.4,36.4c0,20.1,16.2,36.4,36.4,36.4
		c20.1,0,36.4-16.2,36.4-36.4H579.3"/>
	<path class="st23" d="M567.6,449.1c-0.2,0-0.5,0-0.7,0c-0.4-0.1-0.9-0.2-1.3-0.3c-0.4-0.2-0.8-0.4-1.2-0.6s-0.7-0.5-1-0.9
		c-0.9-1-1.5-2.4-1.5-3.9c0-3.2,2.6-5.7,5.7-5.7s5.7,2.6,5.7,5.7c0,0.5-0.1,1-0.2,1.5c-0.1,0.4-0.3,0.9-0.5,1.2
		C571.6,447.9,569.8,449.1,567.6,449.1"/>
	<path class="st23" d="M549.6,442.2c-0.2,0-0.5,0-0.7,0c-0.4-0.1-0.9-0.2-1.3-0.3c-0.4-0.2-0.8-0.4-1.2-0.6s-0.7-0.5-1-0.9
		c-0.9-1-1.5-2.4-1.5-3.9c0-3.2,2.6-5.7,5.7-5.7c3.2,0,5.7,2.6,5.7,5.7c0,0.5-0.1,1-0.2,1.5c-0.1,0.4-0.3,0.9-0.5,1.2
		C553.6,441,551.8,442.2,549.6,442.2"/>
	<path class="st23" d="M563,440.3l-15.5-19.5l0.4-2.3l16.3,20.4C563.8,439.4,563.4,439.8,563,440.3"/>
	<path class="st23" d="M548.8,437.6l-3.8-17.9l1.1-1.1l4,18.8C549.6,437.4,549.2,437.5,548.8,437.6"/>
</g>
<g>
	<path class="st24" d="M404.5,644l-2.6-2.5c0.3-0.2,0.5-0.5,0.8-0.8l2.1,2.1L404.5,644"/>
	<path class="st24" d="M416,655.3l-10.6-10.4l0.3-1.2l11.1,10.9C416.5,654.8,416.2,655,416,655.3"/>
	<path class="st24" d="M415.1,657l-7.8-3.1c0.2-0.3,0.3-0.7,0.4-1l7.9,3.1C415.3,656.3,415.2,656.7,415.1,657"/>
	<path class="st24" d="M404.8,647.4c-0.3-0.1-0.7-0.2-1-0.3l0.8-3.1l0.3-1.2l0.6-2.6l0.3-1.1l2.2-9.2c0.3,0.1,0.7,0.2,1.1,0.3
		l-2.2,9.2l-0.3,1.1l-0.8,3.2l-0.3,1.2L404.8,647.4"/>
	<path class="st24" d="M409,633.2c-0.2,0-0.4,0-0.6,0c-0.4-0.1-0.8-0.1-1.2-0.3c-0.4-0.1-0.8-0.3-1.1-0.6c-0.3-0.2-0.7-0.5-0.9-0.8
		c-0.9-0.9-1.4-2.2-1.4-3.6c0-2.9,2.4-5.3,5.3-5.3s5.3,2.4,5.3,5.3c0,0.5-0.1,1-0.2,1.4c-0.1,0.4-0.3,0.8-0.5,1.1
		C412.7,632.1,411,633.2,409,633.2"/>
	<path class="st24" d="M399.1,641.4c-2,0-3.5-1.6-3.6-3.6c0-2,1.6-3.5,3.6-3.6c2,0,3.5,1.6,3.6,3.6
		C402.6,639.8,401,641.4,399.1,641.4"/>
	<path class="st24" d="M399,634.3c-2,0-3.5,1.6-3.6,3.6c0,2,1.6,3.5,3.6,3.5s3.5-1.6,3.6-3.5C402.6,635.9,401,634.3,399,634.3"/>
	<path class="st24" d="M399,642.5c-2.5,0-4.6-2-4.6-4.5v-0.2c0.1-2.5,2.1-4.5,4.6-4.5c1,0,1.8,0.3,2.6,0.8c0.3,0.2,0.6,0.4,0.8,0.7
		c0.8,0.8,1.2,1.9,1.2,3.1c0,0.2,0,0.5-0.1,0.7c-0.1,0.4-0.1,0.7-0.3,1c-0.2,0.4-0.4,0.8-0.6,1.1c-0.2,0.3-0.5,0.5-0.8,0.8
		C401.1,642.1,400.1,642.5,399,642.5"/>
	<path class="st24" d="M403.4,645.8c-3.2,0-5.8,2.6-5.8,5.8c0,3.2,2.6,5.8,5.8,5.8c3.2,0,5.8-2.6,5.8-5.8
		C409.2,648.4,406.6,645.8,403.4,645.8"/>
	<path class="st24" d="M419.5,661.9c-2,0-3.5-1.6-3.6-3.6c0-2,1.6-3.5,3.6-3.6c2,0,3.5,1.6,3.5,3.6
		C423.1,660.3,421.5,661.9,419.5,661.9"/>
	<path class="st24" d="M419.5,654.8c-2,0-3.5,1.6-3.6,3.6c0,2,1.6,3.5,3.6,3.5s3.5-1.6,3.5-3.5C423.1,656.4,421.5,654.8,419.5,654.8
		 M419.5,663c-2.6,0-4.6-2.1-4.6-4.6c0-0.5,0.1-0.9,0.2-1.3c0.1-0.4,0.3-0.7,0.4-1c0.1-0.3,0.3-0.5,0.5-0.7c0.2-0.3,0.5-0.5,0.8-0.7
		c0.2-0.1,0.4-0.3,0.7-0.4c0.3-0.2,0.7-0.3,1-0.4c0.3-0.1,0.7-0.1,1-0.1c0.4,0,0.8,0.1,1.2,0.2c0.4,0.1,0.7,0.2,1,0.4
		c1.4,0.8,2.4,2.3,2.4,4.1C424.1,660.9,422.1,663,419.5,663"/>
	<path class="st24" d="M437.2,642.9h-3.4c0,12.5-10.2,22.6-22.6,22.6c-12.5,0-22.6-10.1-22.6-22.6c0-12.5,10.2-22.6,22.6-22.6
		c12.5,0,22.6,10.2,22.6,22.6h6.9c0-16.3-13.2-29.5-29.5-29.5s-29.5,13.2-29.5,29.5s13.2,29.5,29.5,29.5c16.3,0,29.5-13.2,29.5-29.5
		H437.2"/>
	<path class="st24" d="M422.2,634.7c-3.7,0-6.7,3-6.7,6.7c0,3.7,3,6.7,6.7,6.7s6.7-3,6.7-6.7C429,637.7,426,634.7,422.2,634.7"/>
	<path class="st24" d="M420.6,656.5c-0.3-0.1-0.7-0.1-1.1-0.1l0.4-3.2l0.2-1.2l0.3-2.7l0.1-1.1l1.1-9.4c0.3,0.1,0.7,0.1,1.1,0.1
		l-1.1,9.4l-0.1,1.1l-0.4,3.3l-0.2,1.2L420.6,656.5"/>
</g>
<g>
	<path class="st16" d="M478.6,632.7l-5.7-2.3c0.1-0.2,0.2-0.5,0.3-0.7l5.7,2.3C478.8,632.2,478.6,632.4,478.6,632.7"/>
	<path class="st16" d="M471.1,625.7c-0.2-0.1-0.5-0.2-0.8-0.2l0.5-2.2l0.2-0.9l0.5-1.9l0.2-0.8l1.6-6.7c0.2,0.1,0.5,0.2,0.8,0.2
		l-1.6,6.7l-0.2,0.8l-0.6,2.3l-0.2,0.9L471.1,625.7"/>
	<path class="st16" d="M474.6,612.5c-1.4,0-2.6-1.1-2.6-2.6c0-1.4,1.1-2.6,2.6-2.6c1.4,0,2.6,1.2,2.6,2.6
		C477.1,611.3,476,612.5,474.6,612.5"/>
	<path class="st16" d="M474.6,607.4c-1.4,0-2.6,1.1-2.6,2.6c0,1.4,1.1,2.6,2.6,2.6c1.4,0,2.6-1.1,2.6-2.6
		C477.1,608.5,476,607.4,474.6,607.4"/>
	<path class="st16" d="M474.6,613.3c-0.1,0-0.3,0-0.4,0c-0.3,0-0.5-0.1-0.8-0.2c-0.2-0.1-0.5-0.2-0.7-0.4c-0.2-0.1-0.4-0.3-0.6-0.5
		c-0.6-0.6-0.9-1.4-0.9-2.3c0-1.9,1.5-3.4,3.4-3.4s3.4,1.5,3.4,3.4c0,0.3,0,0.6-0.1,0.9c-0.1,0.3-0.2,0.5-0.3,0.7
		C476.9,612.6,475.8,613.3,474.6,613.3"/>
	<path class="st16" d="M469.9,631.4c-1.4,0-2.6-1.2-2.6-2.6c0-1.4,1.2-2.6,2.6-2.6c1.4,0,2.6,1.2,2.6,2.6
		C472.5,630.2,471.4,631.4,469.9,631.4"/>
	<path class="st16" d="M469.9,626.2c-1.4,0-2.6,1.2-2.6,2.6c0,1.4,1.2,2.6,2.6,2.6s2.6-1.1,2.6-2.6
		C472.5,627.4,471.4,626.2,469.9,626.2 M469.9,632.2c-1.9,0-3.4-1.5-3.4-3.4c0-1.9,1.5-3.4,3.4-3.4c0.1,0,0.3,0,0.4,0
		c0.3,0,0.5,0.1,0.8,0.2c1.3,0.5,2.2,1.7,2.2,3.1c0,0.3,0,0.6-0.1,0.9c-0.1,0.3-0.2,0.5-0.3,0.7
		C472.3,631.5,471.2,632.2,469.9,632.2 M481.8,636.2c-1.4,0-2.6-1.2-2.6-2.6c0-1.4,1.2-2.6,2.6-2.6c1.4,0,2.6,1.1,2.6,2.6
		C484.3,635,483.2,636.2,481.8,636.2"/>
	<path class="st16" d="M481.8,631.1c-1.4,0-2.6,1.2-2.6,2.6c0,1.4,1.2,2.6,2.6,2.6s2.6-1.1,2.6-2.6
		C484.3,632.2,483.2,631.1,481.8,631.1 M481.8,637c-1.9,0-3.4-1.5-3.4-3.4c0-0.3,0-0.6,0.1-1c0.1-0.3,0.2-0.5,0.3-0.7
		c0.1-0.2,0.2-0.4,0.4-0.5c0.2-0.2,0.4-0.4,0.6-0.5c0.1-0.1,0.3-0.2,0.5-0.3c0.2-0.1,0.5-0.2,0.7-0.3c0.2-0.1,0.5-0.1,0.7-0.1
		c0.3,0,0.6,0,0.9,0.1c0.3,0.1,0.5,0.2,0.7,0.3c1,0.6,1.8,1.7,1.8,3C485.1,635.5,483.6,637,481.8,637"/>
	<path class="st16" d="M494.6,622.4h-2.5c0,9-7.3,16.3-16.4,16.4c-9,0-16.3-7.3-16.4-16.4c0-9,7.3-16.3,16.4-16.4
		c9,0,16.3,7.3,16.4,16.4h5c0-11.8-9.5-21.4-21.4-21.4c-11.8,0-21.4,9.5-21.4,21.4s9.5,21.4,21.4,21.4c11.8,0,21.4-9.5,21.4-21.4
		H494.6"/>
</g>
<g>
	<path class="st25" d="M446.6,625.3l-2.6-9l0.2-1l2.7,9.4C446.8,624.9,446.7,625.1,446.6,625.3"/>
	<path class="st25" d="M445.7,625.5l-2.6-1c0.1-0.1,0.1-0.2,0.1-0.3l2.6,1C445.8,625.2,445.8,625.3,445.7,625.5"/>
	<path class="st25" d="M442.4,622.3c-0.1,0-0.2-0.1-0.3-0.1l0.2-1l0.1-0.4l0.2-0.9l0.1-0.3l0.7-3c0.1,0,0.2,0.1,0.3,0.1l-0.7,3
		l-0.1,0.3l-0.3,1l-0.1,0.4L442.4,622.3"/>
	<path class="st25" d="M444,618.8c-0.1,0-0.2,0-0.2,0c-0.2,0-0.3-0.1-0.4-0.1c-0.1-0.1-0.3-0.1-0.4-0.2c-0.1-0.1-0.2-0.2-0.3-0.3
		c-0.3-0.4-0.5-0.8-0.5-1.3c0-1.1,0.9-2,2-2c1.1,0,2,0.9,2,2c0,0.2,0,0.4-0.1,0.5c0,0.2-0.1,0.3-0.2,0.4
		C445.4,618.4,444.8,618.8,444,618.8"/>
	<path class="st25" d="M441.8,624.9c-0.6,0-1.2-0.5-1.2-1.2c0-0.6,0.5-1.2,1.2-1.2c0.6,0,1.2,0.5,1.2,1.2
		C443,624.4,442.5,624.9,441.8,624.9"/>
	<path class="st25" d="M441.8,622.5c-0.6,0-1.2,0.5-1.2,1.2c0,0.6,0.5,1.2,1.2,1.2s1.2-0.5,1.2-1.2
		C443,623.1,442.5,622.5,441.8,622.5 M441.8,625.2c-0.8,0-1.5-0.7-1.5-1.5s0.7-1.5,1.5-1.5c0.1,0,0.1,0,0.2,0c0.1,0,0.2,0,0.3,0.1
		c0.6,0.2,1,0.8,1,1.4c0,0.1,0,0.3-0.1,0.4c0,0.1-0.1,0.2-0.1,0.3C442.9,624.9,442.4,625.2,441.8,625.2 M447.2,627.1
		c-0.6,0-1.2-0.5-1.2-1.2c0-0.6,0.5-1.2,1.2-1.2c0.6,0,1.2,0.5,1.2,1.2C448.4,626.5,447.8,627.1,447.2,627.1"/>
	<path class="st25" d="M447.2,624.7c-0.6,0-1.2,0.5-1.2,1.2c0,0.6,0.5,1.2,1.2,1.2c0.6,0,1.2-0.5,1.2-1.2
		C448.4,625.3,447.8,624.7,447.2,624.7 M447.2,627.4c-0.8,0-1.5-0.7-1.5-1.5c0-0.2,0-0.3,0.1-0.4c0-0.1,0.1-0.2,0.1-0.3
		c0-0.1,0.1-0.2,0.2-0.2c0.1-0.1,0.2-0.2,0.3-0.2c0.1,0,0.1-0.1,0.2-0.1c0.1-0.1,0.2-0.1,0.3-0.1c0.1,0,0.2,0,0.3,0
		c0.1,0,0.3,0,0.4,0.1c0.1,0,0.2,0.1,0.3,0.1c0.5,0.3,0.8,0.8,0.8,1.3C448.7,626.7,448,627.4,447.2,627.4"/>
	<path class="st25" d="M453,620.8h-1.1c0,4.1-3.3,7.4-7.4,7.4c-4.1,0-7.4-3.3-7.4-7.4c0-4.1,3.3-7.4,7.4-7.4c4.1,0,7.4,3.3,7.4,7.4
		h2.3c0-5.3-4.3-9.7-9.7-9.7c-5.4,0-9.7,4.3-9.7,9.7s4.3,9.7,9.7,9.7c5.3,0,9.7-4.3,9.7-9.7H453"/>
</g>
<g>
	<path class="st26" d="M180.2,518.6l-31.4,79.5l3.2,1.3l31.5-79.5"/>
	<path class="st26" d="M183.7,517.6l-64.9-26.5l-1.3,3.3l64.8,26.4"/>
	<path class="st26" d="M132.2,547.2l51.6-26.5l-1.6-3.1l-51.6,26.5"/>
	<path class="st26" d="M100.7,561.7l45.3,36.4l2.2-2.7L102.9,559"/>
	<path class="st26" d="M120,490.8l11.3,53.3l-2.5,0.3l-11.3-53.3"/>
	<path class="st26" d="M144.6,545.7c0,7.3-5.9,13.3-13.2,13.3c-7.3,0-13.3-5.9-13.3-13.3s5.9-13.3,13.3-13.3
		C138.8,532.4,144.6,538.4,144.6,545.7"/>
	<path class="st26" d="M196.9,523c0,9.9-8,18.1-18.1,18.1c-9.9,0-18.1-8-18.1-18.1s8-18.1,18.1-18.1
		C188.9,504.9,196.9,513.1,196.9,523"/>
	<path class="st26" d="M131.4,492.3c0,7.3-5.9,13.3-13.3,13.3c-7.3,0-13.2-5.9-13.2-13.3s5.9-13.3,13.2-13.3
		C125.4,479,131.4,485,131.4,492.3"/>
	<path class="st26" d="M131.4,492.7h-1.8c0,6.3-5.1,11.5-11.5,11.5c-6.3,0-11.5-5.2-11.5-11.5s5.1-11.5,11.5-11.5
		c6.3,0,11.5,5.2,11.5,11.5h3.5c0-8.3-6.7-15-15-15s-15,6.7-15,15s6.7,15,15,15s15-6.7,15-15H131.4"/>
	<path class="st26" d="M110.4,556.1c0,6.1-4.9,11.1-11.1,11.1c-6.1,0-11.1-4.9-11.1-11.1c0-6.2,4.9-11.1,11.1-11.1
		S110.4,549.9,110.4,556.1"/>
	<path class="st26" d="M166.6,599.4c0,8.8-7.1,16-16,16c-8.8,0-16-7.1-16-16c0-8.8,7.1-16,16-16
		C159.4,583.4,166.6,590.6,166.6,599.4"/>
	<circle class="st27" cx="137.1" cy="543.6" r="79.6"/>
</g>
<g>
	<path class="st28" d="M370.1,646l-0.8-0.8c0.1-0.1,0.2-0.1,0.2-0.2l0.6,0.6L370.1,646"/>
	<path class="st28" d="M373.6,649.4l-3.2-3.1l0.1-0.4l3.3,3.3C373.7,649.2,373.6,649.3,373.6,649.4"/>
	<path class="st28" d="M373.3,649.9l-2.4-0.9c0.1-0.1,0.1-0.2,0.1-0.3l2.4,0.9C373.4,649.7,373.3,649.8,373.3,649.9"/>
	<path class="st28" d="M370.2,647c-0.1,0-0.2-0.1-0.3-0.1l0.2-0.9l0.1-0.4l0.2-0.8l0.1-0.3l0.7-2.8c0.1,0,0.2,0.1,0.3,0.1l-0.7,2.8
		l-0.1,0.3l-0.2,1l-0.1,0.4L370.2,647"/>
	<path class="st28" d="M371.6,641.5c-0.6,0-1.1-0.5-1.1-1.1c0-0.6,0.5-1.1,1.1-1.1c0.6,0,1.1,0.5,1.1,1.1
		C372.7,641,372.2,641.5,371.6,641.5"/>
	<path class="st28" d="M371.6,639.4c-0.6,0-1.1,0.5-1.1,1.1c0,0.6,0.5,1.1,1.1,1.1c0.6,0,1.1-0.5,1.1-1.1
		C372.7,639.9,372.2,639.4,371.6,639.4"/>
	<path class="st28" d="M371.6,641.8c-0.1,0-0.1,0-0.2,0c-0.1,0-0.2,0-0.3-0.1c-0.1,0-0.2-0.1-0.3-0.1c-0.1-0.1-0.2-0.1-0.2-0.2
		c-0.2-0.2-0.4-0.6-0.4-0.9c0-0.8,0.6-1.4,1.4-1.4c0.8,0,1.4,0.6,1.4,1.4c0,0.1,0,0.3-0.1,0.4c0,0.1-0.1,0.2-0.1,0.3
		C372.6,641.6,372.1,641.8,371.6,641.8"/>
	<path class="st28" d="M368.5,645.2c-0.6,0-1.1-0.5-1.1-1.1c0-0.6,0.5-1.1,1.1-1.1c0.6,0,1.1,0.5,1.1,1.1
		C369.5,644.7,369.1,645.2,368.5,645.2"/>
	<path class="st28" d="M368.5,643.1c-0.6,0-1.1,0.5-1.1,1.1c0,0.6,0.5,1.1,1.1,1.1s1.1-0.5,1.1-1.1
		C369.5,643.6,369.1,643.1,368.5,643.1 M368.5,645.5c-0.8,0-1.4-0.6-1.4-1.4v-0.1c0-0.8,0.6-1.4,1.4-1.4c0.3,0,0.6,0.1,0.8,0.2
		c0.1,0.1,0.2,0.1,0.2,0.2c0.2,0.2,0.4,0.6,0.4,0.9c0,0.1,0,0.1,0,0.2c0,0.1,0,0.2-0.1,0.3c0,0.1-0.1,0.2-0.2,0.3
		c-0.1,0.1-0.1,0.2-0.2,0.2C369.1,645.4,368.8,645.5,368.5,645.5 M369.7,649.3c-0.6,0-1.1-0.5-1.1-1.1c0-0.6,0.5-1.1,1.1-1.1
		c0.6,0,1.1,0.5,1.1,1.1C370.8,648.9,370.3,649.3,369.7,649.3"/>
	<path class="st28" d="M369.7,647.2c-0.6,0-1.1,0.5-1.1,1.1c0,0.6,0.5,1.1,1.1,1.1s1.1-0.5,1.1-1.1
		C370.8,647.7,370.3,647.2,369.7,647.2 M369.7,649.7c-0.8,0-1.4-0.6-1.4-1.4c0-0.8,0.6-1.4,1.4-1.4c0.1,0,0.1,0,0.2,0
		c0.1,0,0.2,0,0.3,0.1c0.5,0.2,0.9,0.7,0.9,1.3c0,0.1,0,0.2,0,0.4c0,0.1-0.1,0.2-0.1,0.3C370.7,649.4,370.2,649.7,369.7,649.7
		 M374.6,651.3c-0.6,0-1.1-0.5-1.1-1.1c0-0.6,0.5-1.1,1.1-1.1c0.6,0,1.1,0.5,1.1,1.1C375.7,650.9,375.2,651.3,374.6,651.3"/>
	<path class="st28" d="M374.6,649.2c-0.6,0-1.1,0.5-1.1,1.1c0,0.6,0.5,1.1,1.1,1.1c0.6,0,1.1-0.5,1.1-1.1S375.2,649.2,374.6,649.2
		 M374.6,651.7c-0.8,0-1.4-0.6-1.4-1.4c0-0.1,0-0.3,0.1-0.4c0-0.1,0.1-0.2,0.1-0.3c0-0.1,0.1-0.1,0.2-0.2c0.1-0.1,0.2-0.2,0.2-0.2
		c0.1,0,0.1-0.1,0.2-0.1c0.1,0,0.2-0.1,0.3-0.1c0.1,0,0.2,0,0.3,0c0.1,0,0.2,0,0.4,0c0.1,0,0.2,0.1,0.3,0.1c0.4,0.2,0.7,0.7,0.7,1.2
		C376,651,375.4,651.7,374.6,651.7"/>
	<path class="st28" d="M379.9,645.6h-1c0,3.7-3,6.8-6.8,6.8c-3.7,0-6.8-3-6.8-6.8c0-3.7,3-6.8,6.8-6.8c3.7,0,6.8,3,6.8,6.8h2.1
		c0-4.9-4-8.8-8.8-8.8c-4.9,0-8.8,4-8.8,8.8s4,8.8,8.8,8.8c4.9,0,8.8-4,8.8-8.8H379.9"/>
	<path class="st28" d="M374.8,647.3c0,0-0.1,0-0.1,0c-0.1,0-0.2,0-0.2-0.1c-0.1,0-0.1-0.1-0.2-0.1c-0.1,0-0.1-0.1-0.2-0.2
		c-0.2-0.2-0.3-0.4-0.3-0.7c0-0.6,0.5-1,1-1s1,0.5,1,1c0,0.1,0,0.2,0,0.3c0,0.1-0.1,0.2-0.1,0.2
		C375.5,647.1,375.1,647.3,374.8,647.3"/>
	<path class="st28" d="M372.2,645.5C372.1,645.5,372.1,645.5,372.2,645.5c-0.2,0-0.2,0-0.3,0c-0.1,0-0.1,0-0.2-0.1
		c0,0-0.1-0.1-0.1-0.1c-0.1-0.1-0.2-0.3-0.2-0.5c0-0.4,0.3-0.8,0.8-0.8s0.8,0.3,0.8,0.8c0,0.1,0,0.1,0,0.2c0,0.1,0,0.1-0.1,0.2
		C372.7,645.4,372.5,645.5,372.2,645.5"/>
	<path class="st28" d="M374.7,650.8c-0.1,0-0.2,0-0.3,0l0.1-1l0-0.4l0.1-0.8l0-0.3l0.2-2.8c0.1,0,0.2,0,0.3,0l-0.2,2.8l0,0.3l-0.1,1
		l0,0.4L374.7,650.8"/>
	<path class="st28" d="M371.9,645.1l-0.3-4.4l0.3-0.2l0.3,4.7C372.1,645.1,372,645.1,371.9,645.1"/>
</g>
<g>
	<path class="st29" d="M512.5,610.5l-6.1-6l0.2-0.7l6.4,6.3C512.8,610.2,512.6,610.3,512.5,610.5"/>
	<path class="st29" d="M504.6,604.7c-0.1-0.1-0.3-0.3-0.5-0.4l1.1-1.5l0.4-0.6l0.9-1.2l0.4-0.5l3.3-4.4c0.2,0.1,0.3,0.3,0.5,0.4
		l-3.3,4.4l-0.4,0.5l-1.1,1.5l-0.4,0.6L504.6,604.7"/>
	<path class="st29" d="M510.8,598.7c-0.1,0-0.2,0-0.3,0c-0.2,0-0.4-0.1-0.6-0.1c-0.2-0.1-0.4-0.2-0.6-0.3c-0.2-0.1-0.3-0.3-0.5-0.4
		c-0.4-0.5-0.7-1.1-0.7-1.8c0-1.5,1.2-2.7,2.7-2.7s2.7,1.2,2.7,2.7c0,0.2,0,0.5-0.1,0.7c-0.1,0.2-0.1,0.4-0.2,0.6
		C512.7,598.1,511.8,598.7,510.8,598.7"/>
	<path class="st29" d="M505.5,606.8c-1.8,0-3.3-1.5-3.4-3.3v-0.2c0-1.8,1.5-3.3,3.4-3.3c0.7,0,1.3,0.2,1.9,0.6
		c0.2,0.2,0.4,0.3,0.6,0.5c0.6,0.6,0.9,1.4,0.9,2.3c0,0.2,0,0.3,0,0.5c0,0.3-0.1,0.5-0.2,0.8c-0.1,0.3-0.3,0.6-0.5,0.8
		c-0.2,0.2-0.3,0.4-0.6,0.6C507,606.5,506.3,606.8,505.5,606.8"/>
	<path class="st29" d="M515.5,601.3c-1.1,0-2,0.9-2.1,2.1c0,1.1,0.9,2,2.1,2c1.1,0,2-0.9,2.1-2C517.6,602.2,516.7,601.3,515.5,601.3
		"/>
	<path class="st29" d="M514.5,614.3c-1.1,0-2-0.9-2.1-2.1c0-1.1,0.9-2,2.1-2.1c1.1,0,2,0.9,2,2.1
		C516.6,613.3,515.7,614.3,514.5,614.3"/>
	<path class="st29" d="M514.5,610.2c-1.1,0-2,0.9-2.1,2.1c0,1.1,0.9,2,2.1,2s2-0.9,2-2C516.6,611.1,515.7,610.2,514.5,610.2
		 M514.5,614.9c-1.5,0-2.7-1.2-2.7-2.7c0-0.3,0-0.5,0.1-0.8c0.1-0.2,0.1-0.4,0.2-0.6c0.1-0.1,0.2-0.3,0.3-0.4
		c0.1-0.2,0.3-0.3,0.5-0.4c0.1-0.1,0.2-0.2,0.4-0.2c0.2-0.1,0.4-0.2,0.6-0.2c0.2,0,0.4-0.1,0.6-0.1c0.2,0,0.5,0,0.7,0.1
		c0.2,0.1,0.4,0.1,0.6,0.2c0.8,0.5,1.4,1.3,1.4,2.4C517.2,613.7,516,614.9,514.5,614.9"/>
	<path class="st29" d="M524.7,603.3h-2c0,7.2-5.9,13-13,13c-7.2,0-13-5.8-13-13c0-7.2,5.9-13,13-13c7.2,0,13,5.9,13,13h4
		c0-9.4-7.6-17-17-17s-17,7.6-17,17c0,9.4,7.6,17,17,17c9.4,0,17-7.6,17-17H524.7"/>
	<path class="st29" d="M504.6,603.8c0-0.2,0-0.4,0-0.6l1.8,0l0.7,0l1.5,0l0.6,0l5.5-0.1c0,0.2,0,0.4,0,0.6l-5.5,0.1l-0.6,0l-1.9,0
		l-0.7,0L504.6,603.8"/>
</g>
<g>
	<path class="st30" d="M229.1,570.8l-1.1-1.1c0.1-0.1,0.2-0.2,0.3-0.3l0.9,0.9L229.1,570.8"/>
	<path class="st30" d="M234,575.7l-4.6-4.5l0.1-0.5l4.8,4.7C234.2,575.5,234.1,575.6,234,575.7"/>
	<path class="st30" d="M233.6,576.4l-3.4-1.4c0.1-0.1,0.1-0.3,0.2-0.4l3.4,1.4C233.7,576.1,233.7,576.3,233.6,576.4"/>
	<path class="st30" d="M229.2,572.2c-0.1-0.1-0.3-0.1-0.5-0.1l0.3-1.3l0.1-0.5l0.3-1.1l0.1-0.5l1-4c0.1,0.1,0.3,0.1,0.5,0.1l-1,4
		l-0.1,0.5l-0.3,1.4l-0.1,0.5L229.2,572.2"/>
	<path class="st30" d="M231.2,564.3c-0.8,0-1.5-0.7-1.5-1.5c0-0.8,0.7-1.5,1.5-1.5c0.8,0,1.5,0.7,1.5,1.5
		C232.8,563.7,232.1,564.3,231.2,564.3"/>
	<path class="st30" d="M231.2,561.3c-0.8,0-1.5,0.7-1.5,1.5c0,0.8,0.7,1.5,1.5,1.5c0.8,0,1.5-0.7,1.5-1.5
		C232.8,562,232.1,561.3,231.2,561.3"/>
	<path class="st30" d="M231.2,564.8c-0.1,0-0.2,0-0.2,0c-0.2,0-0.3-0.1-0.5-0.1c-0.1-0.1-0.3-0.1-0.4-0.2s-0.3-0.2-0.4-0.3
		c-0.3-0.4-0.5-0.8-0.5-1.4c0-1.1,0.9-2,2-2c1.1,0,2,0.9,2,2c0,0.2,0,0.4-0.1,0.5c0,0.2-0.1,0.3-0.2,0.4
		C232.6,564.4,232,564.8,231.2,564.8"/>
	<path class="st30" d="M226.7,569.7c-0.8,0-1.5-0.7-1.5-1.5c0-0.8,0.7-1.5,1.5-1.5c0.8,0,1.5,0.7,1.5,1.5
		C228.2,569,227.5,569.7,226.7,569.7"/>
	<path class="st30" d="M226.7,566.6c-0.8,0-1.5,0.7-1.5,1.5c0,0.8,0.7,1.5,1.5,1.5s1.5-0.7,1.5-1.5
		C228.2,567.3,227.5,566.6,226.7,566.6 M226.7,570.1c-1.1,0-2-0.9-2-2v-0.1c0-1.1,0.9-2,2-2c0.4,0,0.8,0.1,1.1,0.3
		c0.1,0.1,0.3,0.2,0.4,0.3c0.3,0.4,0.5,0.8,0.5,1.4c0,0.1,0,0.2,0,0.3c0,0.2-0.1,0.3-0.1,0.5c-0.1,0.2-0.2,0.3-0.3,0.5
		c-0.1,0.1-0.2,0.2-0.3,0.3C227.6,570,227.2,570.1,226.7,570.1 M228.5,575.6c-0.8,0-1.5-0.7-1.5-1.5c0-0.8,0.7-1.5,1.5-1.5
		c0.8,0,1.5,0.7,1.5,1.5C230,575,229.3,575.6,228.5,575.6"/>
	<path class="st30" d="M228.5,572.6c-0.8,0-1.5,0.7-1.5,1.5c0,0.8,0.7,1.5,1.5,1.5s1.5-0.7,1.5-1.5
		C230,573.3,229.3,572.6,228.5,572.6 M228.5,576.1c-1.1,0-2-0.9-2-2c0-1.1,0.9-2,2-2c0.1,0,0.2,0,0.3,0c0.2,0,0.3,0.1,0.5,0.1
		c0.8,0.3,1.3,1,1.3,1.9c0,0.2,0,0.4-0.1,0.5c0,0.2-0.1,0.3-0.2,0.4C229.9,575.7,229.2,576.1,228.5,576.1 M235.5,578.5
		c-0.8,0-1.5-0.7-1.5-1.5c0-0.8,0.7-1.5,1.5-1.5c0.8,0,1.5,0.7,1.5,1.5C237.1,577.8,236.4,578.5,235.5,578.5"/>
	<path class="st30" d="M235.5,575.4c-0.8,0-1.5,0.7-1.5,1.5c0,0.8,0.7,1.5,1.5,1.5s1.5-0.7,1.5-1.5
		C237.1,576.1,236.4,575.5,235.5,575.4 M235.5,579c-1.1,0-2-0.9-2-2c0-0.2,0-0.4,0.1-0.6c0-0.2,0.1-0.3,0.2-0.4
		c0.1-0.1,0.1-0.2,0.2-0.3c0.1-0.1,0.2-0.2,0.3-0.3c0.1-0.1,0.2-0.1,0.3-0.2c0.1-0.1,0.3-0.1,0.4-0.2c0.1,0,0.3-0.1,0.4-0.1
		c0.2,0,0.4,0,0.5,0.1c0.2,0,0.3,0.1,0.4,0.2c0.6,0.3,1.1,1,1.1,1.8C237.6,578.1,236.7,579,235.5,579"/>
	<path class="st30" d="M243.2,570.3h-1.5c0,5.4-4.4,9.8-9.8,9.8c-5.4,0-9.8-4.4-9.8-9.8c0-5.4,4.4-9.8,9.8-9.8
		c5.4,0,9.8,4.4,9.8,9.8h3c0-7-5.7-12.8-12.8-12.8c-7.1,0-12.8,5.7-12.8,12.8c0,7.1,5.7,12.8,12.8,12.8c7,0,12.8-5.7,12.8-12.8
		H243.2"/>
	<path class="st30" d="M233.2,571.7c-0.1,0-0.2,0-0.2,0c-0.2,0-0.3-0.1-0.5-0.1c-0.1-0.1-0.3-0.1-0.4-0.2s-0.3-0.2-0.4-0.3
		c-0.3-0.4-0.5-0.8-0.5-1.4c0-1.1,0.9-2,2-2c1.1,0,2,0.9,2,2c0,0.2,0,0.4-0.1,0.5c0,0.2-0.1,0.3-0.2,0.4
		C234.7,571.3,234,571.7,233.2,571.7"/>
	<path class="st30" d="M238.2,573.2c-0.1,0-0.2,0-0.2,0c-0.2,0-0.3-0.1-0.5-0.1c-0.1-0.1-0.3-0.1-0.4-0.2s-0.3-0.2-0.4-0.3
		c-0.3-0.4-0.5-0.8-0.5-1.4c0-1.1,0.9-2,2-2s2,0.9,2,2c0,0.2,0,0.4-0.1,0.5c0,0.2-0.1,0.3-0.2,0.4
		C239.6,572.7,239,573.2,238.2,573.2"/>
	<path class="st30" d="M228.8,574.5c-0.1-0.1-0.2-0.2-0.3-0.3l1-0.9l0.4-0.4l0.8-0.8l0.3-0.3l3-2.8c0.1,0.1,0.2,0.2,0.3,0.3l-3,2.8
		l-0.3,0.3l-1,1l-0.4,0.4L228.8,574.5"/>
	<path class="st30" d="M232.4,570.1c0-0.1,0.1-0.3,0.1-0.5l1.4,0.3l0.5,0.1l1.1,0.2l0.5,0.1l4,0.8c0,0.1-0.1,0.3-0.1,0.5l-4-0.8
		l-0.5-0.1l-1.4-0.3l-0.5-0.1L232.4,570.1"/>
</g>
<g>
	<path class="st31" d="M357.7,733l-0.7-0.7c0.1-0.1,0.1-0.1,0.2-0.2l0.6,0.6L357.7,733"/>
	<path class="st31" d="M360.8,736.1l-2.8-2.8l0.1-0.3l3,2.9C361,735.9,360.9,736,360.8,736.1"/>
	<path class="st31" d="M360.6,736.5l-2.1-0.8c0-0.1,0.1-0.2,0.1-0.3l2.1,0.8C360.6,736.3,360.6,736.4,360.6,736.5"/>
	<path class="st31" d="M357.8,733.9c-0.1,0-0.2-0.1-0.3-0.1l0.2-0.8l0.1-0.3l0.2-0.7l0.1-0.3l0.6-2.5c0.1,0,0.2,0.1,0.3,0.1
		l-0.6,2.5l-0.1,0.3l-0.2,0.9l-0.1,0.3L357.8,733.9"/>
	<path class="st31" d="M359.1,729c-0.5,0-1-0.4-1-1c0-0.5,0.4-1,1-1c0.5,0,1,0.4,1,1C360,728.6,359.6,729,359.1,729"/>
	<path class="st31" d="M359.1,727.1c-0.5,0-1,0.4-1,1c0,0.5,0.4,1,1,1c0.5,0,1-0.4,1-1C360,727.5,359.6,727.1,359.1,727.1"/>
	<path class="st31" d="M359.1,729.3c-0.1,0-0.1,0-0.2,0c-0.1,0-0.2,0-0.3-0.1c-0.1,0-0.2-0.1-0.3-0.1s-0.2-0.1-0.2-0.2
		c-0.2-0.2-0.3-0.5-0.3-0.8c0-0.7,0.6-1.2,1.2-1.2s1.2,0.6,1.2,1.2c0,0.1,0,0.2,0,0.3c0,0.1-0.1,0.2-0.1,0.3
		C360,729,359.6,729.3,359.1,729.3"/>
	<path class="st31" d="M356.3,732.3c-0.5,0-1-0.4-1-1c0-0.5,0.4-1,1-1c0.5,0,1,0.4,1,1C357.2,731.9,356.8,732.3,356.3,732.3"/>
	<path class="st31" d="M356.3,730.4c-0.5,0-1,0.4-1,1c0,0.5,0.4,1,1,1c0.5,0,1-0.4,1-1C357.2,730.8,356.8,730.4,356.3,730.4
		 M356.3,732.6c-0.7,0-1.2-0.5-1.2-1.2v-0.1c0-0.7,0.6-1.2,1.2-1.2c0.3,0,0.5,0.1,0.7,0.2c0.1,0.1,0.2,0.1,0.2,0.2
		c0.2,0.2,0.3,0.5,0.3,0.8c0,0.1,0,0.1,0,0.2c0,0.1,0,0.2-0.1,0.3c0,0.1-0.1,0.2-0.2,0.3c-0.1,0.1-0.1,0.1-0.2,0.2
		C356.8,732.5,356.6,732.6,356.3,732.6 M357.4,736c-0.5,0-1-0.4-1-1c0-0.5,0.4-1,1-1c0.5,0,1,0.4,1,1
		C358.3,735.6,357.9,736,357.4,736"/>
	<path class="st31" d="M357.4,734.1c-0.5,0-1,0.4-1,1c0,0.5,0.4,1,1,1s1-0.4,1-1C358.3,734.6,357.9,734.1,357.4,734.1 M357.4,736.3
		c-0.7,0-1.2-0.6-1.2-1.2s0.6-1.2,1.2-1.2c0.1,0,0.1,0,0.2,0c0.1,0,0.2,0,0.3,0.1c0.5,0.2,0.8,0.6,0.8,1.2c0,0.1,0,0.2,0,0.3
		c0,0.1-0.1,0.2-0.1,0.3C358.3,736.1,357.8,736.3,357.4,736.3 M361.8,737.8c-0.5,0-1-0.4-1-1c0-0.5,0.4-1,1-1c0.5,0,1,0.4,1,1
		C362.7,737.4,362.3,737.8,361.8,737.8"/>
	<path class="st31" d="M361.8,735.9c-0.5,0-1,0.4-1,1c0,0.5,0.4,1,1,1s1-0.4,1-1S362.3,735.9,361.8,735.9 M361.8,738.1
		c-0.7,0-1.2-0.6-1.2-1.2c0-0.1,0-0.2,0.1-0.4c0-0.1,0.1-0.2,0.1-0.3c0-0.1,0.1-0.1,0.1-0.2c0.1-0.1,0.1-0.1,0.2-0.2
		c0.1,0,0.1-0.1,0.2-0.1c0.1,0,0.2-0.1,0.3-0.1c0.1,0,0.2,0,0.3,0c0.1,0,0.2,0,0.3,0c0.1,0,0.2,0.1,0.3,0.1c0.4,0.2,0.7,0.6,0.7,1.1
		C363,737.6,362.5,738.1,361.8,738.1"/>
	<path class="st31" d="M366.5,732.7h-0.9c0,3.4-2.7,6.1-6.1,6.1c-3.4,0-6.1-2.7-6.1-6.1c0-3.4,2.7-6.1,6.1-6.1
		c3.4,0,6.1,2.7,6.1,6.1h1.9c0-4.4-3.5-7.9-7.9-7.9s-7.9,3.5-7.9,7.9c0,4.4,3.5,7.9,7.9,7.9c4.4,0,7.9-3.5,7.9-7.9H366.5"/>
	<path class="st31" d="M361.9,734.2c0,0-0.1,0-0.1,0c-0.1,0-0.1,0-0.2-0.1c-0.1,0-0.1-0.1-0.2-0.1c-0.1,0-0.1-0.1-0.2-0.1
		c-0.2-0.2-0.2-0.4-0.2-0.6c0-0.5,0.4-0.9,0.9-0.9s0.9,0.4,0.9,0.9c0,0.1,0,0.2,0,0.2c0,0.1,0,0.1-0.1,0.2
		C362.6,734,362.3,734.2,361.9,734.2"/>
	<path class="st31" d="M359.6,732.6C359.6,732.6,359.5,732.6,359.6,732.6c-0.1,0-0.2,0-0.2,0c-0.1,0-0.1,0-0.1-0.1
		c0,0-0.1-0.1-0.1-0.1c-0.1-0.1-0.2-0.3-0.2-0.5c0-0.4,0.3-0.7,0.7-0.7s0.7,0.3,0.7,0.7c0,0.1,0,0.1,0,0.2c0,0.1,0,0.1-0.1,0.1
		C360.1,732.5,359.8,732.6,359.6,732.6"/>
	<path class="st31" d="M361.9,737.3c-0.1,0-0.2,0-0.3,0l0.1-0.9l0-0.3l0-0.7l0-0.3l0.2-2.5c0.1,0,0.2,0,0.3,0l-0.2,2.5l0,0.3
		l-0.1,0.9l0,0.3L361.9,737.3"/>
	<path class="st31" d="M359.3,732.2l-0.2-4l0.3-0.2l0.3,4.2C359.5,732.2,359.4,732.2,359.3,732.2"/>
</g>
<g>
	<path class="st32" d="M376.9,751.1l-2.1-0.8c0-0.1,0.1-0.2,0.1-0.3l2.1,0.9C377,750.9,377,751,376.9,751.1"/>
	<path class="st32" d="M374.1,748.5c-0.1,0-0.2-0.1-0.3-0.1l0.2-0.8l0.1-0.3l0.2-0.7l0.1-0.3l0.6-2.5c0.1,0,0.2,0.1,0.3,0.1
		l-0.6,2.5l-0.1,0.3l-0.2,0.9l-0.1,0.3L374.1,748.5"/>
	<path class="st32" d="M375.4,743.6c-0.5,0-1-0.4-1-1c0-0.5,0.4-1,1-1c0.5,0,1,0.4,1,1C376.4,743.1,376,743.6,375.4,743.6"/>
	<path class="st32" d="M375.4,741.6c-0.5,0-1,0.4-1,1c0,0.5,0.4,1,1,1c0.5,0,1-0.4,1-1C376.4,742.1,376,741.6,375.4,741.6"/>
	<path class="st32" d="M375.4,743.9c-0.1,0-0.1,0-0.2,0c-0.1,0-0.2,0-0.3-0.1c-0.1,0-0.2-0.1-0.3-0.1s-0.2-0.1-0.2-0.2
		c-0.2-0.2-0.3-0.5-0.3-0.9c0-0.7,0.6-1.3,1.3-1.3c0.7,0,1.3,0.6,1.3,1.3c0,0.1,0,0.2,0,0.3c0,0.1-0.1,0.2-0.1,0.3
		C376.3,743.6,375.9,743.9,375.4,743.9"/>
	<path class="st32" d="M373.7,750.6c-0.5,0-1-0.4-1-1c0-0.5,0.4-1,1-1c0.5,0,1,0.4,1,1C374.7,750.2,374.2,750.6,373.7,750.6"/>
	<path class="st32" d="M373.7,748.7c-0.5,0-1,0.4-1,1c0,0.5,0.4,1,1,1c0.5,0,1-0.4,1-1C374.7,749.1,374.2,748.7,373.7,748.7
		 M373.7,750.9c-0.7,0-1.3-0.6-1.3-1.3c0-0.7,0.6-1.3,1.3-1.3c0.1,0,0.1,0,0.2,0c0.1,0,0.2,0,0.3,0.1c0.5,0.2,0.8,0.6,0.8,1.2
		c0,0.1,0,0.2,0,0.3c0,0.1-0.1,0.2-0.1,0.3C374.6,750.7,374.2,750.9,373.7,750.9 M378.1,752.4c-0.5,0-1-0.4-1-1c0-0.5,0.4-1,1-1
		c0.5,0,1,0.4,1,1C379.1,752,378.7,752.4,378.1,752.4"/>
	<path class="st32" d="M378.1,750.5c-0.5,0-1,0.4-1,1c0,0.5,0.4,1,1,1c0.5,0,1-0.4,1-1S378.7,750.5,378.1,750.5 M378.1,752.7
		c-0.7,0-1.3-0.6-1.3-1.3c0-0.1,0-0.2,0.1-0.4c0-0.1,0.1-0.2,0.1-0.3c0-0.1,0.1-0.1,0.1-0.2c0.1-0.1,0.1-0.1,0.2-0.2
		c0.1,0,0.1-0.1,0.2-0.1c0.1,0,0.2-0.1,0.3-0.1c0.1,0,0.2,0,0.3,0c0.1,0,0.2,0,0.3,0c0.1,0,0.2,0.1,0.3,0.1c0.4,0.2,0.7,0.6,0.7,1.1
		C379.4,752.2,378.8,752.7,378.1,752.7"/>
	<path class="st32" d="M382.9,747.3H382c0,3.4-2.8,6.1-6.1,6.1c-3.4,0-6.1-2.7-6.1-6.1c0-3.4,2.8-6.1,6.1-6.1c3.4,0,6.1,2.8,6.1,6.1
		h1.9c0-4.4-3.6-8-8-8s-8,3.6-8,8s3.6,8,8,8c4.4,0,8-3.6,8-8H382.9"/>
	<path class="st32" d="M378.3,748.8c0,0-0.1,0-0.1,0c-0.1,0-0.1,0-0.2-0.1c-0.1,0-0.1-0.1-0.2-0.1s-0.1-0.1-0.2-0.1
		c-0.2-0.2-0.2-0.4-0.2-0.6c0-0.5,0.4-0.9,0.9-0.9c0.5,0,0.9,0.4,0.9,0.9c0,0.1,0,0.2,0,0.2c0,0.1,0,0.1-0.1,0.2
		C378.9,748.6,378.6,748.8,378.3,748.8"/>
	<path class="st32" d="M375.9,747.2C375.9,747.2,375.9,747.2,375.9,747.2c-0.1,0-0.2,0-0.2,0c-0.1,0-0.1,0-0.1-0.1
		c0,0-0.1-0.1-0.1-0.1c-0.1-0.1-0.2-0.3-0.2-0.5c0-0.4,0.3-0.7,0.7-0.7c0.4,0,0.7,0.3,0.7,0.7c0,0.1,0,0.1,0,0.2
		c0,0.1,0,0.1-0.1,0.1C376.4,747,376.2,747.2,375.9,747.2"/>
	<path class="st32" d="M378.3,751.9c-0.1,0-0.2,0-0.3,0l0.1-0.9l0-0.3l0-0.7l0-0.3l0.2-2.6c0.1,0,0.2,0,0.3,0l-0.2,2.6l0,0.3
		l-0.1,0.9l0,0.3L378.3,751.9"/>
	<path class="st32" d="M375.7,746.8l-0.2-4l0.3-0.2l0.3,4.2C375.9,746.8,375.8,746.8,375.7,746.8"/>
</g>
<g>
	<path class="st33" d="M219.9,457.2c-0.7-0.8-1.3-1.5-2.2-2.2l6.2-6.5l2.5-2.6l5.2-5.4l2.1-2.2l18.6-19.4c0.7,0.8,1.4,1.5,2.2,2.1
		l-18.7,19.3l-2.1,2.2l-6.4,6.7l-2.5,2.6L219.9,457.2"/>
	<path class="st33" d="M264,492.5l-2.7-23c1-0.1,2.1-0.2,3.1-0.4l2.8,23C266,492.1,264.9,492.3,264,492.5"/>
	<path class="st33" d="M262.2,478.9c-7.2,0-13.1-5.9-13.1-13.1c0-0.8,0.1-1.5,0.2-2.2c0.2-1,0.5-2,0.9-2.9c2-4.7,6.7-8,12.1-8
		c4.5,0,8.5,2.3,10.9,5.8c0.6,0.8,1,1.7,1.4,2.7c0.5,1.4,0.8,3,0.8,4.6c0,5-2.9,9.4-7.1,11.6c-0.9,0.5-1.9,0.8-2.9,1.1
		C264.4,478.7,263.3,478.8,262.2,478.9"/>
	<path class="st33" d="M248.5,440.7c-0.5,0-1.1,0-1.6-0.1c-1-0.1-2-0.4-3-0.7c-1-0.4-1.9-0.8-2.7-1.4c-0.8-0.6-1.6-1.2-2.3-2
		c-2.2-2.4-3.4-5.4-3.4-8.8c0-7.1,5.8-12.9,12.9-12.9s12.9,5.8,12.9,12.9c0,1.2-0.2,2.4-0.5,3.4c-0.3,1-0.7,2-1.2,2.8
		C257.6,438.1,253.4,440.7,248.5,440.7"/>
	<path class="st33" d="M213.8,463.4c-3.6-2.1-4.8-6.8-2.7-10.4c2.1-3.6,6.8-4.8,10.4-2.7c0.3,0.2,0.6,0.4,0.8,0.5
		c0.5,0.3,0.9,0.8,1.3,1.3c1.9,2.4,2.2,5.8,0.6,8.6c-0.4,0.6-0.8,1.1-1.2,1.6c-0.4,0.4-0.9,0.8-1.4,1.1
		C219.3,464.7,216.3,464.9,213.8,463.4"/>
	<path class="st33" d="M263.4,506.7c-5.5-1.2-8.8-6.6-7.7-12.1c1.2-5.5,6.6-8.8,12.1-7.7c5.5,1.2,8.8,6.6,7.6,12
		C274.2,504.4,268.8,507.8,263.4,506.7"/>
	<path class="st33" d="M257.8,457.8l-7.6-21.9c1-0.3,2-0.6,2.9-1.1l7.7,21.9C259.6,457.1,258.7,457.4,257.8,457.8"/>
	<circle class="st34" cx="255.5" cy="446.3" r="64.6"/>
	<path class="st33" d="M278.7,431.5l-23.2-1c0.1-1,0.2-2.1,0-3.1l23.2,0.9C278.7,429.4,278.7,430.5,278.7,431.5"/>
	<path class="st33" d="M301.3,434c-2.1,5.2-7.9,7.6-13.1,5.7c-5.2-2.1-7.6-7.9-5.7-13.1c2.1-5.2,7.9-7.6,13.1-5.6
		C300.7,423.1,303.2,428.9,301.3,434"/>
	<path class="st33" d="M282.5,426.6c-2.1,5.2,0.5,11,5.7,13.1c5.2,2.1,11-0.5,13-5.7c2.1-5.2-0.5-11-5.6-13S284.6,421.5,282.5,426.6
		 M304,435.2c-2.7,6.7-10.3,10-17,7.3c-1.2-0.5-2.3-1.1-3.3-1.8c-0.8-0.6-1.5-1.4-2.2-2.1c-0.5-0.6-1-1.4-1.3-2
		c-0.5-0.9-0.9-1.9-1.1-2.8c-0.2-0.7-0.3-1.4-0.3-2.2c0-1,0-2.1,0.1-3.1s0.4-1.9,0.8-2.8c0.4-1.1,1-2.1,1.6-3
		c0.6-0.8,1.3-1.6,2.1-2.3c3.6-3,8.7-4,13.3-2.1C303.4,420.8,306.7,428.5,304,435.2"/>
	<path class="st33" d="M238.9,408.1l11.4,20.2c-0.9,0.5-1.9,0.9-2.7,1.6l-11.5-20.2C237.1,409.2,238.1,408.7,238.9,408.1"/>
	<path class="st33" d="M231.3,390.9c5.5-1,10.6,2.6,11.7,8.1c1,5.5-2.6,10.6-8.1,11.7c-5.5,1-10.6-2.6-11.6-8.2
		C222.3,397.2,225.9,392,231.3,390.9"/>
</g>
<g>
	<path class="st28" d="M165.8,642.2l-1.5-1.5c0.2-0.1,0.3-0.3,0.5-0.4l1.3,1.2L165.8,642.2"/>
	<path class="st28" d="M172.7,648.7l-6.3-6l0.2-0.7l6.6,6.3C173,648.4,172.8,648.5,172.7,648.7"/>
	<path class="st28" d="M172.2,649.7l-4.7-1.8c0.1-0.2,0.2-0.4,0.2-0.6l4.7,1.8C172.3,649.3,172.2,649.5,172.2,649.7"/>
	<path class="st28" d="M166,644.1c-0.2-0.1-0.4-0.1-0.6-0.2l0.5-1.8l0.2-0.7l0.4-1.5l0.2-0.6l1.3-5.3c0.2,0.1,0.4,0.1,0.6,0.1
		l-1.3,5.3l-0.2,0.6l-0.5,1.8l-0.2,0.7L166,644.1"/>
	<path class="st28" d="M168.8,633.6c-1.2,0-2.1-0.9-2.1-2.1c0-1.1,0.9-2,2.1-2.1c1.2,0,2.1,0.9,2.1,2.1
		C171,632.7,170,633.6,168.8,633.6"/>
	<path class="st28" d="M168.8,629.5c-1.2,0-2.1,0.9-2.1,2.1c0,1.1,0.9,2,2.1,2.1c1.2,0,2.1-0.9,2.1-2.1
		C171,630.4,170,629.5,168.8,629.5"/>
	<path class="st28" d="M168.8,634.2c-0.1,0-0.2,0-0.3,0c-0.2,0-0.4-0.1-0.6-0.1c-0.2-0.1-0.4-0.2-0.6-0.3s-0.3-0.3-0.5-0.4
		c-0.5-0.5-0.7-1.1-0.7-1.8c0-1.5,1.2-2.7,2.8-2.7c1.5,0,2.8,1.2,2.8,2.7c0,0.2,0,0.5-0.1,0.7c-0.1,0.2-0.1,0.4-0.2,0.6
		C170.8,633.7,169.9,634.2,168.8,634.2"/>
	<path class="st28" d="M162.6,640.7c-1.2,0-2.1-0.9-2.1-2.1c0-1.1,1-2,2.1-2.1c1.2,0,2.1,0.9,2.1,2.1
		C164.7,639.8,163.7,640.7,162.6,640.7"/>
	<path class="st28" d="M162.6,636.6c-1.2,0-2.1,0.9-2.1,2.1c0,1.1,1,2,2.1,2s2.1-0.9,2.1-2C164.7,637.5,163.7,636.6,162.6,636.6
		 M162.6,641.3c-1.5,0-2.7-1.2-2.8-2.6v-0.1c0-1.4,1.3-2.6,2.8-2.6c0.6,0,1.1,0.2,1.5,0.5c0.2,0.1,0.3,0.3,0.5,0.4
		c0.5,0.5,0.7,1.1,0.7,1.8c0,0.1,0,0.3,0,0.4c0,0.2-0.1,0.4-0.2,0.6c-0.1,0.2-0.2,0.4-0.4,0.6c-0.1,0.2-0.3,0.3-0.5,0.4
		C163.8,641.1,163.2,641.3,162.6,641.3 M165,648.7c-1.2,0-2.1-0.9-2.1-2.1c0-1.1,1-2,2.1-2.1c1.2,0,2.1,0.9,2.1,2.1
		C167.1,647.7,166.2,648.7,165,648.7"/>
	<path class="st28" d="M165,644.6c-1.2,0-2.1,0.9-2.1,2.1c0,1.1,1,2,2.1,2c1.2,0,2.1-0.9,2.1-2C167.1,645.5,166.2,644.6,165,644.6
		 M165,649.3c-1.5,0-2.8-1.2-2.8-2.7s1.2-2.7,2.8-2.7c0.1,0,0.2,0,0.4,0c0.2,0,0.4,0.1,0.6,0.2c1,0.4,1.8,1.4,1.8,2.5
		c0,0.2,0,0.5-0.1,0.7c-0.1,0.2-0.1,0.4-0.2,0.6C167,648.7,166.1,649.3,165,649.3 M174.8,652.5c-1.2,0-2.1-0.9-2.1-2.1
		c0-1.1,1-2,2.1-2.1c1.2,0,2.1,0.9,2.1,2.1C176.9,651.6,176,652.5,174.8,652.5"/>
	<path class="st28" d="M174.8,648.4c-1.2,0-2.1,0.9-2.1,2.1c0,1.1,1,2,2.1,2s2.1-0.9,2.1-2S176,648.4,174.8,648.4 M174.8,653.1
		c-1.5,0-2.8-1.2-2.8-2.7c0-0.3,0-0.5,0.1-0.8c0.1-0.2,0.2-0.4,0.3-0.6c0.1-0.1,0.2-0.3,0.3-0.4c0.1-0.2,0.3-0.3,0.5-0.4
		c0.1-0.1,0.3-0.2,0.4-0.2c0.2-0.1,0.4-0.2,0.6-0.2c0.2,0,0.4-0.1,0.6-0.1c0.2,0,0.5,0,0.7,0.1c0.2,0.1,0.4,0.1,0.6,0.2
		c0.9,0.5,1.5,1.3,1.5,2.4C177.6,651.9,176.3,653.1,174.8,653.1"/>
	<path class="st28" d="M185.4,641.5h-2.1c0,7.2-6.1,13-13.5,13.1c-7.5,0-13.5-5.8-13.5-13.1c0-7.2,6.1-13,13.5-13.1
		c7.5,0,13.5,5.9,13.5,13.1h4.1c0-9.4-7.9-17-17.6-17c-9.8,0-17.6,7.6-17.6,17s7.9,17,17.6,17c9.7,0,17.6-7.6,17.6-17H185.4"/>
	<path class="st28" d="M175.1,644.7c-0.1,0-0.2,0-0.2,0c-0.2,0-0.3-0.1-0.5-0.1c-0.2-0.1-0.3-0.1-0.4-0.2c-0.1-0.1-0.3-0.2-0.4-0.3
		c-0.3-0.4-0.5-0.8-0.5-1.3c0-1.1,0.9-2,2.1-2s2.1,0.9,2.1,2c0,0.2,0,0.4-0.1,0.5c0,0.2-0.1,0.3-0.2,0.4
		C176.6,644.2,175.9,644.7,175.1,644.7"/>
	<path class="st28" d="M169.9,641.3c-0.1,0-0.1,0-0.2,0c-0.1,0-0.2,0-0.3-0.1c-0.1,0-0.2-0.1-0.3-0.2c-0.1-0.1-0.2-0.1-0.3-0.2
		c-0.3-0.3-0.4-0.6-0.4-1c0-0.8,0.7-1.5,1.5-1.5c0.8,0,1.5,0.7,1.5,1.5c0,0.1,0,0.3-0.1,0.4c0,0.1-0.1,0.2-0.1,0.3
		C171,641,170.5,641.3,169.9,641.3"/>
	<path class="st28" d="M175.1,651.4c-0.2,0-0.4-0.1-0.6-0.1l0.1-1.8l0.1-0.7l0.1-1.5l0-0.6l0.4-5.5c0.2,0,0.4,0.1,0.6,0l-0.4,5.5
		l0,0.6l-0.1,1.9l-0.1,0.7L175.1,651.4"/>
	<path class="st28" d="M169.4,640.4l-0.6-8.6l0.6-0.4l0.6,9C169.8,640.4,169.6,640.4,169.4,640.4"/>
</g>
</svg>
