<?xml version="1.0" encoding="utf-8"?>
<!-- Generator: Adobe Illustrator 27.0.0, SVG Export Plug-In . SVG Version: 6.00 Build 0)  -->
<svg version="1.1" id="图层_1" xmlns:serif="http://www.serif.com/"
	 xmlns="http://www.w3.org/2000/svg" xmlns:xlink="http://www.w3.org/1999/xlink" x="0px" y="0px" viewBox="0 0 710.7 807.5"
	 style="enable-background:new 0 0 710.7 807.5;" xml:space="preserve">
<style type="text/css">
	.st0{fill:#FFFFFF;stroke:#0071BC;stroke-width:30;stroke-linecap:square;stroke-linejoin:round;stroke-miterlimit:1.5;}
	.st1{fill:#4D4D4D;}
	.st2{font-family:'TimesNewRomanPS-BoldItalicMT';}
	.st3{font-size:147.4811px;}
	.st4{fill:#CC3300;}
	.st5{fill:#00D447;}
	.st6{fill:#1F39FF;}
	.st7{fill:#9EC46E;}
	.st8{fill:#66CC00;}
	.st9{fill:#3333FF;}
	.st10{fill:#66CC00;stroke:#66CC00;stroke-miterlimit:10;}
	.st11{fill:none;stroke:#66CC00;stroke-width:5;stroke-miterlimit:10;}
	.st12{fill:#00F475;}
	.st13{fill:#2AFFDE;}
	.st14{fill:#006837;}
	.st15{fill:#FFFF66;}
	.st16{fill:#55DBFF;}
	.st17{fill:#FBFF0A;}
	.st18{fill:#FF94C1;}
	.st19{fill:#FFA80A;}
	.st20{fill:#4A78FF;}
	.st21{fill:#93C900;}
	.st22{fill:#E95500;}
	.st23{fill:#E9F200;}
	.st24{fill:#990000;}
	.st25{fill:#CCFFFF;}
	.st26{fill:#82C3DF;}
	.st27{fill:none;stroke:#82C3DF;stroke-width:10;stroke-miterlimit:10;}
	.st28{fill:#CCE0FF;}
	.st29{fill:#0099EB;}
	.st30{fill:#CCFF66;}
	.st31{fill:#0066FF;}
	.st32{fill:#009966;}
	.st33{fill:#B01E23;}
	.st34{fill:none;stroke:#B01E23;stroke-width:3;stroke-miterlimit:10;}
</style>
<path class="st0" d="M354.7,41.7L39.9,223.1L42.5,585L355,764l314.5-179.3V225.1L354.7,41.7L354.7,41.7z"/>
<text transform="matrix(1 0 0 1 57.3501 362.7397)" class="st1 st2 st3">infer</text>
<text transform="matrix(1 0 0 1 352.2803 362.7397)" class="st4 st2 st3">C</text>
<text transform="matrix(1 0 0 1 450.7168 362.7397)" class="st5 st2 st3">S</text>
<text transform="matrix(1 0 0 1 532.668 362.7397)" class="st6 st2 st3">N</text>
<g>
	<path class="st7" d="M415.4,476.3c-7.7,0-13.9,6.1-14,14c0,7.7,6.2,13.9,14,13.9c7.7,0,13.9-6.1,14-13.9
		C429.3,482.6,423,476.3,415.4,476.3 M415.4,508.4c-10.1,0-18.2-8-18.2-18.2c0-1.1,0.1-2.1,0.3-3.1c0.3-1.4,0.7-2.8,1.2-4
		c2.8-6.4,9.3-11.1,16.7-11.1c6.2,0,11.9,3.2,15,7.9c0.8,1.1,1.4,2.4,1.9,3.7c0.8,1.9,1.1,4.1,1.1,6.3c0,6.9-3.9,13-9.8,16.1
		c-1.2,0.7-2.6,1.1-3.9,1.5C418.3,508.2,416.9,508.3,415.4,508.4 M399.4,440c-7.7,0-13.9-6.1-13.9-14c0-7.7,6.1-13.9,13.9-14
		c7.7,0,13.9,6.2,14,14C413.3,433.9,407,440,399.4,440"/>
	<path class="st7" d="M399.4,412.3c-7.7,0-13.9,6.1-13.9,14c0,7.7,6.1,13.9,13.9,14c7.7,0,13.9-6.1,14-14
		C413.2,418.5,407,412.4,399.4,412.3"/>
	<path class="st8" d="M358.3,460.3c-7.7,0-13.9,6.2-14,14c0,7.7,6.2,13.9,14,13.9s13.9-6.1,14-13.9
		C372.2,466.5,366,460.3,358.3,460.3 M358.3,492.3c-9.9,0-17.9-7.8-18.2-17.7v-0.9c0.2-9.9,8.2-17.7,18.2-17.7
		c3.7,0,7.2,1.1,10.1,3.1c1.1,0.8,2.3,1.7,3.2,2.7c3,3.3,4.8,7.6,4.8,12.3c0,0.9-0.1,1.8-0.2,2.7c-0.2,1.4-0.6,2.8-1.1,4
		c-0.6,1.5-1.4,3-2.5,4.3c-0.9,1.1-1.8,2.1-3,3C366.5,490.8,362.6,492.3,358.3,492.3 M374.3,542.2c-7.7,0-13.9-6.2-14-14
		c0-7.7,6.2-13.9,14-14c7.7,0,13.9,6.2,14,14C388.2,535.9,382,542.2,374.3,542.2"/>
	<g>
		<path class="st9" d="M598.3,459.6l-3.8-3.7c0.4-0.3,0.8-0.8,1.1-1.1l3.2,3.1L598.3,459.6"/>
		<path class="st9" d="M615.5,476.6L599.7,461l0.5-1.8l16.6,16.3C616.3,475.8,615.8,476.2,615.5,476.6"/>
		<path class="st9" d="M614.1,479.1l-11.8-4.6c0.3-0.5,0.5-1,0.6-1.5l11.8,4.7C614.5,478.1,614.3,478.6,614.1,479.1"/>
		<path class="st9" d="M598.8,464.6c-0.5-0.2-1.1-0.3-1.5-0.4l1.1-4.6l0.5-1.8l1-3.8l0.4-1.5l3.4-13.8c0.5,0.2,1.1,0.3,1.5,0.4
			l-3.4,13.8l-0.4,1.5l-1.1,4.7l-0.5,1.8L598.8,464.6"/>
		<path class="st9" d="M605.8,437.5c-2.9,0-5.3-2.4-5.3-5.3c0-2.9,2.4-5.3,5.3-5.3c2.9,0,5.3,2.4,5.3,5.3
			C611.2,435.1,608.8,437.5,605.8,437.5"/>
		<path class="st9" d="M605.8,426.9c-2.9,0-5.3,2.4-5.3,5.3s2.4,5.3,5.3,5.3c2.9,0,5.3-2.4,5.3-5.3
			C611.1,429.2,608.8,426.9,605.8,426.9"/>
		<path class="st9" d="M605.2,442.2c-0.4,0-0.7,0-1.1-0.1c-0.7-0.1-1.2-0.2-1.8-0.5c-0.6-0.2-1.1-0.5-1.7-0.9
			c-0.6-0.4-1.1-0.8-1.4-1.2c-1.3-1.4-2.2-3.4-2.2-5.6c0-4.5,3.6-8.1,8.1-8.1c4.5,0,8.1,3.6,8.1,8.1c0,0.8-0.1,1.4-0.4,2.2
			c-0.1,0.6-0.5,1.2-0.7,1.7C610.9,440.5,608.3,442.2,605.2,442.2"/>
		<path class="st9" d="M587,460.2c-5.4,0-10-4.3-10.1-9.8v-0.4c0.1-5.4,4.6-9.8,10.1-9.8c2.1,0,4,0.6,5.6,1.6c0.7,0.4,1.2,1,1.8,1.5
			c1.6,1.8,2.6,4.1,2.6,6.8c0,0.6,0,1-0.1,1.5c-0.1,0.9-0.3,1.5-0.6,2.2c-0.3,0.9-0.9,1.6-1.3,2.4c-0.4,0.6-1,1.1-1.6,1.6
			C591.4,459.4,589.3,460.2,587,460.2"/>
		<path class="st9" d="M596.3,476.5c-2.9,0-5.3-2.4-5.3-5.3c0-2.9,2.4-5.3,5.3-5.3c2.9,0,5.3,2.4,5.3,5.3
			C601.5,474.1,599.2,476.4,596.3,476.5"/>
		<path class="st9" d="M596.3,465.8c-2.9,0-5.3,2.4-5.3,5.3s2.4,5.3,5.3,5.3c2.9,0,5.3-2.4,5.3-5.3S599.2,465.9,596.3,465.8"/>
		<path class="st9" d="M596.9,479.6c-4.7,0-8.4-3.7-8.4-8.4c0-4.7,3.7-8.4,8.4-8.4c0.4,0,0.7,0,1.1,0.1c0.7,0.1,1.2,0.2,1.9,0.5
			c3.2,1.1,5.4,4.2,5.4,7.8c0,0.9-0.1,1.5-0.2,2.2c-0.1,0.6-0.5,1.2-0.7,1.9C603,477.9,600.1,479.6,596.9,479.6"/>
		<path class="st9" d="M620.7,486.4c-2.9,0-5.3-2.4-5.3-5.3c0-2.9,2.4-5.3,5.3-5.3s5.3,2.4,5.3,5.3
			C625.9,484.1,623.7,486.4,620.7,486.4"/>
		<path class="st9" d="M620.7,475.8c-2.9,0-5.3,2.4-5.3,5.3s2.4,5.3,5.3,5.3s5.3-2.4,5.3-5.3C626,478.1,623.7,475.8,620.7,475.8"/>
		<path class="st9" d="M620.7,488.1c-3.8,0-6.9-3.1-6.9-6.9c0-0.7,0.1-1.3,0.3-1.9c0.2-0.5,0.4-1.1,0.7-1.4c0.2-0.4,0.5-0.8,0.8-1.1
			c0.4-0.4,0.8-0.8,1.1-1.1c0.3-0.2,0.7-0.4,1-0.6c0.5-0.2,1-0.4,1.5-0.6c0.5-0.1,1.1-0.2,1.5-0.2c0.6,0,1.2,0.1,1.8,0.2
			c0.5,0.1,1.1,0.3,1.5,0.6c2.1,1.1,3.6,3.4,3.6,6C627.7,484.9,624.6,488,620.7,488.1"/>
		<path class="st9" d="M647.1,458H642c0,18.6-15.1,33.7-33.8,33.8c-18.6,0-33.7-15.1-33.8-33.8c0-18.6,15.1-33.7,33.8-33.8
			c18.6,0,33.7,15.1,33.8,33.8h10.3c0-24.2-19.6-44-44-44c-24.3,0-44,19.6-44,44c0,24.4,19.6,44,44,44c24.2,0,44-19.6,44-44H647.1"
			/>
		<path class="st9" d="M626.5,460.9c-0.4,0-0.8,0-1.2-0.1c-0.8-0.1-1.5-0.3-2.2-0.6c-0.7-0.3-1.3-0.6-2-1.1c-0.7-0.4-1.2-1-1.7-1.5
			c-1.6-1.7-2.6-4-2.6-6.6c0-5.4,4.3-9.9,9.9-9.9c5.4,0,9.9,4.3,9.9,9.9c0,1-0.1,1.7-0.4,2.6c-0.1,0.7-0.6,1.5-0.8,2
			C633.4,458.9,630.3,460.9,626.5,460.9"/>
		<path class="st9" d="M588.5,452.5c0.1-0.7,0.1-1.3,0.1-2l6.3,0.1l2.5,0.1l5.3,0.1h2.1l18.9,0.3c-0.1,0.7-0.1,1.3-0.1,2l-18.9-0.3
			h-2.1l-6.4-0.1l-2.5-0.1L588.5,452.5"/>
	</g>
	<g>
		<path class="st10" d="M383.3,483.3l-8.2-2.3c0.5-1.2,0.9-2.7,1.1-4l7.9,2.2L383.3,483.3 M397.6,487.2l-10.1-2.8l1-4.1l10.3,2.9
			C398.1,484.4,397.7,485.8,397.6,487.2 M379.7,498.1l-10.1-9.9c1.1-0.9,2.1-1.9,3-3l8.1,8L379.7,498.1 M424.6,542.4l-41.4-40.8
			l1.1-4.8l43.4,42.7C426.6,540.4,425.6,541.4,424.6,542.4 M421,549.1l-30.7-12.3c0.7-1.2,1.2-2.6,1.5-3.9l30.8,12.3
			C422,546.5,421.4,547.7,421,549.1 M442.9,460.8l-46.4-35.1l0.5-4.9l48.5,36.8C444.6,458.6,443.7,459.7,442.9,460.8 M478.4,481.3
			l-57.6,7.9l-3.1-3.8l60.3-8.3C478.1,478.5,478.1,479.8,478.4,481.3"/>
		<path class="st10" d="M380.8,511.3c-1.3-0.5-2.7-0.9-4-1.1l3-12.2l1.1-4.8l2.5-10.1l1-4.1l8.7-36c1.3,0.5,2.7,0.9,4.1,1l-8.7,36.1
			l-1,4.1l-3,12.5l-1.1,4.8L380.8,511.3"/>
		<path class="st10" d="M430.4,538l-10.6-30.2c1.3-0.4,2.7-0.9,3.9-1.5l10.6,30.3C433,537,431.6,537.5,430.4,538"/>
		<path class="st10" d="M413.3,511.3c-12.4,0-22.2-10.1-22.4-22.4c0-12.4,10.1-22.2,22.4-22.4c12.4,0,22.2,10.1,22.4,22.4
			C435.7,501.4,425.7,511.3,413.3,511.3"/>
		<path class="st10" d="M399.4,444.2c-0.8,0-1.4,0-2.2-0.2c-1.4-0.2-2.8-0.5-4.1-1c-1.3-0.5-2.6-1.1-3.7-1.9
			c-1.1-0.8-2.3-1.7-3.2-2.7c-3-3.3-4.8-7.6-4.8-12.3c0-10.1,8-18.2,18.2-18.2c10.1,0,18.2,8,18.2,18.2c0,1.6-0.2,3.4-0.7,4.8
			c-0.4,1.3-0.9,2.7-1.6,3.9C412.2,440.5,406.2,444.2,399.4,444.2"/>
		<path class="st10" d="M358.4,488.2c-7.7,0-13.9-6.2-14-14c0-7.7,6.2-13.9,14-14c7.7,0,13.9,6.1,14,14
			C372.2,482,366,488.1,358.4,488.2"/>
		<path class="st10" d="M374.3,514.3c-7.7,0-13.9,6.2-14,14c0,7.7,6.2,13.9,14,13.9c7.8,0,13.9-6.1,14-13.9
			C388.2,520.6,382,514.4,374.3,514.3"/>
		<path class="st10" d="M374.3,546.4c-10.1,0-18.2-8-18.2-18.2c0-10.1,8-18.2,18.2-18.2c0.8,0,1.6,0,2.4,0.2c1.4,0.2,2.8,0.6,4,1.1
			c6.8,2.6,11.7,9.3,11.7,16.9c0,1.6-0.2,3.2-0.6,4.7c-0.4,1.3-0.9,2.7-1.5,3.9C387.1,542.5,381.2,546.4,374.3,546.4"/>
		<path class="st10" d="M435.2,564.5c-7.7,0-13.9-6.2-14-14c0-7.7,6.2-13.9,14-14c7.7,0,13.9,6.1,13.9,14
			C449,558.2,442.7,564.4,435.2,564.5"/>
		<circle class="st11" cx="413.1" cy="490.7" r="100.1"/>
		<path class="st10" d="M482.3,498.9c-0.8,0-1.4,0-2.2-0.2c-1.4-0.2-2.8-0.5-4.1-1c-1.3-0.5-2.6-1.1-3.7-1.9s-2.3-1.7-3.2-2.7
			c-3-3.3-4.8-7.6-4.8-12.3c0-10.1,8-18.2,18.2-18.2s18.2,8,18.2,18.2c0,1.6-0.2,3.4-0.7,4.8c-0.4,1.3-0.9,2.7-1.6,3.9
			C495,495.1,489.1,498.9,482.3,498.9"/>
		<path class="st10" d="M434.6,470.3c-0.8,0-1.4,0-2.2-0.2c-1.4-0.2-2.8-0.5-4.1-1c-1.3-0.5-2.6-1.1-3.7-1.9
			c-1.1-0.8-2.3-1.7-3.2-2.7c-3-3.3-4.8-7.6-4.8-12.3c0-10.1,8-18.2,18.2-18.2c10.1,0,18.2,8,18.2,18.2c0,1.6-0.2,3.4-0.7,4.8
			c-0.4,1.3-0.9,2.7-1.6,3.9C447.4,466.5,441.4,470.3,434.6,470.3"/>
	</g>
	<g>
		<path class="st12" d="M378.6,692.9l-2.2-2.1c0.2-0.2,0.5-0.4,0.7-0.7l1.8,1.7L378.6,692.9"/>
		<path class="st12" d="M388.4,702.7l-9.1-9l0.3-1.1l9.6,9.4C388.8,702.3,388.6,702.5,388.4,702.7"/>
		<path class="st12" d="M387.6,704.1l-6.7-2.7c0.1-0.3,0.3-0.6,0.4-0.9l6.7,2.7C387.9,703.5,387.7,703.8,387.6,704.1"/>
		<path class="st12" d="M378.9,695.9c-0.3-0.1-0.6-0.2-0.9-0.2l0.7-2.6l0.3-1.1l0.6-2.2l0.2-0.9l1.9-7.8c0.3,0.1,0.6,0.2,0.9,0.2
			l-1.9,7.8l-0.2,0.9l-0.7,2.7l-0.3,1.1L378.9,695.9"/>
		<path class="st12" d="M382.9,680.3c-1.6,0-3.1-1.3-3.1-3.1c0-1.6,1.3-3.1,3.1-3.1c1.6,0,3.1,1.3,3.1,3.1
			C386,678.9,384.6,680.3,382.9,680.3"/>
		<path class="st12" d="M382.9,674.2c-1.6,0-3.1,1.3-3.1,3.1c0,1.6,1.3,3.1,3.1,3.1c1.6,0,3.1-1.3,3.1-3.1
			C386,675.5,384.5,674.2,382.9,674.2"/>
		<path class="st12" d="M382.9,681.2c-0.2,0-0.3,0-0.5,0c-0.3,0-0.6-0.1-0.9-0.2c-0.3-0.1-0.6-0.3-0.9-0.4c-0.3-0.2-0.5-0.4-0.7-0.6
			c-0.7-0.7-1.1-1.6-1.1-2.7c0-2.2,1.7-3.9,3.9-3.9c2.2,0,3.9,1.7,3.9,3.9c0,0.4,0,0.8-0.1,1.1c-0.1,0.3-0.2,0.6-0.4,0.9
			C385.7,680.4,384.4,681.2,382.9,681.2"/>
		<path class="st12" d="M373.9,690.8c-1.6,0-3.1-1.3-3.1-3.1c0-1.6,1.3-3.1,3.1-3.1c1.6,0,3.1,1.3,3.1,3.1
			C377,689.4,375.6,690.7,373.9,690.8"/>
		<path class="st12" d="M373.9,684.7c-1.6,0-3.1,1.3-3.1,3.1c0,1.6,1.3,3.1,3.1,3.1c1.7,0,3.1-1.3,3.1-3.1S375.6,684.7,373.9,684.7
			 M373.9,691.7c-2.1,0-3.9-1.7-3.9-3.8v-0.2c0-2.1,1.8-3.8,3.9-3.8c0.8,0,1.5,0.3,2.2,0.7c0.3,0.2,0.5,0.4,0.7,0.6
			c0.7,0.7,1.1,1.6,1.1,2.7c0,0.2,0,0.4,0,0.6c0,0.3-0.1,0.6-0.3,0.9c-0.1,0.4-0.3,0.7-0.6,1c-0.2,0.3-0.4,0.5-0.7,0.7
			C375.7,691.4,374.8,691.7,373.9,691.7 M377.5,702.6c-1.6,0-3.1-1.3-3.1-3.1c0-1.6,1.3-3.1,3.1-3.1c1.6,0,3.1,1.3,3.1,3.1
			S379.2,702.6,377.5,702.6"/>
		<path class="st12" d="M377.5,696.6c-1.6,0-3.1,1.3-3.1,3.1c0,1.6,1.3,3.1,3.1,3.1c1.7,0,3.1-1.3,3.1-3.1
			C380.5,697.9,379.2,696.6,377.5,696.6 M377.5,703.5c-2.2,0-3.9-1.7-3.9-3.9s1.7-3.9,3.9-3.9c0.2,0,0.4,0,0.5,0
			c0.3,0,0.6,0.1,0.9,0.2c1.4,0.6,2.5,2,2.5,3.7c0,0.4,0,0.7-0.1,1.1c-0.1,0.3-0.2,0.6-0.4,0.9C380.2,702.7,379,703.5,377.5,703.5
			 M391.4,708.3c-1.6,0-3.1-1.3-3.1-3.1c0-1.6,1.3-3.1,3.1-3.1c1.6,0,3.1,1.3,3.1,3.1C394.5,706.9,393.1,708.3,391.4,708.3"/>
		<path class="st12" d="M391.4,702.2c-1.6,0-3.1,1.3-3.1,3.1c0,1.6,1.3,3.1,3.1,3.1c1.6,0,3.1-1.3,3.1-3.1S393.1,702.3,391.4,702.2
			 M391.4,709.2c-2.2,0-3.9-1.7-3.9-3.9c0-0.4,0.1-0.8,0.2-1.1c0.1-0.3,0.2-0.6,0.4-0.9c0.1-0.2,0.3-0.4,0.4-0.6
			c0.2-0.2,0.4-0.5,0.7-0.7c0.2-0.1,0.4-0.3,0.6-0.4c0.3-0.1,0.6-0.2,0.9-0.3s0.6-0.1,0.9-0.1c0.4,0,0.7,0,1.1,0.1
			c0.3,0.1,0.6,0.2,0.9,0.4c1.2,0.7,2.1,2,2.1,3.4C395.4,707.5,393.7,709.2,391.4,709.2"/>
		<path class="st12" d="M406.5,692h-3c0,10.7-8.6,19.3-19.3,19.3c-10.7,0-19.3-8.6-19.3-19.3c0-10.7,8.6-19.3,19.3-19.3
			c10.7,0,19.3,8.6,19.3,19.3h5.8c0-14-11.3-25.3-25.3-25.3S358.9,678,358.9,692c0,14,11.3,25.3,25.3,25.3s25.3-11.3,25.3-25.3
			H406.5"/>
		<path class="st12" d="M393.7,695.8c-1.6,0-3.1-1.3-3.1-3.1c0-1.6,1.3-3.1,3.1-3.1c1.6,0,3.1,1.3,3.1,3.1
			C396.7,694.4,395.3,695.8,393.7,695.8"/>
		<path class="st12" d="M377.6,698.9c-0.1-0.3-0.2-0.6-0.3-0.9l2.5-1l1-0.4l2.1-0.9l0.9-0.4l7.5-3c0.1,0.3,0.2,0.6,0.4,0.9l-7.6,3
			l-0.9,0.4l-2.6,1.1l-1,0.4L377.6,698.9"/>
	</g>
	<g>
		<path class="st13" d="M427.9,683.9l1.3-1.2c-0.1-0.1-0.3-0.3-0.4-0.4l-1.1,1.1L427.9,683.9"/>
		<path class="st13" d="M422,689.8l5.5-5.4l-0.2-0.7l-5.6,5.6C421.7,689.5,421.9,689.6,422,689.8"/>
		<path class="st13" d="M422.4,690.6l4-1.6c-0.1-0.2-0.2-0.3-0.2-0.5l-4,1.6C422.3,690.2,422.4,690.4,422.4,690.6"/>
		<path class="st13" d="M427.7,685.6c0.2-0.1,0.4-0.1,0.6-0.1l-0.4-1.5l-0.2-0.7l-0.3-1.3l-0.1-0.6l-1.1-4.7
			c-0.2,0.1-0.4,0.1-0.6,0.1l1.1,4.7l0.1,0.6l0.4,1.6l0.2,0.7L427.7,685.6"/>
		<path class="st13" d="M416.8,684.9c1,0,1.8,0.8,1.8,1.8c0,1-0.8,1.8-1.8,1.8c-1,0-1.8-0.8-1.8-1.8
			C415,685.7,415.8,685,416.8,684.9"/>
		<path class="st13" d="M425.6,677.2c0.1,0,0.2,0,0.2,0c0.2,0,0.3-0.1,0.5-0.1c0.2-0.1,0.3-0.1,0.4-0.2s0.3-0.2,0.4-0.3
			c0.3-0.4,0.5-0.8,0.5-1.3c0-1.1-0.9-1.9-1.9-1.9s-1.9,0.9-1.9,1.9c0,0.2,0,0.4,0.1,0.5c0,0.2,0.1,0.3,0.2,0.4
			C424.2,676.7,424.8,677.2,425.6,677.2"/>
		<path class="st13" d="M430.8,682.6c1,0,1.8-0.9,1.8-1.8c0-1-0.9-1.8-1.8-1.8c-1,0-1.8,0.8-1.8,1.8
			C428.9,681.8,429.7,682.6,430.8,682.6"/>
		<path class="st13" d="M430.8,678.9c1,0,1.8,0.9,1.8,1.8c0,1-0.9,1.8-1.8,1.8c-1,0-1.8-0.8-1.8-1.8
			C428.9,679.8,429.7,678.9,430.8,678.9 M430.8,683.2c1.2,0,2.3-1.1,2.4-2.3v-0.1c0-1.2-1.1-2.3-2.4-2.3c-0.5,0-1,0.2-1.3,0.4
			c-0.2,0.1-0.3,0.2-0.4,0.4c-0.4,0.4-0.7,1-0.7,1.6c0,0.1,0,0.2,0,0.4c0,0.2,0.1,0.4,0.2,0.6c0.1,0.2,0.2,0.4,0.3,0.6
			c0.1,0.2,0.3,0.3,0.4,0.4C429.7,683,430.2,683.2,430.8,683.2 M428.7,689.7c1,0,1.8-0.9,1.8-1.8c0-1-0.9-1.8-1.8-1.8
			c-1,0-1.8,0.9-1.8,1.8C426.7,688.9,427.5,689.7,428.7,689.7"/>
		<path class="st13" d="M428.7,686c1,0,1.8,0.9,1.8,1.8c0,1-0.9,1.8-1.8,1.8c-1,0-1.8-0.8-1.8-1.8C426.7,686.9,427.5,686,428.7,686
			 M428.7,690.2c1.3,0,2.4-1.1,2.4-2.4s-1.1-2.4-2.4-2.4c-0.1,0-0.2,0-0.3,0c-0.2,0-0.4,0.1-0.6,0.1c-0.9,0.4-1.5,1.2-1.5,2.2
			c0,0.2,0,0.4,0.1,0.6c0,0.2,0.1,0.4,0.2,0.5C426.8,689.8,427.6,690.2,428.7,690.2 M420.1,693.1c1,0,1.8-0.9,1.8-1.8
			s-0.9-1.8-1.8-1.8c-1,0-1.8,0.8-1.8,1.8C418.3,692.3,419.2,693.1,420.1,693.1"/>
		<path class="st13" d="M420.1,689.5c1,0,1.8,0.9,1.8,1.8s-0.9,1.8-1.8,1.8c-1,0-1.8-0.8-1.8-1.8
			C418.3,690.2,419.2,689.5,420.1,689.5 M420.1,693.6c1.3,0,2.4-1.1,2.4-2.4c0-0.2,0-0.5-0.1-0.7c-0.1-0.2-0.1-0.4-0.2-0.5
			s-0.2-0.3-0.3-0.4c-0.1-0.1-0.3-0.3-0.4-0.4c-0.1-0.1-0.2-0.2-0.4-0.2c-0.2-0.1-0.4-0.1-0.5-0.2c-0.2,0-0.4-0.1-0.6-0.1
			c-0.2,0-0.4,0-0.6,0.1c-0.2,0-0.4,0.1-0.5,0.2c-0.8,0.4-1.2,1.1-1.2,2.1C417.8,692.5,418.9,693.6,420.1,693.6"/>
		<path class="st13" d="M411.1,683.3h1.7c0,6.4,5.2,11.6,11.7,11.7c6.4,0,11.6-5.2,11.7-11.7c0-6.4-5.2-11.6-11.7-11.7
			c-6.4,0-11.6,5.2-11.7,11.7h-3.5c0-8.3,6.7-15.2,15.2-15.2s15.2,6.7,15.2,15.2c0,8.3-6.7,15.2-15.2,15.2
			c-8.3,0-15.2-6.7-15.2-15.2H411.1"/>
		<path class="st13" d="M420.6,685.5c0.2,0,0.3,0,0.5,0c0.3,0,0.6-0.1,0.9-0.2c0.3-0.1,0.6-0.2,0.8-0.4c0.3-0.2,0.5-0.4,0.7-0.6
			c0.6-0.7,1-1.5,1-2.6c0-2.1-1.7-3.7-3.7-3.7c-2.1,0-3.7,1.7-3.7,3.7c0,0.4,0,0.7,0.1,1.1c0.1,0.3,0.2,0.6,0.3,0.8
			C417.9,684.7,419.2,685.5,420.6,685.5"/>
		<path class="st13" d="M428.2,688.6c0.1-0.2,0.2-0.3,0.4-0.4l-1.2-1.1l-0.5-0.4l-1.1-0.9l-0.4-0.4l-3.7-3.2
			c-0.1,0.2-0.2,0.3-0.4,0.4l3.7,3.2l0.4,0.4l1.2,1.1l0.5,0.4L428.2,688.6"/>
		<path class="st13" d="M416.8,686.2c0.2,0.1,0.3,0.2,0.5,0.3l1-1.3l0.4-0.6l0.8-1.1l0.3-0.5l2.8-4c-0.2-0.1-0.3-0.2-0.5-0.3l-2.8,4
			l-0.3,0.5l-1,1.3l-0.4,0.6L416.8,686.2"/>
	</g>
	<g>
		<path class="st14" d="M349.7,730.4l-1.1-1.1c0.1-0.1,0.2-0.2,0.3-0.3l0.9,0.9L349.7,730.4"/>
		<path class="st14" d="M354.3,735.1l-4.3-4.2l0.1-0.5l4.5,4.4C354.5,734.9,354.4,735,354.3,735.1"/>
		<path class="st14" d="M353.9,735.9l-3.2-1.2c0.1-0.1,0.1-0.3,0.2-0.4l3.2,1.2C354,735.6,354,735.7,353.9,735.9"/>
		<path class="st14" d="M349.8,731.9c-0.1-0.1-0.3-0.1-0.4-0.1l0.3-1.2l0.1-0.5l0.3-1.1l0.1-0.4l0.9-3.7c0.1,0.1,0.3,0.1,0.4,0.1
			l-1,3.7l-0.1,0.4l-0.3,1.3l-0.1,0.5L349.8,731.9"/>
		<path class="st14" d="M357.8,730.7c-0.8,0-1.4,0.7-1.4,1.4s0.7,1.4,1.4,1.4s1.4-0.7,1.4-1.4S358.7,730.7,357.8,730.7"/>
		<path class="st14" d="M351,727.1c-0.1,0-0.2,0-0.2,0c-0.2,0-0.3-0.1-0.4-0.1c-0.1-0.1-0.3-0.1-0.4-0.2c-0.1-0.1-0.2-0.2-0.3-0.3
			c-0.3-0.4-0.5-0.8-0.5-1.2c0-1.1,0.9-1.9,1.9-1.9s1.9,0.9,1.9,1.9c0,0.2,0,0.4-0.1,0.5c0,0.2-0.1,0.3-0.2,0.4
			C352.3,726.7,351.7,727.1,351,727.1"/>
		<path class="st14" d="M347.4,729.5c-0.8,0-1.4-0.7-1.4-1.4s0.7-1.4,1.4-1.4s1.4,0.7,1.4,1.4C349,728.8,348.3,729.5,347.4,729.5"/>
		<path class="st14" d="M347.4,726.5c-0.8,0-1.4,0.7-1.4,1.4s0.7,1.4,1.4,1.4s1.4-0.7,1.4-1.4S348.3,726.6,347.4,726.5 M347.4,729.9
			c-1.1,0-1.8-0.9-1.9-1.8v-0.1c0-1.1,0.9-1.8,1.9-1.8c0.4,0,0.8,0.1,1.1,0.3c0.1,0.1,0.2,0.2,0.3,0.3c0.3,0.4,0.5,0.8,0.5,1.2
			c0,0.1,0,0.2,0,0.3c0,0.2-0.1,0.3-0.1,0.4c-0.1,0.2-0.2,0.3-0.3,0.5c-0.1,0.1-0.2,0.2-0.3,0.3
			C348.3,729.7,347.9,729.9,347.4,729.9 M349.2,735.1c-0.8,0-1.4-0.7-1.4-1.4s0.7-1.4,1.4-1.4s1.4,0.7,1.4,1.4
			S349.9,735.1,349.2,735.1"/>
		<path class="st14" d="M349.2,732.3c-0.8,0-1.4,0.7-1.4,1.4s0.7,1.4,1.4,1.4s1.4-0.7,1.4-1.4S349.9,732.3,349.2,732.3 M349.2,735.6
			c-1.1,0-1.9-0.9-1.9-1.9s0.9-1.9,1.9-1.9c0.1,0,0.2,0,0.3,0c0.2,0,0.3,0.1,0.4,0.1c0.7,0.3,1.2,1,1.2,1.7c0,0.2,0,0.3-0.1,0.5
			c0,0.2-0.1,0.3-0.2,0.4C350.5,735.1,349.8,735.6,349.2,735.6 M355.8,737.8c-0.8,0-1.4-0.7-1.4-1.4s0.7-1.4,1.4-1.4
			s1.4,0.7,1.4,1.4S356.5,737.8,355.8,737.8"/>
		<path class="st14" d="M355.8,734.9c-0.8,0-1.4,0.7-1.4,1.4s0.7,1.4,1.4,1.4s1.4-0.7,1.4-1.4S356.5,734.9,355.8,734.9 M355.8,738.3
			c-1.1,0-1.9-0.9-1.9-1.9c0-0.2,0-0.4,0.1-0.6c0-0.2,0.1-0.3,0.2-0.4c0.1-0.1,0.1-0.2,0.2-0.3c0.1-0.1,0.2-0.2,0.3-0.3
			c0.1-0.1,0.2-0.1,0.3-0.2c0.1-0.1,0.3-0.1,0.4-0.2c0.1,0,0.3-0.1,0.4-0.1c0.2,0,0.3,0,0.5,0.1c0.2,0,0.3,0.1,0.4,0.2
			c0.6,0.3,1,1,1,1.6C357.7,737.4,356.8,738.3,355.8,738.3"/>
		<path class="st14" d="M363,730h-1.4c0,5.1-4.1,9.3-9.3,9.3s-9.3-4.1-9.3-9.3c0-5.1,4.1-9.3,9.3-9.3c5.1,0,9.3,4.1,9.3,9.3h2.8
			c0-6.6-5.4-12.1-12.1-12.1s-12.1,5.4-12.1,12.1s5.4,12.1,12.1,12.1s12.1-5.4,12.1-12.1H363"/>
		<path class="st14" d="M356.6,730c-0.1,0-0.2,0-0.3,0c-0.2,0-0.4-0.1-0.6-0.1c-0.2-0.1-0.4-0.2-0.5-0.3c-0.2-0.1-0.3-0.2-0.5-0.4
			c-0.4-0.5-0.7-1.1-0.7-1.7c0-1.4,1.1-2.5,2.5-2.5c1.3,0,2.5,1.1,2.5,2.5c0,0.2,0,0.5-0.1,0.7c-0.1,0.2-0.1,0.4-0.2,0.6
			C358.4,729.5,357.6,730,356.6,730"/>
		<path class="st14" d="M350.6,733.4c-0.1-0.1-0.2-0.2-0.3-0.3l1-0.9l0.4-0.4l0.8-0.8l0.3-0.3l2.8-2.6c0.1,0.1,0.2,0.2,0.3,0.3
			l-2.9,2.6l-0.3,0.3l-1,0.9l-0.4,0.4L350.6,733.4"/>
		<path class="st14" d="M358,732.6c-0.2,0-0.3,0.1-0.4,0.1l-0.3-1.2l-0.1-0.5l-0.3-1.1l-0.1-0.4l-1-3.7c0.1,0,0.3-0.1,0.4-0.1l1,3.7
			l0.1,0.4l0.3,1.2l0.1,0.5L358,732.6"/>
	</g>
	<g>
		<path class="st15" d="M372.8,652.1l1.5-1.4c-0.2-0.1-0.3-0.3-0.5-0.5l-1.2,1.2L372.8,652.1"/>
		<path class="st15" d="M366,658.8l6.2-6.1L372,652l-6.5,6.4C365.7,658.5,365.9,658.7,366,658.8"/>
		<path class="st15" d="M366.5,659.9l4.6-1.8c-0.1-0.2-0.2-0.4-0.2-0.6l-4.6,1.8C366.4,659.5,366.4,659.7,366.5,659.9"/>
		<path class="st15" d="M372.6,654.2c0.2-0.1,0.4-0.1,0.6-0.2l-0.5-1.8l-0.2-0.8l-0.4-1.5l-0.2-0.6l-1.3-5.5
			c-0.2,0.1-0.4,0.1-0.6,0.2l1.3,5.5l0.2,0.6l0.5,1.9l0.2,0.8L372.6,654.2"/>
		<path class="st15" d="M369.8,643.4c1.1,0,2.1-1,2.1-2.1s-1-2.1-2.1-2.1s-2.1,1-2.1,2.1S368.6,643.4,369.8,643.4"/>
		<path class="st15" d="M369.8,639.1c1.1,0,2.1,1,2.1,2.1c0,1.1-1,2.1-2.1,2.1s-2.1-1-2.1-2.1C367.7,640.1,368.6,639.1,369.8,639.1"
			/>
		<path class="st15" d="M369.8,644c0.1,0,0.2,0,0.3,0c0.2,0,0.4-0.1,0.6-0.2c0.2-0.1,0.4-0.2,0.6-0.3c0.2-0.1,0.4-0.3,0.5-0.4
			c0.5-0.5,0.8-1.1,0.8-1.8c0-1.5-1.2-2.7-2.7-2.7c-1.5,0-2.7,1.2-2.7,2.7c0,0.3,0,0.5,0.1,0.8c0.1,0.2,0.1,0.4,0.3,0.6
			C367.9,643.5,368.7,644,369.8,644"/>
		<path class="st15" d="M376,650.6c1.1,0,2.1-1,2.1-2.1c0-1.1-1-2.1-2.1-2.1s-2.1,1-2.1,2.1C373.9,649.8,374.8,650.6,376,650.6"/>
		<path class="st15" d="M376.1,646.5c1.1,0,2.1,1,2.1,2.1c0,1.1-1,2.1-2.1,2.1c-1.1,0-2.1-1-2.1-2.1
			C373.9,647.4,374.9,646.5,376.1,646.5 M376.1,651.3c1.4,0,2.7-1.1,2.7-2.7v-0.1c0-1.4-1.2-2.7-2.7-2.7c-0.6,0-1.1,0.2-1.5,0.5
			c-0.2,0.1-0.4,0.3-0.5,0.4c-0.5,0.5-0.8,1.1-0.8,1.8c0,0.1,0,0.3,0,0.4c0,0.2,0.1,0.4,0.2,0.6c0.1,0.2,0.2,0.5,0.4,0.7
			c0.1,0.2,0.3,0.3,0.5,0.5C374.8,651,375.4,651.3,376.1,651.3 M373.5,658.7c1.1,0,2.1-1,2.1-2.1c0-1.1-1-2.1-2.1-2.1
			c-1.1,0-2.1,1-2.1,2.1C371.5,657.8,372.4,658.7,373.5,658.7"/>
		<path class="st15" d="M373.5,654.6c1.1,0,2.1,1,2.1,2.1s-1,2.1-2.1,2.1c-1.1,0-2.1-1-2.1-2.1C371.5,655.5,372.4,654.6,373.5,654.6
			 M373.5,659.5c1.5,0,2.7-1.2,2.7-2.7s-1.2-2.7-2.7-2.7c-0.1,0-0.3,0-0.4,0c-0.2,0-0.4,0.1-0.6,0.2c-1.1,0.4-1.7,1.3-1.7,2.6
			c0,0.3,0,0.5,0.1,0.7c0.1,0.2,0.1,0.4,0.2,0.6C371.6,658.8,372.6,659.5,373.5,659.5 M364,662.8c1.1,0,2.1-1,2.1-2.1
			c0-1.1-1-2.1-2.1-2.1s-2.1,1-2.1,2.1C361.8,661.8,362.8,662.8,364,662.8"/>
		<path class="st15" d="M364,658.5c1.1,0,2.1,1,2.1,2.1c0,1.1-1,2.1-2.1,2.1s-2.1-1-2.1-2.1C361.8,659.5,362.8,658.5,364,658.5
			 M364,663.4c1.5,0,2.7-1.2,2.7-2.7c0-0.3,0-0.6-0.1-0.8c-0.1-0.2-0.2-0.4-0.3-0.6s-0.2-0.3-0.3-0.4c-0.1-0.2-0.3-0.3-0.5-0.5
			c-0.1-0.1-0.3-0.2-0.4-0.2c-0.2-0.1-0.4-0.2-0.6-0.2c-0.2,0-0.4-0.1-0.6-0.1c-0.3,0-0.5,0-0.7,0.1c-0.2,0.1-0.4,0.1-0.6,0.2
			c-0.9,0.5-1.4,1.3-1.4,2.4C361.2,662.2,362.4,663.4,364,663.4"/>
		<path class="st15" d="M353.4,651.5h2c0,7.4,5.9,13.4,13.4,13.4c7.4,0,13.4-5.9,13.4-13.4s-5.9-13.4-13.4-13.4
			c-7.4,0-13.4,5.9-13.4,13.4h-4c0-9.7,7.8-17.4,17.4-17.4c9.7,0,17.4,7.8,17.4,17.4c0,9.7-7.8,17.4-17.4,17.4
			c-9.7,0-17.4-7.8-17.4-17.4H353.4"/>
		<path class="st15" d="M360.4,654c0.1,0,0.2,0,0.3,0c0.2,0,0.4-0.1,0.6-0.2c0.2-0.1,0.4-0.2,0.6-0.3c0.2-0.1,0.4-0.3,0.5-0.4
			c0.5-0.5,0.8-1.1,0.8-1.8c0-1.5-1.2-2.7-2.7-2.7s-2.7,1.2-2.7,2.7c0,0.3,0,0.5,0.1,0.8c0.1,0.2,0.1,0.4,0.3,0.6
			C358.5,653.4,359.4,654,360.4,654"/>
		<path class="st15" d="M363.3,660.8c0.2-0.1,0.4-0.2,0.6-0.2l-0.6-1.7l-0.3-0.7l-0.5-1.5l-0.2-0.6l-1.8-5.3
			c-0.2,0.1-0.4,0.2-0.6,0.2l1.8,5.3l0.2,0.6l0.7,1.8l0.3,0.7L363.3,660.8"/>
	</g>
	<g>
		<path class="st16" d="M310,677l-3.4,3.4c0.4,0.3,0.7,0.7,1,1.1l2.8-2.7L310,677"/>
		<path class="st16" d="M325.1,662.1l-14,13.8l0.4,1.6l14.6-14.5C325.8,662.8,325.5,662.5,325.1,662.1"/>
		<path class="st16" d="M323.9,659.9l-10.4,4.1c0.2,0.4,0.4,0.9,0.6,1.3l10.4-4.1C324.2,660.8,324,660.4,323.9,659.9"/>
		<path class="st16" d="M310.4,672.5c-0.5,0.2-0.9,0.3-1.3,0.4l1,4l0.4,1.6l0.9,3.4l0.3,1.3l3,12.2c0.5-0.2,0.9-0.3,1.3-0.3l-3-12.3
			l-0.3-1.3l-1.1-4.2l-0.4-1.6L310.4,672.5"/>
		<path class="st16" d="M315.8,689.7c-0.3,0-0.6,0-0.9,0.1c-0.6,0.1-1.1,0.2-1.5,0.4c-0.5,0.2-1,0.4-1.4,0.8s-0.9,0.7-1.2,1.1
			c-1.1,1.2-1.8,2.9-1.8,4.6c0,3.7,3.1,6.8,6.8,6.8s6.8-3.1,6.8-6.8c0-0.7-0.1-1.2-0.3-1.8c-0.1-0.5-0.4-1.1-0.6-1.4
			C320.6,691.1,318.4,689.7,315.8,689.7"/>
		<path class="st16" d="M303.7,688.4c-2.6,0-4.7-2.1-4.7-4.7c0-2.6,2.1-4.7,4.7-4.7s4.7,2.1,4.7,4.7
			C308.5,686.3,306.4,688.4,303.7,688.4"/>
		<path class="st16" d="M308.1,662.2c-2.6,0-4.7,2.1-4.7,4.7c0,2.6,2.1,4.7,4.7,4.7s4.7-2.1,4.7-4.7
			C312.8,664.3,310.7,662.2,308.1,662.2"/>
		<path class="st16" d="M308.1,671.6c-2.6,0-4.7-2.1-4.7-4.7c0-2.6,2.1-4.7,4.7-4.7s4.7,2.1,4.7,4.7
			C312.8,669.5,310.7,671.6,308.1,671.6 M308.1,660.8c-3.4,0-6.1,2.7-6.1,6.1c0,3.4,2.7,6.1,6.1,6.1c0.3,0,0.6,0,0.8-0.1
			c0.5-0.1,1-0.2,1.3-0.4c2.3-0.9,3.9-3.1,3.9-5.6c0-0.6-0.1-1.1-0.2-1.6c-0.1-0.5-0.3-0.9-0.6-1.3
			C312.5,662.1,310.4,660.8,308.1,660.8 M329.8,653.4c-2.6,0-4.7,2.1-4.7,4.7c0,2.6,2.1,4.7,4.7,4.7c2.6,0,4.7-2.1,4.7-4.7
			C334.4,655.5,332.3,653.4,329.8,653.4"/>
		<path class="st16" d="M329.8,662.8c-2.6,0-4.7-2.1-4.7-4.7c0-2.6,2.1-4.7,4.7-4.7s4.7,2.1,4.7,4.7
			C334.4,660.7,332.3,662.8,329.8,662.8 M329.8,652c-3.4,0-6.1,2.7-6.1,6.1c0,0.6,0.1,1.1,0.3,1.7c0.1,0.5,0.3,0.9,0.6,1.3
			c0.2,0.3,0.4,0.7,0.7,1c0.3,0.4,0.7,0.7,1.1,1c0.3,0.2,0.6,0.4,0.9,0.6c0.4,0.2,0.9,0.4,1.3,0.5c0.5,0.1,0.9,0.2,1.3,0.2
			c0.6,0,1.1-0.1,1.5-0.2c0.5-0.1,0.9-0.3,1.3-0.6c1.9-1.1,3.2-3.1,3.2-5.4C335.8,654.7,333.1,652,329.8,652"/>
		<path class="st16" d="M353,678.6h-4.5c0-16.5-13.4-29.9-30-30c-16.5,0-29.9,13.4-30,30c0,16.5,13.4,29.9,30,30
			c16.5,0,29.9-13.4,30-30h9.2c0,21.4-17.4,39-39,39c-21.5,0-39-17.4-39-39c0-21.5,17.4-39,39-39c21.4,0,39,17.4,39,39H353"/>
		<path class="st16" d="M332.9,674.9c-0.4,0-0.8,0-1.1,0.1c-0.7,0.1-1.4,0.3-2.1,0.5c-0.7,0.3-1.3,0.6-1.9,1
			c-0.6,0.4-1.1,0.9-1.6,1.3c-1.5,1.6-2.4,3.8-2.4,6.1c0,5,4,9.2,9.2,9.2c5.1,0,9.2-4,9.2-9.2c0-0.9-0.1-1.6-0.3-2.4
			c-0.2-0.7-0.5-1.3-0.8-1.9C339.4,676.8,336.3,674.9,332.9,674.9"/>
		<path class="st16" d="M329.8,660.9l1.6,19.5l1.5,0.8l-1.7-20.5C330.7,660.8,330.3,660.9,329.8,660.9"/>
	</g>
	<g>
		<path class="st17" d="M461.4,652l2.4-2.4c-0.3-0.2-0.5-0.5-0.8-0.8l-2,1.9L461.4,652"/>
		<path class="st17" d="M450.5,662.9l10.1-10.1l-0.3-1.1l-10.6,10.5C450,662.4,450.2,662.7,450.5,662.9"/>
		<path class="st17" d="M461.1,655.2c0.3-0.1,0.7-0.2,1-0.3l-0.8-3l-0.3-1.1l-0.6-2.5l-0.3-1l-2.1-8.7c-0.3,0.1-0.7,0.2-1,0.3
			l2.1,8.8l0.3,1l0.8,3.1l0.3,1.1L461.1,655.2"/>
		<path class="st17" d="M448.2,642c1.8,0,3.4-1.5,3.4-3.4c0-1.8-1.5-3.4-3.4-3.4s-3.4,1.5-3.4,3.4C444.6,640.5,446.2,642,448.2,642"
			/>
		<path class="st17" d="M451,648.1c1.3,0,2.5,1.1,2.5,2.5c0,1.3-1.1,2.5-2.5,2.5c-1.3,0-2.5-1.1-2.5-2.5
			C448.5,649.3,449.6,648.1,451,648.1"/>
		<path class="st17" d="M457.6,642c0.1,0,0.2,0,0.3,0c0.2,0,0.4-0.1,0.6-0.2c0.2-0.1,0.4-0.2,0.6-0.3c0.2-0.1,0.4-0.3,0.5-0.4
			c0.5-0.5,0.8-1.1,0.8-1.8c0-1.5-1.2-2.8-2.8-2.8s-2.8,1.2-2.8,2.8c0,0.3,0,0.5,0.1,0.8c0.1,0.2,0.1,0.4,0.3,0.6
			C455.7,641.3,456.6,642,457.6,642"/>
		<path class="st17" d="M466.7,649.6c1.8,0,3.4-1.5,3.4-3.4c0-1.8-1.5-3.4-3.4-3.4s-3.4,1.5-3.4,3.4
			C463.3,648,464.8,649.6,466.7,649.6"/>
		<path class="st17" d="M466.7,642.9c1.8,0,3.4,1.5,3.4,3.4c0,1.8-1.5,3.4-3.4,3.4s-3.4-1.5-3.4-3.4
			C463.2,644.3,464.8,642.9,466.7,642.9 M466.7,650.6c2.4,0,4.3-1.9,4.4-4.3v-0.2c-0.1-2.4-2-4.3-4.4-4.3c-0.9,0-1.7,0.3-2.5,0.8
			c-0.3,0.2-0.6,0.4-0.8,0.7c-0.8,0.8-1.1,1.8-1.1,3c0,0.2,0,0.5,0.1,0.7c0.1,0.4,0.1,0.7,0.3,1c0.2,0.4,0.4,0.8,0.6,1.1
			c0.2,0.3,0.5,0.5,0.8,0.8C464.7,650.2,465.6,650.6,466.7,650.6 M462.6,662.9c1.8,0,3.4-1.5,3.4-3.4c0-1.8-1.5-3.4-3.4-3.4
			s-3.4,1.5-3.4,3.4C459.3,661.3,460.8,662.8,462.6,662.9"/>
		<path class="st17" d="M462.6,656c1.8,0,3.4,1.5,3.4,3.4c0,1.8-1.5,3.4-3.4,3.4s-3.4-1.5-3.4-3.4C459.3,657.5,460.8,656,462.6,656
			 M462.6,663.8c2.4,0,4.4-2,4.4-4.4c0-2.4-2-4.4-4.4-4.4c-0.2,0-0.4,0-0.6,0c-0.4,0-0.7,0.1-1,0.3c-1.6,0.7-2.9,2.2-2.9,4.1
			c0,0.4,0.1,0.8,0.2,1.1c0.1,0.4,0.2,0.7,0.4,1C459.6,663,461,663.8,462.6,663.8 M447.1,669.2c1.8,0,3.4-1.5,3.4-3.4
			c0-1.8-1.5-3.4-3.4-3.4s-3.4,1.5-3.4,3.4C443.7,667.7,445.1,669.2,447.1,669.2"/>
		<path class="st17" d="M447.1,662.4c1.8,0,3.4,1.5,3.4,3.4c0,1.8-1.5,3.4-3.4,3.4s-3.4-1.5-3.4-3.4
			C443.7,663.9,445.1,662.4,447.1,662.4 M447.1,670.1c2.4,0,4.4-2,4.4-4.4c0-0.5-0.1-0.9-0.2-1.2c-0.1-0.4-0.3-0.7-0.4-1
			c-0.1-0.3-0.3-0.5-0.5-0.7c-0.2-0.3-0.5-0.5-0.8-0.7c-0.2-0.1-0.4-0.3-0.7-0.4c-0.3-0.2-0.7-0.3-1-0.4c-0.3-0.1-0.7-0.1-1-0.1
			c-0.4,0-0.8,0.1-1.1,0.2c-0.4,0.1-0.7,0.2-1,0.4c-1.3,0.8-2.3,2.2-2.3,3.9C442.6,668.2,444.5,670.1,447.1,670.1"/>
		<path class="st17" d="M430.2,651h3.3c0,12,9.8,21.5,21.6,21.6c12,0,21.5-9.7,21.6-21.6c0-12-9.8-21.5-21.6-21.6
			c-12,0-21.5,9.8-21.6,21.6h-6.5c0-15.6,12.6-28.2,28.2-28.2c15.6,0,28.2,12.6,28.2,28.2s-12.6,28.2-28.2,28.2
			c-15.6,0-28.2-12.6-28.2-28.2H430.2"/>
		<path class="st17" d="M443.7,650.8c1.8,0,3.4-1.5,3.4-3.4c0-1.8-1.5-3.4-3.4-3.4s-3.4,1.5-3.4,3.4
			C440.2,649.3,441.8,650.8,443.7,650.8"/>
		<path class="st17" d="M445.9,665.2c0.3-0.1,0.7-0.1,1.1-0.2l-0.4-3l-0.3-1.1l-0.3-2.5l-0.1-1.1l-1.1-9c-0.3,0.1-0.7,0.1-1.1,0.1
			l1.1,9.1l0.1,1.1l0.4,3.1l0.2,1.1L445.9,665.2"/>
		<path class="st17" d="M450.9,652.3c0.3-0.1,0.5-0.2,0.8-0.3l-0.6-3l-0.2-1.1l-0.5-2.5l-0.2-1l-1.7-8.7c-0.3,0.1-0.5,0.2-0.8,0.3
			l1.7,8.8l0.2,1l0.6,3.1l0.2,1.1L450.9,652.3"/>
		<path class="st17" d="M463.5,661.2c0.2-0.3,0.4-0.6,0.6-0.9l-2.4-1.8l-1-0.8l-2-1.5l-0.9-0.7l-7.2-5.5c-0.2,0.3-0.4,0.6-0.7,0.9
			l7.2,5.5l0.9,0.7l2.5,1.9l1,0.8L463.5,661.2"/>
	</g>
	<g>
		<path class="st18" d="M252.2,644.2l-14.5-5.7c0.3-0.6,0.6-1.1,0.8-1.8l14.5,5.7C252.6,642.9,252.3,643.5,252.2,644.2"/>
		<path class="st18" d="M221.3,610.4c0.2-0.7,0.2-1.2,0.2-1.9l5.7,0.6l2.3,0.2l4.9,0.5l2,0.2l17.3,1.6c-0.1,0.7-0.2,1.3-0.2,2
			l-17.4-1.6l-2-0.2l-5.9-0.6l-2.3-0.2L221.3,610.4"/>
		<path class="st18" d="M255.3,595.3c-3.5,0-6.5-2.9-6.5-6.5c0-3.5,2.9-6.5,6.5-6.5c3.5,0,6.5,2.9,6.5,6.5
			C261.8,592.4,258.9,595.3,255.3,595.3"/>
		<path class="st18" d="M273,625.7c-3.5,0-6.5,2.9-6.5,6.5c0,3.5,2.9,6.5,6.5,6.5c3.5,0,6.5-2.9,6.5-6.5S276.7,625.7,273,625.7"/>
		<path class="st18" d="M239.8,602.5c-0.3,0-0.6,0-0.9-0.1c-0.6-0.1-1.1-0.2-1.6-0.4c-0.6-0.2-1.1-0.5-1.5-0.8
			c-0.5-0.3-0.9-0.7-1.2-1.1c-1.1-1.2-1.9-3-1.9-4.9c0-3.9,3.2-7.2,7.2-7.2c3.9,0,7.2,3.2,7.2,7.2c0,0.7-0.1,1.3-0.3,1.9
			s-0.4,1.1-0.7,1.5C244.9,601,242.5,602.5,239.8,602.5"/>
		<path class="st18" d="M222.8,615.5c-3.5,0-6.5-2.9-6.5-6.5c0-3.5,2.9-6.5,6.5-6.5c3.5,0,6.5,2.9,6.5,6.5
			C229.3,612.5,226.3,615.5,222.8,615.5"/>
		<path class="st18" d="M222.8,602.4c-3.5,0-6.5,2.9-6.5,6.5c0,3.5,2.9,6.5,6.5,6.5c3.5,0,6.5-2.9,6.5-6.5
			C229.2,605.3,226.3,602.4,222.8,602.4"/>
		<path class="st18" d="M222.8,617.4c-4.6,0-8.3-3.6-8.5-8.2v-0.4c0.1-4.6,3.8-8.2,8.5-8.2c1.7,0,3.4,0.6,4.7,1.4
			c0.6,0.4,1.1,0.8,1.5,1.2c1.4,1.5,2.3,3.5,2.3,5.7c0,0.4,0,0.9-0.1,1.2c-0.1,0.7-0.3,1.3-0.6,1.9c-0.3,0.8-0.7,1.4-1.1,2
			c-0.4,0.6-0.9,1-1.3,1.4C226.6,616.7,224.7,617.4,222.8,617.4"/>
		<path class="st18" d="M230.2,640.8c-3.5,0-6.5-2.9-6.5-6.5c0-3.5,2.9-6.5,6.5-6.5c3.5,0,6.5,2.9,6.5,6.5
			C236.8,637.9,233.9,640.8,230.2,640.8"/>
		<path class="st18" d="M230.2,627.8c-3.5,0-6.5,2.9-6.5,6.5c0,3.5,2.9,6.5,6.5,6.5c3.5,0,6.5-2.9,6.5-6.5
			C236.8,630.7,233.9,627.8,230.2,627.8"/>
		<path class="st18" d="M232.5,645.4c-5.6,0-10.3-4.6-10.3-10.3c0-5.6,4.6-10.3,10.3-10.3c0.5,0,0.9,0,1.3,0.1
			c0.8,0.1,1.6,0.3,2.3,0.6c3.8,1.4,6.6,5.2,6.6,9.7c0,1-0.1,1.8-0.4,2.7c-0.2,0.8-0.5,1.5-0.9,2.2
			C239.9,643.2,236.6,645.4,232.5,645.4"/>
		<path class="st18" d="M255.9,651.5c-3.5,0-6.5-2.9-6.5-6.5c0-3.5,2.9-6.5,6.5-6.5c3.5,0,6.5,2.9,6.5,6.5S259.5,651.5,255.9,651.5"
			/>
		<path class="st18" d="M292.7,618.2h-6.3c0,22.9-18.7,41.4-41.5,41.5c-22.9,0-41.4-18.6-41.5-41.5c0-22.9,18.7-41.4,41.5-41.5
			c22.9,0,41.4,18.7,41.5,41.5h12.7c0-30-24.2-54.2-54.2-54.2s-54.2,24.2-54.2,54.2c0,30,24.2,54.2,54.2,54.2s54.2-24.2,54.2-54.2
			H292.7"/>
		<path class="st18" d="M262.4,626.2c-0.6,0-1.1,0-1.6-0.1c-1.1-0.1-2.1-0.4-3.2-0.8c-1.1-0.4-2-0.9-2.9-1.4
			c-0.9-0.6-1.7-1.3-2.5-2.1c-2.3-2.5-3.6-5.7-3.6-9.5c0-7.7,6.2-14,14-14c7.7,0,14,6.2,14,14c0,1.2-0.2,2.5-0.5,3.7
			c-0.3,1.1-0.7,2.1-1.2,3C272.3,623.2,267.7,626.2,262.4,626.2"/>
		<path class="st18" d="M261.9,617.6l-19.4-19.1l0.6-2.2l20.4,20.1C262.9,616.6,262.4,617.1,261.9,617.6"/>
		<path class="st18" d="M272.9,633.2L260.3,609l1.2-1.9l13.2,25.4C274.1,632.6,273.5,632.9,272.9,633.2"/>
		<path class="st18" d="M261.5,617.3l-6.2-26.5l1.6-1.6l6.5,27.9C262.8,617,262.1,617.1,261.5,617.3"/>
		<path class="st18" d="M254.5,618.9l-22,16.1l-2.1-0.9l23.1-16.8C253.8,617.9,254.2,618.4,254.5,618.9"/>
	</g>
	<g>
		<path class="st19" d="M501,626.8l-2.1-2.1c0.2-0.2,0.5-0.4,0.7-0.7l1.7,1.7L501,626.8"/>
		<path class="st19" d="M510.6,636.3l-8.8-8.7l0.3-1.1l9.4,9.2C511.1,635.9,510.8,636.1,510.6,636.3"/>
		<path class="st19" d="M509.8,637.7l-6.5-2.6c0.1-0.3,0.3-0.6,0.3-0.9l6.6,2.6C510.1,637.1,509.9,637.4,509.8,637.7"/>
		<path class="st19" d="M501.3,629.7c-0.3-0.1-0.6-0.2-0.9-0.2l0.7-2.6l0.3-1.1l0.6-2.2l0.2-0.9l1.9-7.7c0.3,0.1,0.6,0.2,0.9,0.2
			l-1.9,7.7l-0.2,0.9l-0.7,2.7l-0.3,1.1L501.3,629.7"/>
		<path class="st19" d="M505.2,614.3c-1.6,0-3-1.3-3-3c0-1.6,1.3-3,3-3c1.6,0,3,1.3,3,3S506.9,614.3,505.2,614.3"/>
		<path class="st19" d="M505.2,608.4c-1.6,0-3,1.3-3,3c0,1.6,1.3,3,3,3c1.6,0,3-1.3,3-3S506.9,608.4,505.2,608.4"/>
		<path class="st19" d="M505.2,615.2c-0.2,0-0.3,0-0.5,0c-0.3,0-0.6-0.1-0.9-0.2c-0.3-0.1-0.6-0.3-0.8-0.4c-0.3-0.2-0.5-0.4-0.7-0.6
			c-0.7-0.7-1.1-1.6-1.1-2.6c0-2.1,1.7-3.8,3.8-3.8s3.8,1.7,3.8,3.8c0,0.4,0,0.7-0.1,1.1c-0.1,0.3-0.2,0.6-0.4,0.9
			C508,614.4,506.7,615.2,505.2,615.2"/>
		<path class="st19" d="M496.4,624.7c-1.6,0-3-1.3-3-3c0-1.6,1.3-3,3-3c1.6,0,3,1.3,3,3S498.1,624.7,496.4,624.7"/>
		<path class="st19" d="M496.4,618.6c-1.6,0-3,1.3-3,3c0,1.6,1.3,3,3,3c1.6,0,3-1.3,3-3S498.1,618.6,496.4,618.6 M496.4,625.5
			c-2.1,0-3.8-1.7-3.8-3.7v-0.2c0-2.1,1.7-3.7,3.8-3.7c0.8,0,1.5,0.3,2.1,0.7c0.3,0.2,0.5,0.4,0.7,0.6c0.7,0.7,1.1,1.6,1.1,2.6
			c0,0.2,0,0.4,0,0.6c0,0.3-0.1,0.6-0.3,0.9c-0.1,0.3-0.3,0.7-0.6,1c-0.2,0.3-0.4,0.5-0.7,0.7C498.2,625.2,497.3,625.5,496.4,625.5
			 M499.9,636.2c-1.6,0-3-1.3-3-3c0-1.6,1.3-3,3-3c1.6,0,3,1.3,3,3S501.5,636.2,499.9,636.2"/>
		<path class="st19" d="M499.9,630.2c-1.6,0-3,1.3-3,3c0,1.6,1.3,3,3,3c1.6,0,3-1.3,3-3C502.8,631.6,501.5,630.3,499.9,630.2
			 M499.9,637.1c-2.1,0-3.8-1.7-3.8-3.8s1.7-3.8,3.8-3.8c0.2,0,0.4,0,0.5,0c0.3,0,0.6,0.1,0.9,0.2c1.4,0.6,2.5,1.9,2.5,3.6
			c0,0.4,0,0.7-0.1,1c-0.1,0.3-0.2,0.6-0.3,0.9C502.7,636.3,501.4,637.1,499.9,637.1 M513.6,641.8c-1.6,0-3-1.3-3-3s1.3-3,3-3
			c1.6,0,3,1.3,3,3C516.5,640.5,515.2,641.8,513.6,641.8"/>
		<path class="st19" d="M513.6,635.8c-1.6,0-3,1.3-3,3s1.3,3,3,3s3-1.3,3-3C516.5,637.1,515.2,635.9,513.6,635.8 M513.6,642.8
			c-2.1,0-3.8-1.7-3.8-3.8c0-0.4,0.1-0.8,0.2-1.1c0.1-0.3,0.2-0.6,0.4-0.9c0.1-0.2,0.3-0.4,0.4-0.6c0.2-0.2,0.4-0.5,0.7-0.6
			c0.2-0.1,0.4-0.3,0.6-0.3c0.3-0.1,0.6-0.2,0.9-0.3c0.3-0.1,0.6-0.1,0.9-0.1c0.4,0,0.7,0,1,0.1c0.3,0.1,0.6,0.2,0.9,0.3
			c1.2,0.7,2,1.9,2,3.4C517.5,640.9,515.7,642.8,513.6,642.8"/>
		<path class="st19" d="M528.4,625.9h-2.9c0,10.5-8.4,19-19,19c-10.5,0-19-8.4-19-19s8.4-19,19-19c10.5,0,19,8.4,19,19h5.7
			c0-13.7-11.1-24.7-24.7-24.7c-13.7,0-24.7,11.1-24.7,24.7c0,13.7,11.1,24.7,24.7,24.7c13.7,0,24.7-11.1,24.7-24.7H528.4"/>
	</g>
	<g>
		<path class="st20" d="M338.9,599.7l2.9,2.9c-0.3,0.3-0.6,0.6-0.9,0.9l-2.4-2.3L338.9,599.7"/>
		<path class="st20" d="M326,586.9l12,11.9l-0.4,1.3L325,587.7C325.4,587.4,325.7,587.2,326,586.9"/>
		<path class="st20" d="M327,584.9l8.8,3.5c-0.2,0.4-0.4,0.8-0.5,1.1l-9-3.5C326.7,585.7,326.9,585.3,327,584.9"/>
		<path class="st20" d="M338.6,595.9c0.4,0.2,0.8,0.3,1.1,0.3l-0.9,3.4l-0.4,1.3l-0.7,2.9l-0.3,1.1l-2.5,10.4
			c-0.4-0.1-0.8-0.3-1.1-0.3l2.5-10.4l0.3-1.1l0.9-3.6l0.4-1.3L338.6,595.9"/>
		<path class="st20" d="M333.2,616.4c2.2,0,4,1.8,4,4s-1.8,4-4,4s-4-1.8-4-4S331,616.5,333.2,616.4"/>
		<path class="st20" d="M333.2,624.6c2.2,0,4-1.8,4-4s-1.8-4-4-4s-4,1.8-4,4C329.2,622.7,331,624.6,333.2,624.6"/>
		<path class="st20" d="M333.2,615.3c0.2,0,0.4,0,0.7,0c0.4,0.1,0.8,0.2,1.1,0.3c0.4,0.2,0.8,0.3,1.1,0.6c0.4,0.2,0.7,0.5,1,0.8
			c0.9,1,1.3,2.2,1.3,3.5c0,2.9-2.3,5.2-5.2,5.2s-5.2-2.3-5.2-5.2c0-0.5,0.1-1,0.2-1.4c0.1-0.4,0.3-0.8,0.5-1.1
			C329.6,616.3,331.3,615.3,333.2,615.3"/>
		<path class="st20" d="M328.7,595c3.7,0,6.7,3,6.7,6.7s-3,6.7-6.7,6.7c-3.7,0-6.7-3-6.7-6.7C321.9,598.1,325,595.1,328.7,595"/>
		<path class="st20" d="M320.7,617.8c2.2,0,4-1.8,4-4s-1.8-4-4-4s-4,1.8-4,4C316.8,616,318.5,617.8,320.7,617.8"/>
		<path class="st20" d="M344,601.4c2.3,0,4.1,1.8,4.1,4v0.2c-0.1,2.2-1.9,4-4.1,4c-0.9,0-1.6-0.3-2.3-0.7c-0.3-0.2-0.5-0.4-0.8-0.7
			c-0.7-0.8-1.1-1.7-1.1-2.8c0-0.2,0-0.4,0.1-0.7c0.1-0.3,0.1-0.7,0.3-1c0.1-0.4,0.3-0.7,0.6-1c0.2-0.3,0.4-0.5,0.7-0.7
			C342.2,601.7,343.1,601.4,344,601.4"/>
		<path class="st20" d="M340.5,587c2.2,0,4,1.8,4,4s-1.8,4-4,4s-4-1.8-4-4C336.5,588.9,338.2,587,340.5,587"/>
		<path class="st20" d="M340.5,595c2.2,0,4-1.8,4-4s-1.8-4-4-4s-4,1.8-4,4C336.5,593.3,338.2,595,340.5,595 M340.5,585.7
			c2.9,0,5.2,2.3,5.2,5.2s-2.3,5.2-5.2,5.2c-0.2,0-0.5,0-0.7,0c-0.4-0.1-0.8-0.2-1.1-0.3c-1.9-0.8-3.4-2.7-3.4-4.9
			c0-0.5,0.1-1,0.2-1.3c0.1-0.4,0.3-0.8,0.5-1.1C336.8,586.9,338.5,585.7,340.5,585.7 M321.9,579.5c2.2,0,4,1.8,4,4s-1.8,4-4,4
			c-2.2,0-4-1.8-4-4C317.9,581.2,319.7,579.5,321.9,579.5"/>
		<path class="st20" d="M321.9,587.4c2.2,0,4-1.8,4-4s-1.8-4-4-4s-4,1.8-4,4S319.7,587.4,321.9,587.4 M321.9,578.2
			c2.9,0,5.2,2.3,5.2,5.2c0,0.5-0.1,1.1-0.2,1.4c-0.1,0.4-0.3,0.8-0.5,1.1c-0.2,0.3-0.4,0.6-0.6,0.8c-0.3,0.3-0.6,0.6-0.9,0.9
			c-0.2,0.2-0.5,0.3-0.8,0.5c-0.4,0.2-0.8,0.3-1.1,0.4c-0.4,0.1-0.8,0.1-1.1,0.1c-0.5,0-1-0.1-1.3-0.2c-0.4-0.1-0.8-0.3-1.1-0.5
			c-1.6-0.9-2.8-2.6-2.8-4.6C316.8,580.6,319.1,578.2,321.9,578.2"/>
		<path class="st20" d="M301.9,600.9h3.8c0-14.2,11.5-25.5,25.6-25.6c14.2,0,25.5,11.5,25.6,25.6c0,14.2-11.5,25.5-25.6,25.6
			c-14.2,0-25.5-11.5-25.6-25.6h-7.7c0,18.4,14.9,33.4,33.4,33.4s33.4-14.9,33.4-33.4s-14.9-33.4-33.4-33.4
			c-18.4,0-33.4,14.9-33.4,33.4H301.9"/>
		<path class="st20" d="M315.5,594.8c2.9,0,5.2,2.3,5.2,5.1v0.3c-0.1,2.8-2.4,5.1-5.2,5.1c-1.1,0-2.1-0.3-2.9-0.9
			c-0.4-0.2-0.7-0.5-1-0.8c-0.9-1-1.3-2.2-1.3-3.5c0-0.3,0-0.5,0.1-0.8c0.1-0.4,0.2-0.8,0.3-1.1c0.2-0.5,0.4-0.9,0.7-1.2
			c0.3-0.3,0.6-0.6,0.9-0.9C313.1,595.3,314.3,594.9,315.5,594.8"/>
		<path class="st20" d="M333.5,602.3l9.2,2.9c-0.2,0.4-0.3,0.8-0.4,1.1l-9.2-2.9C333.2,603,333.4,602.7,333.5,602.3"/>
		<path class="st20" d="M320.7,613.1l4.8-8.2c0.3,0.3,0.7,0.5,1.1,0.6l-4.8,8.2C321.5,613.5,321.1,613.3,320.7,613.1"/>
		<path class="st20" d="M316.6,599.9l9.6,1c-0.1,0.4-0.1,0.8-0.1,1.2l-9.6-1C316.6,600.6,316.6,600.3,316.6,599.9"/>
	</g>
	<g>
		<path class="st21" d="M556.9,555.8l-5-4.9c0.6-0.5,1.1-1,1.4-1.5l4.1,4L556.9,555.8"/>
		<path class="st21" d="M579.2,577.8l-20.6-20.3l0.6-2.4l21.6,21.2C580.2,576.8,579.6,577.3,579.2,577.8"/>
		<path class="st21" d="M577.4,581.2l-15.3-6c0.3-0.6,0.6-1.2,0.8-1.9l15.3,6C577.9,579.8,577.6,580.5,577.4,581.2"/>
		<path class="st21" d="M557.4,562.3c-0.7-0.3-1.3-0.4-2-0.5l1.4-6l0.6-2.4l1.2-5.1l0.5-2l4.3-17.9c0.7,0.2,1.3,0.4,2,0.5l-4.4,18
			l-0.5,2l-1.5,6.2l-0.6,2.4L557.4,562.3"/>
		<path class="st21" d="M564.3,532.4c-0.4,0-0.8,0-1.1-0.1c-0.7-0.1-1.4-0.3-2-0.5c-0.7-0.3-1.2-0.6-1.8-1c-0.6-0.4-1.1-0.9-1.6-1.3
			c-1.4-1.6-2.4-3.7-2.4-6.1c0-5,4-9.1,9.1-9.1c5.1,0,9.1,4,9.1,9.1c0,0.9-0.1,1.6-0.3,2.4c-0.2,0.7-0.5,1.3-0.8,1.9
			C570.7,530.5,567.8,532.4,564.3,532.4"/>
		<path class="st21" d="M548.3,539.5c-3.8,0-6.9,3.1-6.9,6.9c0,3.8,3.1,6.9,6.9,6.9c3.8,0,6.9-3.1,6.9-6.9
			C555.2,542.6,552.2,539.5,548.3,539.5"/>
		<path class="st21" d="M554.1,577.7c-3.8,0-6.9-3.1-6.9-6.9s3.1-6.9,6.9-6.9c3.8,0,6.9,3.1,6.9,6.9
			C561.1,574.5,558,577.7,554.1,577.7"/>
		<path class="st21" d="M554.1,563.8c-3.8,0-6.9,3.1-6.9,6.9s3.1,6.9,6.9,6.9c3.8,0,6.9-3.1,6.9-6.9
			C561.1,566.9,558,563.8,554.1,563.8 M554.1,579.8c-5,0-9.1-4-9.1-9.1s4-9.1,9.1-9.1c0.4,0,0.8,0,1.1,0.1c0.7,0.1,1.4,0.3,2,0.5
			c3.4,1.2,5.7,4.6,5.7,8.4c0,0.9-0.1,1.6-0.3,2.3s-0.5,1.3-0.8,1.9C560.6,577.9,557.6,579.8,554.1,579.8 M586.1,590.6
			c-3.8,0-6.9-3.1-6.9-6.9c0-3.8,3.1-6.9,6.9-6.9s6.9,3.1,6.9,6.9C592.9,587.5,589.8,590.5,586.1,590.6"/>
		<path class="st21" d="M586.1,576.8c-3.8,0-6.9,3.1-6.9,6.9c0,3.8,3.1,6.9,6.9,6.9s6.9-3.1,6.9-6.9
			C592.9,579.9,589.8,576.8,586.1,576.8 M586.1,592.7c-5,0-9.1-4-9.1-9.1c0-0.9,0.1-1.7,0.4-2.6c0.2-0.7,0.5-1.3,0.9-1.9
			c0.3-0.5,0.6-1,1-1.3c0.5-0.6,1-1.1,1.5-1.4c0.4-0.3,0.9-0.6,1.2-0.8c0.6-0.3,1.2-0.6,2-0.7c0.7-0.2,1.3-0.2,2-0.2
			c0.8,0,1.5,0.1,2.3,0.3c0.7,0.2,1.3,0.5,1.9,0.8c2.8,1.5,4.7,4.5,4.7,7.9C595.1,588.6,590.9,592.7,586.1,592.7"/>
		<path class="st21" d="M620.4,553.5h-6.7c0,24.3-19.8,43.9-44,44c-24.3,0-43.9-19.6-44-44c0-24.3,19.8-43.9,44-44
			c24.3,0,43.9,19.8,44,44h13.4c0-31.7-25.7-57.5-57.5-57.5c-31.9,0-57.5,25.7-57.5,57.5c0,31.9,25.7,57.5,57.5,57.5
			c31.7,0,57.5-25.7,57.5-57.5H620.4"/>
		<path class="st21" d="M574.8,562.3c-0.5,0-1,0-1.4-0.1c-0.9-0.1-1.8-0.3-2.6-0.7c-0.9-0.3-1.6-0.8-2.4-1.2c-0.8-0.5-1.4-1.1-2-1.7
			c-1.9-2.1-3.1-4.8-3.1-7.8c0-6.3,5.2-11.6,11.6-11.6c6.4,0,11.6,5.2,11.6,11.6c0,1.1-0.1,2.1-0.4,3.1c-0.2,0.9-0.6,1.7-1.1,2.5
			C582.9,559.9,579.1,562.3,574.8,562.3"/>
		<path class="st21" d="M596.7,571.3c-0.4,0-0.8,0-1.1-0.1c-0.7-0.1-1.4-0.3-2-0.5c-0.7-0.3-1.2-0.6-1.8-1c-0.6-0.4-1.1-0.9-1.6-1.3
			c-1.4-1.6-2.4-3.7-2.4-6.1c0-5,4-9.1,9.1-9.1c5.1,0,9.1,4,9.1,9.1c0,0.9-0.1,1.6-0.3,2.4c-0.2,0.7-0.5,1.3-0.8,1.9
			C603,569.5,600,571.3,596.7,571.3"/>
		<path class="st21" d="M589.6,540.3c-0.4,0-0.8,0-1.1-0.1c-0.7-0.1-1.4-0.3-2-0.5c-0.7-0.3-1.2-0.6-1.8-1c-0.6-0.4-1.1-0.9-1.6-1.3
			c-1.4-1.6-2.4-3.7-2.4-6.1c0-5,4-9.1,9.1-9.1c5,0,9.1,4,9.1,9.1c0,0.9-0.1,1.6-0.3,2.4c-0.2,0.7-0.5,1.3-0.8,1.9
			C596,538.4,593,540.3,589.6,540.3"/>
		<path class="st21" d="M597.3,566c-0.7,0-1.3,0.2-2.1,0.4l-1.1-6l-0.5-2.4l-1-5.1l-0.4-2.1l-3.5-18.1c0.7-0.1,1.4-0.2,2.1-0.4
			l3.5,18.2l0.4,2.1l1.2,6.2l0.5,2.4L597.3,566"/>
		<path class="st21" d="M572.5,554.3c-0.5-0.5-1.1-1-1.6-1.3l3.8-4.8l1.5-1.9l3.3-4l1.3-1.6l11.6-14.4c0.5,0.5,1.1,1,1.6,1.3
			L582.3,542l-1.3,1.6l-4,5l-1.5,1.9L572.5,554.3"/>
		<path class="st21" d="M554.8,570.6c-0.4-0.6-0.9-1.1-1.4-1.5l4.5-4.2l1.7-1.7l3.7-3.5l1.5-1.4l13.4-12.7c0.4,0.6,0.9,1.1,1.4,1.5
			l-13.5,12.7l-1.5,1.4l-4.6,4.4l-1.7,1.7L554.8,570.6"/>
	</g>
	<g>
		<path class="st22" d="M270.7,534.4l-3.2-3.2c0.4-0.3,0.7-0.6,1-1l2.6,2.6L270.7,534.4"/>
		<path class="st22" d="M285.1,548.6l-13.2-13l0.4-1.5l14,13.8C285.8,548,285.4,548.3,285.1,548.6"/>
		<path class="st22" d="M283.9,550.8l-9.9-3.9c0.2-0.4,0.4-0.9,0.5-1.2l10,3.9C284.2,549.9,284,550.3,283.9,550.8"/>
		<path class="st22" d="M271.1,538.7c-0.4-0.2-0.9-0.3-1.3-0.4l1-3.8l0.4-1.5l0.8-3.3l0.3-1.3l2.8-11.6c0.4,0.2,0.9,0.3,1.3,0.3
			l-2.8,11.6l-0.3,1.3l-1,4l-0.4,1.5L271.1,538.7"/>
		<path class="st22" d="M277,515.7c-2.5,0-4.4-2-4.4-4.4c0-2.5,2-4.4,4.4-4.4c2.5,0,4.4,2,4.4,4.4S279.5,515.7,277,515.7"/>
		<path class="st22" d="M277,506.8c-2.5,0-4.4,2-4.4,4.4c0,2.5,2,4.4,4.4,4.4c2.5,0,4.4-2,4.4-4.4
			C281.4,508.9,279.4,506.8,277,506.8"/>
		<path class="st22" d="M277,517.1c-0.2,0-0.5,0-0.7,0c-0.5-0.1-0.9-0.2-1.3-0.3c-0.5-0.2-0.9-0.4-1.2-0.6c-0.4-0.3-0.8-0.6-1.1-0.9
			c-1-1.1-1.5-2.4-1.5-3.9c0-3.2,2.6-5.8,5.8-5.8c3.2,0,5.8,2.6,5.8,5.8c0,0.6-0.1,1.1-0.2,1.5c-0.1,0.5-0.3,0.9-0.5,1.2
			C281.1,515.8,279.2,517.1,277,517.1"/>
		<path class="st22" d="M263.8,531.2c-2.5,0-4.4-2-4.4-4.4c0-2.5,2-4.4,4.4-4.4c2.5,0,4.4,2,4.4,4.4S266.3,531.2,263.8,531.2"/>
		<path class="st22" d="M263.8,522.3c-2.5,0-4.4,2-4.4,4.4c0,2.5,2,4.4,4.4,4.4c2.4,0,4.4-2,4.4-4.4S266.2,522.3,263.8,522.3
			 M263.8,532.5c-3.2,0-5.7-2.5-5.8-5.6v-0.3c0.1-3.2,2.7-5.6,5.8-5.6c1.1,0,2.3,0.4,3.3,1c0.4,0.3,0.8,0.6,1.1,0.9
			c1,1.1,1.5,2.4,1.5,3.9c0,0.3,0,0.6-0.1,0.9c-0.1,0.5-0.2,0.9-0.4,1.3c-0.2,0.5-0.5,1-0.8,1.3c-0.3,0.4-0.6,0.7-1,1
			C266.4,532,265.2,532.5,263.8,532.5 M269,548.5c-2.5,0-4.4-2-4.4-4.4c0-2.5,2-4.4,4.4-4.4c2.5,0,4.4,2,4.4,4.4
			C273.5,546.6,271.5,548.5,269,548.5"/>
		<path class="st22" d="M269,539.7c-2.5,0-4.4,2-4.4,4.4c0,2.5,2,4.4,4.4,4.4c2.4,0,4.4-2,4.4-4.4
			C273.5,541.6,271.5,539.7,269,539.7 M269,549.8c-3.2,0-5.8-2.6-5.8-5.8c0-3.2,2.6-5.8,5.8-5.8c0.3,0,0.5,0,0.8,0
			c0.5,0.1,0.9,0.2,1.3,0.4c2.2,0.9,3.7,3,3.7,5.4c0,0.5-0.1,1.1-0.2,1.5c-0.1,0.5-0.3,0.9-0.5,1.2
			C273.1,548.7,271.2,549.8,269,549.8 M289.6,556.9c-2.5,0-4.4-2-4.4-4.4c0-2.5,2-4.4,4.4-4.4c2.5,0,4.4,2,4.4,4.4
			S292,556.9,289.6,556.9"/>
		<path class="st22" d="M289.6,547.9c-2.5,0-4.4,2-4.4,4.4c0,2.5,2,4.4,4.4,4.4c2.5,0,4.4-2,4.4-4.4S292,548,289.6,547.9
			 M289.6,558.2c-3.2,0-5.8-2.6-5.8-5.8c0-0.6,0.1-1.1,0.2-1.6c0.1-0.5,0.3-0.9,0.6-1.2c0.2-0.3,0.4-0.6,0.7-0.9
			c0.3-0.4,0.7-0.7,1-1c0.3-0.2,0.6-0.4,0.9-0.5c0.4-0.2,0.9-0.4,1.2-0.5s0.9-0.2,1.3-0.2s1.1,0.1,1.5,0.2c0.5,0.1,0.9,0.3,1.2,0.5
			c1.8,1,3.1,2.9,3.1,5.1C295.3,555.7,292.7,558.2,289.6,558.2"/>
		<path class="st22" d="M311.7,533h-4.3c0,15.7-12.7,28.3-28.4,28.4c-15.7,0-28.3-12.7-28.4-28.4c0-15.7,12.7-28.3,28.4-28.4
			c15.7,0,28.3,12.7,28.4,28.4h8.6c0-20.4-16.6-37-37-37c-20.5,0-37,16.6-37,37c0,20.5,16.6,37,37,37c20.4,0,37-16.6,37-37H311.7"/>
		<path class="st22" d="M292,533.6c-0.2,0-0.5,0-0.7,0c-0.5-0.1-0.9-0.2-1.3-0.3c-0.5-0.2-0.9-0.4-1.2-0.6c-0.4-0.3-0.8-0.6-1.1-0.9
			c-1-1.1-1.5-2.4-1.5-3.9c0-3.2,2.6-5.8,5.8-5.8c3.2,0,5.8,2.6,5.8,5.8c0,0.6-0.1,1.1-0.2,1.5c-0.1,0.5-0.3,0.9-0.5,1.2
			C296.1,532.4,294.2,533.6,292,533.6"/>
		<path class="st22" d="M292.3,528L279,514.9l0.4-1.5l14,13.7C292.9,527.3,292.6,527.6,292.3,528"/>
	</g>
	<g>
		<path class="st23" d="M528.1,425.3l-3.1-3c0.3-0.3,0.7-0.6,0.9-1l2.5,2.4L528.1,425.3"/>
		<path class="st23" d="M541.8,438.8l-12.6-12.4l0.4-1.4l13.2,13C542.4,438.1,542.1,438.4,541.8,438.8"/>
		<path class="st23" d="M540.7,440.8l-9.4-3.7c0.2-0.4,0.4-0.8,0.5-1.1l9.4,3.7C541,439.9,540.8,440.3,540.7,440.8"/>
		<path class="st23" d="M528.5,429.4c-0.4-0.2-0.8-0.3-1.2-0.3l0.9-3.6l0.4-1.4l0.8-3.1l0.3-1.2l2.7-10.9c0.4,0.1,0.9,0.3,1.2,0.3
			l-2.7,11l-0.3,1.2l-1,3.7l-0.4,1.3L528.5,429.4"/>
		<path class="st23" d="M534,407.7c-2.3,0-4.2-1.9-4.2-4.2c0-2.3,1.9-4.2,4.2-4.2s4.2,1.9,4.2,4.2
			C538.4,405.8,536.5,407.7,534,407.7"/>
		<path class="st23" d="M534,399.3c-2.3,0-4.2,1.9-4.2,4.2c0,2.3,1.9,4.2,4.2,4.2s4.2-1.9,4.2-4.2
			C538.4,401.2,536.4,399.3,534,399.3"/>
		<path class="st23" d="M534,408.9c-0.2,0-0.5,0-0.7,0c-0.4-0.1-0.9-0.2-1.2-0.3c-0.4-0.2-0.8-0.4-1.1-0.6c-0.4-0.3-0.7-0.5-1-0.9
			c-0.9-1-1.4-2.3-1.4-3.7c0-3.1,2.5-5.5,5.5-5.5c3,0,5.5,2.5,5.5,5.5c0,0.5-0.1,1-0.2,1.4c-0.1,0.4-0.3,0.9-0.5,1.1
			C538.1,407.9,536.2,408.9,534,408.9"/>
		<path class="st23" d="M521.7,422.2c-2.3,0-4.2-1.9-4.2-4.2s1.9-4.2,4.2-4.2s4.2,1.9,4.2,4.2C525.9,420.4,524,422.2,521.7,422.2"/>
		<path class="st23" d="M521.7,413.9c-2.3,0-4.2,1.9-4.2,4.2c0,2.3,1.9,4.2,4.2,4.2s4.2-1.9,4.2-4.2
			C525.9,415.8,524,413.9,521.7,413.9 M521.7,423.6c-3,0-5.4-2.4-5.5-5.4v-0.3c0.1-3,2.5-5.4,5.5-5.4c1.1,0,2.2,0.4,3.1,1
			c0.4,0.3,0.7,0.5,1,0.9c0.9,1,1.4,2.3,1.4,3.7c0,0.3,0,0.6-0.1,0.9c-0.1,0.4-0.2,0.9-0.4,1.2c-0.2,0.5-0.5,0.9-0.8,1.3
			c-0.3,0.4-0.6,0.7-0.9,1C524.2,423.1,522.9,423.6,521.7,423.6 M526.5,438.7c-2.3,0-4.2-1.9-4.2-4.2s1.9-4.2,4.2-4.2
			s4.2,1.9,4.2,4.2C530.7,436.8,528.9,438.7,526.5,438.7"/>
		<path class="st23" d="M526.5,430.3c-2.3,0-4.2,1.9-4.2,4.2s1.9,4.2,4.2,4.2s4.2-1.9,4.2-4.2C530.7,432.2,528.9,430.3,526.5,430.3
			 M526.5,439.9c-3.1,0-5.5-2.5-5.5-5.5c0-3.1,2.5-5.5,5.5-5.5c0.3,0,0.5,0,0.7,0c0.4,0.1,0.9,0.2,1.2,0.3c2,0.8,3.5,2.8,3.5,5.1
			c0,0.5-0.1,1-0.2,1.4c-0.1,0.4-0.3,0.9-0.5,1.1C530.4,438.8,528.6,439.9,526.5,439.9 M545.9,446.6c-2.3,0-4.2-1.9-4.2-4.2
			c0-2.3,1.9-4.2,4.2-4.2s4.2,1.9,4.2,4.2C550.1,444.6,548.2,446.6,545.9,446.6"/>
		<path class="st23" d="M545.9,438.1c-2.3,0-4.2,1.9-4.2,4.2s1.9,4.2,4.2,4.2s4.2-1.9,4.2-4.2S548.2,438.1,545.9,438.1 M545.9,447.9
			c-3.1,0-5.5-2.5-5.5-5.5c0-0.6,0.1-1.1,0.2-1.5c0.1-0.4,0.3-0.8,0.5-1.1c0.2-0.3,0.4-0.6,0.6-0.9c0.3-0.3,0.6-0.6,1-0.9
			c0.3-0.2,0.5-0.4,0.8-0.5c0.4-0.2,0.8-0.3,1.2-0.4c0.4-0.1,0.8-0.1,1.2-0.1c0.5,0,1,0.1,1.4,0.2c0.4,0.1,0.9,0.3,1.1,0.5
			c1.7,1,2.9,2.8,2.9,4.8C551.4,445.3,549,447.9,545.9,447.9"/>
		<path class="st23" d="M566.9,423.9h-4c0,14.8-12.1,26.8-26.9,26.9c-14.8,0-26.8-12-26.9-26.9c0-14.8,12.1-26.8,26.9-26.9
			c14.8,0,26.8,12.1,26.9,26.9h8.1c0-19.3-15.6-35-35-35c-19.3,0-35,15.6-35,35c0,19.3,15.6,35,35,35c19.3,0,35-15.6,35-35H566.9"/>
		<path class="st23" d="M555.7,435.7c-0.2,0-0.5,0-0.7,0c-0.4-0.1-0.9-0.2-1.2-0.3c-0.4-0.2-0.8-0.4-1.1-0.6c-0.4-0.2-0.7-0.5-1-0.9
			c-0.9-1-1.4-2.3-1.4-3.7c0-3.1,2.5-5.5,5.5-5.5c3,0,5.5,2.5,5.5,5.5c0,0.5-0.1,1-0.2,1.4c-0.1,0.4-0.3,0.9-0.5,1.1
			C559.5,434.6,557.8,435.7,555.7,435.7"/>
		<path class="st23" d="M538.4,429.1c-0.2,0-0.5,0-0.7,0c-0.4-0.1-0.9-0.2-1.2-0.3c-0.4-0.2-0.8-0.4-1.1-0.6c-0.4-0.2-0.7-0.5-1-0.9
			c-0.9-1-1.4-2.3-1.4-3.7c0-3.1,2.5-5.5,5.5-5.5c3.1,0,5.5,2.5,5.5,5.5c0,0.5-0.1,1-0.2,1.4c-0.1,0.4-0.3,0.9-0.5,1.1
			C542.2,427.9,540.5,429.1,538.4,429.1"/>
		<path class="st23" d="M551.2,427.2l-14.9-18.8l0.4-2.2l15.7,19.6C551.9,426.3,551.6,426.7,551.2,427.2"/>
		<path class="st23" d="M537.6,424.6l-3.6-17.2l1.1-1.1l3.8,18.1C538.4,424.4,538,424.5,537.6,424.6"/>
	</g>
	<g>
		<path class="st24" d="M398.7,623.2l-2.5-2.4c0.3-0.2,0.5-0.5,0.8-0.8l2,2L398.7,623.2"/>
		<path class="st24" d="M409.7,634.1l-10.2-10.1l0.3-1.1l10.7,10.5C410.2,633.7,409.9,633.9,409.7,634.1"/>
		<path class="st24" d="M408.8,635.8l-7.5-3c0.2-0.3,0.3-0.7,0.4-1l7.6,3C409,635.1,408.9,635.5,408.8,635.8"/>
		<path class="st24" d="M399,626.6c-0.3-0.1-0.7-0.2-1-0.3l0.8-3l0.3-1.1l0.6-2.5l0.3-1.1l2.1-8.8c0.3,0.1,0.7,0.2,1.1,0.3l-2.1,8.8
			l-0.3,1.1l-0.8,3.1l-0.3,1.1L399,626.6"/>
		<path class="st24" d="M403,612.9c-0.2,0-0.4,0-0.6,0c-0.4-0.1-0.8-0.1-1.1-0.3c-0.4-0.1-0.8-0.3-1.1-0.6c-0.3-0.2-0.7-0.5-0.9-0.8
			c-0.9-0.9-1.3-2.1-1.3-3.4c0-2.8,2.3-5.1,5.1-5.1c2.8,0,5.1,2.3,5.1,5.1c0,0.5-0.1,1-0.2,1.3c-0.1,0.4-0.3,0.8-0.5,1.1
			C406.5,611.8,404.9,612.9,403,612.9"/>
		<path class="st24" d="M393.5,620.7c-1.9,0-3.4-1.5-3.4-3.4c0-1.9,1.5-3.4,3.4-3.4c1.9,0,3.4,1.5,3.4,3.4
			C396.9,619.2,395.3,620.7,393.5,620.7"/>
		<path class="st24" d="M393.4,614c-1.9,0-3.4,1.5-3.4,3.4c0,1.9,1.5,3.4,3.4,3.4c1.9,0,3.4-1.5,3.4-3.4
			C396.9,615.5,395.3,614,393.4,614"/>
		<path class="st24" d="M393.4,621.8c-2.4,0-4.4-1.9-4.4-4.3v-0.2c0.1-2.4,2-4.3,4.4-4.3c1,0,1.7,0.3,2.5,0.8
			c0.3,0.2,0.6,0.4,0.8,0.7c0.8,0.8,1.1,1.8,1.1,3c0,0.2,0,0.5-0.1,0.7c-0.1,0.4-0.1,0.7-0.3,1c-0.2,0.4-0.4,0.8-0.6,1.1
			s-0.5,0.5-0.8,0.8C395.4,621.4,394.5,621.8,393.4,621.8"/>
		<path class="st24" d="M397.6,625.1c-3.1,0-5.6,2.5-5.6,5.6c0,3.1,2.5,5.6,5.6,5.6c3.1,0,5.6-2.5,5.6-5.6
			C403.2,627.5,400.7,625.1,397.6,625.1"/>
		<path class="st24" d="M413.2,640.5c-1.9,0-3.4-1.5-3.4-3.4c0-1.9,1.5-3.4,3.4-3.4c1.9,0,3.4,1.5,3.4,3.4
			C416.6,638.9,415.1,640.5,413.2,640.5"/>
		<path class="st24" d="M413.2,633.7c-1.9,0-3.4,1.5-3.4,3.4c0,1.9,1.5,3.4,3.4,3.4s3.4-1.5,3.4-3.4
			C416.6,635.2,415.1,633.7,413.2,633.7 M413.2,641.6c-2.5,0-4.4-2-4.4-4.4c0-0.5,0.1-0.9,0.2-1.2c0.1-0.4,0.3-0.7,0.4-1
			c0.1-0.3,0.3-0.5,0.5-0.7c0.2-0.3,0.5-0.5,0.8-0.7c0.2-0.1,0.4-0.3,0.7-0.4c0.3-0.2,0.7-0.3,1-0.4c0.3-0.1,0.7-0.1,1-0.1
			c0.4,0,0.8,0.1,1.1,0.2c0.4,0.1,0.7,0.2,1,0.4c1.3,0.8,2.3,2.2,2.3,3.9C417.6,639.5,415.6,641.6,413.2,641.6"/>
		<path class="st24" d="M430.2,622.2h-3.3c0,12.1-9.9,21.7-21.7,21.7c-12.1,0-21.7-9.8-21.7-21.7c0-12.1,9.9-21.7,21.7-21.7
			c12.1,0,21.7,9.9,21.7,21.7h6.6c0-15.7-12.7-28.4-28.4-28.4c-15.7,0-28.4,12.7-28.4,28.4s12.7,28.4,28.4,28.4
			c15.7,0,28.4-12.7,28.4-28.4H430.2"/>
		<path class="st24" d="M415.7,614.3c-3.5,0-6.4,2.9-6.4,6.4s2.9,6.4,6.4,6.4c3.5,0,6.4-2.9,6.4-6.4
			C422.2,617.2,419.4,614.3,415.7,614.3"/>
		<path class="st24" d="M414.2,635.3c-0.3-0.1-0.7-0.1-1.1-0.1l0.4-3.1l0.2-1.1l0.3-2.6l0.1-1.1l1.1-9.1c0.3,0.1,0.7,0.1,1.1,0.1
			l-1.1,9.1l-0.1,1.1l-0.4,3.2l-0.2,1.1L414.2,635.3"/>
	</g>
	<g>
		<path class="st16" d="M470,612.4l-5.5-2.2c0.1-0.2,0.2-0.5,0.3-0.7l5.5,2.2C470.2,611.9,470,612.1,470,612.4"/>
		<path class="st16" d="M462.7,605.6c-0.2-0.1-0.5-0.2-0.8-0.2l0.5-2.1l0.2-0.9l0.5-1.8l0.2-0.8l1.5-6.4c0.2,0.1,0.5,0.2,0.8,0.2
			l-1.5,6.4l-0.2,0.8l-0.6,2.2l-0.2,0.9L462.7,605.6"/>
		<path class="st16" d="M466.2,593c-1.3,0-2.5-1.1-2.5-2.5c0-1.3,1.1-2.5,2.5-2.5c1.3,0,2.5,1.1,2.5,2.5
			C468.6,591.8,467.5,593,466.2,593"/>
		<path class="st16" d="M466.2,588c-1.3,0-2.5,1.1-2.5,2.5c0,1.3,1.1,2.5,2.5,2.5c1.3,0,2.5-1.1,2.5-2.5
			C468.6,589.2,467.5,588,466.2,588"/>
		<path class="st16" d="M466.2,593.8c-0.1,0-0.3,0-0.4,0c-0.3,0-0.5-0.1-0.8-0.2c-0.2-0.1-0.5-0.2-0.7-0.4c-0.2-0.1-0.4-0.3-0.6-0.5
			c-0.6-0.6-0.9-1.3-0.9-2.2c0-1.8,1.4-3.3,3.3-3.3s3.3,1.4,3.3,3.3c0,0.3,0,0.6-0.1,0.9c-0.1,0.3-0.2,0.5-0.3,0.7
			C468.4,593.1,467.3,593.8,466.2,593.8"/>
		<path class="st16" d="M461.6,611.2c-1.3,0-2.5-1.1-2.5-2.5s1.1-2.5,2.5-2.5s2.5,1.1,2.5,2.5C464.2,610,463,611.2,461.6,611.2"/>
		<path class="st16" d="M461.6,606.2c-1.3,0-2.5,1.1-2.5,2.5c0,1.3,1.1,2.5,2.5,2.5s2.5-1.1,2.5-2.5
			C464.2,607.3,463,606.2,461.6,606.2 M461.6,611.9c-1.8,0-3.3-1.4-3.3-3.3c0-1.8,1.4-3.3,3.3-3.3c0.1,0,0.3,0,0.4,0
			c0.3,0,0.5,0.1,0.8,0.2c1.2,0.5,2.1,1.6,2.1,3c0,0.3,0,0.6-0.1,0.9c-0.1,0.3-0.2,0.5-0.3,0.7C463.9,611.3,462.8,611.9,461.6,611.9
			 M473.1,615.8c-1.3,0-2.5-1.1-2.5-2.5c0-1.3,1.1-2.5,2.5-2.5c1.3,0,2.5,1.1,2.5,2.5C475.5,614.6,474.4,615.8,473.1,615.8"/>
		<path class="st16" d="M473.1,610.9c-1.3,0-2.5,1.1-2.5,2.5c0,1.3,1.1,2.5,2.5,2.5c1.3,0,2.5-1.1,2.5-2.5
			C475.5,611.9,474.4,610.9,473.1,610.9 M473.1,616.5c-1.8,0-3.3-1.4-3.3-3.3c0-0.3,0-0.6,0.1-1c0.1-0.3,0.2-0.5,0.3-0.7
			c0.1-0.2,0.2-0.4,0.4-0.5c0.2-0.2,0.4-0.4,0.6-0.5c0.1-0.1,0.3-0.2,0.5-0.3c0.2-0.1,0.5-0.2,0.7-0.3c0.2-0.1,0.5-0.1,0.7-0.1
			c0.3,0,0.6,0,0.9,0.1c0.3,0.1,0.5,0.2,0.7,0.3c1,0.6,1.7,1.6,1.7,2.9C476.2,615.1,474.8,616.5,473.1,616.5"/>
		<path class="st16" d="M485.4,602.5H483c0,8.6-7,15.7-15.8,15.8c-8.6,0-15.7-7-15.8-15.8c0-8.6,7-15.7,15.8-15.8
			c8.6,0,15.7,7,15.8,15.8h4.8c0-11.4-9.2-20.6-20.6-20.6s-20.6,9.2-20.6,20.6c0,11.4,9.2,20.6,20.6,20.6s20.6-9.2,20.6-20.6H485.4"
			/>
	</g>
	<g>
		<path class="st25" d="M439.2,605.2l-2.5-8.6l0.2-1l2.6,9.1C439.4,604.9,439.3,605.1,439.2,605.2"/>
		<path class="st25" d="M438.3,605.4l-2.5-1c0.1-0.1,0.1-0.2,0.1-0.3l2.5,1C438.4,605.1,438.4,605.2,438.3,605.4"/>
		<path class="st25" d="M435.2,602.4c-0.1,0-0.2-0.1-0.3-0.1l0.2-1l0.1-0.4l0.2-0.9l0.1-0.3l0.7-2.9c0.1,0,0.2,0.1,0.3,0.1l-0.7,2.9
			l-0.1,0.3l-0.3,1l-0.1,0.4L435.2,602.4"/>
		<path class="st25" d="M436.7,599c-0.1,0-0.2,0-0.2,0c-0.2,0-0.3-0.1-0.4-0.1c-0.1-0.1-0.3-0.1-0.4-0.2c-0.1-0.1-0.2-0.2-0.3-0.3
			c-0.3-0.4-0.5-0.8-0.5-1.2c0-1.1,0.9-1.9,1.9-1.9s1.9,0.9,1.9,1.9c0,0.2,0,0.4-0.1,0.5c0,0.2-0.1,0.3-0.2,0.4
			C438,598.6,437.5,599,436.7,599"/>
		<path class="st25" d="M434.6,604.9c-0.6,0-1.1-0.5-1.1-1.1c0-0.6,0.5-1.1,1.1-1.1c0.6,0,1.1,0.5,1.1,1.1
			C435.7,604.4,435.3,604.9,434.6,604.9"/>
		<path class="st25" d="M434.6,602.6c-0.6,0-1.1,0.5-1.1,1.1c0,0.6,0.5,1.1,1.1,1.1c0.7,0,1.1-0.5,1.1-1.1
			C435.7,603.1,435.3,602.6,434.6,602.6 M434.6,605.1c-0.8,0-1.4-0.7-1.4-1.4s0.7-1.4,1.4-1.4c0.1,0,0.1,0,0.2,0s0.2,0,0.3,0.1
			c0.6,0.2,1,0.8,1,1.3c0,0.1,0,0.3-0.1,0.4c0,0.1-0.1,0.2-0.1,0.3C435.6,604.9,435.2,605.1,434.6,605.1 M439.8,607.1
			c-0.6,0-1.1-0.5-1.1-1.1c0-0.6,0.5-1.1,1.1-1.1c0.6,0,1.1,0.5,1.1,1.1C440.9,606.5,440.3,607.1,439.8,607.1"/>
		<path class="st25" d="M439.8,604.7c-0.6,0-1.1,0.5-1.1,1.1c0,0.6,0.5,1.1,1.1,1.1c0.6,0,1.1-0.5,1.1-1.1
			C440.9,605.2,440.3,604.7,439.8,604.7 M439.8,607.3c-0.8,0-1.4-0.7-1.4-1.4c0-0.2,0-0.3,0.1-0.4c0-0.1,0.1-0.2,0.1-0.3
			s0.1-0.2,0.2-0.2c0.1-0.1,0.2-0.2,0.3-0.2c0.1,0,0.1-0.1,0.2-0.1c0.1-0.1,0.2-0.1,0.3-0.1s0.2,0,0.3,0c0.1,0,0.3,0,0.4,0.1
			c0.1,0,0.2,0.1,0.3,0.1c0.5,0.3,0.8,0.8,0.8,1.2C441.2,606.7,440.5,607.3,439.8,607.3"/>
		<path class="st25" d="M445.3,600.9h-1.1c0,3.9-3.2,7.1-7.1,7.1c-3.9,0-7.1-3.2-7.1-7.1c0-3.9,3.2-7.1,7.1-7.1
			c3.9,0,7.1,3.2,7.1,7.1h2.2c0-5.1-4.1-9.4-9.4-9.4c-5.2,0-9.4,4.1-9.4,9.4s4.1,9.4,9.4,9.4c5.1,0,9.4-4.1,9.4-9.4H445.3"/>
	</g>
	<g>
		<path class="st26" d="M182.9,502.6l-30.2,76.5l3.1,1.2l30.3-76.5"/>
		<path class="st26" d="M186.2,501.7l-62.5-25.5l-1.2,3.2l62.4,25.4"/>
		<path class="st26" d="M136.6,530.1l49.7-25.5l-1.5-3l-49.7,25.5"/>
		<path class="st26" d="M106.3,544.1l43.6,35l2.1-2.6l-43.6-35"/>
		<path class="st26" d="M124.8,475.8l10.9,51.3l-2.4,0.3l-10.9-51.3"/>
		<path class="st26" d="M148.6,528.7c0,7-5.6,12.8-12.7,12.8c-7,0-12.8-5.6-12.8-12.8c0-7.1,5.6-12.8,12.8-12.8
			S148.6,521.7,148.6,528.7"/>
		<path class="st26" d="M198.9,506.8c0,9.6-7.7,17.4-17.4,17.4c-9.6,0-17.4-7.7-17.4-17.4c0-9.8,7.7-17.4,17.4-17.4
			C191.2,489.4,198.9,497.3,198.9,506.8"/>
		<path class="st26" d="M135.9,477.3c0,7-5.6,12.8-12.8,12.8c-7,0-12.7-5.6-12.7-12.8c0-7.1,5.6-12.8,12.7-12.8
			C130.1,464.5,135.9,470.3,135.9,477.3"/>
		<path class="st26" d="M135.9,477.6h-1.7c0,6-4.9,11.1-11.1,11.1c-6,0-11.1-5-11.1-11.1c0-6,4.9-11.1,11.1-11.1
			c6,0,11.1,5,11.1,11.1h3.4c0-7.9-6.4-14.5-14.5-14.5s-14.5,6.4-14.5,14.5c0,7.9,6.4,14.5,14.5,14.5s14.5-6.4,14.5-14.5H135.9"/>
		<path class="st26" d="M115.7,538.7c0,5.8-4.7,10.7-10.7,10.7c-5.8,0-10.7-4.7-10.7-10.7c0-5.9,4.7-10.7,10.7-10.7
			C111,528,115.7,532.7,115.7,538.7"/>
		<path class="st26" d="M169.7,580.4c0,8.4-6.8,15.4-15.4,15.4c-8.4,0-15.4-6.8-15.4-15.4c0-8.4,6.8-15.4,15.4-15.4
			C162.8,564.9,169.7,571.9,169.7,580.4"/>
		<circle class="st27" cx="141.3" cy="526.7" r="76.6"/>
	</g>
	<g>
		<path class="st28" d="M365.6,625.2l-0.8-0.8c0.1-0.1,0.2-0.1,0.2-0.2l0.6,0.6L365.6,625.2"/>
		<path class="st28" d="M368.9,628.5l-3.1-3l0.1-0.4l3.2,3.2C369,628.3,368.9,628.4,368.9,628.5"/>
		<path class="st28" d="M368.6,629l-2.3-0.9c0.1-0.1,0.1-0.2,0.1-0.3l2.3,0.9C368.7,628.8,368.6,628.9,368.6,629"/>
		<path class="st28" d="M365.7,626.2c-0.1,0-0.2-0.1-0.3-0.1l0.2-0.9l0.1-0.4l0.2-0.8l0.1-0.3l0.7-2.7c0.1,0,0.2,0.1,0.3,0.1
			l-0.7,2.7l-0.1,0.3l-0.2,1l-0.1,0.4L365.7,626.2"/>
		<path class="st28" d="M367,620.8c-0.6,0-1.1-0.5-1.1-1.1c0-0.6,0.5-1.1,1.1-1.1c0.6,0,1.1,0.5,1.1,1.1
			C368.1,620.4,367.6,620.8,367,620.8"/>
		<path class="st28" d="M367,618.8c-0.6,0-1.1,0.5-1.1,1.1s0.5,1.1,1.1,1.1c0.6,0,1.1-0.5,1.1-1.1S367.6,618.8,367,618.8"/>
		<path class="st28" d="M367,621.1c-0.1,0-0.1,0-0.2,0s-0.2,0-0.3-0.1c-0.1,0-0.2-0.1-0.3-0.1c-0.1-0.1-0.2-0.1-0.2-0.2
			c-0.2-0.2-0.4-0.6-0.4-0.9c0-0.8,0.6-1.3,1.3-1.3s1.3,0.6,1.3,1.3c0,0.1,0,0.3-0.1,0.4c0,0.1-0.1,0.2-0.1,0.3
			C368,620.9,367.5,621.1,367,621.1"/>
		<path class="st28" d="M364,624.5c-0.6,0-1.1-0.5-1.1-1.1c0-0.6,0.5-1.1,1.1-1.1c0.6,0,1.1,0.5,1.1,1.1
			C365,624,364.6,624.5,364,624.5"/>
		<path class="st28" d="M364,622.4c-0.6,0-1.1,0.5-1.1,1.1c0,0.6,0.5,1.1,1.1,1.1c0.6,0,1.1-0.5,1.1-1.1
			C365,622.9,364.6,622.4,364,622.4 M364,624.8c-0.8,0-1.3-0.6-1.3-1.3v-0.1c0-0.8,0.6-1.3,1.3-1.3c0.3,0,0.6,0.1,0.8,0.2
			c0.1,0.1,0.2,0.1,0.2,0.2c0.2,0.2,0.4,0.6,0.4,0.9c0,0.1,0,0.1,0,0.2s0,0.2-0.1,0.3c0,0.1-0.1,0.2-0.2,0.3
			c-0.1,0.1-0.1,0.2-0.2,0.2C364.6,624.7,364.3,624.8,364,624.8 M365.2,628.4c-0.6,0-1.1-0.5-1.1-1.1s0.5-1.1,1.1-1.1
			c0.6,0,1.1,0.5,1.1,1.1C366.3,628,365.8,628.4,365.2,628.4"/>
		<path class="st28" d="M365.2,626.4c-0.6,0-1.1,0.5-1.1,1.1s0.5,1.1,1.1,1.1c0.6,0,1.1-0.5,1.1-1.1
			C366.3,626.9,365.8,626.4,365.2,626.4 M365.2,628.8c-0.8,0-1.3-0.6-1.3-1.3c0-0.8,0.6-1.3,1.3-1.3c0.1,0,0.1,0,0.2,0
			c0.1,0,0.2,0,0.3,0.1c0.5,0.2,0.9,0.7,0.9,1.2c0,0.1,0,0.2,0,0.4c0,0.1-0.1,0.2-0.1,0.3C366.2,628.5,365.7,628.8,365.2,628.8
			 M369.9,630.3c-0.6,0-1.1-0.5-1.1-1.1c0-0.6,0.5-1.1,1.1-1.1c0.6,0,1.1,0.5,1.1,1.1C370.9,629.9,370.5,630.3,369.9,630.3"/>
		<path class="st28" d="M369.9,628.3c-0.6,0-1.1,0.5-1.1,1.1c0,0.6,0.5,1.1,1.1,1.1c0.6,0,1.1-0.5,1.1-1.1
			C370.9,628.8,370.5,628.3,369.9,628.3 M369.9,630.7c-0.8,0-1.3-0.6-1.3-1.3c0-0.1,0-0.3,0.1-0.4c0-0.1,0.1-0.2,0.1-0.3
			s0.1-0.1,0.2-0.2c0.1-0.1,0.2-0.2,0.2-0.2c0.1,0,0.1-0.1,0.2-0.1s0.2-0.1,0.3-0.1c0.1,0,0.2,0,0.3,0c0.1,0,0.2,0,0.4,0
			c0.1,0,0.2,0.1,0.3,0.1c0.4,0.2,0.7,0.7,0.7,1.1C371.2,630,370.7,630.7,369.9,630.7"/>
		<path class="st28" d="M375,624.9h-1c0,3.5-2.9,6.5-6.5,6.5c-3.5,0-6.5-2.9-6.5-6.5c0-3.5,2.9-6.5,6.5-6.5c3.5,0,6.5,2.9,6.5,6.5h2
			c0-4.7-3.8-8.4-8.4-8.4c-4.7,0-8.4,3.8-8.4,8.4c0,4.6,3.8,8.4,8.4,8.4c4.7,0,8.4-3.8,8.4-8.4H375"/>
		<path class="st28" d="M370.1,626.5L370.1,626.5c-0.2,0-0.3,0-0.3-0.1c-0.1,0-0.1-0.1-0.2-0.1c-0.1,0-0.1-0.1-0.2-0.2
			c-0.2-0.2-0.3-0.4-0.3-0.7c0-0.6,0.5-1,1-1s1,0.5,1,1c0,0.1,0,0.2,0,0.3s-0.1,0.2-0.1,0.2C370.7,626.3,370.4,626.5,370.1,626.5"/>
		<path class="st28" d="M367.6,624.8C367.5,624.8,367.5,624.8,367.6,624.8c-0.2,0-0.2,0-0.3,0c-0.1,0-0.1,0-0.2-0.1l-0.1-0.1
			c-0.1-0.1-0.2-0.3-0.2-0.5c0-0.4,0.3-0.8,0.8-0.8s0.8,0.3,0.8,0.8c0,0.1,0,0.1,0,0.2c0,0.1,0,0.1-0.1,0.2
			C368.1,624.7,367.9,624.8,367.6,624.8"/>
		<path class="st28" d="M370,629.8c-0.1,0-0.2,0-0.3,0l0.1-1v-0.4l0.1-0.8v-0.3l0.2-2.7c0.1,0,0.2,0,0.3,0l-0.2,2.7v0.3l-0.1,1v0.4
			L370,629.8"/>
		<path class="st28" d="M367.3,624.4l-0.3-4.2l0.3-0.2l0.3,4.5C367.5,624.4,367.4,624.4,367.3,624.4"/>
	</g>
	<g>
		<path class="st29" d="M502.7,591.1l-5.8-5.7l0.2-0.7l6.1,6C502.9,590.8,502.7,590.9,502.7,591.1"/>
		<path class="st29" d="M495,585.4c-0.1-0.1-0.3-0.3-0.5-0.4l1.1-1.4l0.4-0.6l0.9-1.1l0.4-0.5l3.2-4.2c0.2,0.1,0.3,0.3,0.5,0.4
			l-3.2,4.2l-0.4,0.5l-1.1,1.4l-0.4,0.6L495,585.4"/>
		<path class="st29" d="M501,579.7c-0.1,0-0.2,0-0.3,0c-0.2,0-0.4-0.1-0.6-0.1c-0.2-0.1-0.4-0.2-0.6-0.3c-0.2-0.1-0.3-0.3-0.5-0.4
			c-0.4-0.5-0.7-1.1-0.7-1.7c0-1.4,1.1-2.6,2.6-2.6c1.4,0,2.6,1.1,2.6,2.6c0,0.2,0,0.5-0.1,0.7c-0.1,0.2-0.1,0.4-0.2,0.6
			C502.8,579.1,502,579.7,501,579.7"/>
		<path class="st29" d="M495.9,587.4c-1.7,0-3.2-1.4-3.3-3.2v-0.2c0-1.7,1.4-3.2,3.3-3.2c0.7,0,1.2,0.2,1.8,0.6
			c0.2,0.2,0.4,0.3,0.6,0.5c0.6,0.6,0.9,1.3,0.9,2.2c0,0.2,0,0.3,0,0.5c0,0.3-0.1,0.5-0.2,0.8c-0.1,0.3-0.3,0.6-0.5,0.8
			c-0.2,0.2-0.3,0.4-0.6,0.6C497.3,587.2,496.6,587.4,495.9,587.4"/>
		<path class="st29" d="M505.5,582.2c-1.1,0-1.9,0.9-2,2c0,1.1,0.9,1.9,2,1.9c1.1,0,1.9-0.9,2-1.9
			C507.5,583,506.7,582.2,505.5,582.2"/>
		<path class="st29" d="M504.6,594.7c-1.1,0-1.9-0.9-2-2c0-1.1,0.9-1.9,2-2c1.1,0,1.9,0.9,1.9,2
			C506.6,593.8,505.7,594.7,504.6,594.7"/>
		<path class="st29" d="M504.6,590.8c-1.1,0-1.9,0.9-2,2c0,1.1,0.9,1.9,2,1.9s1.9-0.9,1.9-1.9C506.6,591.6,505.7,590.8,504.6,590.8
			 M504.6,595.3c-1.4,0-2.6-1.1-2.6-2.6c0-0.3,0-0.5,0.1-0.8c0.1-0.2,0.1-0.4,0.2-0.6c0.1-0.1,0.2-0.3,0.3-0.4
			c0.1-0.2,0.3-0.3,0.5-0.4c0.1-0.1,0.2-0.2,0.4-0.2c0.2-0.1,0.4-0.2,0.6-0.2c0.2,0,0.4-0.1,0.6-0.1s0.5,0,0.7,0.1
			c0.2,0.1,0.4,0.1,0.6,0.2c0.8,0.5,1.3,1.2,1.3,2.3C507.2,594.1,506,595.3,504.6,595.3"/>
		<path class="st29" d="M514.3,584.1h-1.9c0,6.9-5.6,12.5-12.5,12.5s-12.5-5.6-12.5-12.5c0-6.9,5.6-12.5,12.5-12.5
			s12.5,5.6,12.5,12.5h3.8c0-9.1-7.3-16.4-16.4-16.4s-16.4,7.3-16.4,16.4s7.3,16.4,16.4,16.4s16.4-7.3,16.4-16.4H514.3"/>
		<path class="st29" d="M495,584.6c0-0.2,0-0.4,0-0.6h1.7h0.7h1.4h0.6l5.3-0.1c0,0.2,0,0.4,0,0.6l-5.3,0.1h-0.6H497h-0.7H495"/>
	</g>
	<g>
		<path class="st30" d="M229.9,552.9l-1.1-1.1c0.1-0.1,0.2-0.2,0.3-0.3l0.9,0.9L229.9,552.9"/>
		<path class="st30" d="M234.6,557.6l-4.4-4.3l0.1-0.5l4.6,4.5C234.8,557.4,234.7,557.5,234.6,557.6"/>
		<path class="st30" d="M234.3,558.2l-3.3-1.3c0.1-0.1,0.1-0.3,0.2-0.4l3.3,1.3C234.3,558,234.3,558.1,234.3,558.2"/>
		<path class="st30" d="M229.9,554.2c-0.1-0.1-0.3-0.1-0.5-0.1l0.3-1.2l0.1-0.5l0.3-1.1l0.1-0.5l1-3.8c0.1,0.1,0.3,0.1,0.5,0.1
			l-1,3.8l-0.1,0.5l-0.3,1.3l-0.1,0.5L229.9,554.2"/>
		<path class="st30" d="M231.9,546.6c-0.8,0-1.4-0.7-1.4-1.4s0.7-1.4,1.4-1.4c0.8,0,1.4,0.7,1.4,1.4
			C233.5,546,232.7,546.6,231.9,546.6"/>
		<path class="st30" d="M231.9,543.7c-0.8,0-1.4,0.7-1.4,1.4s0.7,1.4,1.4,1.4c0.8,0,1.4-0.7,1.4-1.4
			C233.5,544.4,232.7,543.7,231.9,543.7"/>
		<path class="st30" d="M231.9,547c-0.1,0-0.2,0-0.2,0c-0.2,0-0.3-0.1-0.5-0.1c-0.1-0.1-0.3-0.1-0.4-0.2c-0.1-0.1-0.3-0.2-0.4-0.3
			c-0.3-0.4-0.5-0.8-0.5-1.3c0-1.1,0.9-1.9,1.9-1.9c1.1,0,1.9,0.9,1.9,1.9c0,0.2,0,0.4-0.1,0.5c0,0.2-0.1,0.3-0.2,0.4
			C233.2,546.7,232.6,547,231.9,547"/>
		<path class="st30" d="M227.6,551.7c-0.8,0-1.4-0.7-1.4-1.4s0.7-1.4,1.4-1.4s1.4,0.7,1.4,1.4S228.3,551.7,227.6,551.7"/>
		<path class="st30" d="M227.6,548.8c-0.8,0-1.4,0.7-1.4,1.4s0.7,1.4,1.4,1.4s1.4-0.7,1.4-1.4S228.3,548.8,227.6,548.8 M227.6,552.1
			c-1.1,0-1.9-0.9-1.9-1.9v-0.1c0-1.1,0.9-1.9,1.9-1.9c0.4,0,0.8,0.1,1.1,0.3c0.1,0.1,0.3,0.2,0.4,0.3c0.3,0.4,0.5,0.8,0.5,1.3
			c0,0.1,0,0.2,0,0.3c0,0.2-0.1,0.3-0.1,0.5c-0.1,0.2-0.2,0.3-0.3,0.5c-0.1,0.1-0.2,0.2-0.3,0.3C228.4,552,228,552.1,227.6,552.1
			 M229.3,557.5c-0.8,0-1.4-0.7-1.4-1.4s0.7-1.4,1.4-1.4c0.8,0,1.4,0.7,1.4,1.4C230.7,556.9,230,557.5,229.3,557.5"/>
		<path class="st30" d="M229.3,554.6c-0.8,0-1.4,0.7-1.4,1.4s0.7,1.4,1.4,1.4c0.8,0,1.4-0.7,1.4-1.4S230,554.6,229.3,554.6
			 M229.3,558c-1.1,0-1.9-0.9-1.9-1.9c0-1.1,0.9-1.9,1.9-1.9c0.1,0,0.2,0,0.3,0c0.2,0,0.3,0.1,0.5,0.1c0.8,0.3,1.2,1,1.2,1.8
			c0,0.2,0,0.4-0.1,0.5c0,0.2-0.1,0.3-0.2,0.4C230.6,557.6,229.9,558,229.3,558 M236.1,560.3c-0.8,0-1.4-0.7-1.4-1.4
			s0.7-1.4,1.4-1.4c0.8,0,1.4,0.7,1.4,1.4C237.6,559.6,236.9,560.3,236.1,560.3"/>
		<path class="st30" d="M236.1,557.3c-0.8,0-1.4,0.7-1.4,1.4c0,0.8,0.7,1.4,1.4,1.4c0.8,0,1.4-0.7,1.4-1.4
			C237.6,558,236.9,557.4,236.1,557.3 M236.1,560.7c-1.1,0-1.9-0.9-1.9-1.9c0-0.2,0-0.4,0.1-0.6c0-0.2,0.1-0.3,0.2-0.4
			c0.1-0.1,0.1-0.2,0.2-0.3c0.1-0.1,0.2-0.2,0.3-0.3c0.1-0.1,0.2-0.1,0.3-0.2c0.1-0.1,0.3-0.1,0.4-0.2c0.1,0,0.3-0.1,0.4-0.1
			c0.2,0,0.4,0,0.5,0.1c0.2,0,0.3,0.1,0.4,0.2c0.6,0.3,1.1,1,1.1,1.7C238.1,559.9,237.2,560.7,236.1,560.7"/>
		<path class="st30" d="M243.4,552.3H242c0,5.2-4.2,9.5-9.5,9.5c-5.2,0-9.5-4.2-9.5-9.5c0-5.2,4.2-9.5,9.5-9.5
			c5.3,0,9.5,4.2,9.5,9.5h2.9c0-6.7-5.5-12.3-12.3-12.3c-6.9,0-12.3,5.5-12.3,12.3c0,6.9,5.5,12.3,12.3,12.3
			c6.7,0,12.3-5.5,12.3-12.3H243.4"/>
		<path class="st30" d="M233.9,553.7c-0.1,0-0.2,0-0.2,0c-0.2,0-0.3-0.1-0.5-0.1c-0.1-0.1-0.3-0.1-0.4-0.2s-0.3-0.2-0.4-0.3
			c-0.3-0.4-0.5-0.8-0.5-1.3c0-1.1,0.9-1.9,1.9-1.9c1.1,0,1.9,0.9,1.9,1.9c0,0.2,0,0.4-0.1,0.5c0,0.2-0.1,0.3-0.2,0.4
			C235.3,553.4,234.6,553.7,233.9,553.7"/>
		<path class="st30" d="M238.7,555.2c-0.1,0-0.2,0-0.2,0c-0.2,0-0.3-0.1-0.5-0.1c-0.1-0.1-0.3-0.1-0.4-0.2c-0.1-0.1-0.3-0.2-0.4-0.3
			c-0.3-0.4-0.5-0.8-0.5-1.3c0-1.1,0.9-1.9,1.9-1.9c1.1,0,1.9,0.9,1.9,1.9c0,0.2,0,0.4-0.1,0.5c0,0.2-0.1,0.3-0.2,0.4
			C240,554.7,239.4,555.2,238.7,555.2"/>
		<path class="st30" d="M229.6,556.4c-0.1-0.1-0.2-0.2-0.3-0.3l1-0.9l0.4-0.4l0.8-0.8l0.3-0.3l2.9-2.7c0.1,0.1,0.2,0.2,0.3,0.3
			l-2.9,2.7l-0.3,0.3l-1,1l-0.4,0.4L229.6,556.4"/>
		<path class="st30" d="M233,552.1c0-0.1,0.1-0.3,0.1-0.5l1.3,0.3l0.5,0.1l1.1,0.2l0.5,0.1l3.8,0.8c0,0.1-0.1,0.3-0.1,0.5l-3.8-0.8
			l-0.5-0.1l-1.3-0.3l-0.5-0.1L233,552.1"/>
	</g>
	<g>
		<path class="st31" d="M353.6,708.9l-0.7-0.7c0.1-0.1,0.1-0.1,0.2-0.2l0.6,0.6L353.6,708.9"/>
		<path class="st31" d="M356.6,711.9l-2.7-2.7l0.1-0.3l2.9,2.8C356.8,711.7,356.7,711.8,356.6,711.9"/>
		<path class="st31" d="M356.4,712.3l-2-0.8c0-0.1,0.1-0.2,0.1-0.3l2,0.8C356.4,712.1,356.4,712.2,356.4,712.3"/>
		<path class="st31" d="M353.7,709.8c-0.1,0-0.2-0.1-0.3-0.1l0.2-0.8l0.1-0.3l0.2-0.7l0.1-0.3l0.6-2.4c0.1,0,0.2,0.1,0.3,0.1
			l-0.6,2.4l-0.1,0.3l-0.2,0.9l-0.1,0.3L353.7,709.8"/>
		<path class="st31" d="M355,705.1c-0.5,0-1-0.4-1-1c0-0.5,0.4-1,1-1c0.5,0,1,0.4,1,1C355.8,704.7,355.4,705.1,355,705.1"/>
		<path class="st31" d="M355,703.3c-0.5,0-1,0.4-1,1c0,0.5,0.4,1,1,1c0.5,0,1-0.4,1-1C355.8,703.6,355.4,703.3,355,703.3"/>
		<path class="st31" d="M355,705.4c-0.1,0-0.1,0-0.2,0c-0.1,0-0.2,0-0.3-0.1c-0.1,0-0.2-0.1-0.3-0.1s-0.2-0.1-0.2-0.2
			c-0.2-0.2-0.3-0.5-0.3-0.8c0-0.7,0.6-1.1,1.1-1.1c0.6,0,1.1,0.6,1.1,1.1c0,0.1,0,0.2,0,0.3s-0.1,0.2-0.1,0.3
			C355.8,705.1,355.4,705.4,355,705.4"/>
		<path class="st31" d="M352.3,708.2c-0.5,0-1-0.4-1-1c0-0.5,0.4-1,1-1c0.5,0,1,0.4,1,1C353.1,707.9,352.8,708.2,352.3,708.2"/>
		<path class="st31" d="M352.3,706.4c-0.5,0-1,0.4-1,1c0,0.5,0.4,1,1,1c0.5,0,1-0.4,1-1C353.1,706.8,352.8,706.4,352.3,706.4
			 M352.3,708.5c-0.7,0-1.1-0.5-1.1-1.1v-0.1c0-0.7,0.6-1.1,1.1-1.1c0.3,0,0.5,0.1,0.7,0.2c0.1,0.1,0.2,0.1,0.2,0.2
			c0.2,0.2,0.3,0.5,0.3,0.8c0,0.1,0,0.1,0,0.2c0,0.1,0,0.2-0.1,0.3c0,0.1-0.1,0.2-0.2,0.3s-0.1,0.1-0.2,0.2
			C352.8,708.4,352.6,708.5,352.3,708.5 M353.3,711.8c-0.5,0-1-0.4-1-1c0-0.5,0.4-1,1-1c0.5,0,1,0.4,1,1
			C354.2,711.4,353.8,711.8,353.3,711.8"/>
		<path class="st31" d="M353.3,710c-0.5,0-1,0.4-1,1c0,0.5,0.4,1,1,1c0.6,0,1-0.4,1-1C354.2,710.4,353.8,710,353.3,710 M353.3,712.1
			c-0.7,0-1.1-0.6-1.1-1.1c0-0.6,0.6-1.1,1.1-1.1c0.1,0,0.1,0,0.2,0s0.2,0,0.3,0.1c0.5,0.2,0.8,0.6,0.8,1.1c0,0.1,0,0.2,0,0.3
			s-0.1,0.2-0.1,0.3C354.2,711.9,353.7,712.1,353.3,712.1 M357.5,713.6c-0.5,0-1-0.4-1-1c0-0.5,0.4-1,1-1c0.5,0,1,0.4,1,1
			S358.1,713.6,357.5,713.6"/>
		<path class="st31" d="M357.5,711.7c-0.5,0-1,0.4-1,1c0,0.5,0.4,1,1,1c0.6,0,1-0.4,1-1C358.6,712.1,358.1,711.7,357.5,711.7
			 M357.5,713.9c-0.7,0-1.1-0.6-1.1-1.1c0-0.1,0-0.2,0.1-0.4c0-0.1,0.1-0.2,0.1-0.3s0.1-0.1,0.1-0.2c0.1-0.1,0.1-0.1,0.2-0.2
			c0.1,0,0.1-0.1,0.2-0.1c0.1,0,0.2-0.1,0.3-0.1s0.2,0,0.3,0c0.1,0,0.2,0,0.3,0s0.2,0.1,0.3,0.1c0.4,0.2,0.7,0.6,0.7,1.1
			C358.8,713.4,358.3,713.9,357.5,713.9"/>
		<path class="st31" d="M362.1,708.6h-0.9c0,3.3-2.6,5.8-5.8,5.8s-5.8-2.6-5.8-5.8s2.6-5.8,5.8-5.8s5.8,2.6,5.8,5.8h1.8
			c0-4.2-3.4-7.6-7.6-7.6c-4.2,0-7.6,3.4-7.6,7.6c0,4.2,3.4,7.6,7.6,7.6c4.2,0,7.6-3.4,7.6-7.6H362.1"/>
		<path class="st31" d="M357.7,710.1L357.7,710.1c-0.2,0-0.2,0-0.3-0.1c-0.1,0-0.1-0.1-0.2-0.1s-0.1-0.1-0.2-0.1
			c-0.2-0.2-0.2-0.4-0.2-0.6c0-0.5,0.4-0.9,0.9-0.9c0.5,0,0.9,0.4,0.9,0.9c0,0.1,0,0.2,0,0.2c0,0.1,0,0.1-0.1,0.2
			C358.4,709.9,358.1,710.1,357.7,710.1"/>
		<path class="st31" d="M355.4,708.5C355.4,708.5,355.3,708.5,355.4,708.5c-0.1,0-0.2,0-0.2,0c-0.1,0-0.1,0-0.1-0.1l-0.1-0.1
			c-0.1-0.1-0.2-0.3-0.2-0.5c0-0.4,0.3-0.7,0.7-0.7s0.7,0.3,0.7,0.7c0,0.1,0,0.1,0,0.2c0,0.1,0,0.1-0.1,0.1
			C355.9,708.4,355.6,708.5,355.4,708.5"/>
		<path class="st31" d="M357.7,713.1c-0.1,0-0.2,0-0.3,0l0.1-0.9V712v-0.7V711l0.2-2.4c0.1,0,0.2,0,0.3,0l-0.2,2.4v0.3l-0.1,0.9v0.3
			V713.1"/>
		<path class="st31" d="M355.1,708.1l-0.2-3.8l0.3-0.2l0.3,4C355.3,708.1,355.2,708.1,355.1,708.1"/>
	</g>
	<g>
		<path class="st32" d="M372.1,726.3l-2-0.8c0-0.1,0.1-0.2,0.1-0.3l2,0.9C372.2,726.1,372.2,726.2,372.1,726.3"/>
		<path class="st32" d="M369.4,723.8c-0.1,0-0.2-0.1-0.3-0.1l0.2-0.8l0.1-0.3l0.2-0.7l0.1-0.3l0.6-2.4c0.1,0,0.2,0.1,0.3,0.1
			l-0.6,2.4l-0.1,0.3l-0.2,0.9l-0.1,0.3L369.4,723.8"/>
		<path class="st32" d="M370.7,719.1c-0.5,0-1-0.4-1-1c0-0.5,0.4-1,1-1c0.5,0,1,0.4,1,1C371.6,718.7,371.2,719.1,370.7,719.1"/>
		<path class="st32" d="M370.7,717.2c-0.5,0-1,0.4-1,1c0,0.5,0.4,1,1,1c0.5,0,1-0.4,1-1C371.6,717.7,371.2,717.2,370.7,717.2"/>
		<path class="st32" d="M370.7,719.4c-0.1,0-0.1,0-0.2,0s-0.2,0-0.3-0.1c-0.1,0-0.2-0.1-0.3-0.1c-0.1,0-0.2-0.1-0.2-0.2
			c-0.2-0.2-0.3-0.5-0.3-0.9c0-0.7,0.6-1.2,1.2-1.2c0.7,0,1.2,0.6,1.2,1.2c0,0.1,0,0.2,0,0.3s-0.1,0.2-0.1,0.3
			C371.5,719.1,371.1,719.4,370.7,719.4"/>
		<path class="st32" d="M369,725.8c-0.5,0-1-0.4-1-1c0-0.5,0.4-1,1-1c0.5,0,1,0.4,1,1C370,725.5,369.5,725.8,369,725.8"/>
		<path class="st32" d="M369,724c-0.5,0-1,0.4-1,1c0,0.5,0.4,1,1,1c0.5,0,1-0.4,1-1S369.5,724,369,724 M369,726.1
			c-0.7,0-1.2-0.6-1.2-1.2s0.6-1.2,1.2-1.2c0.1,0,0.1,0,0.2,0c0.1,0,0.2,0,0.3,0.1c0.5,0.2,0.8,0.6,0.8,1.1c0,0.1,0,0.2,0,0.3
			s-0.1,0.2-0.1,0.3C369.9,725.9,369.5,726.1,369,726.1 M373.2,727.6c-0.5,0-1-0.4-1-1c0-0.5,0.4-1,1-1c0.5,0,1,0.4,1,1
			C374.2,727.2,373.8,727.6,373.2,727.6"/>
		<path class="st32" d="M373.2,725.8c-0.5,0-1,0.4-1,1c0,0.5,0.4,1,1,1c0.5,0,1-0.4,1-1C374.2,726.1,373.8,725.8,373.2,725.8
			 M373.2,727.9c-0.7,0-1.2-0.6-1.2-1.2c0-0.1,0-0.2,0.1-0.4c0-0.1,0.1-0.2,0.1-0.3s0.1-0.1,0.1-0.2c0.1-0.1,0.1-0.1,0.2-0.2
			c0.1,0,0.1-0.1,0.2-0.1s0.2-0.1,0.3-0.1c0.1,0,0.2,0,0.3,0c0.1,0,0.2,0,0.3,0c0.1,0,0.2,0.1,0.3,0.1c0.4,0.2,0.7,0.6,0.7,1.1
			C374.5,727.4,373.9,727.9,373.2,727.9"/>
		<path class="st32" d="M377.9,722.7h-0.9c0,3.3-2.7,5.8-5.8,5.8c-3.3,0-5.8-2.6-5.8-5.8s2.7-5.8,5.8-5.8c3.3,0,5.8,2.7,5.8,5.8h1.8
			c0-4.2-3.4-7.7-7.7-7.7c-4.2,0-7.7,3.4-7.7,7.7c0,4.2,3.4,7.7,7.7,7.7c4.2,0,7.7-3.4,7.7-7.7H377.9"/>
		<path class="st32" d="M373.4,724.1L373.4,724.1c-0.2,0-0.2,0-0.3-0.1c-0.1,0-0.1-0.1-0.2-0.1c-0.1,0-0.1-0.1-0.2-0.1
			c-0.2-0.2-0.2-0.4-0.2-0.6c0-0.5,0.4-0.9,0.9-0.9s0.9,0.4,0.9,0.9c0,0.1,0,0.2,0,0.2c0,0.1,0,0.1-0.1,0.2
			C374,723.9,373.7,724.1,373.4,724.1"/>
		<path class="st32" d="M371.1,722.6L371.1,722.6c-0.1,0-0.2,0-0.2,0c-0.1,0-0.1,0-0.1-0.1l-0.1-0.1c-0.1-0.1-0.2-0.3-0.2-0.5
			c0-0.4,0.3-0.7,0.7-0.7c0.4,0,0.7,0.3,0.7,0.7c0,0.1,0,0.1,0,0.2c0,0.1,0,0.1-0.1,0.1C371.6,722.4,371.4,722.6,371.1,722.6"/>
		<path class="st32" d="M373.4,727.1c-0.1,0-0.2,0-0.3,0l0.1-0.9v-0.3v-0.7V725l0.2-2.5c0.1,0,0.2,0,0.3,0l-0.2,2.5v0.3l-0.1,0.9
			v0.3V727.1"/>
		<path class="st32" d="M370.9,722.2l-0.2-3.8l0.3-0.2l0.3,4C371.1,722.2,371,722.2,370.9,722.2"/>
	</g>
	<g>
		<path class="st33" d="M221,443.5c-0.7-0.8-1.2-1.4-2.1-2.1l5.9-6.2l2.4-2.5l5-5.2l2-2.1l17.9-18.7c0.7,0.8,1.3,1.4,2.1,2l-18,18.6
			l-2,2.1l-6.1,6.4l-2.4,2.5L221,443.5"/>
		<path class="st33" d="M263.4,477.5l-2.6-22.1c1-0.1,2-0.2,3-0.4l2.7,22.1C265.4,477.1,264.3,477.3,263.4,477.5"/>
		<path class="st33" d="M261.7,464.4c-6.9,0-12.6-5.6-12.6-12.6c0-0.8,0.1-1.4,0.2-2.1c0.2-1,0.5-1.9,0.9-2.8
			c1.9-4.5,6.4-7.7,11.7-7.7c4.3,0,8.1,2.2,10.5,5.6c0.6,0.8,1,1.6,1.3,2.6c0.5,1.3,0.8,2.9,0.8,4.4c0,4.8-2.8,9.1-6.8,11.2
			c-0.9,0.5-1.8,0.8-2.8,1.1C263.8,464.2,262.8,464.3,261.7,464.4"/>
		<path class="st33" d="M248.5,427.6c-0.5,0-1.1,0-1.5-0.1c-1-0.1-1.9-0.4-2.9-0.7c-1-0.4-1.8-0.8-2.6-1.3c-0.8-0.6-1.5-1.1-2.2-1.9
			c-2.1-2.3-3.3-5.2-3.3-8.4c0-6.8,5.6-12.4,12.4-12.4c6.9,0,12.4,5.6,12.4,12.4c0,1.1-0.2,2.3-0.5,3.3c-0.3,1-0.7,1.9-1.1,2.7
			C257.3,425.1,253.3,427.6,248.5,427.6"/>
		<path class="st33" d="M215.1,449.5c-3.4-2-4.6-6.5-2.6-10.1c2-3.4,6.5-4.6,10.1-2.6c0.3,0.2,0.6,0.4,0.8,0.5
			c0.5,0.3,0.9,0.8,1.2,1.2c1.8,2.3,2.1,5.6,0.6,8.2c-0.4,0.6-0.8,1.1-1.1,1.5c-0.4,0.4-0.9,0.8-1.3,1.1
			C220.5,450.8,217.6,450.9,215.1,449.5"/>
		<path class="st33" d="M262.9,491.1c-5.3-1.1-8.4-6.3-7.4-11.7c1.1-5.3,6.3-8.4,11.7-7.4c5.3,1.1,8.4,6.3,7.3,11.6
			C273.3,488.9,268,492.2,262.9,491.1"/>
		<path class="st33" d="M257.5,444l-7.3-21.1c1-0.3,1.9-0.6,2.8-1.1l7.4,21.1C259.2,443.4,258.4,443.7,257.5,444"/>
		<circle class="st34" cx="255.3" cy="433" r="62.2"/>
		<path class="st33" d="M277.6,418.8l-22.3-1c0.1-1,0.2-2,0-3l22.3,0.9C277.6,416.8,277.6,417.8,277.6,418.8"/>
		<path class="st33" d="M299.3,421.2c-2,5-7.6,7.3-12.6,5.5c-5-2-7.3-7.6-5.5-12.6c2-5,7.6-7.3,12.6-5.4
			C298.8,410.7,301.2,416.3,299.3,421.2"/>
		<path class="st33" d="M281.3,414.1c-2,5,0.5,10.6,5.5,12.6c5,2,10.6-0.5,12.5-5.5c2-5-0.5-10.6-5.4-12.5
			C289,406.8,283.3,409.1,281.3,414.1 M301.9,422.3c-2.6,6.4-10,9.7-16.4,7c-1.1-0.5-2.2-1.1-3.2-1.7c-0.8-0.6-1.4-1.3-2.1-2
			c-0.5-0.6-1-1.3-1.2-1.9c-0.5-0.9-0.9-1.8-1.1-2.7c-0.2-0.7-0.3-1.3-0.3-2.1c0-1,0-2,0.1-3c0.1-1,0.4-1.8,0.8-2.7
			c0.4-1.1,1-2,1.5-2.9c0.6-0.8,1.2-1.5,2-2.2c3.4-2.9,8.3-3.8,12.8-2C301.4,408.4,304.6,415.9,301.9,422.3"/>
		<path class="st33" d="M239.3,396.3l11,19.4c-0.9,0.5-1.8,0.9-2.6,1.5l-11.1-19.4C237.6,397.3,238.6,396.9,239.3,396.3"/>
		<path class="st33" d="M232,379.7c5.3-1,10.2,2.5,11.3,7.8c1,5.3-2.5,10.2-7.8,11.3c-5.3,1-10.2-2.5-11.2-7.8
			C223.3,385.8,226.8,380.8,232,379.7"/>
	</g>
	<g>
		<path class="st28" d="M169,621.5l-1.4-1.4c0.2-0.1,0.3-0.3,0.5-0.4l1.2,1.1L169,621.5"/>
		<path class="st28" d="M175.6,627.8l-6-5.7l0.2-0.7l6.3,6C175.9,627.5,175.7,627.6,175.6,627.8"/>
		<path class="st28" d="M175.1,628.8l-4.5-1.7c0.1-0.2,0.2-0.4,0.2-0.6l4.5,1.7C175.2,628.4,175.1,628.6,175.1,628.8"/>
		<path class="st28" d="M169.2,623.3c-0.2-0.1-0.4-0.1-0.6-0.2l0.5-1.7l0.2-0.7l0.4-1.4l0.2-0.6l1.2-5.1c0.2,0.1,0.4,0.1,0.6,0.1
			l-1.2,5.1l-0.2,0.6l-0.5,1.7l-0.2,0.7L169.2,623.3"/>
		<path class="st28" d="M171.8,613.3c-1.1,0-2-0.9-2-2c0-1.1,0.9-1.9,2-2c1.1,0,2,0.9,2,2C174,612.4,173,613.3,171.8,613.3"/>
		<path class="st28" d="M171.8,609.4c-1.1,0-2,0.9-2,2c0,1.1,0.9,1.9,2,2c1.1,0,2-0.9,2-2C174,610.2,173,609.4,171.8,609.4"/>
		<path class="st28" d="M171.8,613.9c-0.1,0-0.2,0-0.3,0c-0.2,0-0.4-0.1-0.6-0.1c-0.2-0.1-0.4-0.2-0.6-0.3s-0.3-0.3-0.5-0.4
			c-0.5-0.5-0.7-1.1-0.7-1.7c0-1.4,1.1-2.6,2.7-2.6c1.4,0,2.7,1.1,2.7,2.6c0,0.2,0,0.5-0.1,0.7c-0.1,0.2-0.1,0.4-0.2,0.6
			C173.8,613.4,172.9,613.9,171.8,613.9"/>
		<path class="st28" d="M165.9,620.1c-1.1,0-2-0.9-2-2c0-1.1,1-1.9,2-2c1.1,0,2,0.9,2,2S167,620.1,165.9,620.1"/>
		<path class="st28" d="M165.9,616.2c-1.1,0-2,0.9-2,2c0,1.1,1,1.9,2,1.9c1.1,0,2-0.9,2-1.9C167.9,617,167,616.2,165.9,616.2
			 M165.9,620.7c-1.4,0-2.6-1.1-2.7-2.5v-0.1c0-1.3,1.2-2.5,2.7-2.5c0.6,0,1.1,0.2,1.4,0.5c0.2,0.1,0.3,0.3,0.5,0.4
			c0.5,0.5,0.7,1.1,0.7,1.7c0,0.1,0,0.3,0,0.4c0,0.2-0.1,0.4-0.2,0.6c-0.1,0.2-0.2,0.4-0.4,0.6c-0.1,0.2-0.3,0.3-0.5,0.4
			C167.1,620.5,166.5,620.7,165.9,620.7 M168.2,627.8c-1.1,0-2-0.9-2-2c0-1.1,1-1.9,2-2c1.1,0,2,0.9,2,2
			C170.2,626.9,169.4,627.8,168.2,627.8"/>
		<path class="st28" d="M168.2,623.9c-1.1,0-2,0.9-2,2c0,1.1,1,1.9,2,1.9c1.1,0,2-0.9,2-1.9C170.2,624.8,169.4,623.9,168.2,623.9
			 M168.2,628.4c-1.4,0-2.7-1.1-2.7-2.6s1.1-2.6,2.7-2.6c0.1,0,0.2,0,0.4,0s0.4,0.1,0.6,0.2c1,0.4,1.7,1.3,1.7,2.4
			c0,0.2,0,0.5-0.1,0.7c-0.1,0.2-0.1,0.4-0.2,0.6C170.1,627.8,169.3,628.4,168.2,628.4 M177.6,631.5c-1.1,0-2-0.9-2-2
			c0-1.1,1-1.9,2-2c1.1,0,2,0.9,2,2C179.6,630.6,178.7,631.5,177.6,631.5"/>
		<path class="st28" d="M177.6,627.5c-1.1,0-2,0.9-2,2c0,1.1,1,1.9,2,1.9s2-0.9,2-1.9C179.6,628.5,178.7,627.5,177.6,627.5
			 M177.6,632c-1.4,0-2.7-1.1-2.7-2.6c0-0.3,0-0.5,0.1-0.8c0.1-0.2,0.2-0.4,0.3-0.6c0.1-0.1,0.2-0.3,0.3-0.4
			c0.1-0.2,0.3-0.3,0.5-0.4c0.1-0.1,0.3-0.2,0.4-0.2c0.2-0.1,0.4-0.2,0.6-0.2c0.2,0,0.4-0.1,0.6-0.1c0.2,0,0.5,0,0.7,0.1
			s0.4,0.1,0.6,0.2c0.9,0.5,1.4,1.2,1.4,2.3C180.4,630.9,179,632,177.6,632"/>
		<path class="st28" d="M187.8,620.8h-2c0,6.9-5.8,12.5-13,12.6c-7.2,0-13-5.6-13-12.6c0-6.9,5.8-12.5,13-12.6c7.2,0,13,5.6,13,12.6
			h3.9c0-9.1-7.6-16.4-16.9-16.4c-9.5,0-16.9,7.3-16.9,16.4s7.6,16.4,16.9,16.4s16.9-7.3,16.9-16.4H187.8"/>
		<path class="st28" d="M177.9,624c-0.1,0-0.2,0-0.2,0c-0.2,0-0.3-0.1-0.5-0.1c-0.2-0.1-0.3-0.1-0.4-0.2c-0.1-0.1-0.3-0.2-0.4-0.3
			c-0.3-0.4-0.5-0.8-0.5-1.2c0-1.1,0.9-1.9,2-1.9c1.1,0,2,0.9,2,1.9c0,0.2,0,0.4-0.1,0.5c0,0.2-0.1,0.3-0.2,0.4
			C179.3,623.4,178.6,624,177.9,624"/>
		<path class="st28" d="M172.9,620.7c-0.1,0-0.1,0-0.2,0c-0.1,0-0.2,0-0.3-0.1c-0.1,0-0.2-0.1-0.3-0.2c-0.1-0.1-0.2-0.1-0.3-0.2
			c-0.3-0.3-0.4-0.6-0.4-1c0-0.8,0.7-1.4,1.4-1.4c0.8,0,1.4,0.7,1.4,1.4c0,0.1,0,0.3-0.1,0.4c0,0.1-0.1,0.2-0.1,0.3
			C174,620.4,173.5,620.7,172.9,620.7"/>
		<path class="st28" d="M177.9,630.4c-0.2,0-0.4-0.1-0.6-0.1l0.1-1.7l0.1-0.7l0.1-1.4v-0.6l0.4-5.3c0.2,0,0.4,0.1,0.6,0l-0.4,5.3
			v0.6l-0.1,1.8L178,629L177.9,630.4"/>
		<path class="st28" d="M172.4,619.8l-0.6-8.2l0.6-0.4l0.6,8.6C172.8,619.8,172.6,619.8,172.4,619.8"/>
	</g>
</g>
</svg>
