<?xml version="1.0" encoding="utf-8"?>
<!-- Generator: Adobe Illustrator 25.0.1, SVG Export Plug-In . SVG Version: 6.00 Build 0)  -->
<svg version="1.1" id="_图层_1" xmlns:serif="http://www.serif.com/"
	 xmlns="http://www.w3.org/2000/svg" xmlns:xlink="http://www.w3.org/1999/xlink" x="0px" y="0px" viewBox="0 0 710.7 807.5"
	 style="enable-background:new 0 0 710.7 807.5;" xml:space="preserve">
<style type="text/css">
	.st0{fill:#254A7F;stroke:#3A8BCB;stroke-width:20;stroke-linecap:round;stroke-linejoin:round;stroke-miterlimit:10;}
	.st1{opacity:0.85;}
	.st2{enable-background:new    ;}
	.st3{fill:#FFFFFF;}
	.st4{font-family:'TimesNewRomanPS-BoldItalicMT';}
	.st5{font-size:150px;}
	.st6{fill:#B65A45;}
	.st7{fill:#83AC78;}
	.st8{fill:#D6BE5F;}
	.st9{opacity:0.7;}
	.st10{fill:#6CB82D;}
	.st11{fill:#C95319;}
	.st12{fill:#E73A4A;}
	.st13{fill:#4BB258;}
	.st14{fill:#CAD900;}
	.st15{fill:#F5CA58;}
	.st16{fill:#EFED79;}
	.st17{fill:#82AC78;}
	.st18{opacity:0.9;}
	.st19{fill:#5083BA;}
	.st20{fill:#D9C15F;}
	.st21{fill:#5D9A97;}
	.st22{fill:#B65A44;}
</style>
<path class="st0" d="M35.5,197.9L337.2,23.7c11.3-6.5,25.3-6.5,36.6,0l301.7,174.2c11.3,6.5,18.3,18.6,18.3,31.7l0,348.4
	c0,13.1-7,25.2-18.3,31.7L373.8,783.8c-11.3,6.5-25.3,6.5-36.6,0L35.5,609.6c-11.3-6.5-18.3-18.6-18.3-31.7l0-348.4
	C17.2,216.5,24.1,204.4,35.5,197.9z"/>
<g id="text102" class="st1">
	<text transform="matrix(1 0 0 1 53.4141 374.4)" class="st2"><tspan x="0" y="0" class="st3 st4 st5">infer</tspan><tspan x="300" y="0" class="st6 st4 st5">C</tspan><tspan x="400" y="0" class="st7 st4 st5">S</tspan><tspan x="483.5" y="0" class="st8 st4 st5">N</tspan></text>
</g>
<g class="st9">
	<path id="path282" class="st10" d="M317.3,172.1c-15.7,0-28.1-12.8-28.4-28.4c0-15.7,12.8-28.1,28.4-28.4
		c15.7,0,28.1,12.8,28.4,28.4C345.7,159.6,333,172.1,317.3,172.1"/>
	<path id="path283" class="st11" d="M292.5,221.3c-10.5,0-18.7-8.5-18.9-18.9c0-10.5,8.5-18.7,18.9-18.9c10.5,0,18.7,8.5,18.9,18.9
		C311.4,212.9,303,221.3,292.5,221.3"/>
	<path id="path285" class="st12" d="M345.8,113.9c-8.3,0-14.8-6.7-15-14.9c0-8.3,6.7-14.8,15-14.9c8.3,0,14.8,6.7,15,14.9
		C360.8,107.4,354.2,113.9,345.8,113.9"/>
	<path id="path286" class="st10" d="M396.2,150.9c-10.5,0-18.7-8.5-18.9-18.9c0-10.5,8.5-18.7,18.9-18.9c10.5,0,18.7,8.5,18.9,18.9
		C415.1,142.5,406.6,150.9,396.2,150.9"/>
	<path id="path287" class="st13" d="M496.1,199.9c-5.2,0-9.4-4.3-9.5-9.5c0-5.2,4.3-9.4,9.5-9.5c5.2,0,9.4,4.3,9.5,9.5
		C505.6,195.7,501.3,199.9,496.1,199.9"/>
	<path id="path288" class="st14" d="M253.5,175.6c-10.5,0-18.7-8.5-18.9-18.9c0-10.5,8.5-18.7,18.9-18.9c10.5,0,18.7,8.5,18.9,18.9
		C272.4,167.3,263.9,175.6,253.5,175.6"/>
	<path id="path289" class="st10" d="M211.1,207.1c-5.2,0-9.4-4.3-9.5-9.5c0-5.2,4.3-9.4,9.5-9.5c5.2,0,9.4,4.3,9.5,9.5
		C220.6,202.9,216.4,207.1,211.1,207.1"/>
	<path id="path290" class="st15" d="M438.7,199.8c-13.1,0-23.4-10.6-23.6-23.6c0-13.1,10.6-23.4,23.6-23.6
		c13.1,0,23.4,10.6,23.6,23.6C462.3,189.4,451.7,199.8,438.7,199.8"/>
	<path id="path281-2" class="st16" d="M363.2,156.7c-3.6,0-6.4-2.9-6.5-6.5c0-3.6,2.9-6.4,6.5-6.5c3.6,0,6.4,2.9,6.5,6.5
		C369.7,153.8,366.8,156.7,363.2,156.7"/>
</g>
<g>
	<g>
		<path class="st17" d="M181.9,454.7c-32.7,0.6-59.6,26.7-59.6,59.6c0.6,32.7,26.7,59.6,59.6,59.6c33,0,59.6-26.2,59.6-59.6
			C240.9,481.5,214.9,454.7,181.9,454.7z M208.2,512.6c-4.1,0-7.5-3.4-7.5-7.5c0-1.6,0.5-3,1.3-4.2l-14.3-14
			c-2.1,2.6-5.2,4.3-8.8,4.3c-0.2,0-0.5,0-0.7,0l-3.7,15.1c3.4,1.9,5.7,5.5,5.7,9.6c0,2.1-0.6,4.1-1.7,5.8l15.7,15.5
			c1-0.5,2.1-0.8,3.3-0.8c4.1,0.2,7.5,3.4,7.5,7.5s-3.4,7.5-7.5,7.5c-4.1,0-7.5-3.4-7.5-7.5c0-0.2,0-0.5,0-0.7l-9.2-3.6
			c-0.7,3.5-3.6,5.9-7.3,5.9c-4.2,0-7.5-3.4-7.5-7.5s3.4-7.5,7.5-7.5c3.8,0,7,3,7.4,6.7l9.6,3.8c0.4-0.9,1-1.7,1.7-2.4l-15.2-15
			c-2,2.1-4.8,3.3-7.8,3.3c-6,0-11-5-11-11s4.7-11,11-11c1.1,0,2.1,0.2,3.1,0.5l3.5-14.6c-4.7-1.3-8.2-5.7-8.2-10.8
			c0-6.1,4.8-11.2,11.2-11.2c6.1,0,11.2,5.1,11.2,11.2c0,1.8-0.4,3.4-1.2,4.9l14.6,14.3c1.2-0.9,2.8-1.5,4.5-1.5
			c4.1,0.2,7.5,3.4,7.5,7.5S212.3,512.6,208.2,512.6z"/>
	</g>
</g>
<g class="st18">
	<g>
		<g>
			<path class="st19" d="M328.4,509l2.8-2.8l4-3.8l-5.6-5.5l-1,4.2l-1,3.9l-0.7,3.3c0.5,0.2,0.9,0.5,1.4,0.7L328.4,509z"/>
			<path class="st19" d="M331.9,510.1l-1.1,1.1c1.7,2,2.8,4.6,2.8,7.4c0,0.9-0.1,1.8-0.3,2.6l22.9,9c0.9-1.5,2-2.8,3.5-3.8l-22-21.7
				L331.9,510.1z"/>
			<path class="st19" d="M355.5,417.7c-38.8,0.7-70.6,31.4-70.6,70.6c0.7,38.8,31.4,70.6,70.6,70.6s70.6-31.4,70.6-70.6
				C425.3,449.5,394.7,417.7,355.5,417.7z M299.8,478.7c0-6.2,5.1-11.3,11.3-11.3c6.4,0,11.3,5.1,11.3,11.3c0,1.8-0.5,3.6-1.2,5.1
				l6.5,6.3l-0.8,3.9l-7.7-7.5c-2.1,2.1-4.9,3.4-8.1,3.4C304.8,490,299.8,484.9,299.8,478.7z M401.8,512.3
				c-2.6,5.7-9.3,8.2-14.9,5.6s-8.2-9.3-5.6-14.9c1.2-2.6,3.2-4.5,5.6-5.6l-1.6-8.1l-0.7-3.4l-3-15.3c-1.6-0.1-3.2-0.5-4.7-1.2
				c-1.7-0.8-3.1-1.8-4.3-3.1l-4.2,5.2l-2.1,2.6l-1.6,2c6.4,3.5,9.1,11.4,6.1,18.2c-3.2,7.1-11.6,10.2-18.7,7
				c-2.4-1.1-4.4-2.8-5.8-4.9l-4.4,4.1l-1.8,1.7l22.9,22.5c0.9-0.3,1.9-0.4,2.9-0.4c6.1,0,11.3,5.1,11.3,11.3s-5.1,11.3-11.3,11.3
				s-11.3-5.1-11.3-11.3c0-0.8,0.1-1.6,0.2-2.3l-22.9-9c-1.9,3.3-5.5,5.5-9.7,5.5c-6.2,0-11.3-5.1-11.3-11.3s5.1-11.3,11.3-11.3
				c0.5,0,1.1,0.1,1.6,0.1l1.2-5.2l1-3.9l2-8.4l0.8-3.3l4.3-17.8c-7-3.2-10.1-11.6-6.9-18.6c3.2-7.1,11.6-10.2,18.7-7
				c7.1,3.2,10.2,11.6,7,18.7c-2.8,6.1-9.3,9.2-15.6,8l-4.3,17.8L331,491l-0.5,2l7.2,7.1l2-1.8l4.9-4.7c-1.3-3.4-1.3-7.3,0.3-10.8
				c2.9-6.4,9.9-9.5,16.4-7.8l2.4-2.9l2.1-2.6l4.6-5.8c-2.2-3.8-2.6-8.6-0.7-12.9c3.2-7.1,11.6-10.2,18.7-7
				c7.1,3.2,10.2,11.6,7,18.7c-2,4.4-6,7.3-10.4,8.1l2.9,15l0.7,3.4l1.5,7.7c2-0.2,4.1,0,6,0.9C401.9,500,404.4,506.7,401.8,512.3z"
				/>
		</g>
	</g>
</g>
<g>
	<g>
		<g>
			<path class="st20" d="M286.2,619.8l-0.1,0.1l-2.7,1.1l-5.7,2.2l-2.3,0.9l-4.7,1.8c0,1.3-0.3,2.6-0.8,3.8l7,4.9l0.9-1.3l1.5-2
				l4.5-6.3l1.8-2.4l1.4-2.1C286.7,620.5,286.4,620.2,286.2,619.8z"/>
			<path class="st20" d="M266,572.7c-29.1,0.6-52.8,23.5-52.8,52.8c0.6,29.1,23.5,52.8,52.8,52.8c29.1,0,52.8-23.2,52.8-52.8
				C318.3,596.5,295.3,572.7,266,572.7z M300.7,618.1c-1.7,4.3-6.6,6.3-10.8,4.6c-0.4-0.1-0.7-0.3-1-0.5l-2.3,3.2l-1.8,2.4l-3.6,5.2
				l-1.5,2l-0.8,1.1l4.8,3.4c2.3-2.3,5.8-3.1,9-1.8c4.3,1.7,6.3,6.6,4.6,10.8c-1.7,4.3-6.6,6.3-10.8,4.6c-4.4-1.8-6.3-6.6-4.6-10.8
				c0.1-0.2,0.2-0.4,0.3-0.7l-4.8-3.3l-5.5,7.7c3.9,4.2,3.7,10.7-0.4,14.6c-4.2,4-10.7,3.8-14.7-0.4c-4-4.2-3.8-10.7,0.4-14.7
				c3.6-3.4,8.9-3.8,12.9-1.2l5.4-7.6l-6.9-4.8c-0.3,0.4-0.7,0.8-1.1,1.2c-3.7,3.5-9.4,3.8-13.4,0.8l-2.4,1.3l-2.2,1.2l-4.8,2.7
				c0.5,3.2-0.6,6.6-3.1,9c-4.2,4-10.7,3.8-14.7-0.4c-4-4.2-3.8-10.7,0.4-14.7c2.6-2.5,6.1-3.3,9.4-2.6l2.2-11l0.5-2.5l1.1-5.6
				c-1.4-0.4-2.8-1.1-3.9-2.3c-3.2-3.3-3-8.6,0.3-11.7c3.3-3.2,8.6-3,11.7,0.3s3,8.6-0.3,11.7c-1.5,1.4-3.4,2.2-5.3,2.3l-1.2,6
				l-0.5,2.5l-2.2,11.3c1.1,0.5,2,1.2,2.9,2.1c0.9,1,1.6,2.1,2.1,3.3l4.3-2.4l2.2-1.2l1.7-0.9c-3.4-4.2-3.1-10.3,0.9-14.1
				c4.2-4,10.7-3.8,14.7,0.4c1.4,1.4,2.2,3.1,2.6,4.9l4.1-1.6l2.3-0.9l7.1-2.8l1.1-0.5c-0.6-1.8-0.6-3.9,0.1-5.8
				c0.2-0.6,0.6-1.2,0.9-1.7L273,597.8c-2.3,1.8-5.5,2.4-8.4,1.3c-4.1-1.7-6.3-6.6-4.6-10.8c1.7-4.3,6.6-6.3,10.8-4.6
				s6.3,6.6,4.6,10.8c-0.2,0.5-0.5,1-0.8,1.5l13.2,12.5c2.2-1.7,5.3-2.3,8.2-1.1C300.3,609,302.4,613.9,300.7,618.1z"/>
		</g>
	</g>
</g>
<g>
	<g>
		<g>
			<path class="st21" d="M443.2,571.7c-29.6,0.5-53.7,23.9-53.7,53.7c0.5,29.6,23.9,53.7,53.7,53.7c29.6,0,53.7-23.7,53.7-53.7
				C496.5,595.9,473.1,571.7,443.2,571.7z M476,610.9c-3.2,2.8-8.2,2.5-11-0.7c-1.3-1.5-1.9-3.3-1.9-5.1l-5.6-1.3l-2.4-0.6
				l-10.5-2.5c-0.5,1-1.2,1.9-2.1,2.6c-1,0.8-2,1.4-3.2,1.8l2.1,4.1l1,2.1l0.8,1.6c4-3,9.8-2.5,13.2,1.4c3.6,4.1,3.1,10.2-0.9,13.8
				c-1.4,1.2-3,2-4.7,2.3l1.3,3.9l0.7,2.2l2.4,6.8l0.4,1c1.7-0.5,3.7-0.4,5.4,0.4c3.9,1.8,5.7,6.3,3.9,10.4
				c-1.8,3.9-6.4,5.7-10.4,3.9c-3.9-1.8-5.7-6.4-3.9-10.4c0.2-0.3,0.3-0.7,0.5-1l-2.9-2.3l-2.2-1.7l-4.7-3.6l-1.8-1.5l-1-0.8
				l-3.3,4.4c2.1,2.2,2.7,5.6,1.4,8.5c-1.8,3.9-6.4,5.7-10.4,3.9c-3.9-1.8-5.7-6.4-3.9-10.4c1.8-4,6.4-5.7,10.4-3.9
				c0.2,0.1,0.4,0.2,0.6,0.3l3.3-4.3l-7-5.5c-4.1,3.5-10.2,3.1-13.7-1c-3.6-4.1-3.1-10.2,0.9-13.8c4.1-3.6,10.2-3.1,13.8,0.9
				c3,3.5,3.2,8.5,0.6,12.1l6.9,5.4l4.8-6.2c-0.4-0.3-0.7-0.7-1.1-1c-3.2-3.6-3.2-9-0.2-12.6l-1.1-2.3l-1-2.1l-2.3-4.6
				c-3,0.3-6.2-0.8-8.3-3.3c-3.6-4.1-3.1-10.2,0.9-13.8c4.1-3.6,10.2-3.1,13.8,0.9c2.2,2.5,2.9,5.9,2.1,8.9l10.3,2.5l2.4,0.6
				l5.3,1.3c0.4-1.3,1.2-2.6,2.3-3.5c3.2-2.8,8.2-2.5,11,0.7C479.6,603.1,479.3,608,476,610.9z"/>
			<path class="st21" d="M450.1,634.9l-1.5-4.4c-1.2-0.1-2.4-0.4-3.6-0.9l-4.9,6.4l1.2,0.9l1.8,1.5l5.7,4.5l2.2,1.7l1.9,1.4
				c0.3-0.2,0.6-0.4,0.9-0.6l0-0.1l-1-2.6l-1.9-5.5L450.1,634.9z"/>
		</g>
	</g>
</g>
<g>
	<g>
		<g>
			<path class="st22" d="M512.6,504.8l-0.4,1.6l-0.6,2.6l-1.9,8l-0.8,3.1l-0.5,2.6c0.4,0.2,0.7,0.4,1.1,0.6l0.1-0.1l2.2-2.2l4.8-4.5
				l1.9-1.8l3.9-3.7c-0.5-1.3-0.7-2.7-0.7-4.1L512.6,504.8z"/>
			<path class="st22" d="M530.1,452.2c-33.2,0.6-60.4,26.8-60.4,60.4c0.6,33.2,26.8,60.4,60.4,60.4s60.4-26.5,60.4-60.4
				C589.9,479.3,563.7,452.2,530.1,452.2z M567.4,525.8c-2,4.5-7.3,6.4-11.8,4.4c-4.5-2-6.4-7.3-4.4-11.8c0.9-2,2.5-3.5,4.4-4.4
				l-1.3-6.4l-0.5-2.7l-2.3-12.1c-1.3-0.1-2.5-0.4-3.7-0.9c-1.3-0.6-2.5-1.4-3.4-2.4l-3.3,4.1l-1.7,2.1l-1.3,1.6
				c5.1,2.8,7.2,9,4.8,14.3c-2.5,5.6-9.1,8.1-14.7,5.5c-1.9-0.9-3.4-2.2-4.6-3.8l-3.5,3.3l-1.9,1.8l-5.9,5.7l-0.9,0.9
				c1.4,1.6,2.2,3.6,2.2,5.8c0,0.7-0.1,1.4-0.2,2.1l18,7.1c1.5-2.7,4.4-4.6,7.8-4.6c4.8,0,8.9,4,8.9,8.9s-4,8.9-8.9,8.9
				s-8.9-4-8.9-8.9c0-0.6,0.1-1.2,0.2-1.8l-18.1-7.1c-1.5,2.6-4.3,4.4-7.7,4.4c-4.9,0-8.9-4-8.9-8.9s4-8.9,8.9-8.9
				c0.4,0,0.8,0,1.2,0.1l1-4.1l0.8-3.1l1.5-6.6l0.6-2.6l0.3-1.4l-6.1-1.4c-1.4,3.2-4.5,5.4-8.2,5.4c-4.9,0-8.9-4-8.9-8.9
				c0-4.9,4-8.9,8.9-8.9c5,0,8.9,4,8.9,8.9c0,0.3,0,0.5,0,0.8l6.1,1.4l2.4-9.9c-5.5-2.6-8-9.1-5.5-14.7c2.5-5.6,9.1-8.1,14.7-5.5
				c5.6,2.5,8.1,9.1,5.5,14.7c-2.2,4.8-7.3,7.3-12.3,6.3l-2.4,9.7l8.7,2c0.2-0.5,0.3-1.1,0.6-1.6c2.3-5,7.8-7.5,12.9-6.2l1.9-2.3
				l1.7-2.1l3.7-4.5c-1.7-3-2.1-6.8-0.5-10.2c2.5-5.6,9.1-8.1,14.7-5.5c5.6,2.5,8.1,9.1,5.5,14.7c-1.6,3.5-4.7,5.8-8.2,6.4l2.3,11.8
				l0.5,2.7l1.2,6c1.6-0.2,3.2,0,4.7,0.7C567.4,516.1,569.4,521.4,567.4,525.8z"/>
		</g>
	</g>
</g>
</svg>
