<?xml version="1.0" encoding="UTF-8"?>
<svg id="_图层_1" data-name="图层 1" xmlns="http://www.w3.org/2000/svg" xmlns:serif="http://www.serif.com/" version="1.1" viewBox="0 0 710.7 807.5">
  <defs>
    <style>
      .cls-1 {
        stroke-width: 5px;
      }

      .cls-1, .cls-2 {
        stroke: #6c0;
      }

      .cls-1, .cls-2, .cls-3 {
        stroke-miterlimit: 10;
      }

      .cls-1, .cls-3 {
        fill: none;
      }

      .cls-4 {
        fill: #6cb82d;
      }

      .cls-4, .cls-5, .cls-6, .cls-7, .cls-8, .cls-9, .cls-10, .cls-11, .cls-12, .cls-13, .cls-14, .cls-15, .cls-16, .cls-17, .cls-18, .cls-19, .cls-20, .cls-21, .cls-22, .cls-23 {
        stroke-width: 0px;
      }

      .cls-5 {
        fill: #93c900;
      }

      .cls-6 {
        fill: #e73a4a;
      }

      .cls-24 {
        fill: #00d447;
      }

      .cls-24, .cls-25, .cls-26, .cls-27 {
        font-family: Times-BoldItalic, Times;
        font-size: 151px;
        font-style: italic;
        font-weight: 700;
      }

      .cls-24, .cls-25, .cls-26, .cls-27, .cls-28 {
        isolation: isolate;
      }

      .cls-7 {
        fill: #c95319;
      }

      .cls-8 {
        fill: #f5ca58;
      }

      .cls-9 {
        fill: #fbff0a;
      }

      .cls-10 {
        fill: #e71e30;
      }

      .cls-11 {
        fill: #e9f200;
      }

      .cls-25 {
        fill: #fff;
      }

      .cls-29 {
        fill: #005da3;
        stroke: #3a8bcb;
        stroke-linecap: square;
        stroke-linejoin: round;
        stroke-width: 30px;
      }

      .cls-12 {
        fill: #4bb258;
      }

      .cls-26 {
        fill: #fff100;
      }

      .cls-13 {
        fill: #00f475;
      }

      .cls-14 {
        fill: #ff94c1;
      }

      .cls-2 {
        fill: #6c0;
      }

      .cls-15 {
        fill: #009c80;
      }

      .cls-16 {
        fill: #900;
      }

      .cls-17 {
        fill: #ffd756;
      }

      .cls-18 {
        fill: #efed79;
      }

      .cls-27 {
        fill: #d72f25;
      }

      .cls-19 {
        fill: #e95500;
      }

      .cls-20 {
        fill: #ffa80a;
      }

      .cls-21 {
        fill: #cad900;
      }

      .cls-3 {
        stroke: #b01e23;
        stroke-width: 14px;
      }

      .cls-22 {
        fill: #b01e23;
      }

      .cls-23 {
        fill: #ff6;
      }
    </style>
  </defs>
  <path id="path102" class="cls-29" d="M354.4,42.4L39.6,223.8l2.6,361.9,312.5,179,314.5-179.3V225.8L354.4,42.4h0Z"/>
  <g id="g104" class="cls-28">
    <g id="g103" class="cls-28">
      <g id="text102" class="cls-28">
        <text class="cls-25" transform="translate(64.1 348.4)"><tspan x="0" y="0">infer</tspan></text>
      </g>
    </g>
  </g>
  <g id="g106" class="cls-28">
    <g id="g105" class="cls-28">
      <g id="text104" class="cls-28">
        <text class="cls-27" transform="translate(369.9 348.4)"><tspan x="0" y="0">C</tspan></text>
      </g>
    </g>
  </g>
  <g id="g108" class="cls-28">
    <g id="g107" class="cls-28">
      <g id="text106" class="cls-28">
        <text class="cls-24" transform="translate(463.1 348.4)"><tspan x="0" y="0">S</tspan></text>
      </g>
    </g>
  </g>
  <g id="g110" class="cls-28">
    <g id="g109" class="cls-28">
      <g id="text108" class="cls-28">
        <text class="cls-26" transform="translate(535.7 348.4)"><tspan x="0" y="0">N</tspan></text>
      </g>
    </g>
  </g>
  <g id="g281">
    <g id="g126">
      <path id="path110" class="cls-17" d="M590.3,416.8l-3.8-3.7c.4-.3.8-.8,1.1-1.1l3.2,3.1-.5,1.7"/>
      <path id="path111" class="cls-17" d="M607.5,433.8l-15.8-15.6.5-1.8,16.6,16.3c-.5.3-1,.7-1.3,1.1"/>
      <path id="path112" class="cls-17" d="M606.1,436.3l-11.8-4.6c.3-.5.5-1,.6-1.5l11.8,4.7c-.2.4-.4.9-.6,1.4"/>
      <path id="path113" class="cls-17" d="M590.8,421.8c-.5-.2-1.1-.3-1.5-.4l1.1-4.6.5-1.8,1-3.8.4-1.5,3.4-13.8c.5.2,1.1.3,1.5.4l-3.4,13.8-.4,1.5-1.1,4.7-.5,1.8-1,3.7"/>
      <path id="path114" class="cls-17" d="M597.8,394.7c-2.9,0-5.3-2.4-5.3-5.3s2.4-5.3,5.3-5.3,5.3,2.4,5.3,5.3-2.3,5.3-5.3,5.3"/>
      <path id="path115" class="cls-17" d="M597.8,384.1c-2.9,0-5.3,2.4-5.3,5.3s2.4,5.3,5.3,5.3,5.3-2.4,5.3-5.3-2.3-5.3-5.3-5.3"/>
      <path id="path116" class="cls-17" d="M597.2,399.4c-.4,0-.7,0-1.1-.1-.7-.1-1.2-.2-1.8-.5-.6-.2-1.1-.5-1.7-.9-.6-.4-1.1-.8-1.4-1.2-1.3-1.4-2.2-3.4-2.2-5.6,0-4.5,3.6-8.1,8.1-8.1s8.1,3.6,8.1,8.1,0,1.4-.4,2.2c0,.6-.5,1.2-.7,1.7-1.2,2.7-3.8,4.4-6.9,4.4"/>
      <path id="path117" class="cls-17" d="M579,417.4c-5.4,0-10-4.3-10.1-9.8v-.4c0-5.4,4.6-9.8,10.1-9.8s4,.6,5.6,1.6c.7.4,1.2,1,1.8,1.5,1.6,1.8,2.6,4.1,2.6,6.8s0,1,0,1.5c0,.9-.3,1.5-.6,2.2-.3.9-.9,1.6-1.3,2.4-.4.6-1,1.1-1.6,1.6-2,1.6-4.1,2.4-6.4,2.4"/>
      <path id="path118" class="cls-17" d="M588.3,433.7c-2.9,0-5.3-2.4-5.3-5.3s2.4-5.3,5.3-5.3,5.3,2.4,5.3,5.3-2.4,5.2-5.3,5.3"/>
      <path id="path119" class="cls-17" d="M588.3,423c-2.9,0-5.3,2.4-5.3,5.3s2.4,5.3,5.3,5.3,5.3-2.4,5.3-5.3-2.4-5.2-5.3-5.3"/>
      <path id="path120" class="cls-17" d="M588.9,436.8c-4.7,0-8.4-3.7-8.4-8.4s3.7-8.4,8.4-8.4.7,0,1.1.1c.7.1,1.2.2,1.9.5,3.2,1.1,5.4,4.2,5.4,7.8s0,1.5-.2,2.2c0,.6-.5,1.2-.7,1.9-1.4,2.6-4.3,4.3-7.5,4.3"/>
      <path id="path121" class="cls-17" d="M612.7,443.6c-2.9,0-5.3-2.4-5.3-5.3s2.4-5.3,5.3-5.3,5.3,2.4,5.3,5.3-2.3,5.3-5.3,5.3"/>
      <path id="path122" class="cls-17" d="M612.7,433c-2.9,0-5.3,2.4-5.3,5.3s2.4,5.3,5.3,5.3,5.3-2.4,5.3-5.3-2.3-5.3-5.3-5.3"/>
      <path id="path123" class="cls-17" d="M612.7,445.3c-3.8,0-6.9-3.1-6.9-6.9s0-1.3.3-1.9c.2-.5.4-1.1.7-1.4.2-.4.5-.8.8-1.1.4-.4.8-.8,1.1-1.1.3-.2.7-.4,1-.6.5-.2,1-.4,1.5-.6.5-.1,1.1-.2,1.5-.2.6,0,1.2.1,1.8.2.5.1,1.1.3,1.5.6,2.1,1.1,3.6,3.4,3.6,6,0,3.8-3,6.9-6.9,7"/>
      <path id="path124" class="cls-17" d="M639.1,415.2h-5.1c0,18.6-15.1,33.7-33.8,33.8-18.6,0-33.7-15.1-33.8-33.8,0-18.6,15.1-33.7,33.8-33.8,18.6,0,33.7,15.1,33.8,33.8h10.3c0-24.2-19.6-44-44-44s-44,19.6-44,44,19.6,44,44,44,44-19.6,44-44h-5.2"/>
      <path id="path125" class="cls-17" d="M618.5,418.1c-.4,0-.8,0-1.2-.1-.8-.1-1.5-.3-2.2-.6-.7-.3-1.3-.6-2-1.1-.7-.4-1.2-1-1.7-1.5-1.6-1.7-2.6-4-2.6-6.6,0-5.4,4.3-9.9,9.9-9.9s9.9,4.3,9.9,9.9,0,1.7-.4,2.6c0,.7-.6,1.5-.8,2-2,3.3-5.1,5.3-8.9,5.3"/>
      <path id="path126" class="cls-17" d="M580.5,409.7v-2h6.3c0,.1,2.5.2,2.5.2h5.3c0,.1,2.1.1,2.1.1l18.9.3v2l-18.9-.3h-8.5c0-.1-2.5-.2-2.5-.2h-5.2"/>
    </g>
    <g id="g137">
      <path id="path127" class="cls-2" d="M364.1,484.2l-6.8-1.9c.4-1,.7-2.2.9-3.3l6.5,1.8-.6,3.4M375.9,487.4l-8.3-2.3.8-3.4,8.5,2.4c-.6,1-.9,2.2-1,3.3M361.1,496.4l-8.3-8.2c.9-.7,1.7-1.6,2.5-2.5l6.7,6.6-.9,4.1M398.2,533l-34.2-33.7.9-4,35.9,35.3c-.9.8-1.8,1.6-2.6,2.4M395.2,538.6l-25.4-10.2c.6-1,1-2.1,1.2-3.2l25.4,10.2c-.3,1-.8,2-1.2,3.2M413.3,465.6l-38.3-29,.4-4,40.1,30.4c-.8.8-1.5,1.7-2.2,2.6M442.7,482.5l-47.6,6.5-2.6-3.1,49.8-6.9c0,1.2,0,2.3.4,3.5"/>
      <path id="path128" class="cls-2" d="M362,507.3c-1.1-.4-2.2-.7-3.3-.9l2.5-10.1.9-4,2.1-8.3.8-3.4,7.2-29.7c1.1.4,2.2.7,3.4.8l-7.2,29.8-.8,3.4-2.5,10.3-.9,4-2.2,8.1"/>
      <path id="path129" class="cls-2" d="M403,529.4l-8.8-25c1.1-.3,2.2-.7,3.2-1.2l8.8,25c-1.1.4-2.2.8-3.2,1.2"/>
      <path id="path130" class="cls-2" d="M388.9,507.3c-10.2,0-18.3-8.3-18.5-18.5,0-10.2,8.3-18.3,18.5-18.5,10.2,0,18.3,8.3,18.5,18.5,0,10.3-8.3,18.5-18.5,18.5"/>
      <path id="path131" class="cls-2" d="M377.4,451.9c-.7,0-1.2,0-1.8-.2-1.2-.2-2.3-.4-3.4-.8s-2.1-.9-3.1-1.6c-.9-.7-1.9-1.4-2.6-2.2-2.5-2.7-4-6.3-4-10.2,0-8.3,6.6-15,15-15s15,6.6,15,15-.2,2.8-.6,4c-.3,1.1-.7,2.2-1.3,3.2-2.6,4.7-7.6,7.8-13.2,7.8"/>
      <path id="path132" class="cls-2" d="M343.5,488.2c-6.4,0-11.5-5.1-11.6-11.6,0-6.4,5.1-11.5,11.6-11.6,6.4,0,11.5,5,11.6,11.6-.2,6.5-5.3,11.6-11.6,11.6"/>
      <path id="path133" class="cls-2" d="M356.7,509.8c-6.4,0-11.5,5.1-11.6,11.6,0,6.4,5.1,11.5,11.6,11.5s11.5-5,11.6-11.5c-.2-6.4-5.3-11.5-11.6-11.6"/>
      <path id="path134" class="cls-2" d="M356.7,536.3c-8.3,0-15-6.6-15-15s6.6-15,15-15,1.3,0,2,.2c1.2.2,2.3.5,3.3.9,5.6,2.1,9.7,7.7,9.7,14s-.2,2.6-.5,3.9c-.3,1.1-.7,2.2-1.2,3.2-2.8,4.6-7.6,7.8-13.3,7.8"/>
      <path id="path135" class="cls-2" d="M407,551.3c-6.4,0-11.5-5.1-11.6-11.6,0-6.4,5.1-11.5,11.6-11.6,6.4,0,11.5,5,11.5,11.6,0,6.4-5.3,11.5-11.5,11.6"/>
      <circle id="circle135" class="cls-1" cx="388.7" cy="490.3" r="82.7"/>
      <path id="path136" class="cls-2" d="M445.9,497.1c-.7,0-1.2,0-1.8-.2-1.2-.2-2.3-.4-3.4-.8s-2.1-.9-3.1-1.6c-.9-.7-1.9-1.4-2.6-2.2-2.5-2.7-4-6.3-4-10.2,0-8.3,6.6-15,15-15s15,6.6,15,15-.2,2.8-.6,4c-.3,1.1-.7,2.2-1.3,3.2-2.7,4.6-7.6,7.8-13.2,7.8"/>
      <path id="path137" class="cls-2" d="M406.5,473.5c-.7,0-1.2,0-1.8-.2-1.2-.2-2.3-.4-3.4-.8s-2.1-.9-3.1-1.6-1.9-1.4-2.6-2.2c-2.5-2.7-4-6.3-4-10.2,0-8.3,6.6-15,15-15s15,6.6,15,15-.2,2.8-.6,4c-.3,1.1-.7,2.2-1.3,3.2-2.7,4.6-7.6,7.8-13.2,7.8"/>
    </g>
    <g id="g151">
      <path id="path138" class="cls-13" d="M357.6,686.1l-2.2-2.1c.2-.2.5-.4.7-.7l1.8,1.7-.3,1.1"/>
      <path id="path139" class="cls-13" d="M367.4,695.9l-9.1-9,.3-1.1,9.6,9.4c-.4.3-.6.5-.8.7"/>
      <path id="path140" class="cls-13" d="M366.6,697.3l-6.7-2.7c0-.3.3-.6.4-.9l6.7,2.7c0,.3-.3.6-.4.9"/>
      <path id="path141" class="cls-13" d="M357.9,689.1c-.3,0-.6-.2-.9-.2l.7-2.6.3-1.1.6-2.2.2-.9,1.9-7.8c.3,0,.6.2.9.2l-1.9,7.8-.2.9-.7,2.7-.3,1.1-.6,2.1"/>
      <path id="path142" class="cls-13" d="M361.9,673.5c-1.6,0-3.1-1.3-3.1-3.1s1.3-3.1,3.1-3.1,3.1,1.3,3.1,3.1-1.4,3.1-3.1,3.1"/>
      <path id="path143" class="cls-13" d="M361.9,667.4c-1.6,0-3.1,1.3-3.1,3.1s1.3,3.1,3.1,3.1,3.1-1.3,3.1-3.1-1.5-3.1-3.1-3.1"/>
      <path id="path144" class="cls-13" d="M361.9,674.4h-.5c-.3,0-.6,0-.9-.2-.3,0-.6-.3-.9-.4-.3-.2-.5-.4-.7-.6-.7-.7-1.1-1.6-1.1-2.7,0-2.2,1.7-3.9,3.9-3.9s3.9,1.7,3.9,3.9,0,.8,0,1.1-.2.6-.4.9c-.4,1.1-1.7,1.9-3.2,1.9"/>
      <path id="path145" class="cls-13" d="M352.9,684c-1.6,0-3.1-1.3-3.1-3.1s1.3-3.1,3.1-3.1,3.1,1.3,3.1,3.1-1.4,3-3.1,3.1"/>
      <path id="path146" class="cls-13" d="M352.9,677.9c-1.6,0-3.1,1.3-3.1,3.1s1.3,3.1,3.1,3.1,3.1-1.3,3.1-3.1-1.4-3.1-3.1-3.1M352.9,684.9c-2.1,0-3.9-1.7-3.9-3.8v-.2c0-2.1,1.8-3.8,3.9-3.8s1.5.3,2.2.7c.3.2.5.4.7.6.7.7,1.1,1.6,1.1,2.7v.6c0,.3,0,.6-.3.9,0,.4-.3.7-.6,1-.2.3-.4.5-.7.7-.6.3-1.5.6-2.4.6M356.5,695.8c-1.6,0-3.1-1.3-3.1-3.1s1.3-3.1,3.1-3.1,3.1,1.3,3.1,3.1-1.4,3.1-3.1,3.1"/>
      <path id="path147" class="cls-13" d="M356.5,689.8c-1.6,0-3.1,1.3-3.1,3.1s1.3,3.1,3.1,3.1,3.1-1.3,3.1-3.1c0-1.8-1.4-3.1-3.1-3.1M356.5,696.6c-2.2,0-3.9-1.7-3.9-3.9s1.7-3.9,3.9-3.9h.5c.3,0,.6,0,.9.2,1.4.6,2.5,2,2.5,3.7s0,.7,0,1.1c0,.3-.2.6-.4.9-.7,1.1-1.9,1.9-3.4,1.9M370.4,701.5c-1.6,0-3.1-1.3-3.1-3.1s1.3-3.1,3.1-3.1,3.1,1.3,3.1,3.1-1.4,3.1-3.1,3.1"/>
      <path id="path148" class="cls-13" d="M370.4,695.4c-1.6,0-3.1,1.3-3.1,3.1s1.3,3.1,3.1,3.1,3.1-1.3,3.1-3.1-1.4-3-3.1-3.1M370.4,702.4c-2.2,0-3.9-1.7-3.9-3.9s0-.8.2-1.1.2-.6.4-.9c0-.2.3-.4.4-.6.2-.2.4-.5.7-.7.2,0,.4-.3.6-.4.3,0,.6-.2.9-.3s.6,0,.9,0h1.1c.3,0,.6.2.9.4,1.2.7,2.1,2,2.1,3.4-.3,2.4-2,4.1-4.3,4.1"/>
      <path id="path149" class="cls-13" d="M385.5,685.1h-3c0,10.7-8.6,19.3-19.3,19.3s-19.3-8.6-19.3-19.3,8.6-19.3,19.3-19.3,19.3,8.6,19.3,19.3h5.8c0-14-11.3-25.3-25.3-25.3s-25.1,11.3-25.1,25.3,11.3,25.3,25.3,25.3,25.3-11.3,25.3-25.3h-3"/>
      <path id="path150" class="cls-13" d="M372.7,689c-1.6,0-3.1-1.3-3.1-3.1s1.3-3.1,3.1-3.1,3.1,1.3,3.1,3.1c0,1.7-1.5,3.1-3.1,3.1"/>
      <path id="path151" class="cls-13" d="M356.6,692.1c0-.3-.2-.6-.3-.9l2.5-1,1-.4,2.1-.9.9-.4,7.5-3c0,.3.2.6.4.9l-7.6,3-.9.4-2.6,1.1-1,.4-2,.8"/>
    </g>
    <g id="g165">
      <path id="path152" class="cls-23" d="M182.5,585.9l2.2-2.1c-.3,0-.4-.4-.7-.7l-1.8,1.8.3,1"/>
      <path id="path153" class="cls-23" d="M172.4,595.9l9.3-9.1-.3-1-9.7,9.6c.3,0,.6.4.7.6"/>
      <path id="path154" class="cls-23" d="M173.1,597.6l6.9-2.7c0-.3-.3-.6-.3-.9l-6.9,2.7c0,.3,0,.6.3.9"/>
      <path id="path155" class="cls-23" d="M182.2,589.1c.3,0,.6,0,.9-.3l-.7-2.7-.3-1.2-.6-2.2-.3-.9-1.9-8.2c-.3,0-.6,0-.9.3l1.9,8.2.3.9.7,2.8.3,1.2.6,2.1"/>
      <path id="path156" class="cls-23" d="M178,572.9c1.6,0,3.1-1.5,3.1-3.1s-1.5-3.1-3.1-3.1-3.1,1.5-3.1,3.1,1.3,3.1,3.1,3.1"/>
      <path id="path157" class="cls-23" d="M178,566.5c1.6,0,3.1,1.5,3.1,3.1s-1.5,3.1-3.1,3.1-3.1-1.5-3.1-3.1,1.3-3.1,3.1-3.1"/>
      <path id="path158" class="cls-23" d="M178,573.8h.4c.3,0,.6,0,.9-.3.3,0,.6-.3.9-.4s.6-.4.7-.6c.7-.7,1.2-1.6,1.2-2.7,0-2.2-1.8-4-4-4s-4,1.8-4,4,0,.7,0,1.2c0,.3,0,.6.4.9.4,1.2,1.6,1.9,3.3,1.9"/>
      <path id="path159" class="cls-23" d="M187.3,583.6c1.6,0,3.1-1.5,3.1-3.1s-1.5-3.1-3.1-3.1-3.1,1.5-3.1,3.1,1.3,3.1,3.1,3.1"/>
      <path id="path160" class="cls-23" d="M187.5,577.5c1.6,0,3.1,1.5,3.1,3.1s-1.5,3.1-3.1,3.1-3.1-1.5-3.1-3.1c0-1.8,1.3-3.1,3.1-3.1M187.5,584.6c2.1,0,4-1.6,4-4h0c0-2.2-1.8-4.2-4-4.2s-1.6.3-2.2.7c-.3,0-.6.4-.7.6-.7.7-1.2,1.6-1.2,2.7v.6c0,.3,0,.6.3.9,0,.3.3.7.6,1,0,.3.4.4.7.7.6.4,1.5.9,2.5.9M183.6,595.8c1.6,0,3.1-1.5,3.1-3.1s-1.5-3.1-3.1-3.1-3.1,1.5-3.1,3.1c0,1.8,1.5,3.1,3.1,3.1"/>
      <path id="path161" class="cls-23" d="M183.6,589.6c1.6,0,3.1,1.5,3.1,3.1s-1.5,3.1-3.1,3.1-3.1-1.5-3.1-3.1c0-1.8,1.5-3.1,3.1-3.1M183.6,597c2.2,0,4-1.8,4-4s-1.8-4-4-4h-.6c-.3,0-.6,0-.9.3-1.6.6-2.5,1.9-2.5,3.9s0,.7,0,1,0,.6.3.9c.7.9,2.2,1.9,3.6,1.9M169.4,601.9c1.6,0,3.1-1.5,3.1-3.1s-1.5-3.1-3.1-3.1-3.1,1.5-3.1,3.1c0,1.6,1.3,3.1,3.1,3.1"/>
      <path id="path162" class="cls-23" d="M169.4,595.5c1.6,0,3.1,1.5,3.1,3.1s-1.5,3.1-3.1,3.1-3.1-1.5-3.1-3.1c0-1.6,1.3-3.1,3.1-3.1M169.4,602.8c2.2,0,4-1.8,4-4s0-.9,0-1.2l-.4-.9c0-.3-.3-.4-.4-.6,0-.3-.4-.4-.7-.7,0,0-.4-.3-.6-.3-.3,0-.6-.3-.9-.3h-1.9c-.3,0-.6,0-.9.3-1.3.7-2.1,1.9-2.1,3.6s1.8,4.2,4.2,4.2"/>
      <path id="path163" class="cls-23" d="M153.5,585h3c0,11.1,8.8,20,20,20s20-8.8,20-20-8.8-20-20-20-20,8.8-20,20h-6c0-14.5,11.7-26,26-26s26,11.7,26,26-11.7,26-26,26-26-11.7-26-26h3"/>
      <path id="path164" class="cls-23" d="M164,588.8h.4c.3,0,.6,0,.9-.3.3,0,.6-.3.9-.4s.6-.4.7-.6c.7-.7,1.2-1.6,1.2-2.7,0-2.2-1.8-4-4-4s-4,1.8-4,4,0,.7,0,1.2c0,.3,0,.6.4.9.4,1,1.8,1.9,3.3,1.9"/>
      <path id="path165" class="cls-23" d="M168.3,598.9c.3,0,.6-.3.9-.3l-.9-2.5-.4-1-.7-2.2-.3-.9-2.7-7.9c-.3,0-.6.3-.9.3l2.7,7.9.3.9,1,2.7.4,1,.6,2.1"/>
    </g>
    <g id="g180">
      <path id="path166" class="cls-9" d="M438.4,614.1l2.4-2.4c-.3-.2-.5-.5-.8-.8l-2,1.9.4,1.3"/>
      <path id="path167" class="cls-9" d="M427.5,625.1l10.1-10.1-.3-1.1-10.6,10.5c.3.2.5.5.8.7"/>
      <path id="path168" class="cls-9" d="M438.1,617.4c.3,0,.7-.2,1-.3l-.8-3-.3-1.1-.6-2.5-.3-1-2.1-8.7c-.3,0-.7.2-1,.3l2.1,8.8.3,1,.8,3.1.3,1.1.6,2.3"/>
      <path id="path169" class="cls-9" d="M425.2,604.1c1.8,0,3.4-1.5,3.4-3.4s-1.5-3.4-3.4-3.4-3.4,1.5-3.4,3.4c-.2,1.9,1.4,3.4,3.4,3.4"/>
      <path id="path170" class="cls-9" d="M428,610.3c1.3,0,2.5,1.1,2.5,2.5s-1.1,2.5-2.5,2.5-2.5-1.1-2.5-2.5,1.1-2.5,2.5-2.5"/>
      <path id="path171" class="cls-9" d="M434.6,604.1h.3c.2,0,.4,0,.6-.2.2,0,.4-.2.6-.3s.4-.3.5-.4c.5-.5.8-1.1.8-1.8,0-1.5-1.2-2.8-2.8-2.8s-2.8,1.2-2.8,2.8,0,.5,0,.8c0,.2,0,.4.3.6.5.6,1.4,1.3,2.4,1.3"/>
      <path id="path172" class="cls-9" d="M443.7,611.8c1.8,0,3.4-1.5,3.4-3.4s-1.5-3.4-3.4-3.4-3.4,1.5-3.4,3.4,1.5,3.4,3.4,3.4"/>
      <path id="path173" class="cls-9" d="M443.7,605.1c1.8,0,3.4,1.5,3.4,3.4s-1.5,3.4-3.4,3.4-3.4-1.5-3.4-3.4c0-2,1.5-3.4,3.4-3.4M443.7,612.8c2.4,0,4.3-1.9,4.4-4.3v-.2c0-2.4-2-4.3-4.4-4.3s-1.7.3-2.5.8c-.3.2-.6.4-.8.7-.8.8-1.1,1.8-1.1,3s0,.5,0,.7c0,.4,0,.7.3,1,.2.4.4.8.6,1.1s.5.5.8.8c.6.3,1.5.7,2.6.7M439.6,625.1c1.8,0,3.4-1.5,3.4-3.4s-1.5-3.4-3.4-3.4-3.4,1.5-3.4,3.4,1.6,3.3,3.4,3.4"/>
      <path id="path174" class="cls-9" d="M439.6,618.1c1.8,0,3.4,1.5,3.4,3.4s-1.5,3.4-3.4,3.4-3.4-1.5-3.4-3.4,1.6-3.4,3.4-3.4M439.6,626c2.4,0,4.4-2,4.4-4.4s-2-4.4-4.4-4.4h-.6c-.4,0-.7,0-1,.3-1.6.7-2.9,2.2-2.9,4.1s0,.8.2,1.1c0,.4.2.7.4,1,.9,1.5,2.3,2.3,3.9,2.3M424.1,631.4c1.8,0,3.4-1.5,3.4-3.4s-1.5-3.4-3.4-3.4-3.4,1.5-3.4,3.4,1.4,3.4,3.4,3.4"/>
      <path id="path175" class="cls-9" d="M424.1,624.6c1.8,0,3.4,1.5,3.4,3.4s-1.5,3.4-3.4,3.4-3.4-1.5-3.4-3.4,1.4-3.4,3.4-3.4M424.1,632.3c2.4,0,4.4-2,4.4-4.4s0-.9-.2-1.2c0-.4-.3-.7-.4-1s-.3-.5-.5-.7c-.2-.3-.5-.5-.8-.7-.2,0-.4-.3-.7-.4-.3-.2-.7-.3-1-.4h-1c-.3,0-.8,0-1.1.2-.4,0-.7.2-1,.4-1.3.8-2.3,2.2-2.3,3.9,0,2.5,2,4.4,4.6,4.4"/>
      <path id="path176" class="cls-9" d="M407.2,613.1h3.3c0,12,9.8,21.5,21.6,21.6,12,0,21.5-9.7,21.6-21.6,0-12-9.8-21.5-21.6-21.6-12,0-21.5,9.8-21.6,21.6h-6.5c0-15.6,12.6-28.2,28.2-28.2s28.2,12.6,28.2,28.2-12.6,28.2-28.2,28.2-28.2-12.6-28.2-28.2h3.2"/>
      <path id="path177" class="cls-9" d="M420.7,613c1.8,0,3.4-1.5,3.4-3.4s-1.5-3.4-3.4-3.4-3.4,1.5-3.4,3.4c0,1.9,1.5,3.4,3.4,3.4"/>
      <path id="path178" class="cls-9" d="M422.9,627.4c.3,0,.7,0,1.1-.2l-.4-3-.3-1.1-.3-2.5v-1.1c0,0-1.2-9-1.2-9h-1.1l1.1,9.1v1.1c0,0,.5,3.1.5,3.1l.2,1.1.4,2.4"/>
      <path id="path179" class="cls-9" d="M427.9,614.5c.3,0,.5-.2.8-.3l-.6-3-.2-1.1-.5-2.5-.2-1-1.7-8.7c-.3,0-.5.2-.8.3l1.7,8.8.2,1,.6,3.1.2,1.1.5,2.3"/>
      <path id="path180" class="cls-9" d="M440.5,623.4c.2-.3.4-.6.6-.9l-2.4-1.8-1-.8-2-1.5-.9-.7-7.2-5.5c-.2.3-.4.6-.7.9l7.2,5.5.9.7,2.5,1.9,1,.8,2,1.4"/>
    </g>
    <g id="g198">
      <path id="path181" class="cls-14" d="M267,637l-14.5-5.7c.3-.6.6-1.1.8-1.8l14.5,5.7c-.4.5-.7,1.1-.8,1.8"/>
      <path id="path182" class="cls-14" d="M236.1,603.1c.2-.7.2-1.2.2-1.9l5.7.6,2.3.2,4.9.5,2,.2,17.3,1.6c0,.7-.2,1.3-.2,2l-17.4-1.6-2-.2-5.9-.6-2.3-.2-4.6-.6"/>
      <path id="path183" class="cls-14" d="M270.1,588.1c-3.5,0-6.5-2.9-6.5-6.5s2.9-6.5,6.5-6.5,6.5,2.9,6.5,6.5-2.9,6.5-6.5,6.5"/>
      <path id="path184" class="cls-14" d="M287.8,618.5c-3.5,0-6.5,2.9-6.5,6.5s2.9,6.5,6.5,6.5,6.5-2.9,6.5-6.5-2.8-6.5-6.5-6.5"/>
      <path id="path185" class="cls-14" d="M254.6,595.3h-.9c-.6,0-1.1-.2-1.6-.4-.6-.2-1.1-.5-1.5-.8-.5-.3-.9-.7-1.2-1.1-1.1-1.2-1.9-3-1.9-4.9,0-3.9,3.2-7.2,7.2-7.2s7.2,3.2,7.2,7.2,0,1.3-.3,1.9-.4,1.1-.7,1.5c-1.2,2.4-3.6,3.9-6.3,3.9"/>
      <path id="path186" class="cls-14" d="M237.6,608.3c-3.5,0-6.5-2.9-6.5-6.5s2.9-6.5,6.5-6.5,6.5,2.9,6.5,6.5-3,6.5-6.5,6.5"/>
      <path id="path187" class="cls-14" d="M237.6,595.1c-3.5,0-6.5,2.9-6.5,6.5s2.9,6.5,6.5,6.5,6.5-2.9,6.5-6.5c0-3.6-3-6.5-6.5-6.5"/>
      <path id="path188" class="cls-14" d="M237.6,610.1c-4.6,0-8.3-3.6-8.5-8.2v-.4c0-4.6,3.8-8.2,8.5-8.2s3.4.6,4.7,1.4c.6.4,1.1.8,1.5,1.2,1.4,1.5,2.3,3.5,2.3,5.7s0,.9,0,1.2c0,.7-.3,1.3-.6,1.9-.3.8-.7,1.4-1.1,2s-.9,1-1.3,1.4c-1.6,1.3-3.5,2-5.4,2"/>
      <path id="path189" class="cls-14" d="M245,633.6c-3.5,0-6.5-2.9-6.5-6.5s2.9-6.5,6.5-6.5,6.5,2.9,6.5,6.5c0,3.6-2.8,6.5-6.5,6.5"/>
      <path id="path190" class="cls-14" d="M245,620.6c-3.5,0-6.5,2.9-6.5,6.5s2.9,6.5,6.5,6.5,6.5-2.9,6.5-6.5c0-3.6-2.8-6.5-6.5-6.5"/>
      <path id="path191" class="cls-14" d="M247.3,638.1c-5.6,0-10.3-4.6-10.3-10.3s4.6-10.3,10.3-10.3.9,0,1.3,0c.8,0,1.6.3,2.3.6,3.8,1.4,6.6,5.2,6.6,9.7s0,1.8-.4,2.7c-.2.8-.5,1.5-.9,2.2-1.5,3.1-4.8,5.3-8.9,5.3"/>
      <path id="path192" class="cls-14" d="M270.7,644.3c-3.5,0-6.5-2.9-6.5-6.5s2.9-6.5,6.5-6.5,6.5,2.9,6.5,6.5-2.9,6.5-6.5,6.5"/>
      <path id="path193" class="cls-14" d="M307.5,611h-6.3c0,22.9-18.7,41.4-41.5,41.5-22.9,0-41.4-18.6-41.5-41.5,0-22.9,18.7-41.4,41.5-41.5,22.9,0,41.4,18.7,41.5,41.5h12.7c0-30-24.2-54.2-54.2-54.2s-54.2,24.2-54.2,54.2,24.2,54.2,54.2,54.2,54.2-24.2,54.2-54.2h-6.4"/>
      <path id="path194" class="cls-14" d="M277.2,619h-1.6c-1.1,0-2.1-.4-3.2-.8-1.1-.4-2-.9-2.9-1.4-.9-.6-1.7-1.3-2.5-2.1-2.3-2.5-3.6-5.7-3.6-9.5,0-7.7,6.2-14,14-14s14,6.2,14,14-.2,2.5-.5,3.7c-.3,1.1-.7,2.1-1.2,3-2.6,4.2-7.2,7.2-12.5,7.2"/>
      <path id="path195" class="cls-14" d="M276.7,610.4l-19.4-19.1.6-2.2,20.4,20.1c-.6.2-1.1.7-1.6,1.2"/>
      <path id="path196" class="cls-14" d="M287.7,626l-12.6-24.2,1.2-1.9,13.2,25.4c-.6,0-1.2.4-1.8.7"/>
      <path id="path197" class="cls-14" d="M276.3,610.1l-6.2-26.5,1.6-1.6,6.5,27.9c-.6,0-1.3,0-1.9.2"/>
      <path id="path198" class="cls-14" d="M269.3,611.6l-22,16.1-2.1-.9,23.1-16.8c.3.6.7,1.1,1,1.6"/>
    </g>
    <g id="g210">
      <path id="path199" class="cls-20" d="M478,589l-2.1-2.1c.2-.2.5-.4.7-.7l1.7,1.7-.3,1.1"/>
      <path id="path200" class="cls-20" d="M487.6,598.5l-8.8-8.7.3-1.1,9.4,9.2c-.4.2-.7.4-.9.6"/>
      <path id="path201" class="cls-20" d="M486.8,599.9l-6.5-2.6c0-.3.3-.6.3-.9l6.6,2.6c0,.3-.3.6-.4.9"/>
      <path id="path202" class="cls-20" d="M478.3,591.9c-.3,0-.6-.2-.9-.2l.7-2.6.3-1.1.6-2.2.2-.9,1.9-7.7c.3,0,.6.2.9.2l-1.9,7.7-.2.9-.7,2.7-.3,1.1-.6,2.1"/>
      <path id="path203" class="cls-20" d="M482.2,576.5c-1.6,0-3-1.3-3-3s1.3-3,3-3,3,1.3,3,3-1.3,3-3,3"/>
      <path id="path204" class="cls-20" d="M482.2,570.6c-1.6,0-3,1.3-3,3s1.3,3,3,3,3-1.3,3-3-1.3-3-3-3"/>
      <path id="path205" class="cls-20" d="M482.2,577.4h-.5c-.3,0-.6,0-.9-.2-.3,0-.6-.3-.8-.4-.3-.2-.5-.4-.7-.6-.7-.7-1.1-1.6-1.1-2.6,0-2.1,1.7-3.8,3.8-3.8s3.8,1.7,3.8,3.8,0,.7,0,1.1c0,.3-.2.6-.4.9-.3,1-1.6,1.8-3.1,1.8"/>
      <path id="path206" class="cls-20" d="M473.4,586.9c-1.6,0-3-1.3-3-3s1.3-3,3-3,3,1.3,3,3-1.3,3-3,3"/>
      <path id="path207" class="cls-20" d="M473.4,580.8c-1.6,0-3,1.3-3,3s1.3,3,3,3,3-1.3,3-3-1.3-3-3-3M473.4,587.6c-2.1,0-3.8-1.7-3.8-3.7v-.2c0-2.1,1.7-3.7,3.8-3.7s1.5.3,2.1.7c.3.2.5.4.7.6.7.7,1.1,1.6,1.1,2.6v.6c0,.3,0,.6-.3.9,0,.3-.3.7-.6,1-.2.3-.4.5-.7.7-.5.2-1.4.5-2.3.5M476.9,598.4c-1.6,0-3-1.3-3-3s1.3-3,3-3,3,1.3,3,3-1.4,3-3,3"/>
      <path id="path208" class="cls-20" d="M476.9,592.4c-1.6,0-3,1.3-3,3s1.3,3,3,3,3-1.3,3-3c0-1.6-1.4-2.9-3-3M476.9,599.3c-2.1,0-3.8-1.7-3.8-3.8s1.7-3.8,3.8-3.8h.5c.3,0,.6,0,.9.2,1.4.6,2.5,1.9,2.5,3.6s0,.7,0,1-.2.6-.3.9c-.7,1.1-2,1.9-3.5,1.9M490.6,604c-1.6,0-3-1.3-3-3s1.3-3,3-3,3,1.3,3,3-1.4,3-3,3"/>
      <path id="path209" class="cls-20" d="M490.6,598c-1.6,0-3,1.3-3,3s1.3,3,3,3,3-1.3,3-3-1.4-2.9-3-3M490.6,605c-2.1,0-3.8-1.7-3.8-3.8s0-.8.2-1.1.2-.6.4-.9c0-.2.3-.4.4-.6.2-.2.4-.5.7-.6.2,0,.4-.3.6-.3.3,0,.6-.2.9-.3h1.9c.3,0,.6.2.9.3,1.2.7,2,1.9,2,3.4-.3,2-2.1,3.9-4.2,3.9"/>
      <path id="path210" class="cls-20" d="M505.4,588.1h-2.9c0,10.5-8.4,19-19,19s-19-8.4-19-19,8.4-19,19-19,19,8.4,19,19h5.7c0-13.7-11.1-24.7-24.7-24.7s-24.7,11.1-24.7,24.7,11.1,24.7,24.7,24.7,24.7-11.1,24.7-24.7h-2.8"/>
    </g>
    <g id="g226">
      <path id="path211" class="cls-5" d="M533.9,518l-5-4.9c.6-.5,1.1-1,1.4-1.5l4.1,4-.5,2.4"/>
      <path id="path212" class="cls-5" d="M556.2,540l-20.6-20.3.6-2.4,21.6,21.2c-.6.5-1.2,1-1.6,1.5"/>
      <path id="path213" class="cls-5" d="M554.4,543.4l-15.3-6c.3-.6.6-1.2.8-1.9l15.3,6c-.3.5-.6,1.2-.8,1.9"/>
      <path id="path214" class="cls-5" d="M534.4,524.5c-.7-.3-1.3-.4-2-.5l1.4-6,.6-2.4,1.2-5.1.5-2,4.3-17.9c.7.2,1.3.4,2,.5l-4.4,18-.5,2-1.5,6.2-.6,2.4-1,4.8"/>
      <path id="path215" class="cls-5" d="M541.3,494.6h-1.1c-.7,0-1.4-.3-2-.5-.7-.3-1.2-.6-1.8-1s-1.1-.9-1.6-1.3c-1.4-1.6-2.4-3.7-2.4-6.1,0-5,4-9.1,9.1-9.1s9.1,4,9.1,9.1,0,1.6-.3,2.4c-.2.7-.5,1.3-.8,1.9-1.8,2.8-4.7,4.7-8.2,4.7"/>
      <path id="path216" class="cls-5" d="M525.3,501.7c-3.8,0-6.9,3.1-6.9,6.9s3.1,6.9,6.9,6.9,6.9-3.1,6.9-6.9-3-6.9-6.9-6.9"/>
      <path id="path217" class="cls-5" d="M531.1,539.9c-3.8,0-6.9-3.1-6.9-6.9s3.1-6.9,6.9-6.9,6.9,3.1,6.9,6.9-3,6.9-6.9,6.9"/>
      <path id="path218" class="cls-5" d="M531.1,526c-3.8,0-6.9,3.1-6.9,6.9s3.1,6.9,6.9,6.9,6.9-3.1,6.9-6.9-3-6.9-6.9-6.9M531.1,542c-5,0-9.1-4-9.1-9.1s4-9.1,9.1-9.1.8,0,1.1,0c.7,0,1.4.3,2,.5,3.4,1.2,5.7,4.6,5.7,8.4s0,1.6-.3,2.3-.5,1.3-.8,1.9c-1.2,3.1-4.2,5-7.7,5M563.1,552.8c-3.8,0-6.9-3.1-6.9-6.9s3.1-6.9,6.9-6.9,6.9,3.1,6.9,6.9-3.2,6.8-6.9,6.9"/>
      <path id="path219" class="cls-5" d="M563.1,539c-3.8,0-6.9,3.1-6.9,6.9s3.1,6.9,6.9,6.9,6.9-3.1,6.9-6.9-3.2-6.9-6.9-6.9M563.1,554.9c-5,0-9.1-4-9.1-9.1s0-1.7.4-2.6c.2-.7.5-1.3.9-1.9.3-.5.6-1,1-1.3.5-.6,1-1.1,1.5-1.4.4-.3.9-.6,1.2-.8.6-.3,1.2-.6,2-.7.7-.2,1.3-.2,2-.2s1.5,0,2.3.3c.7.2,1.3.5,1.9.8,2.8,1.5,4.7,4.5,4.7,7.9.2,4.9-4,9-8.8,9"/>
      <path id="path220" class="cls-5" d="M597.4,515.7h-6.7c0,24.3-19.8,43.9-44,44-24.3,0-43.9-19.6-44-44,0-24.3,19.8-43.9,44-44,24.3,0,43.9,19.8,44,44h13.4c0-31.7-25.7-57.5-57.5-57.5s-57.5,25.7-57.5,57.5,25.7,57.5,57.5,57.5,57.5-25.7,57.5-57.5h-6.7"/>
      <path id="path221" class="cls-5" d="M551.8,524.5h-1.4c-.9,0-1.8-.3-2.6-.7-.9-.3-1.6-.8-2.4-1.2-.8-.5-1.4-1.1-2-1.7-1.9-2.1-3.1-4.8-3.1-7.8,0-6.3,5.2-11.6,11.6-11.6s11.6,5.2,11.6,11.6,0,2.1-.4,3.1c-.2.9-.6,1.7-1.1,2.5-2.1,3.5-5.9,5.9-10.2,5.9"/>
      <path id="path222" class="cls-5" d="M573.7,533.5h-1.1c-.7,0-1.4-.3-2-.5-.7-.3-1.2-.6-1.8-1s-1.1-.9-1.6-1.3c-1.4-1.6-2.4-3.7-2.4-6.1,0-5,4-9.1,9.1-9.1s9.1,4,9.1,9.1,0,1.6-.3,2.4c-.2.7-.5,1.3-.8,1.9-1.9,2.9-4.9,4.7-8.2,4.7"/>
      <path id="path223" class="cls-5" d="M566.6,502.5h-1.1c-.7,0-1.4-.3-2-.5-.7-.3-1.2-.6-1.8-1s-1.1-.9-1.6-1.3c-1.4-1.6-2.4-3.7-2.4-6.1,0-5,4-9.1,9.1-9.1s9.1,4,9.1,9.1,0,1.6-.3,2.4c-.2.7-.5,1.3-.8,1.9-1.8,2.8-4.8,4.7-8.2,4.7"/>
      <path id="path224" class="cls-5" d="M574.3,528.2c-.7,0-1.3.2-2.1.4l-1.1-6-.5-2.4-1-5.1-.4-2.1-3.5-18.1c.7,0,1.4-.2,2.1-.4l3.5,18.2.4,2.1,1.2,6.2.5,2.4.9,4.8"/>
      <path id="path225" class="cls-5" d="M549.5,516.5c-.5-.5-1.1-1-1.6-1.3l3.8-4.8,1.5-1.9,3.3-4,1.3-1.6,11.6-14.4c.5.5,1.1,1,1.6,1.3l-11.7,14.4-1.3,1.6-4,5-1.5,1.9-3,3.8"/>
      <path id="path226" class="cls-5" d="M531.8,532.8c-.4-.6-.9-1.1-1.4-1.5l4.5-4.2,1.7-1.7,3.7-3.5,1.5-1.4,13.4-12.7c.4.6.9,1.1,1.4,1.5l-13.5,12.7-1.5,1.4-4.6,4.4-1.7,1.7-3.5,3.3"/>
    </g>
    <g id="g240">
      <path id="path227" class="cls-19" d="M250.1,510.1l-3.2-3.2c.4-.3.7-.6,1-1l2.6,2.6-.4,1.6"/>
      <path id="path228" class="cls-19" d="M264.5,524.3l-13.2-13,.4-1.5,14,13.8c-.5,0-.9.4-1.2.7"/>
      <path id="path229" class="cls-19" d="M263.3,526.5l-9.9-3.9c.2-.4.4-.9.5-1.2l10,3.9c-.3.3-.5.7-.6,1.2"/>
      <path id="path230" class="cls-19" d="M250.5,514.4c-.4-.2-.9-.3-1.3-.4l1-3.8.4-1.5.8-3.3.3-1.3,2.8-11.6c.4.2.9.3,1.3.3l-2.8,11.6-.3,1.3-1,4-.4,1.5-.8,3.2"/>
      <path id="path231" class="cls-19" d="M256.4,491.4c-2.5,0-4.4-2-4.4-4.4s2-4.4,4.4-4.4,4.4,2,4.4,4.4-1.9,4.4-4.4,4.4"/>
      <path id="path232" class="cls-19" d="M256.4,482.5c-2.5,0-4.4,2-4.4,4.4s2,4.4,4.4,4.4,4.4-2,4.4-4.4-2-4.4-4.4-4.4"/>
      <path id="path233" class="cls-19" d="M256.4,492.8h-.7c-.5,0-.9-.2-1.3-.3-.5-.2-.9-.4-1.2-.6-.4-.3-.8-.6-1.1-.9-1-1.1-1.5-2.4-1.5-3.9,0-3.2,2.6-5.8,5.8-5.8s5.8,2.6,5.8,5.8,0,1.1-.2,1.5c0,.5-.3.9-.5,1.2-1,1.7-2.9,3-5.1,3"/>
      <path id="path234" class="cls-19" d="M243.2,506.9c-2.5,0-4.4-2-4.4-4.4s2-4.4,4.4-4.4,4.4,2,4.4,4.4-1.9,4.4-4.4,4.4"/>
      <path id="path235" class="cls-19" d="M243.2,498c-2.5,0-4.4,2-4.4,4.4s2,4.4,4.4,4.4,4.4-2,4.4-4.4-2-4.4-4.4-4.4M243.2,508.2c-3.2,0-5.7-2.5-5.8-5.6v-.3c0-3.2,2.7-5.6,5.8-5.6s2.3.4,3.3,1c.4.3.8.6,1.1.9,1,1.1,1.5,2.4,1.5,3.9s0,.6,0,.9c0,.5-.2.9-.4,1.3-.2.5-.5,1-.8,1.3-.3.4-.6.7-1,1-1,.7-2.2,1.2-3.6,1.2M248.4,524.2c-2.5,0-4.4-2-4.4-4.4s2-4.4,4.4-4.4,4.4,2,4.4,4.4c0,2.5-1.9,4.4-4.4,4.4"/>
      <path id="path236" class="cls-19" d="M248.4,515.4c-2.5,0-4.4,2-4.4,4.4s2,4.4,4.4,4.4,4.4-2,4.4-4.4c0-2.5-1.9-4.4-4.4-4.4M248.4,525.5c-3.2,0-5.8-2.6-5.8-5.8s2.6-5.8,5.8-5.8h.8c.5,0,.9.2,1.3.4,2.2.9,3.7,3,3.7,5.4s0,1.1-.2,1.5c0,.5-.3.9-.5,1.2-1,2-2.9,3.1-5.1,3.1M269,532.6c-2.5,0-4.4-2-4.4-4.4s2-4.4,4.4-4.4,4.4,2,4.4,4.4-2,4.4-4.4,4.4"/>
      <path id="path237" class="cls-19" d="M269,523.6c-2.5,0-4.4,2-4.4,4.4s2,4.4,4.4,4.4,4.4-2,4.4-4.4-2-4.3-4.4-4.4M269,533.9c-3.2,0-5.8-2.6-5.8-5.8s0-1.1.2-1.6.3-.9.6-1.2c.2-.3.4-.6.7-.9.3-.4.7-.7,1-1,.3-.2.6-.4.9-.5.4-.2.9-.4,1.2-.5s.9-.2,1.3-.2,1.1,0,1.5.2c.5,0,.9.3,1.2.5,1.8,1,3.1,2.9,3.1,5.1-.2,3.4-2.8,5.9-5.9,5.9"/>
      <path id="path238" class="cls-19" d="M291.1,508.7h-4.3c0,15.7-12.7,28.3-28.4,28.4-15.7,0-28.3-12.7-28.4-28.4,0-15.7,12.7-28.3,28.4-28.4,15.7,0,28.3,12.7,28.4,28.4h8.6c0-20.4-16.6-37-37-37s-37,16.6-37,37,16.6,37,37,37,37-16.6,37-37h-4.3"/>
      <path id="path239" class="cls-19" d="M271.4,509.3h-.7c-.5,0-.9-.2-1.3-.3-.5-.2-.9-.4-1.2-.6-.4-.3-.8-.6-1.1-.9-1-1.1-1.5-2.4-1.5-3.9,0-3.2,2.6-5.8,5.8-5.8s5.8,2.6,5.8,5.8,0,1.1-.2,1.5c0,.5-.3.9-.5,1.2-1,1.8-2.9,3-5.1,3"/>
      <path id="path240" class="cls-19" d="M271.7,503.7l-13.3-13.1.4-1.5,14,13.7c-.5.2-.8.5-1.1.9"/>
    </g>
    <g id="g256">
      <path id="path241" class="cls-11" d="M490.6,421.5l-3.1-3c.3-.3.7-.6.9-1l2.5,2.4-.3,1.6"/>
      <path id="path242" class="cls-11" d="M504.3,435l-12.6-12.4.4-1.4,13.2,13c-.4.1-.7.4-1,.8"/>
      <path id="path243" class="cls-11" d="M503.2,437l-9.4-3.7c.2-.4.4-.8.5-1.1l9.4,3.7c-.2.2-.4.6-.5,1.1"/>
      <path id="path244" class="cls-11" d="M491,425.6c-.4-.2-.8-.3-1.2-.3l.9-3.6.4-1.4.8-3.1.3-1.2,2.7-10.9c.4.1.9.3,1.2.3l-2.7,11-.3,1.2-1,3.7-.4,1.3-.7,3"/>
      <path id="path245" class="cls-11" d="M496.5,403.9c-2.3,0-4.2-1.9-4.2-4.2s1.9-4.2,4.2-4.2,4.2,1.9,4.2,4.2c.2,2.3-1.7,4.2-4.2,4.2"/>
      <path id="path246" class="cls-11" d="M496.5,395.5c-2.3,0-4.2,1.9-4.2,4.2s1.9,4.2,4.2,4.2,4.2-1.9,4.2-4.2c.2-2.3-1.8-4.2-4.2-4.2"/>
      <path id="path247" class="cls-11" d="M496.5,405.1h-.7c-.4-.1-.9-.2-1.2-.3-.4-.2-.8-.4-1.1-.6-.4-.3-.7-.5-1-.9-.9-1-1.4-2.3-1.4-3.7,0-3.1,2.5-5.5,5.5-5.5s5.5,2.5,5.5,5.5,0,1-.2,1.4-.3.9-.5,1.1c-.8,2-2.7,3-4.9,3"/>
      <path id="path248" class="cls-11" d="M484.2,418.4c-2.3,0-4.2-1.9-4.2-4.2s1.9-4.2,4.2-4.2,4.2,1.9,4.2,4.2-1.9,4.2-4.2,4.2"/>
      <path id="path249" class="cls-11" d="M484.2,410.1c-2.3,0-4.2,1.9-4.2,4.2s1.9,4.2,4.2,4.2,4.2-1.9,4.2-4.2-1.9-4.2-4.2-4.2M484.2,419.8c-3,0-5.4-2.4-5.5-5.4v-.3c0-3,2.5-5.4,5.5-5.4s2.2.4,3.1,1c.4.3.7.5,1,.9.9,1,1.4,2.3,1.4,3.7s0,.6,0,.9c0,.4-.2.9-.4,1.2-.2.5-.5.9-.8,1.3s-.6.7-.9,1c-.8.6-2.1,1.1-3.3,1.1M489,434.9c-2.3,0-4.2-1.9-4.2-4.2s1.9-4.2,4.2-4.2,4.2,1.9,4.2,4.2-1.8,4.2-4.2,4.2"/>
      <path id="path250" class="cls-11" d="M489,426.5c-2.3,0-4.2,1.9-4.2,4.2s1.9,4.2,4.2,4.2,4.2-1.9,4.2-4.2-1.8-4.2-4.2-4.2M489,436.1c-3.1,0-5.5-2.5-5.5-5.5s2.5-5.5,5.5-5.5h.7c.4.1.9.2,1.2.3,2,.8,3.5,2.8,3.5,5.1s0,1-.2,1.4-.3.9-.5,1.1c-.8,2-2.6,3.1-4.7,3.1M508.4,442.8c-2.3,0-4.2-1.9-4.2-4.2s1.9-4.2,4.2-4.2,4.2,1.9,4.2,4.2-1.9,4.2-4.2,4.2"/>
      <path id="path251" class="cls-11" d="M508.4,434.3c-2.3,0-4.2,1.9-4.2,4.2s1.9,4.2,4.2,4.2,4.2-1.9,4.2-4.2-1.9-4.2-4.2-4.2M508.4,444.1c-3.1,0-5.5-2.5-5.5-5.5s0-1.1.2-1.5c0-.4.3-.8.5-1.1.2-.3.4-.6.6-.9.3-.3.6-.6,1-.9.3-.2.5-.4.8-.5.4-.2.8-.3,1.2-.4s.8-.1,1.2-.1,1,.1,1.4.2.9.3,1.1.5c1.7,1,2.9,2.8,2.9,4.8s-2.3,5.4-5.4,5.4"/>
      <path id="path252" class="cls-11" d="M529.4,420.1h-4c0,14.8-12.1,26.8-26.9,26.9-14.8,0-26.8-12-26.9-26.9,0-14.8,12.1-26.8,26.9-26.9,14.8,0,26.8,12.1,26.9,26.9h8.1c0-19.3-15.6-35-35-35s-35,15.6-35,35,15.6,35,35,35,35-15.6,35-35h-4.1"/>
      <path id="path253" class="cls-11" d="M518.2,431.9h-.7c-.4-.1-.9-.2-1.2-.3-.4-.2-.8-.4-1.1-.6-.4-.2-.7-.5-1-.9-.9-1-1.4-2.3-1.4-3.7,0-3.1,2.5-5.5,5.5-5.5s5.5,2.5,5.5,5.5,0,1-.2,1.4c0,.4-.3.9-.5,1.1-1.1,1.9-2.8,3-4.9,3"/>
      <path id="path254" class="cls-11" d="M500.9,425.3h-.7c-.4-.1-.9-.2-1.2-.3-.4-.2-.8-.4-1.1-.6-.4-.2-.7-.5-1-.9-.9-1-1.4-2.3-1.4-3.7,0-3.1,2.5-5.5,5.5-5.5s5.5,2.5,5.5,5.5,0,1-.2,1.4-.3.9-.5,1.1c-1.1,1.8-2.8,3-4.9,3"/>
      <path id="path255" class="cls-11" d="M513.7,423.4l-14.9-18.8.4-2.2,15.7,19.6c-.5.5-.8.9-1.2,1.4"/>
      <path id="path256" class="cls-11" d="M500.1,420.8l-3.6-17.2,1.1-1.1,3.8,18.1c-.5,0-.9.1-1.3.2"/>
    </g>
    <g id="g270">
      <path id="path257" class="cls-16" d="M351.5,618.6l-2.5-2.4c.3-.2.5-.5.8-.8l2,2-.3,1.2"/>
      <path id="path258" class="cls-16" d="M362.5,629.5l-10.2-10.1.3-1.1,10.7,10.5c-.3.3-.6.5-.8.7"/>
      <path id="path259" class="cls-16" d="M361.5,631.1l-7.5-3c.2-.3.3-.7.4-1l7.6,3c-.3.3-.4.7-.5,1"/>
      <path id="path260" class="cls-16" d="M351.8,622c-.3,0-.7-.2-1-.3l.8-3,.3-1.1.6-2.5.3-1.1,2.1-8.8c.3,0,.7.2,1.1.3l-2.1,8.8-.3,1.1-.8,3.1-.3,1.1-.7,2.4"/>
      <path id="path261" class="cls-16" d="M355.8,608.3h-.6c-.4,0-.8,0-1.1-.3-.4,0-.8-.3-1.1-.6-.3-.2-.7-.5-.9-.8-.9-.9-1.3-2.1-1.3-3.4,0-2.8,2.3-5.1,5.1-5.1s5.1,2.3,5.1,5.1,0,1-.2,1.3c0,.4-.3.8-.5,1.1-1,1.6-2.6,2.7-4.5,2.7"/>
      <path id="path262" class="cls-16" d="M346.3,616.1c-1.9,0-3.4-1.5-3.4-3.4s1.5-3.4,3.4-3.4,3.4,1.5,3.4,3.4-1.6,3.4-3.4,3.4"/>
      <path id="path263" class="cls-16" d="M346.2,609.4c-1.9,0-3.4,1.5-3.4,3.4s1.5,3.4,3.4,3.4,3.4-1.5,3.4-3.4c0-1.9-1.5-3.4-3.4-3.4"/>
      <path id="path264" class="cls-16" d="M346.2,617.1c-2.4,0-4.4-1.9-4.4-4.3v-.2c0-2.4,2-4.3,4.4-4.3s1.7.3,2.5.8c.3.2.6.4.8.7.8.8,1.1,1.8,1.1,3s0,.5,0,.7c0,.4,0,.7-.3,1-.2.4-.4.8-.6,1.1s-.5.5-.8.8c-.6.3-1.5.7-2.6.7"/>
      <path id="path265" class="cls-16" d="M350.4,620.5c-3.1,0-5.6,2.5-5.6,5.6s2.5,5.6,5.6,5.6,5.6-2.5,5.6-5.6-2.5-5.6-5.6-5.6"/>
      <path id="path266" class="cls-16" d="M366,635.9c-1.9,0-3.4-1.5-3.4-3.4s1.5-3.4,3.4-3.4,3.4,1.5,3.4,3.4-1.5,3.4-3.4,3.4"/>
      <path id="path267" class="cls-16" d="M366,629.1c-1.9,0-3.4,1.5-3.4,3.4s1.5,3.4,3.4,3.4,3.4-1.5,3.4-3.4-1.5-3.4-3.4-3.4M366,637c-2.5,0-4.4-2-4.4-4.4s0-.9.2-1.2c0-.4.3-.7.4-1s.3-.5.5-.7c.2-.3.5-.5.8-.7.2,0,.4-.3.7-.4.3-.2.7-.3,1-.4h1c.3,0,.8,0,1.1.2.4,0,.7.2,1,.4,1.3.8,2.3,2.2,2.3,3.9-.2,2.3-2.2,4.4-4.6,4.4"/>
      <path id="path268" class="cls-16" d="M383,617.6h-3.3c0,12.1-9.9,21.7-21.7,21.7s-21.7-9.8-21.7-21.7,9.9-21.7,21.7-21.7,21.7,9.9,21.7,21.7h6.6c0-15.7-12.7-28.4-28.4-28.4s-28.4,12.7-28.4,28.4,12.7,28.4,28.4,28.4,28.4-12.7,28.4-28.4h-3.3"/>
      <path id="path269" class="cls-16" d="M368.5,609.6c-3.5,0-6.4,2.9-6.4,6.4s2.9,6.4,6.4,6.4,6.4-2.9,6.4-6.4c0-3.5-2.7-6.4-6.4-6.4"/>
      <path id="path270" class="cls-16" d="M367,630.6h-1.1l.4-3.1.2-1.1.3-2.6v-1.1c0,0,1.2-9.1,1.2-9.1h1.1l-1.1,9.1v1.1c0,0-.5,3.2-.5,3.2l-.2,1.1-.3,2.5"/>
    </g>
    <g id="g280">
      <path id="path271" class="cls-22" d="M129.2,500.7c-.6-.7-1.1-1.2-1.9-1.9l5.2-5.5,2.1-2.2,4.4-4.6,1.8-1.9,15.8-16.5c.6.7,1.1,1.2,1.9,1.8l-15.9,16.4-1.8,1.9-5.4,5.7-2.1,2.2-4.1,4.6"/>
      <path id="path272" class="cls-22" d="M165.2,519.2c-6.1,0-11.1-5-11.1-11.1s0-1.2.2-1.9c.2-.9.4-1.7.8-2.5,1.7-4,5.7-6.8,10.3-6.8s7.2,1.9,9.3,5c.5.7.9,1.4,1.1,2.3.4,1.1.7,2.6.7,3.9,0,4.2-2.5,8-6,9.9-.8.4-1.6.7-2.5,1-1,0-1.8,0-2.8.2"/>
      <path id="path273" class="cls-22" d="M153.5,486.7c-.4,0-1,0-1.3-.1-.9-.1-1.7-.4-2.6-.6-.9-.4-1.6-.7-2.3-1.1-.7-.5-1.3-1-1.9-1.7-1.9-2-2.9-4.6-2.9-7.4,0-6,5-11,11-11s11,5,11,11-.2,2-.4,2.9c-.3.9-.6,1.7-1,2.4-1.8,3.4-5.3,5.6-9.6,5.6"/>
      <path id="path274" class="cls-22" d="M124,506c-3-1.8-4.1-5.7-2.3-8.9,1.8-3,5.7-4.1,8.9-2.3.3.2.5.4.7.4.4.3.8.7,1.1,1.1,1.6,2,1.9,5,.5,7.2-.4.5-.7,1-1,1.3-.4.4-.8.7-1.1,1-2,1.4-4.6,1.5-6.8.2"/>
      <path id="path275" class="cls-22" d="M161.5,501.2l-6.5-18.7c.9-.3,1.7-.5,2.5-1l6.5,18.7c-1,.4-1.7.7-2.5,1"/>
      <circle id="circle275" class="cls-3" cx="155.1" cy="486.4" r="55"/>
      <path id="path276" class="cls-22" d="M179.2,478.9l-19.7-.9c0-.9.2-1.8,0-2.7l19.7.8v2.8"/>
      <path id="path277" class="cls-22" d="M198.4,481c-1.8,4.4-6.7,6.5-11.1,4.9-4.4-1.8-6.5-6.7-4.9-11.1,1.8-4.4,6.7-6.5,11.1-4.8,4.5,1.7,6.6,6.7,4.9,11"/>
      <path id="path278" class="cls-22" d="M182.5,474.7c-1.8,4.4.4,9.4,4.9,11.1,4.4,1.8,9.4-.4,11.1-4.9,1.8-4.4-.4-9.4-4.8-11.1-4.4-1.5-9.4.5-11.2,4.9M200.7,482c-2.3,5.7-8.8,8.6-14.5,6.2-1-.4-1.9-1-2.8-1.5-.7-.5-1.2-1.1-1.9-1.8-.4-.5-.9-1.1-1.1-1.7-.4-.8-.8-1.6-1-2.4-.2-.6-.3-1.1-.3-1.9s0-1.8,0-2.7c0-.9.4-1.6.7-2.4.4-1,.9-1.8,1.3-2.6.5-.7,1.1-1.3,1.8-1.9,3-2.6,7.3-3.4,11.3-1.8,6,2.2,8.8,8.8,6.4,14.5"/>
      <path id="path279" class="cls-22" d="M145.4,459l9.7,17.2c-.8.4-1.6.8-2.3,1.3l-9.8-17.2c.9-.4,1.8-.8,2.4-1.3"/>
      <path id="path280" class="cls-22" d="M138.9,444.3c4.7-.9,9,2.2,10,6.9.9,4.7-2.2,9-6.9,10-4.7.9-9-2.2-9.9-6.9-.9-4.6,2.2-9,6.8-10"/>
    </g>
  </g>
  <path id="path284" class="cls-10" d="M94.7,269.8c-7.6,0-13.7-6.3-13.9-13.9,0-7.6,6.3-13.7,13.9-13.9,7.6,0,13.7,6.3,13.9,13.9,0,7.7-6.1,13.9-13.9,13.9"/>
  <g>
    <path id="path281" class="cls-6" d="M320.8,215.9c-10.5,0-18.7-8.5-18.9-18.9,0-10.5,8.5-18.7,18.9-18.9,10.5,0,18.7,8.5,18.9,18.9,0,10.6-8.4,18.9-18.9,18.9"/>
    <path id="path282" class="cls-4" d="M330.9,162.1c-15.7,0-28.1-12.8-28.4-28.4,0-15.7,12.8-28.1,28.4-28.4,15.7,0,28.1,12.8,28.4,28.4,0,15.9-12.7,28.4-28.4,28.4"/>
    <path id="path283" class="cls-7" d="M397.9,197c-10.5,0-18.7-8.5-18.9-18.9,0-10.5,8.5-18.7,18.9-18.9,10.5,0,18.7,8.5,18.9,18.9,0,10.5-8.4,18.9-18.9,18.9"/>
    <path id="path285" class="cls-6" d="M359.4,103.9c-8.3,0-14.8-6.7-15-14.9,0-8.3,6.7-14.8,15-14.9,8.3,0,14.8,6.7,15,14.9,0,8.4-6.6,14.9-15,14.9"/>
    <path id="path286" class="cls-4" d="M409.8,140.9c-10.5,0-18.7-8.5-18.9-18.9,0-10.5,8.5-18.7,18.9-18.9,10.5,0,18.7,8.5,18.9,18.9,0,10.5-8.5,18.9-18.9,18.9"/>
    <path id="path287" class="cls-12" d="M509.7,189.9c-5.2,0-9.4-4.3-9.5-9.5,0-5.2,4.3-9.4,9.5-9.5,5.2,0,9.4,4.3,9.5,9.5,0,5.3-4.3,9.5-9.5,9.5"/>
    <path id="path288" class="cls-21" d="M267.1,165.6c-10.5,0-18.7-8.5-18.9-18.9,0-10.5,8.5-18.7,18.9-18.9,10.5,0,18.7,8.5,18.9,18.9,0,10.6-8.5,18.9-18.9,18.9"/>
    <path id="path289" class="cls-4" d="M224.7,197.1c-5.2,0-9.4-4.3-9.5-9.5,0-5.2,4.3-9.4,9.5-9.5,5.2,0,9.4,4.3,9.5,9.5,0,5.3-4.2,9.5-9.5,9.5"/>
    <path id="path290" class="cls-8" d="M452.3,189.8c-13.1,0-23.4-10.6-23.6-23.6,0-13.1,10.6-23.4,23.6-23.6,13.1,0,23.4,10.6,23.6,23.6,0,13.2-10.6,23.6-23.6,23.6"/>
    <path id="path281-2" data-name="path281" class="cls-18" d="M376.8,146.7c-3.6,0-6.4-2.9-6.5-6.5,0-3.6,2.9-6.4,6.5-6.5,3.6,0,6.4,2.9,6.5,6.5,0,3.6-2.9,6.5-6.5,6.5"/>
    <path id="path281-3" data-name="path281" class="cls-15" d="M367.8,215.2c-3.6,0-6.4-2.9-6.5-6.5,0-3.6,2.9-6.4,6.5-6.5,3.6,0,6.4,2.9,6.5,6.5,0,3.6-2.9,6.5-6.5,6.5"/>
  </g>
</svg>