<?xml version="1.0" encoding="utf-8"?>
<!-- Generator: Adobe Illustrator 27.0.0, SVG Export Plug-In . SVG Version: 6.00 Build 0)  -->
<svg version="1.1" id="图层_1" xmlns:serif="http://www.serif.com/"
	 xmlns="http://www.w3.org/2000/svg" xmlns:xlink="http://www.w3.org/1999/xlink" x="0px" y="0px" viewBox="0 0 710.7 807.5"
	 style="enable-background:new 0 0 710.7 807.5;" xml:space="preserve">
<style type="text/css">
	.st0{fill:#00007F;stroke:#0071BC;stroke-width:30;stroke-linecap:square;stroke-linejoin:round;stroke-miterlimit:1.5;}
	.st1{fill:#FFFFFF;}
	.st2{font-family:'TimesNewRomanPS-BoldItalicMT';}
	.st3{font-size:140px;}
	.st4{fill:#CC3300;}
	.st5{fill:#00D447;}
	.st6{fill:#FFD756;}
	.st7{fill:#66CC00;stroke:#66CC00;stroke-miterlimit:10;}
	.st8{fill:none;stroke:#66CC00;stroke-width:5;stroke-miterlimit:10;}
	.st9{fill:#00F475;}
	.st10{fill:#2AFFDE;}
	.st11{fill:#006837;}
	.st12{fill:#FFFF66;}
	.st13{fill:#55DBFF;}
	.st14{fill:#FBFF0A;}
	.st15{fill:#FF94C1;}
	.st16{fill:#FFA80A;}
	.st17{fill:#4A78FF;}
	.st18{fill:#93C900;}
	.st19{fill:#E95500;}
	.st20{fill:#E9F200;}
	.st21{fill:#990000;}
	.st22{fill:#82C3DF;}
	.st23{fill:none;stroke:#82C3DF;stroke-width:10;stroke-miterlimit:10;}
	.st24{fill:#009966;}
	.st25{fill:#B01E23;}
	.st26{fill:none;stroke:#B01E23;stroke-width:14;stroke-miterlimit:10;}
	.st27{fill:#CCE0FF;}
	.st28{fill:#E73A4A;}
	.st29{fill:#6CB82D;}
	.st30{fill:#C95319;}
	.st31{fill:#25BAE2;}
	.st32{fill:#4BB258;}
	.st33{fill:#CB9611;}
	.st34{fill:#F5CA58;}
</style>
<path class="st0" d="M354.7,41.7L39.9,223.1L42.5,585L355,764l314.5-179.3V225.1L354.7,41.7L354.7,41.7z"/>
<text transform="matrix(1 0 0 1 79.3501 337.0694)" class="st1 st2 st3">infer</text>
<text transform="matrix(1 0 0 1 356.1819 337.7397)" class="st4 st2 st3">C</text>
<text transform="matrix(1 0 0 1 444.6184 337.7397)" class="st5 st2 st3">S</text>
<text transform="matrix(1 0 0 1 516.5939 338.8696)" class="st6 st2 st3">N</text>
<g>
	<g>
		<path class="st6" d="M598.3,459.6l-3.8-3.7c0.4-0.3,0.8-0.8,1.1-1.1l3.2,3.1L598.3,459.6"/>
		<path class="st6" d="M615.5,476.6L599.7,461l0.5-1.8l16.6,16.3C616.3,475.8,615.8,476.2,615.5,476.6"/>
		<path class="st6" d="M614.1,479.1l-11.8-4.6c0.3-0.5,0.5-1,0.6-1.5l11.8,4.7C614.5,478.1,614.3,478.6,614.1,479.1"/>
		<path class="st6" d="M598.8,464.6c-0.5-0.2-1.1-0.3-1.5-0.4l1.1-4.6l0.5-1.8l1-3.8l0.4-1.5l3.4-13.8c0.5,0.2,1.1,0.3,1.5,0.4
			l-3.4,13.8l-0.4,1.5l-1.1,4.7l-0.5,1.8L598.8,464.6"/>
		<path class="st6" d="M605.8,437.5c-2.9,0-5.3-2.4-5.3-5.3s2.4-5.3,5.3-5.3c2.9,0,5.3,2.4,5.3,5.3
			C611.2,435.1,608.8,437.5,605.8,437.5"/>
		<path class="st6" d="M605.8,426.9c-2.9,0-5.3,2.4-5.3,5.3s2.4,5.3,5.3,5.3c2.9,0,5.3-2.4,5.3-5.3
			C611.1,429.2,608.8,426.9,605.8,426.9"/>
		<path class="st6" d="M605.2,442.2c-0.4,0-0.7,0-1.1-0.1c-0.7-0.1-1.2-0.2-1.8-0.5c-0.6-0.2-1.1-0.5-1.7-0.9
			c-0.6-0.4-1.1-0.8-1.4-1.2c-1.3-1.4-2.2-3.4-2.2-5.6c0-4.5,3.6-8.1,8.1-8.1s8.1,3.6,8.1,8.1c0,0.8-0.1,1.4-0.4,2.2
			c-0.1,0.6-0.5,1.2-0.7,1.7C610.9,440.5,608.3,442.2,605.2,442.2"/>
		<path class="st6" d="M587,460.2c-5.4,0-10-4.3-10.1-9.8V450c0.1-5.4,4.6-9.8,10.1-9.8c2.1,0,4,0.6,5.6,1.6c0.7,0.4,1.2,1,1.8,1.5
			c1.6,1.8,2.6,4.1,2.6,6.8c0,0.6,0,1-0.1,1.5c-0.1,0.9-0.3,1.5-0.6,2.2c-0.3,0.9-0.9,1.6-1.3,2.4c-0.4,0.6-1,1.1-1.6,1.6
			C591.4,459.4,589.3,460.2,587,460.2"/>
		<path class="st6" d="M596.3,476.5c-2.9,0-5.3-2.4-5.3-5.3s2.4-5.3,5.3-5.3c2.9,0,5.3,2.4,5.3,5.3
			C601.5,474.1,599.2,476.4,596.3,476.5"/>
		<path class="st6" d="M596.3,465.8c-2.9,0-5.3,2.4-5.3,5.3s2.4,5.3,5.3,5.3c2.9,0,5.3-2.4,5.3-5.3S599.2,465.9,596.3,465.8"/>
		<path class="st6" d="M596.9,479.6c-4.7,0-8.4-3.7-8.4-8.4c0-4.7,3.7-8.4,8.4-8.4c0.4,0,0.7,0,1.1,0.1c0.7,0.1,1.2,0.2,1.9,0.5
			c3.2,1.1,5.4,4.2,5.4,7.8c0,0.9-0.1,1.5-0.2,2.2c-0.1,0.6-0.5,1.2-0.7,1.9C603,477.9,600.1,479.6,596.9,479.6"/>
		<path class="st6" d="M620.7,486.4c-2.9,0-5.3-2.4-5.3-5.3s2.4-5.3,5.3-5.3s5.3,2.4,5.3,5.3C625.9,484.1,623.7,486.4,620.7,486.4"
			/>
		<path class="st6" d="M620.7,475.8c-2.9,0-5.3,2.4-5.3,5.3s2.4,5.3,5.3,5.3s5.3-2.4,5.3-5.3C626,478.1,623.7,475.8,620.7,475.8"/>
		<path class="st6" d="M620.7,488.1c-3.8,0-6.9-3.1-6.9-6.9c0-0.7,0.1-1.3,0.3-1.9c0.2-0.5,0.4-1.1,0.7-1.4c0.2-0.4,0.5-0.8,0.8-1.1
			c0.4-0.4,0.8-0.8,1.1-1.1c0.3-0.2,0.7-0.4,1-0.6c0.5-0.2,1-0.4,1.5-0.6c0.5-0.1,1.1-0.2,1.5-0.2c0.6,0,1.2,0.1,1.8,0.2
			c0.5,0.1,1.1,0.3,1.5,0.6c2.1,1.1,3.6,3.4,3.6,6C627.7,484.9,624.6,488,620.7,488.1"/>
		<path class="st6" d="M647.1,458H642c0,18.6-15.1,33.7-33.8,33.8c-18.6,0-33.7-15.1-33.8-33.8c0-18.6,15.1-33.7,33.8-33.8
			c18.6,0,33.7,15.1,33.8,33.8h10.3c0-24.2-19.6-44-44-44c-24.3,0-44,19.6-44,44s19.6,44,44,44c24.2,0,44-19.6,44-44H647.1"/>
		<path class="st6" d="M626.5,460.9c-0.4,0-0.8,0-1.2-0.1c-0.8-0.1-1.5-0.3-2.2-0.6c-0.7-0.3-1.3-0.6-2-1.1c-0.7-0.4-1.2-1-1.7-1.5
			c-1.6-1.7-2.6-4-2.6-6.6c0-5.4,4.3-9.9,9.9-9.9c5.4,0,9.9,4.3,9.9,9.9c0,1-0.1,1.7-0.4,2.6c-0.1,0.7-0.6,1.5-0.8,2
			C633.4,458.9,630.3,460.9,626.5,460.9"/>
		<path class="st6" d="M588.5,452.5c0.1-0.7,0.1-1.3,0.1-2l6.3,0.1l2.5,0.1l5.3,0.1h2.1l18.9,0.3c-0.1,0.7-0.1,1.3-0.1,2l-18.9-0.3
			h-2.1l-6.4-0.1l-2.5-0.1L588.5,452.5"/>
	</g>
	<g>
		<path class="st7" d="M378.1,487l-6.8-1.9c0.4-1,0.7-2.2,0.9-3.3l6.5,1.8L378.1,487 M389.9,490.2l-8.3-2.3l0.8-3.4l8.5,2.4
			C390.3,487.9,390,489.1,389.9,490.2 M375.1,499.2l-8.3-8.2c0.9-0.7,1.7-1.6,2.5-2.5l6.7,6.6L375.1,499.2 M412.2,535.8L378,502.1
			l0.9-4l35.9,35.3C413.9,534.2,413,535,412.2,535.8 M409.2,541.4l-25.4-10.2c0.6-1,1-2.1,1.2-3.2l25.4,10.2
			C410.1,539.2,409.6,540.2,409.2,541.4 M427.3,468.4l-38.3-29l0.4-4l40.1,30.4C428.7,466.6,428,467.5,427.3,468.4 M456.7,485.3
			l-47.6,6.5l-2.6-3.1l49.8-6.9C456.4,483,456.4,484.1,456.7,485.3"/>
		<path class="st7" d="M376,510.1c-1.1-0.4-2.2-0.7-3.3-0.9l2.5-10.1l0.9-4l2.1-8.3l0.8-3.4l7.2-29.7c1.1,0.4,2.2,0.7,3.4,0.8
			l-7.2,29.8l-0.8,3.4l-2.5,10.3l-0.9,4L376,510.1"/>
		<path class="st7" d="M417,532.2l-8.8-25c1.1-0.3,2.2-0.7,3.2-1.2l8.8,25C419.1,531.4,418,531.8,417,532.2"/>
		<path class="st7" d="M402.9,510.1c-10.2,0-18.3-8.3-18.5-18.5c0-10.2,8.3-18.3,18.5-18.5c10.2,0,18.3,8.3,18.5,18.5
			C421.4,501.9,413.1,510.1,402.9,510.1"/>
		<path class="st7" d="M391.4,454.7c-0.7,0-1.2,0-1.8-0.2c-1.2-0.2-2.3-0.4-3.4-0.8s-2.1-0.9-3.1-1.6c-0.9-0.7-1.9-1.4-2.6-2.2
			c-2.5-2.7-4-6.3-4-10.2c0-8.3,6.6-15,15-15c8.3,0,15,6.6,15,15c0,1.3-0.2,2.8-0.6,4c-0.3,1.1-0.7,2.2-1.3,3.2
			C402,451.6,397,454.7,391.4,454.7"/>
		<path class="st7" d="M357.5,491c-6.4,0-11.5-5.1-11.6-11.6c0-6.4,5.1-11.5,11.6-11.6c6.4,0,11.5,5,11.6,11.6
			C368.9,485.9,363.8,491,357.5,491"/>
		<path class="st7" d="M370.7,512.6c-6.4,0-11.5,5.1-11.6,11.6c0,6.4,5.1,11.5,11.6,11.5c6.4,0,11.5-5,11.6-11.5
			C382.1,517.8,377,512.7,370.7,512.6"/>
		<path class="st7" d="M370.7,539.1c-8.3,0-15-6.6-15-15c0-8.3,6.6-15,15-15c0.7,0,1.3,0,2,0.2c1.2,0.2,2.3,0.5,3.3,0.9
			c5.6,2.1,9.7,7.7,9.7,14c0,1.3-0.2,2.6-0.5,3.9c-0.3,1.1-0.7,2.2-1.2,3.2C381.2,535.9,376.4,539.1,370.7,539.1"/>
		<path class="st7" d="M421,554.1c-6.4,0-11.5-5.1-11.6-11.6c0-6.4,5.1-11.5,11.6-11.6c6.4,0,11.5,5,11.5,11.6
			C432.4,548.9,427.2,554,421,554.1"/>
		<circle class="st8" cx="402.7" cy="493.1" r="82.7"/>
		<path class="st7" d="M459.9,499.9c-0.7,0-1.2,0-1.8-0.2c-1.2-0.2-2.3-0.4-3.4-0.8s-2.1-0.9-3.1-1.6c-0.9-0.7-1.9-1.4-2.6-2.2
			c-2.5-2.7-4-6.3-4-10.2c0-8.3,6.6-15,15-15s15,6.6,15,15c0,1.3-0.2,2.8-0.6,4c-0.3,1.1-0.7,2.2-1.3,3.2
			C470.4,496.7,465.5,499.9,459.9,499.9"/>
		<path class="st7" d="M420.5,476.3c-0.7,0-1.2,0-1.8-0.2c-1.2-0.2-2.3-0.4-3.4-0.8s-2.1-0.9-3.1-1.6s-1.9-1.4-2.6-2.2
			c-2.5-2.7-4-6.3-4-10.2c0-8.3,6.6-15,15-15c8.3,0,15,6.6,15,15c0,1.3-0.2,2.8-0.6,4c-0.3,1.1-0.7,2.2-1.3,3.2
			C431,473.1,426.1,476.3,420.5,476.3"/>
	</g>
	<g>
		<path class="st9" d="M378.6,692.9l-2.2-2.1c0.2-0.2,0.5-0.4,0.7-0.7l1.8,1.7L378.6,692.9"/>
		<path class="st9" d="M388.4,702.7l-9.1-9l0.3-1.1l9.6,9.4C388.8,702.3,388.6,702.5,388.4,702.7"/>
		<path class="st9" d="M387.6,704.1l-6.7-2.7c0.1-0.3,0.3-0.6,0.4-0.9l6.7,2.7C387.9,703.5,387.7,703.8,387.6,704.1"/>
		<path class="st9" d="M378.9,695.9c-0.3-0.1-0.6-0.2-0.9-0.2l0.7-2.6l0.3-1.1l0.6-2.2l0.2-0.9l1.9-7.8c0.3,0.1,0.6,0.2,0.9,0.2
			l-1.9,7.8l-0.2,0.9l-0.7,2.7l-0.3,1.1L378.9,695.9"/>
		<path class="st9" d="M382.9,680.3c-1.6,0-3.1-1.3-3.1-3.1c0-1.6,1.3-3.1,3.1-3.1c1.6,0,3.1,1.3,3.1,3.1
			C386,678.9,384.6,680.3,382.9,680.3"/>
		<path class="st9" d="M382.9,674.2c-1.6,0-3.1,1.3-3.1,3.1c0,1.6,1.3,3.1,3.1,3.1c1.6,0,3.1-1.3,3.1-3.1S384.5,674.2,382.9,674.2"
			/>
		<path class="st9" d="M382.9,681.2c-0.2,0-0.3,0-0.5,0c-0.3,0-0.6-0.1-0.9-0.2c-0.3-0.1-0.6-0.3-0.9-0.4c-0.3-0.2-0.5-0.4-0.7-0.6
			c-0.7-0.7-1.1-1.6-1.1-2.7c0-2.2,1.7-3.9,3.9-3.9c2.2,0,3.9,1.7,3.9,3.9c0,0.4,0,0.8-0.1,1.1s-0.2,0.6-0.4,0.9
			C385.7,680.4,384.4,681.2,382.9,681.2"/>
		<path class="st9" d="M373.9,690.8c-1.6,0-3.1-1.3-3.1-3.1c0-1.6,1.3-3.1,3.1-3.1c1.6,0,3.1,1.3,3.1,3.1
			C377,689.4,375.6,690.7,373.9,690.8"/>
		<path class="st9" d="M373.9,684.7c-1.6,0-3.1,1.3-3.1,3.1c0,1.6,1.3,3.1,3.1,3.1c1.7,0,3.1-1.3,3.1-3.1S375.6,684.7,373.9,684.7
			 M373.9,691.7c-2.1,0-3.9-1.7-3.9-3.8v-0.2c0-2.1,1.8-3.8,3.9-3.8c0.8,0,1.5,0.3,2.2,0.7c0.3,0.2,0.5,0.4,0.7,0.6
			c0.7,0.7,1.1,1.6,1.1,2.7c0,0.2,0,0.4,0,0.6c0,0.3-0.1,0.6-0.3,0.9c-0.1,0.4-0.3,0.7-0.6,1c-0.2,0.3-0.4,0.5-0.7,0.7
			C375.7,691.4,374.8,691.7,373.9,691.7 M377.5,702.6c-1.6,0-3.1-1.3-3.1-3.1c0-1.6,1.3-3.1,3.1-3.1c1.6,0,3.1,1.3,3.1,3.1
			S379.2,702.6,377.5,702.6"/>
		<path class="st9" d="M377.5,696.6c-1.6,0-3.1,1.3-3.1,3.1c0,1.6,1.3,3.1,3.1,3.1c1.7,0,3.1-1.3,3.1-3.1
			C380.5,697.9,379.2,696.6,377.5,696.6 M377.5,703.5c-2.2,0-3.9-1.7-3.9-3.9s1.7-3.9,3.9-3.9c0.2,0,0.4,0,0.5,0
			c0.3,0,0.6,0.1,0.9,0.2c1.4,0.6,2.5,2,2.5,3.7c0,0.4,0,0.7-0.1,1.1c-0.1,0.3-0.2,0.6-0.4,0.9C380.2,702.7,379,703.5,377.5,703.5
			 M391.4,708.3c-1.6,0-3.1-1.3-3.1-3.1c0-1.6,1.3-3.1,3.1-3.1c1.6,0,3.1,1.3,3.1,3.1C394.5,706.9,393.1,708.3,391.4,708.3"/>
		<path class="st9" d="M391.4,702.2c-1.6,0-3.1,1.3-3.1,3.1c0,1.6,1.3,3.1,3.1,3.1c1.6,0,3.1-1.3,3.1-3.1S393.1,702.3,391.4,702.2
			 M391.4,709.2c-2.2,0-3.9-1.7-3.9-3.9c0-0.4,0.1-0.8,0.2-1.1s0.2-0.6,0.4-0.9c0.1-0.2,0.3-0.4,0.4-0.6c0.2-0.2,0.4-0.5,0.7-0.7
			c0.2-0.1,0.4-0.3,0.6-0.4c0.3-0.1,0.6-0.2,0.9-0.3s0.6-0.1,0.9-0.1c0.4,0,0.7,0,1.1,0.1c0.3,0.1,0.6,0.2,0.9,0.4
			c1.2,0.7,2.1,2,2.1,3.4C395.4,707.5,393.7,709.2,391.4,709.2"/>
		<path class="st9" d="M406.5,692h-3c0,10.7-8.6,19.3-19.3,19.3c-10.7,0-19.3-8.6-19.3-19.3s8.6-19.3,19.3-19.3
			c10.7,0,19.3,8.6,19.3,19.3h5.8c0-14-11.3-25.3-25.3-25.3S358.9,678,358.9,692s11.3,25.3,25.3,25.3s25.3-11.3,25.3-25.3H406.5"/>
		<path class="st9" d="M393.7,695.8c-1.6,0-3.1-1.3-3.1-3.1c0-1.6,1.3-3.1,3.1-3.1c1.6,0,3.1,1.3,3.1,3.1
			C396.7,694.4,395.3,695.8,393.7,695.8"/>
		<path class="st9" d="M377.6,698.9c-0.1-0.3-0.2-0.6-0.3-0.9l2.5-1l1-0.4l2.1-0.9l0.9-0.4l7.5-3c0.1,0.3,0.2,0.6,0.4,0.9l-7.6,3
			l-0.9,0.4l-2.6,1.1l-1,0.4L377.6,698.9"/>
	</g>
	<g>
		<path class="st10" d="M427.9,683.9l1.3-1.2c-0.1-0.1-0.3-0.3-0.4-0.4l-1.1,1.1L427.9,683.9"/>
		<path class="st10" d="M422,689.8l5.5-5.4l-0.2-0.7l-5.6,5.6C421.7,689.5,421.9,689.6,422,689.8"/>
		<path class="st10" d="M422.4,690.6l4-1.6c-0.1-0.2-0.2-0.3-0.2-0.5l-4,1.6C422.3,690.2,422.4,690.4,422.4,690.6"/>
		<path class="st10" d="M427.7,685.6c0.2-0.1,0.4-0.1,0.6-0.1l-0.4-1.5l-0.2-0.7l-0.3-1.3l-0.1-0.6l-1.1-4.7
			c-0.2,0.1-0.4,0.1-0.6,0.1l1.1,4.7l0.1,0.6l0.4,1.6l0.2,0.7L427.7,685.6"/>
		<path class="st10" d="M416.8,684.9c1,0,1.8,0.8,1.8,1.8s-0.8,1.8-1.8,1.8s-1.8-0.8-1.8-1.8S415.8,685,416.8,684.9"/>
		<path class="st10" d="M425.6,677.2c0.1,0,0.2,0,0.2,0c0.2,0,0.3-0.1,0.5-0.1c0.2-0.1,0.3-0.1,0.4-0.2s0.3-0.2,0.4-0.3
			c0.3-0.4,0.5-0.8,0.5-1.3c0-1.1-0.9-1.9-1.9-1.9s-1.9,0.9-1.9,1.9c0,0.2,0,0.4,0.1,0.5c0,0.2,0.1,0.3,0.2,0.4
			C424.2,676.7,424.8,677.2,425.6,677.2"/>
		<path class="st10" d="M430.8,682.6c1,0,1.8-0.9,1.8-1.8c0-1-0.9-1.8-1.8-1.8c-1,0-1.8,0.8-1.8,1.8
			C428.9,681.8,429.7,682.6,430.8,682.6"/>
		<path class="st10" d="M430.8,678.9c1,0,1.8,0.9,1.8,1.8c0,1-0.9,1.8-1.8,1.8c-1,0-1.8-0.8-1.8-1.8
			C428.9,679.8,429.7,678.9,430.8,678.9 M430.8,683.2c1.2,0,2.3-1.1,2.4-2.3v-0.1c0-1.2-1.1-2.3-2.4-2.3c-0.5,0-1,0.2-1.3,0.4
			c-0.2,0.1-0.3,0.2-0.4,0.4c-0.4,0.4-0.7,1-0.7,1.6c0,0.1,0,0.2,0,0.4s0.1,0.4,0.2,0.6c0.1,0.2,0.2,0.4,0.3,0.6
			c0.1,0.2,0.3,0.3,0.4,0.4C429.7,683,430.2,683.2,430.8,683.2 M428.7,689.7c1,0,1.8-0.9,1.8-1.8c0-1-0.9-1.8-1.8-1.8
			c-1,0-1.8,0.9-1.8,1.8C426.7,688.9,427.5,689.7,428.7,689.7"/>
		<path class="st10" d="M428.7,686c1,0,1.8,0.9,1.8,1.8c0,1-0.9,1.8-1.8,1.8c-1,0-1.8-0.8-1.8-1.8C426.7,686.9,427.5,686,428.7,686
			 M428.7,690.2c1.3,0,2.4-1.1,2.4-2.4s-1.1-2.4-2.4-2.4c-0.1,0-0.2,0-0.3,0c-0.2,0-0.4,0.1-0.6,0.1c-0.9,0.4-1.5,1.2-1.5,2.2
			c0,0.2,0,0.4,0.1,0.6c0,0.2,0.1,0.4,0.2,0.5C426.8,689.8,427.6,690.2,428.7,690.2 M420.1,693.1c1,0,1.8-0.9,1.8-1.8
			s-0.9-1.8-1.8-1.8c-1,0-1.8,0.8-1.8,1.8C418.3,692.3,419.2,693.1,420.1,693.1"/>
		<path class="st10" d="M420.1,689.5c1,0,1.8,0.9,1.8,1.8s-0.9,1.8-1.8,1.8c-1,0-1.8-0.8-1.8-1.8
			C418.3,690.2,419.2,689.5,420.1,689.5 M420.1,693.6c1.3,0,2.4-1.1,2.4-2.4c0-0.2,0-0.5-0.1-0.7s-0.1-0.4-0.2-0.5s-0.2-0.3-0.3-0.4
			c-0.1-0.1-0.3-0.3-0.4-0.4c-0.1-0.1-0.2-0.2-0.4-0.2c-0.2-0.1-0.4-0.1-0.5-0.2c-0.2,0-0.4-0.1-0.6-0.1s-0.4,0-0.6,0.1
			c-0.2,0-0.4,0.1-0.5,0.2c-0.8,0.4-1.2,1.1-1.2,2.1C417.8,692.5,418.9,693.6,420.1,693.6"/>
		<path class="st10" d="M411.1,683.3h1.7c0,6.4,5.2,11.6,11.7,11.7c6.4,0,11.6-5.2,11.7-11.7c0-6.4-5.2-11.6-11.7-11.7
			c-6.4,0-11.6,5.2-11.7,11.7h-3.5c0-8.3,6.7-15.2,15.2-15.2s15.2,6.7,15.2,15.2c0,8.3-6.7,15.2-15.2,15.2
			c-8.3,0-15.2-6.7-15.2-15.2H411.1"/>
		<path class="st10" d="M420.6,685.5c0.2,0,0.3,0,0.5,0c0.3,0,0.6-0.1,0.9-0.2c0.3-0.1,0.6-0.2,0.8-0.4c0.3-0.2,0.5-0.4,0.7-0.6
			c0.6-0.7,1-1.5,1-2.6c0-2.1-1.7-3.7-3.7-3.7c-2.1,0-3.7,1.7-3.7,3.7c0,0.4,0,0.7,0.1,1.1c0.1,0.3,0.2,0.6,0.3,0.8
			C417.9,684.7,419.2,685.5,420.6,685.5"/>
		<path class="st10" d="M428.2,688.6c0.1-0.2,0.2-0.3,0.4-0.4l-1.2-1.1l-0.5-0.4l-1.1-0.9l-0.4-0.4l-3.7-3.2
			c-0.1,0.2-0.2,0.3-0.4,0.4l3.7,3.2l0.4,0.4l1.2,1.1l0.5,0.4L428.2,688.6"/>
		<path class="st10" d="M416.8,686.2c0.2,0.1,0.3,0.2,0.5,0.3l1-1.3l0.4-0.6l0.8-1.1l0.3-0.5l2.8-4c-0.2-0.1-0.3-0.2-0.5-0.3l-2.8,4
			l-0.3,0.5l-1,1.3l-0.4,0.6L416.8,686.2"/>
	</g>
	<g>
		<path class="st11" d="M349.7,730.4l-1.1-1.1c0.1-0.1,0.2-0.2,0.3-0.3l0.9,0.9L349.7,730.4"/>
		<path class="st11" d="M354.3,735.1l-4.3-4.2l0.1-0.5l4.5,4.4C354.5,734.9,354.4,735,354.3,735.1"/>
		<path class="st11" d="M353.9,735.9l-3.2-1.2c0.1-0.1,0.1-0.3,0.2-0.4l3.2,1.2C354,735.6,354,735.7,353.9,735.9"/>
		<path class="st11" d="M349.8,731.9c-0.1-0.1-0.3-0.1-0.4-0.1l0.3-1.2l0.1-0.5l0.3-1.1l0.1-0.4l0.9-3.7c0.1,0.1,0.3,0.1,0.4,0.1
			l-1,3.7l-0.1,0.4l-0.3,1.3l-0.1,0.5L349.8,731.9"/>
		<path class="st11" d="M357.8,730.7c-0.8,0-1.4,0.7-1.4,1.4s0.7,1.4,1.4,1.4s1.4-0.7,1.4-1.4S358.7,730.7,357.8,730.7"/>
		<path class="st11" d="M351,727.1c-0.1,0-0.2,0-0.2,0c-0.2,0-0.3-0.1-0.4-0.1c-0.1-0.1-0.3-0.1-0.4-0.2c-0.1-0.1-0.2-0.2-0.3-0.3
			c-0.3-0.4-0.5-0.8-0.5-1.2c0-1.1,0.9-1.9,1.9-1.9s1.9,0.9,1.9,1.9c0,0.2,0,0.4-0.1,0.5c0,0.2-0.1,0.3-0.2,0.4
			C352.3,726.7,351.7,727.1,351,727.1"/>
		<path class="st11" d="M347.4,729.5c-0.8,0-1.4-0.7-1.4-1.4s0.7-1.4,1.4-1.4s1.4,0.7,1.4,1.4C349,728.8,348.3,729.5,347.4,729.5"/>
		<path class="st11" d="M347.4,726.5c-0.8,0-1.4,0.7-1.4,1.4s0.7,1.4,1.4,1.4s1.4-0.7,1.4-1.4S348.3,726.6,347.4,726.5 M347.4,729.9
			c-1.1,0-1.8-0.9-1.9-1.8V728c0-1.1,0.9-1.8,1.9-1.8c0.4,0,0.8,0.1,1.1,0.3c0.1,0.1,0.2,0.2,0.3,0.3c0.3,0.4,0.5,0.8,0.5,1.2
			c0,0.1,0,0.2,0,0.3c0,0.2-0.1,0.3-0.1,0.4c-0.1,0.2-0.2,0.3-0.3,0.5c-0.1,0.1-0.2,0.2-0.3,0.3
			C348.3,729.7,347.9,729.9,347.4,729.9 M349.2,735.1c-0.8,0-1.4-0.7-1.4-1.4s0.7-1.4,1.4-1.4s1.4,0.7,1.4,1.4
			S349.9,735.1,349.2,735.1"/>
		<path class="st11" d="M349.2,732.3c-0.8,0-1.4,0.7-1.4,1.4s0.7,1.4,1.4,1.4s1.4-0.7,1.4-1.4S349.9,732.3,349.2,732.3 M349.2,735.6
			c-1.1,0-1.9-0.9-1.9-1.9s0.9-1.9,1.9-1.9c0.1,0,0.2,0,0.3,0c0.2,0,0.3,0.1,0.4,0.1c0.7,0.3,1.2,1,1.2,1.7c0,0.2,0,0.3-0.1,0.5
			c0,0.2-0.1,0.3-0.2,0.4C350.5,735.1,349.8,735.6,349.2,735.6 M355.8,737.8c-0.8,0-1.4-0.7-1.4-1.4s0.7-1.4,1.4-1.4
			s1.4,0.7,1.4,1.4S356.5,737.8,355.8,737.8"/>
		<path class="st11" d="M355.8,734.9c-0.8,0-1.4,0.7-1.4,1.4s0.7,1.4,1.4,1.4s1.4-0.7,1.4-1.4S356.5,734.9,355.8,734.9 M355.8,738.3
			c-1.1,0-1.9-0.9-1.9-1.9c0-0.2,0-0.4,0.1-0.6c0-0.2,0.1-0.3,0.2-0.4c0.1-0.1,0.1-0.2,0.2-0.3s0.2-0.2,0.3-0.3
			c0.1-0.1,0.2-0.1,0.3-0.2c0.1-0.1,0.3-0.1,0.4-0.2c0.1,0,0.3-0.1,0.4-0.1c0.2,0,0.3,0,0.5,0.1c0.2,0,0.3,0.1,0.4,0.2
			c0.6,0.3,1,1,1,1.6C357.7,737.4,356.8,738.3,355.8,738.3"/>
		<path class="st11" d="M363,730h-1.4c0,5.1-4.1,9.3-9.3,9.3s-9.3-4.1-9.3-9.3c0-5.1,4.1-9.3,9.3-9.3c5.1,0,9.3,4.1,9.3,9.3h2.8
			c0-6.6-5.4-12.1-12.1-12.1s-12.1,5.4-12.1,12.1s5.4,12.1,12.1,12.1s12.1-5.4,12.1-12.1H363"/>
		<path class="st11" d="M356.6,730c-0.1,0-0.2,0-0.3,0c-0.2,0-0.4-0.1-0.6-0.1c-0.2-0.1-0.4-0.2-0.5-0.3c-0.2-0.1-0.3-0.2-0.5-0.4
			c-0.4-0.5-0.7-1.1-0.7-1.7c0-1.4,1.1-2.5,2.5-2.5c1.3,0,2.5,1.1,2.5,2.5c0,0.2,0,0.5-0.1,0.7s-0.1,0.4-0.2,0.6
			C358.4,729.5,357.6,730,356.6,730"/>
		<path class="st11" d="M350.6,733.4c-0.1-0.1-0.2-0.2-0.3-0.3l1-0.9l0.4-0.4l0.8-0.8l0.3-0.3l2.8-2.6c0.1,0.1,0.2,0.2,0.3,0.3
			L353,731l-0.3,0.3l-1,0.9l-0.4,0.4L350.6,733.4"/>
		<path class="st11" d="M358,732.6c-0.2,0-0.3,0.1-0.4,0.1l-0.3-1.2l-0.1-0.5l-0.3-1.1l-0.1-0.4l-1-3.7c0.1,0,0.3-0.1,0.4-0.1l1,3.7
			l0.1,0.4l0.3,1.2l0.1,0.5L358,732.6"/>
	</g>
	<g>
		<path class="st12" d="M372.8,652.1l1.5-1.4c-0.2-0.1-0.3-0.3-0.5-0.5l-1.2,1.2L372.8,652.1"/>
		<path class="st12" d="M366,658.8l6.2-6.1L372,652l-6.5,6.4C365.7,658.5,365.9,658.7,366,658.8"/>
		<path class="st12" d="M366.5,659.9l4.6-1.8c-0.1-0.2-0.2-0.4-0.2-0.6l-4.6,1.8C366.4,659.5,366.4,659.7,366.5,659.9"/>
		<path class="st12" d="M372.6,654.2c0.2-0.1,0.4-0.1,0.6-0.2l-0.5-1.8l-0.2-0.8l-0.4-1.5l-0.2-0.6l-1.3-5.5
			c-0.2,0.1-0.4,0.1-0.6,0.2l1.3,5.5l0.2,0.6l0.5,1.9l0.2,0.8L372.6,654.2"/>
		<path class="st12" d="M369.8,643.4c1.1,0,2.1-1,2.1-2.1s-1-2.1-2.1-2.1s-2.1,1-2.1,2.1S368.6,643.4,369.8,643.4"/>
		<path class="st12" d="M369.8,639.1c1.1,0,2.1,1,2.1,2.1s-1,2.1-2.1,2.1s-2.1-1-2.1-2.1C367.7,640.1,368.6,639.1,369.8,639.1"/>
		<path class="st12" d="M369.8,644c0.1,0,0.2,0,0.3,0c0.2,0,0.4-0.1,0.6-0.2c0.2-0.1,0.4-0.2,0.6-0.3s0.4-0.3,0.5-0.4
			c0.5-0.5,0.8-1.1,0.8-1.8c0-1.5-1.2-2.7-2.7-2.7s-2.7,1.2-2.7,2.7c0,0.3,0,0.5,0.1,0.8c0.1,0.2,0.1,0.4,0.3,0.6
			C367.9,643.5,368.7,644,369.8,644"/>
		<path class="st12" d="M376,650.6c1.1,0,2.1-1,2.1-2.1s-1-2.1-2.1-2.1s-2.1,1-2.1,2.1C373.9,649.8,374.8,650.6,376,650.6"/>
		<path class="st12" d="M376.1,646.5c1.1,0,2.1,1,2.1,2.1s-1,2.1-2.1,2.1s-2.1-1-2.1-2.1C373.9,647.4,374.9,646.5,376.1,646.5
			 M376.1,651.3c1.4,0,2.7-1.1,2.7-2.7v-0.1c0-1.4-1.2-2.7-2.7-2.7c-0.6,0-1.1,0.2-1.5,0.5c-0.2,0.1-0.4,0.3-0.5,0.4
			c-0.5,0.5-0.8,1.1-0.8,1.8c0,0.1,0,0.3,0,0.4c0,0.2,0.1,0.4,0.2,0.6c0.1,0.2,0.2,0.5,0.4,0.7c0.1,0.2,0.3,0.3,0.5,0.5
			C374.8,651,375.4,651.3,376.1,651.3 M373.5,658.7c1.1,0,2.1-1,2.1-2.1s-1-2.1-2.1-2.1s-2.1,1-2.1,2.1
			C371.5,657.8,372.4,658.7,373.5,658.7"/>
		<path class="st12" d="M373.5,654.6c1.1,0,2.1,1,2.1,2.1s-1,2.1-2.1,2.1s-2.1-1-2.1-2.1C371.5,655.5,372.4,654.6,373.5,654.6
			 M373.5,659.5c1.5,0,2.7-1.2,2.7-2.7s-1.2-2.7-2.7-2.7c-0.1,0-0.3,0-0.4,0c-0.2,0-0.4,0.1-0.6,0.2c-1.1,0.4-1.7,1.3-1.7,2.6
			c0,0.3,0,0.5,0.1,0.7s0.1,0.4,0.2,0.6C371.6,658.8,372.6,659.5,373.5,659.5 M364,662.8c1.1,0,2.1-1,2.1-2.1s-1-2.1-2.1-2.1
			s-2.1,1-2.1,2.1C361.8,661.8,362.8,662.8,364,662.8"/>
		<path class="st12" d="M364,658.5c1.1,0,2.1,1,2.1,2.1s-1,2.1-2.1,2.1s-2.1-1-2.1-2.1C361.8,659.5,362.8,658.5,364,658.5
			 M364,663.4c1.5,0,2.7-1.2,2.7-2.7c0-0.3,0-0.6-0.1-0.8s-0.2-0.4-0.3-0.6s-0.2-0.3-0.3-0.4c-0.1-0.2-0.3-0.3-0.5-0.5
			c-0.1-0.1-0.3-0.2-0.4-0.2c-0.2-0.1-0.4-0.2-0.6-0.2s-0.4-0.1-0.6-0.1c-0.3,0-0.5,0-0.7,0.1s-0.4,0.1-0.6,0.2
			c-0.9,0.5-1.4,1.3-1.4,2.4C361.2,662.2,362.4,663.4,364,663.4"/>
		<path class="st12" d="M353.4,651.5h2c0,7.4,5.9,13.4,13.4,13.4c7.4,0,13.4-5.9,13.4-13.4s-5.9-13.4-13.4-13.4
			c-7.4,0-13.4,5.9-13.4,13.4h-4c0-9.7,7.8-17.4,17.4-17.4c9.7,0,17.4,7.8,17.4,17.4c0,9.7-7.8,17.4-17.4,17.4
			c-9.7,0-17.4-7.8-17.4-17.4H353.4"/>
		<path class="st12" d="M360.4,654c0.1,0,0.2,0,0.3,0c0.2,0,0.4-0.1,0.6-0.2c0.2-0.1,0.4-0.2,0.6-0.3s0.4-0.3,0.5-0.4
			c0.5-0.5,0.8-1.1,0.8-1.8c0-1.5-1.2-2.7-2.7-2.7s-2.7,1.2-2.7,2.7c0,0.3,0,0.5,0.1,0.8c0.1,0.2,0.1,0.4,0.3,0.6
			C358.5,653.4,359.4,654,360.4,654"/>
		<path class="st12" d="M363.3,660.8c0.2-0.1,0.4-0.2,0.6-0.2l-0.6-1.7l-0.3-0.7l-0.5-1.5l-0.2-0.6l-1.8-5.3
			c-0.2,0.1-0.4,0.2-0.6,0.2l1.8,5.3l0.2,0.6l0.7,1.8l0.3,0.7L363.3,660.8"/>
	</g>
	<g>
		<path class="st13" d="M310,677l-3.4,3.4c0.4,0.3,0.7,0.7,1,1.1l2.8-2.7L310,677"/>
		<path class="st13" d="M325.1,662.1l-14,13.8l0.4,1.6l14.6-14.5C325.8,662.8,325.5,662.5,325.1,662.1"/>
		<path class="st13" d="M323.9,659.9l-10.4,4.1c0.2,0.4,0.4,0.9,0.6,1.3l10.4-4.1C324.2,660.8,324,660.4,323.9,659.9"/>
		<path class="st13" d="M310.4,672.5c-0.5,0.2-0.9,0.3-1.3,0.4l1,4l0.4,1.6l0.9,3.4l0.3,1.3l3,12.2c0.5-0.2,0.9-0.3,1.3-0.3l-3-12.3
			l-0.3-1.3l-1.1-4.2l-0.4-1.6L310.4,672.5"/>
		<path class="st13" d="M315.8,689.7c-0.3,0-0.6,0-0.9,0.1c-0.6,0.1-1.1,0.2-1.5,0.4c-0.5,0.2-1,0.4-1.4,0.8s-0.9,0.7-1.2,1.1
			c-1.1,1.2-1.8,2.9-1.8,4.6c0,3.7,3.1,6.8,6.8,6.8s6.8-3.1,6.8-6.8c0-0.7-0.1-1.2-0.3-1.8c-0.1-0.5-0.4-1.1-0.6-1.4
			C320.6,691.1,318.4,689.7,315.8,689.7"/>
		<path class="st13" d="M303.7,688.4c-2.6,0-4.7-2.1-4.7-4.7c0-2.6,2.1-4.7,4.7-4.7s4.7,2.1,4.7,4.7
			C308.5,686.3,306.4,688.4,303.7,688.4"/>
		<path class="st13" d="M308.1,662.2c-2.6,0-4.7,2.1-4.7,4.7c0,2.6,2.1,4.7,4.7,4.7s4.7-2.1,4.7-4.7
			C312.8,664.3,310.7,662.2,308.1,662.2"/>
		<path class="st13" d="M308.1,671.6c-2.6,0-4.7-2.1-4.7-4.7c0-2.6,2.1-4.7,4.7-4.7s4.7,2.1,4.7,4.7
			C312.8,669.5,310.7,671.6,308.1,671.6 M308.1,660.8c-3.4,0-6.1,2.7-6.1,6.1c0,3.4,2.7,6.1,6.1,6.1c0.3,0,0.6,0,0.8-0.1
			c0.5-0.1,1-0.2,1.3-0.4c2.3-0.9,3.9-3.1,3.9-5.6c0-0.6-0.1-1.1-0.2-1.6s-0.3-0.9-0.6-1.3C312.5,662.1,310.4,660.8,308.1,660.8
			 M329.8,653.4c-2.6,0-4.7,2.1-4.7,4.7c0,2.6,2.1,4.7,4.7,4.7s4.7-2.1,4.7-4.7C334.4,655.5,332.3,653.4,329.8,653.4"/>
		<path class="st13" d="M329.8,662.8c-2.6,0-4.7-2.1-4.7-4.7c0-2.6,2.1-4.7,4.7-4.7s4.7,2.1,4.7,4.7
			C334.4,660.7,332.3,662.8,329.8,662.8 M329.8,652c-3.4,0-6.1,2.7-6.1,6.1c0,0.6,0.1,1.1,0.3,1.7c0.1,0.5,0.3,0.9,0.6,1.3
			c0.2,0.3,0.4,0.7,0.7,1c0.3,0.4,0.7,0.7,1.1,1c0.3,0.2,0.6,0.4,0.9,0.6c0.4,0.2,0.9,0.4,1.3,0.5c0.5,0.1,0.9,0.2,1.3,0.2
			c0.6,0,1.1-0.1,1.5-0.2c0.5-0.1,0.9-0.3,1.3-0.6c1.9-1.1,3.2-3.1,3.2-5.4C335.8,654.7,333.1,652,329.8,652"/>
		<path class="st13" d="M353,678.6h-4.5c0-16.5-13.4-29.9-30-30c-16.5,0-29.9,13.4-30,30c0,16.5,13.4,29.9,30,30
			c16.5,0,29.9-13.4,30-30h9.2c0,21.4-17.4,39-39,39c-21.5,0-39-17.4-39-39c0-21.5,17.4-39,39-39c21.4,0,39,17.4,39,39H353"/>
		<path class="st13" d="M332.9,674.9c-0.4,0-0.8,0-1.1,0.1c-0.7,0.1-1.4,0.3-2.1,0.5c-0.7,0.3-1.3,0.6-1.9,1s-1.1,0.9-1.6,1.3
			c-1.5,1.6-2.4,3.8-2.4,6.1c0,5,4,9.2,9.2,9.2c5.1,0,9.2-4,9.2-9.2c0-0.9-0.1-1.6-0.3-2.4c-0.2-0.7-0.5-1.3-0.8-1.9
			C339.4,676.8,336.3,674.9,332.9,674.9"/>
		<path class="st13" d="M329.8,660.9l1.6,19.5l1.5,0.8l-1.7-20.5C330.7,660.8,330.3,660.9,329.8,660.9"/>
	</g>
	<g>
		<path class="st14" d="M461.4,652l2.4-2.4c-0.3-0.2-0.5-0.5-0.8-0.8l-2,1.9L461.4,652"/>
		<path class="st14" d="M450.5,662.9l10.1-10.1l-0.3-1.1l-10.6,10.5C450,662.4,450.2,662.7,450.5,662.9"/>
		<path class="st14" d="M461.1,655.2c0.3-0.1,0.7-0.2,1-0.3l-0.8-3l-0.3-1.1l-0.6-2.5l-0.3-1l-2.1-8.7c-0.3,0.1-0.7,0.2-1,0.3
			l2.1,8.8l0.3,1l0.8,3.1l0.3,1.1L461.1,655.2"/>
		<path class="st14" d="M448.2,642c1.8,0,3.4-1.5,3.4-3.4c0-1.8-1.5-3.4-3.4-3.4s-3.4,1.5-3.4,3.4C444.6,640.5,446.2,642,448.2,642"
			/>
		<path class="st14" d="M451,648.1c1.3,0,2.5,1.1,2.5,2.5c0,1.3-1.1,2.5-2.5,2.5c-1.3,0-2.5-1.1-2.5-2.5
			C448.5,649.3,449.6,648.1,451,648.1"/>
		<path class="st14" d="M457.6,642c0.1,0,0.2,0,0.3,0c0.2,0,0.4-0.1,0.6-0.2c0.2-0.1,0.4-0.2,0.6-0.3s0.4-0.3,0.5-0.4
			c0.5-0.5,0.8-1.1,0.8-1.8c0-1.5-1.2-2.8-2.8-2.8s-2.8,1.2-2.8,2.8c0,0.3,0,0.5,0.1,0.8c0.1,0.2,0.1,0.4,0.3,0.6
			C455.7,641.3,456.6,642,457.6,642"/>
		<path class="st14" d="M466.7,649.6c1.8,0,3.4-1.5,3.4-3.4c0-1.8-1.5-3.4-3.4-3.4s-3.4,1.5-3.4,3.4
			C463.3,648,464.8,649.6,466.7,649.6"/>
		<path class="st14" d="M466.7,642.9c1.8,0,3.4,1.5,3.4,3.4c0,1.8-1.5,3.4-3.4,3.4s-3.4-1.5-3.4-3.4
			C463.2,644.3,464.8,642.9,466.7,642.9 M466.7,650.6c2.4,0,4.3-1.9,4.4-4.3v-0.2c-0.1-2.4-2-4.3-4.4-4.3c-0.9,0-1.7,0.3-2.5,0.8
			c-0.3,0.2-0.6,0.4-0.8,0.7c-0.8,0.8-1.1,1.8-1.1,3c0,0.2,0,0.5,0.1,0.7c0.1,0.4,0.1,0.7,0.3,1c0.2,0.4,0.4,0.8,0.6,1.1
			s0.5,0.5,0.8,0.8C464.7,650.2,465.6,650.6,466.7,650.6 M462.6,662.9c1.8,0,3.4-1.5,3.4-3.4c0-1.8-1.5-3.4-3.4-3.4
			s-3.4,1.5-3.4,3.4C459.3,661.3,460.8,662.8,462.6,662.9"/>
		<path class="st14" d="M462.6,656c1.8,0,3.4,1.5,3.4,3.4c0,1.8-1.5,3.4-3.4,3.4s-3.4-1.5-3.4-3.4C459.3,657.5,460.8,656,462.6,656
			 M462.6,663.8c2.4,0,4.4-2,4.4-4.4s-2-4.4-4.4-4.4c-0.2,0-0.4,0-0.6,0c-0.4,0-0.7,0.1-1,0.3c-1.6,0.7-2.9,2.2-2.9,4.1
			c0,0.4,0.1,0.8,0.2,1.1c0.1,0.4,0.2,0.7,0.4,1C459.6,663,461,663.8,462.6,663.8 M447.1,669.2c1.8,0,3.4-1.5,3.4-3.4
			c0-1.8-1.5-3.4-3.4-3.4s-3.4,1.5-3.4,3.4S445.1,669.2,447.1,669.2"/>
		<path class="st14" d="M447.1,662.4c1.8,0,3.4,1.5,3.4,3.4c0,1.8-1.5,3.4-3.4,3.4s-3.4-1.5-3.4-3.4S445.1,662.4,447.1,662.4
			 M447.1,670.1c2.4,0,4.4-2,4.4-4.4c0-0.5-0.1-0.9-0.2-1.2c-0.1-0.4-0.3-0.7-0.4-1s-0.3-0.5-0.5-0.7c-0.2-0.3-0.5-0.5-0.8-0.7
			c-0.2-0.1-0.4-0.3-0.7-0.4c-0.3-0.2-0.7-0.3-1-0.4c-0.3-0.1-0.7-0.1-1-0.1c-0.4,0-0.8,0.1-1.1,0.2c-0.4,0.1-0.7,0.2-1,0.4
			c-1.3,0.8-2.3,2.2-2.3,3.9C442.6,668.2,444.5,670.1,447.1,670.1"/>
		<path class="st14" d="M430.2,651h3.3c0,12,9.8,21.5,21.6,21.6c12,0,21.5-9.7,21.6-21.6c0-12-9.8-21.5-21.6-21.6
			c-12,0-21.5,9.8-21.6,21.6H427c0-15.6,12.6-28.2,28.2-28.2s28.2,12.6,28.2,28.2s-12.6,28.2-28.2,28.2S427,666.6,427,651H430.2"/>
		<path class="st14" d="M443.7,650.8c1.8,0,3.4-1.5,3.4-3.4c0-1.8-1.5-3.4-3.4-3.4s-3.4,1.5-3.4,3.4
			C440.2,649.3,441.8,650.8,443.7,650.8"/>
		<path class="st14" d="M445.9,665.2c0.3-0.1,0.7-0.1,1.1-0.2l-0.4-3l-0.3-1.1l-0.3-2.5l-0.1-1.1l-1.1-9c-0.3,0.1-0.7,0.1-1.1,0.1
			l1.1,9.1l0.1,1.1l0.4,3.1l0.2,1.1L445.9,665.2"/>
		<path class="st14" d="M450.9,652.3c0.3-0.1,0.5-0.2,0.8-0.3l-0.6-3l-0.2-1.1l-0.5-2.5l-0.2-1l-1.7-8.7c-0.3,0.1-0.5,0.2-0.8,0.3
			l1.7,8.8l0.2,1l0.6,3.1l0.2,1.1L450.9,652.3"/>
		<path class="st14" d="M463.5,661.2c0.2-0.3,0.4-0.6,0.6-0.9l-2.4-1.8l-1-0.8l-2-1.5l-0.9-0.7l-7.2-5.5c-0.2,0.3-0.4,0.6-0.7,0.9
			l7.2,5.5l0.9,0.7l2.5,1.9l1,0.8L463.5,661.2"/>
	</g>
	<g>
		<path class="st15" d="M252.2,644.2l-14.5-5.7c0.3-0.6,0.6-1.1,0.8-1.8l14.5,5.7C252.6,642.9,252.3,643.5,252.2,644.2"/>
		<path class="st15" d="M221.3,610.4c0.2-0.7,0.2-1.2,0.2-1.9l5.7,0.6l2.3,0.2l4.9,0.5l2,0.2l17.3,1.6c-0.1,0.7-0.2,1.3-0.2,2
			l-17.4-1.6l-2-0.2l-5.9-0.6l-2.3-0.2L221.3,610.4"/>
		<path class="st15" d="M255.3,595.3c-3.5,0-6.5-2.9-6.5-6.5c0-3.5,2.9-6.5,6.5-6.5c3.5,0,6.5,2.9,6.5,6.5
			C261.8,592.4,258.9,595.3,255.3,595.3"/>
		<path class="st15" d="M273,625.7c-3.5,0-6.5,2.9-6.5,6.5c0,3.5,2.9,6.5,6.5,6.5c3.5,0,6.5-2.9,6.5-6.5S276.7,625.7,273,625.7"/>
		<path class="st15" d="M239.8,602.5c-0.3,0-0.6,0-0.9-0.1c-0.6-0.1-1.1-0.2-1.6-0.4c-0.6-0.2-1.1-0.5-1.5-0.8
			c-0.5-0.3-0.9-0.7-1.2-1.1c-1.1-1.2-1.9-3-1.9-4.9c0-3.9,3.2-7.2,7.2-7.2c3.9,0,7.2,3.2,7.2,7.2c0,0.7-0.1,1.3-0.3,1.9
			s-0.4,1.1-0.7,1.5C244.9,601,242.5,602.5,239.8,602.5"/>
		<path class="st15" d="M222.8,615.5c-3.5,0-6.5-2.9-6.5-6.5c0-3.5,2.9-6.5,6.5-6.5c3.5,0,6.5,2.9,6.5,6.5
			C229.3,612.5,226.3,615.5,222.8,615.5"/>
		<path class="st15" d="M222.8,602.4c-3.5,0-6.5,2.9-6.5,6.5c0,3.5,2.9,6.5,6.5,6.5c3.5,0,6.5-2.9,6.5-6.5
			C229.2,605.3,226.3,602.4,222.8,602.4"/>
		<path class="st15" d="M222.8,617.4c-4.6,0-8.3-3.6-8.5-8.2v-0.4c0.1-4.6,3.8-8.2,8.5-8.2c1.7,0,3.4,0.6,4.7,1.4
			c0.6,0.4,1.1,0.8,1.5,1.2c1.4,1.5,2.3,3.5,2.3,5.7c0,0.4,0,0.9-0.1,1.2c-0.1,0.7-0.3,1.3-0.6,1.9c-0.3,0.8-0.7,1.4-1.1,2
			c-0.4,0.6-0.9,1-1.3,1.4C226.6,616.7,224.7,617.4,222.8,617.4"/>
		<path class="st15" d="M230.2,640.8c-3.5,0-6.5-2.9-6.5-6.5c0-3.5,2.9-6.5,6.5-6.5c3.5,0,6.5,2.9,6.5,6.5
			C236.8,637.9,233.9,640.8,230.2,640.8"/>
		<path class="st15" d="M230.2,627.8c-3.5,0-6.5,2.9-6.5,6.5c0,3.5,2.9,6.5,6.5,6.5c3.5,0,6.5-2.9,6.5-6.5
			C236.8,630.7,233.9,627.8,230.2,627.8"/>
		<path class="st15" d="M232.5,645.4c-5.6,0-10.3-4.6-10.3-10.3c0-5.6,4.6-10.3,10.3-10.3c0.5,0,0.9,0,1.3,0.1
			c0.8,0.1,1.6,0.3,2.3,0.6c3.8,1.4,6.6,5.2,6.6,9.7c0,1-0.1,1.8-0.4,2.7c-0.2,0.8-0.5,1.5-0.9,2.2
			C239.9,643.2,236.6,645.4,232.5,645.4"/>
		<path class="st15" d="M255.9,651.5c-3.5,0-6.5-2.9-6.5-6.5c0-3.5,2.9-6.5,6.5-6.5c3.5,0,6.5,2.9,6.5,6.5S259.5,651.5,255.9,651.5"
			/>
		<path class="st15" d="M292.7,618.2h-6.3c0,22.9-18.7,41.4-41.5,41.5c-22.9,0-41.4-18.6-41.5-41.5c0-22.9,18.7-41.4,41.5-41.5
			c22.9,0,41.4,18.7,41.5,41.5h12.7c0-30-24.2-54.2-54.2-54.2s-54.2,24.2-54.2,54.2s24.2,54.2,54.2,54.2s54.2-24.2,54.2-54.2H292.7"
			/>
		<path class="st15" d="M262.4,626.2c-0.6,0-1.1,0-1.6-0.1c-1.1-0.1-2.1-0.4-3.2-0.8c-1.1-0.4-2-0.9-2.9-1.4
			c-0.9-0.6-1.7-1.3-2.5-2.1c-2.3-2.5-3.6-5.7-3.6-9.5c0-7.7,6.2-14,14-14c7.7,0,14,6.2,14,14c0,1.2-0.2,2.5-0.5,3.7
			c-0.3,1.1-0.7,2.1-1.2,3C272.3,623.2,267.7,626.2,262.4,626.2"/>
		<path class="st15" d="M261.9,617.6l-19.4-19.1l0.6-2.2l20.4,20.1C262.9,616.6,262.4,617.1,261.9,617.6"/>
		<path class="st15" d="M272.9,633.2L260.3,609l1.2-1.9l13.2,25.4C274.1,632.6,273.5,632.9,272.9,633.2"/>
		<path class="st15" d="M261.5,617.3l-6.2-26.5l1.6-1.6l6.5,27.9C262.8,617,262.1,617.1,261.5,617.3"/>
		<path class="st15" d="M254.5,618.9l-22,16.1l-2.1-0.9l23.1-16.8C253.8,617.9,254.2,618.4,254.5,618.9"/>
	</g>
	<g>
		<path class="st16" d="M501,626.8l-2.1-2.1c0.2-0.2,0.5-0.4,0.7-0.7l1.7,1.7L501,626.8"/>
		<path class="st16" d="M510.6,636.3l-8.8-8.7l0.3-1.1l9.4,9.2C511.1,635.9,510.8,636.1,510.6,636.3"/>
		<path class="st16" d="M509.8,637.7l-6.5-2.6c0.1-0.3,0.3-0.6,0.3-0.9l6.6,2.6C510.1,637.1,509.9,637.4,509.8,637.7"/>
		<path class="st16" d="M501.3,629.7c-0.3-0.1-0.6-0.2-0.9-0.2l0.7-2.6l0.3-1.1l0.6-2.2l0.2-0.9l1.9-7.7c0.3,0.1,0.6,0.2,0.9,0.2
			l-1.9,7.7l-0.2,0.9l-0.7,2.7l-0.3,1.1L501.3,629.7"/>
		<path class="st16" d="M505.2,614.3c-1.6,0-3-1.3-3-3c0-1.6,1.3-3,3-3c1.6,0,3,1.3,3,3S506.9,614.3,505.2,614.3"/>
		<path class="st16" d="M505.2,608.4c-1.6,0-3,1.3-3,3c0,1.6,1.3,3,3,3c1.6,0,3-1.3,3-3S506.9,608.4,505.2,608.4"/>
		<path class="st16" d="M505.2,615.2c-0.2,0-0.3,0-0.5,0c-0.3,0-0.6-0.1-0.9-0.2c-0.3-0.1-0.6-0.3-0.8-0.4c-0.3-0.2-0.5-0.4-0.7-0.6
			c-0.7-0.7-1.1-1.6-1.1-2.6c0-2.1,1.7-3.8,3.8-3.8s3.8,1.7,3.8,3.8c0,0.4,0,0.7-0.1,1.1c-0.1,0.3-0.2,0.6-0.4,0.9
			C508,614.4,506.7,615.2,505.2,615.2"/>
		<path class="st16" d="M496.4,624.7c-1.6,0-3-1.3-3-3c0-1.6,1.3-3,3-3c1.6,0,3,1.3,3,3S498.1,624.7,496.4,624.7"/>
		<path class="st16" d="M496.4,618.6c-1.6,0-3,1.3-3,3c0,1.6,1.3,3,3,3c1.6,0,3-1.3,3-3S498.1,618.6,496.4,618.6 M496.4,625.5
			c-2.1,0-3.8-1.7-3.8-3.7v-0.2c0-2.1,1.7-3.7,3.8-3.7c0.8,0,1.5,0.3,2.1,0.7c0.3,0.2,0.5,0.4,0.7,0.6c0.7,0.7,1.1,1.6,1.1,2.6
			c0,0.2,0,0.4,0,0.6c0,0.3-0.1,0.6-0.3,0.9c-0.1,0.3-0.3,0.7-0.6,1c-0.2,0.3-0.4,0.5-0.7,0.7C498.2,625.2,497.3,625.5,496.4,625.5
			 M499.9,636.2c-1.6,0-3-1.3-3-3c0-1.6,1.3-3,3-3c1.6,0,3,1.3,3,3S501.5,636.2,499.9,636.2"/>
		<path class="st16" d="M499.9,630.2c-1.6,0-3,1.3-3,3c0,1.6,1.3,3,3,3c1.6,0,3-1.3,3-3C502.8,631.6,501.5,630.3,499.9,630.2
			 M499.9,637.1c-2.1,0-3.8-1.7-3.8-3.8s1.7-3.8,3.8-3.8c0.2,0,0.4,0,0.5,0c0.3,0,0.6,0.1,0.9,0.2c1.4,0.6,2.5,1.9,2.5,3.6
			c0,0.4,0,0.7-0.1,1s-0.2,0.6-0.3,0.9C502.7,636.3,501.4,637.1,499.9,637.1 M513.6,641.8c-1.6,0-3-1.3-3-3s1.3-3,3-3
			c1.6,0,3,1.3,3,3C516.5,640.5,515.2,641.8,513.6,641.8"/>
		<path class="st16" d="M513.6,635.8c-1.6,0-3,1.3-3,3s1.3,3,3,3s3-1.3,3-3C516.5,637.1,515.2,635.9,513.6,635.8 M513.6,642.8
			c-2.1,0-3.8-1.7-3.8-3.8c0-0.4,0.1-0.8,0.2-1.1s0.2-0.6,0.4-0.9c0.1-0.2,0.3-0.4,0.4-0.6c0.2-0.2,0.4-0.5,0.7-0.6
			c0.2-0.1,0.4-0.3,0.6-0.3c0.3-0.1,0.6-0.2,0.9-0.3c0.3-0.1,0.6-0.1,0.9-0.1c0.4,0,0.7,0,1,0.1s0.6,0.2,0.9,0.3
			c1.2,0.7,2,1.9,2,3.4C517.5,640.9,515.7,642.8,513.6,642.8"/>
		<path class="st16" d="M528.4,625.9h-2.9c0,10.5-8.4,19-19,19c-10.5,0-19-8.4-19-19s8.4-19,19-19c10.5,0,19,8.4,19,19h5.7
			c0-13.7-11.1-24.7-24.7-24.7c-13.7,0-24.7,11.1-24.7,24.7c0,13.7,11.1,24.7,24.7,24.7c13.7,0,24.7-11.1,24.7-24.7H528.4"/>
	</g>
	<g>
		<path class="st17" d="M338.9,599.7l2.9,2.9c-0.3,0.3-0.6,0.6-0.9,0.9l-2.4-2.3L338.9,599.7"/>
		<path class="st17" d="M326,586.9l12,11.9l-0.4,1.3L325,587.7C325.4,587.4,325.7,587.2,326,586.9"/>
		<path class="st17" d="M327,584.9l8.8,3.5c-0.2,0.4-0.4,0.8-0.5,1.1l-9-3.5C326.7,585.7,326.9,585.3,327,584.9"/>
		<path class="st17" d="M338.6,595.9c0.4,0.2,0.8,0.3,1.1,0.3l-0.9,3.4l-0.4,1.3l-0.7,2.9l-0.3,1.1l-2.5,10.4
			c-0.4-0.1-0.8-0.3-1.1-0.3l2.5-10.4l0.3-1.1l0.9-3.6l0.4-1.3L338.6,595.9"/>
		<path class="st17" d="M333.2,616.4c2.2,0,4,1.8,4,4s-1.8,4-4,4s-4-1.8-4-4S331,616.5,333.2,616.4"/>
		<path class="st17" d="M333.2,624.6c2.2,0,4-1.8,4-4s-1.8-4-4-4s-4,1.8-4,4C329.2,622.7,331,624.6,333.2,624.6"/>
		<path class="st17" d="M333.2,615.3c0.2,0,0.4,0,0.7,0c0.4,0.1,0.8,0.2,1.1,0.3c0.4,0.2,0.8,0.3,1.1,0.6c0.4,0.2,0.7,0.5,1,0.8
			c0.9,1,1.3,2.2,1.3,3.5c0,2.9-2.3,5.2-5.2,5.2s-5.2-2.3-5.2-5.2c0-0.5,0.1-1,0.2-1.4s0.3-0.8,0.5-1.1
			C329.6,616.3,331.3,615.3,333.2,615.3"/>
		<path class="st17" d="M328.7,595c3.7,0,6.7,3,6.7,6.7s-3,6.7-6.7,6.7s-6.7-3-6.7-6.7C321.9,598.1,325,595.1,328.7,595"/>
		<path class="st17" d="M320.7,617.8c2.2,0,4-1.8,4-4s-1.8-4-4-4s-4,1.8-4,4C316.8,616,318.5,617.8,320.7,617.8"/>
		<path class="st17" d="M344,601.4c2.3,0,4.1,1.8,4.1,4v0.2c-0.1,2.2-1.9,4-4.1,4c-0.9,0-1.6-0.3-2.3-0.7c-0.3-0.2-0.5-0.4-0.8-0.7
			c-0.7-0.8-1.1-1.7-1.1-2.8c0-0.2,0-0.4,0.1-0.7s0.1-0.7,0.3-1c0.1-0.4,0.3-0.7,0.6-1c0.2-0.3,0.4-0.5,0.7-0.7
			C342.2,601.7,343.1,601.4,344,601.4"/>
		<path class="st17" d="M340.5,587c2.2,0,4,1.8,4,4s-1.8,4-4,4s-4-1.8-4-4C336.5,588.9,338.2,587,340.5,587"/>
		<path class="st17" d="M340.5,595c2.2,0,4-1.8,4-4s-1.8-4-4-4s-4,1.8-4,4C336.5,593.3,338.2,595,340.5,595 M340.5,585.7
			c2.9,0,5.2,2.3,5.2,5.2s-2.3,5.2-5.2,5.2c-0.2,0-0.5,0-0.7,0c-0.4-0.1-0.8-0.2-1.1-0.3c-1.9-0.8-3.4-2.7-3.4-4.9
			c0-0.5,0.1-1,0.2-1.3c0.1-0.4,0.3-0.8,0.5-1.1C336.8,586.9,338.5,585.7,340.5,585.7 M321.9,579.5c2.2,0,4,1.8,4,4s-1.8,4-4,4
			s-4-1.8-4-4C317.9,581.2,319.7,579.5,321.9,579.5"/>
		<path class="st17" d="M321.9,587.4c2.2,0,4-1.8,4-4s-1.8-4-4-4s-4,1.8-4,4S319.7,587.4,321.9,587.4 M321.9,578.2
			c2.9,0,5.2,2.3,5.2,5.2c0,0.5-0.1,1.1-0.2,1.4c-0.1,0.4-0.3,0.8-0.5,1.1s-0.4,0.6-0.6,0.8c-0.3,0.3-0.6,0.6-0.9,0.9
			c-0.2,0.2-0.5,0.3-0.8,0.5c-0.4,0.2-0.8,0.3-1.1,0.4c-0.4,0.1-0.8,0.1-1.1,0.1c-0.5,0-1-0.1-1.3-0.2c-0.4-0.1-0.8-0.3-1.1-0.5
			c-1.6-0.9-2.8-2.6-2.8-4.6C316.8,580.6,319.1,578.2,321.9,578.2"/>
		<path class="st17" d="M301.9,600.9h3.8c0-14.2,11.5-25.5,25.6-25.6c14.2,0,25.5,11.5,25.6,25.6c0,14.2-11.5,25.5-25.6,25.6
			c-14.2,0-25.5-11.5-25.6-25.6H298c0,18.4,14.9,33.4,33.4,33.4s33.4-14.9,33.4-33.4s-14.9-33.4-33.4-33.4
			c-18.4,0-33.4,14.9-33.4,33.4H301.9"/>
		<path class="st17" d="M315.5,594.8c2.9,0,5.2,2.3,5.2,5.1v0.3c-0.1,2.8-2.4,5.1-5.2,5.1c-1.1,0-2.1-0.3-2.9-0.9
			c-0.4-0.2-0.7-0.5-1-0.8c-0.9-1-1.3-2.2-1.3-3.5c0-0.3,0-0.5,0.1-0.8c0.1-0.4,0.2-0.8,0.3-1.1c0.2-0.5,0.4-0.9,0.7-1.2
			c0.3-0.3,0.6-0.6,0.9-0.9C313.1,595.3,314.3,594.9,315.5,594.8"/>
		<path class="st17" d="M333.5,602.3l9.2,2.9c-0.2,0.4-0.3,0.8-0.4,1.1l-9.2-2.9C333.2,603,333.4,602.7,333.5,602.3"/>
		<path class="st17" d="M320.7,613.1l4.8-8.2c0.3,0.3,0.7,0.5,1.1,0.6l-4.8,8.2C321.5,613.5,321.1,613.3,320.7,613.1"/>
		<path class="st17" d="M316.6,599.9l9.6,1c-0.1,0.4-0.1,0.8-0.1,1.2l-9.6-1C316.6,600.6,316.6,600.3,316.6,599.9"/>
	</g>
	<g>
		<path class="st18" d="M556.9,555.8l-5-4.9c0.6-0.5,1.1-1,1.4-1.5l4.1,4L556.9,555.8"/>
		<path class="st18" d="M579.2,577.8l-20.6-20.3l0.6-2.4l21.6,21.2C580.2,576.8,579.6,577.3,579.2,577.8"/>
		<path class="st18" d="M577.4,581.2l-15.3-6c0.3-0.6,0.6-1.2,0.8-1.9l15.3,6C577.9,579.8,577.6,580.5,577.4,581.2"/>
		<path class="st18" d="M557.4,562.3c-0.7-0.3-1.3-0.4-2-0.5l1.4-6l0.6-2.4l1.2-5.1l0.5-2l4.3-17.9c0.7,0.2,1.3,0.4,2,0.5l-4.4,18
			l-0.5,2l-1.5,6.2l-0.6,2.4L557.4,562.3"/>
		<path class="st18" d="M564.3,532.4c-0.4,0-0.8,0-1.1-0.1c-0.7-0.1-1.4-0.3-2-0.5c-0.7-0.3-1.2-0.6-1.8-1s-1.1-0.9-1.6-1.3
			c-1.4-1.6-2.4-3.7-2.4-6.1c0-5,4-9.1,9.1-9.1s9.1,4,9.1,9.1c0,0.9-0.1,1.6-0.3,2.4c-0.2,0.7-0.5,1.3-0.8,1.9
			C570.7,530.5,567.8,532.4,564.3,532.4"/>
		<path class="st18" d="M548.3,539.5c-3.8,0-6.9,3.1-6.9,6.9c0,3.8,3.1,6.9,6.9,6.9c3.8,0,6.9-3.1,6.9-6.9S552.2,539.5,548.3,539.5"
			/>
		<path class="st18" d="M554.1,577.7c-3.8,0-6.9-3.1-6.9-6.9s3.1-6.9,6.9-6.9c3.8,0,6.9,3.1,6.9,6.9
			C561.1,574.5,558,577.7,554.1,577.7"/>
		<path class="st18" d="M554.1,563.8c-3.8,0-6.9,3.1-6.9,6.9s3.1,6.9,6.9,6.9c3.8,0,6.9-3.1,6.9-6.9
			C561.1,566.9,558,563.8,554.1,563.8 M554.1,579.8c-5,0-9.1-4-9.1-9.1s4-9.1,9.1-9.1c0.4,0,0.8,0,1.1,0.1c0.7,0.1,1.4,0.3,2,0.5
			c3.4,1.2,5.7,4.6,5.7,8.4c0,0.9-0.1,1.6-0.3,2.3s-0.5,1.3-0.8,1.9C560.6,577.9,557.6,579.8,554.1,579.8 M586.1,590.6
			c-3.8,0-6.9-3.1-6.9-6.9c0-3.8,3.1-6.9,6.9-6.9s6.9,3.1,6.9,6.9C592.9,587.5,589.8,590.5,586.1,590.6"/>
		<path class="st18" d="M586.1,576.8c-3.8,0-6.9,3.1-6.9,6.9c0,3.8,3.1,6.9,6.9,6.9s6.9-3.1,6.9-6.9
			C592.9,579.9,589.8,576.8,586.1,576.8 M586.1,592.7c-5,0-9.1-4-9.1-9.1c0-0.9,0.1-1.7,0.4-2.6c0.2-0.7,0.5-1.3,0.9-1.9
			c0.3-0.5,0.6-1,1-1.3c0.5-0.6,1-1.1,1.5-1.4c0.4-0.3,0.9-0.6,1.2-0.8c0.6-0.3,1.2-0.6,2-0.7c0.7-0.2,1.3-0.2,2-0.2
			c0.8,0,1.5,0.1,2.3,0.3c0.7,0.2,1.3,0.5,1.9,0.8c2.8,1.5,4.7,4.5,4.7,7.9C595.1,588.6,590.9,592.7,586.1,592.7"/>
		<path class="st18" d="M620.4,553.5h-6.7c0,24.3-19.8,43.9-44,44c-24.3,0-43.9-19.6-44-44c0-24.3,19.8-43.9,44-44
			c24.3,0,43.9,19.8,44,44h13.4c0-31.7-25.7-57.5-57.5-57.5c-31.9,0-57.5,25.7-57.5,57.5c0,31.9,25.7,57.5,57.5,57.5
			c31.7,0,57.5-25.7,57.5-57.5H620.4"/>
		<path class="st18" d="M574.8,562.3c-0.5,0-1,0-1.4-0.1c-0.9-0.1-1.8-0.3-2.6-0.7c-0.9-0.3-1.6-0.8-2.4-1.2c-0.8-0.5-1.4-1.1-2-1.7
			c-1.9-2.1-3.1-4.8-3.1-7.8c0-6.3,5.2-11.6,11.6-11.6c6.4,0,11.6,5.2,11.6,11.6c0,1.1-0.1,2.1-0.4,3.1c-0.2,0.9-0.6,1.7-1.1,2.5
			C582.9,559.9,579.1,562.3,574.8,562.3"/>
		<path class="st18" d="M596.7,571.3c-0.4,0-0.8,0-1.1-0.1c-0.7-0.1-1.4-0.3-2-0.5c-0.7-0.3-1.2-0.6-1.8-1s-1.1-0.9-1.6-1.3
			c-1.4-1.6-2.4-3.7-2.4-6.1c0-5,4-9.1,9.1-9.1s9.1,4,9.1,9.1c0,0.9-0.1,1.6-0.3,2.4c-0.2,0.7-0.5,1.3-0.8,1.9
			C603,569.5,600,571.3,596.7,571.3"/>
		<path class="st18" d="M589.6,540.3c-0.4,0-0.8,0-1.1-0.1c-0.7-0.1-1.4-0.3-2-0.5c-0.7-0.3-1.2-0.6-1.8-1s-1.1-0.9-1.6-1.3
			c-1.4-1.6-2.4-3.7-2.4-6.1c0-5,4-9.1,9.1-9.1c5,0,9.1,4,9.1,9.1c0,0.9-0.1,1.6-0.3,2.4c-0.2,0.7-0.5,1.3-0.8,1.9
			C596,538.4,593,540.3,589.6,540.3"/>
		<path class="st18" d="M597.3,566c-0.7,0-1.3,0.2-2.1,0.4l-1.1-6l-0.5-2.4l-1-5.1l-0.4-2.1l-3.5-18.1c0.7-0.1,1.4-0.2,2.1-0.4
			l3.5,18.2l0.4,2.1l1.2,6.2l0.5,2.4L597.3,566"/>
		<path class="st18" d="M572.5,554.3c-0.5-0.5-1.1-1-1.6-1.3l3.8-4.8l1.5-1.9l3.3-4l1.3-1.6l11.6-14.4c0.5,0.5,1.1,1,1.6,1.3
			L582.3,542l-1.3,1.6l-4,5l-1.5,1.9L572.5,554.3"/>
		<path class="st18" d="M554.8,570.6c-0.4-0.6-0.9-1.1-1.4-1.5l4.5-4.2l1.7-1.7l3.7-3.5l1.5-1.4l13.4-12.7c0.4,0.6,0.9,1.1,1.4,1.5
			l-13.5,12.7l-1.5,1.4l-4.6,4.4l-1.7,1.7L554.8,570.6"/>
	</g>
	<g>
		<path class="st19" d="M270.7,534.4l-3.2-3.2c0.4-0.3,0.7-0.6,1-1l2.6,2.6L270.7,534.4"/>
		<path class="st19" d="M285.1,548.6l-13.2-13l0.4-1.5l14,13.8C285.8,548,285.4,548.3,285.1,548.6"/>
		<path class="st19" d="M283.9,550.8l-9.9-3.9c0.2-0.4,0.4-0.9,0.5-1.2l10,3.9C284.2,549.9,284,550.3,283.9,550.8"/>
		<path class="st19" d="M271.1,538.7c-0.4-0.2-0.9-0.3-1.3-0.4l1-3.8l0.4-1.5l0.8-3.3l0.3-1.3l2.8-11.6c0.4,0.2,0.9,0.3,1.3,0.3
			l-2.8,11.6l-0.3,1.3l-1,4l-0.4,1.5L271.1,538.7"/>
		<path class="st19" d="M277,515.7c-2.5,0-4.4-2-4.4-4.4c0-2.5,2-4.4,4.4-4.4c2.5,0,4.4,2,4.4,4.4S279.5,515.7,277,515.7"/>
		<path class="st19" d="M277,506.8c-2.5,0-4.4,2-4.4,4.4c0,2.5,2,4.4,4.4,4.4c2.5,0,4.4-2,4.4-4.4
			C281.4,508.9,279.4,506.8,277,506.8"/>
		<path class="st19" d="M277,517.1c-0.2,0-0.5,0-0.7,0c-0.5-0.1-0.9-0.2-1.3-0.3c-0.5-0.2-0.9-0.4-1.2-0.6c-0.4-0.3-0.8-0.6-1.1-0.9
			c-1-1.1-1.5-2.4-1.5-3.9c0-3.2,2.6-5.8,5.8-5.8c3.2,0,5.8,2.6,5.8,5.8c0,0.6-0.1,1.1-0.2,1.5c-0.1,0.5-0.3,0.9-0.5,1.2
			C281.1,515.8,279.2,517.1,277,517.1"/>
		<path class="st19" d="M263.8,531.2c-2.5,0-4.4-2-4.4-4.4c0-2.5,2-4.4,4.4-4.4c2.5,0,4.4,2,4.4,4.4S266.3,531.2,263.8,531.2"/>
		<path class="st19" d="M263.8,522.3c-2.5,0-4.4,2-4.4,4.4c0,2.5,2,4.4,4.4,4.4s4.4-2,4.4-4.4S266.2,522.3,263.8,522.3 M263.8,532.5
			c-3.2,0-5.7-2.5-5.8-5.6v-0.3c0.1-3.2,2.7-5.6,5.8-5.6c1.1,0,2.3,0.4,3.3,1c0.4,0.3,0.8,0.6,1.1,0.9c1,1.1,1.5,2.4,1.5,3.9
			c0,0.3,0,0.6-0.1,0.9c-0.1,0.5-0.2,0.9-0.4,1.3c-0.2,0.5-0.5,1-0.8,1.3c-0.3,0.4-0.6,0.7-1,1C266.4,532,265.2,532.5,263.8,532.5
			 M269,548.5c-2.5,0-4.4-2-4.4-4.4c0-2.5,2-4.4,4.4-4.4c2.5,0,4.4,2,4.4,4.4C273.5,546.6,271.5,548.5,269,548.5"/>
		<path class="st19" d="M269,539.7c-2.5,0-4.4,2-4.4,4.4c0,2.5,2,4.4,4.4,4.4s4.4-2,4.4-4.4C273.5,541.6,271.5,539.7,269,539.7
			 M269,549.8c-3.2,0-5.8-2.6-5.8-5.8s2.6-5.8,5.8-5.8c0.3,0,0.5,0,0.8,0c0.5,0.1,0.9,0.2,1.3,0.4c2.2,0.9,3.7,3,3.7,5.4
			c0,0.5-0.1,1.1-0.2,1.5c-0.1,0.5-0.3,0.9-0.5,1.2C273.1,548.7,271.2,549.8,269,549.8 M289.6,556.9c-2.5,0-4.4-2-4.4-4.4
			c0-2.5,2-4.4,4.4-4.4c2.5,0,4.4,2,4.4,4.4S292,556.9,289.6,556.9"/>
		<path class="st19" d="M289.6,547.9c-2.5,0-4.4,2-4.4,4.4c0,2.5,2,4.4,4.4,4.4c2.5,0,4.4-2,4.4-4.4S292,548,289.6,547.9
			 M289.6,558.2c-3.2,0-5.8-2.6-5.8-5.8c0-0.6,0.1-1.1,0.2-1.6s0.3-0.9,0.6-1.2c0.2-0.3,0.4-0.6,0.7-0.9c0.3-0.4,0.7-0.7,1-1
			c0.3-0.2,0.6-0.4,0.9-0.5c0.4-0.2,0.9-0.4,1.2-0.5s0.9-0.2,1.3-0.2s1.1,0.1,1.5,0.2c0.5,0.1,0.9,0.3,1.2,0.5
			c1.8,1,3.1,2.9,3.1,5.1C295.3,555.7,292.7,558.2,289.6,558.2"/>
		<path class="st19" d="M311.7,533h-4.3c0,15.7-12.7,28.3-28.4,28.4c-15.7,0-28.3-12.7-28.4-28.4c0-15.7,12.7-28.3,28.4-28.4
			c15.7,0,28.3,12.7,28.4,28.4h8.6c0-20.4-16.6-37-37-37c-20.5,0-37,16.6-37,37c0,20.5,16.6,37,37,37s37-16.6,37-37H311.7"/>
		<path class="st19" d="M292,533.6c-0.2,0-0.5,0-0.7,0c-0.5-0.1-0.9-0.2-1.3-0.3c-0.5-0.2-0.9-0.4-1.2-0.6c-0.4-0.3-0.8-0.6-1.1-0.9
			c-1-1.1-1.5-2.4-1.5-3.9c0-3.2,2.6-5.8,5.8-5.8c3.2,0,5.8,2.6,5.8,5.8c0,0.6-0.1,1.1-0.2,1.5c-0.1,0.5-0.3,0.9-0.5,1.2
			C296.1,532.4,294.2,533.6,292,533.6"/>
		<path class="st19" d="M292.3,528L279,514.9l0.4-1.5l14,13.7C292.9,527.3,292.6,527.6,292.3,528"/>
	</g>
	<g>
		<path class="st20" d="M511.6,428.3l-3.1-3c0.3-0.3,0.7-0.6,0.9-1l2.5,2.4L511.6,428.3"/>
		<path class="st20" d="M525.3,441.8l-12.6-12.4l0.4-1.4l13.2,13C525.9,441.1,525.6,441.4,525.3,441.8"/>
		<path class="st20" d="M524.2,443.8l-9.4-3.7c0.2-0.4,0.4-0.8,0.5-1.1l9.4,3.7C524.5,442.9,524.3,443.3,524.2,443.8"/>
		<path class="st20" d="M512,432.4c-0.4-0.2-0.8-0.3-1.2-0.3l0.9-3.6l0.4-1.4l0.8-3.1l0.3-1.2l2.7-10.9c0.4,0.1,0.9,0.3,1.2,0.3
			l-2.7,11l-0.3,1.2l-1,3.7l-0.4,1.3L512,432.4"/>
		<path class="st20" d="M517.5,410.7c-2.3,0-4.2-1.9-4.2-4.2c0-2.3,1.9-4.2,4.2-4.2s4.2,1.9,4.2,4.2
			C521.9,408.8,520,410.7,517.5,410.7"/>
		<path class="st20" d="M517.5,402.3c-2.3,0-4.2,1.9-4.2,4.2c0,2.3,1.9,4.2,4.2,4.2s4.2-1.9,4.2-4.2
			C521.9,404.2,519.9,402.3,517.5,402.3"/>
		<path class="st20" d="M517.5,411.9c-0.2,0-0.5,0-0.7,0c-0.4-0.1-0.9-0.2-1.2-0.3c-0.4-0.2-0.8-0.4-1.1-0.6c-0.4-0.3-0.7-0.5-1-0.9
			c-0.9-1-1.4-2.3-1.4-3.7c0-3.1,2.5-5.5,5.5-5.5s5.5,2.5,5.5,5.5c0,0.5-0.1,1-0.2,1.4s-0.3,0.9-0.5,1.1
			C521.6,410.9,519.7,411.9,517.5,411.9"/>
		<path class="st20" d="M505.2,425.2c-2.3,0-4.2-1.9-4.2-4.2s1.9-4.2,4.2-4.2s4.2,1.9,4.2,4.2C509.4,423.4,507.5,425.2,505.2,425.2"
			/>
		<path class="st20" d="M505.2,416.9c-2.3,0-4.2,1.9-4.2,4.2c0,2.3,1.9,4.2,4.2,4.2s4.2-1.9,4.2-4.2S507.5,416.9,505.2,416.9
			 M505.2,426.6c-3,0-5.4-2.4-5.5-5.4v-0.3c0.1-3,2.5-5.4,5.5-5.4c1.1,0,2.2,0.4,3.1,1c0.4,0.3,0.7,0.5,1,0.9c0.9,1,1.4,2.3,1.4,3.7
			c0,0.3,0,0.6-0.1,0.9c-0.1,0.4-0.2,0.9-0.4,1.2c-0.2,0.5-0.5,0.9-0.8,1.3s-0.6,0.7-0.9,1C507.7,426.1,506.4,426.6,505.2,426.6
			 M510,441.7c-2.3,0-4.2-1.9-4.2-4.2s1.9-4.2,4.2-4.2c2.3,0,4.2,1.9,4.2,4.2C514.2,439.8,512.4,441.7,510,441.7"/>
		<path class="st20" d="M510,433.3c-2.3,0-4.2,1.9-4.2,4.2s1.9,4.2,4.2,4.2c2.3,0,4.2-1.9,4.2-4.2
			C514.2,435.2,512.4,433.3,510,433.3 M510,442.9c-3.1,0-5.5-2.5-5.5-5.5c0-3.1,2.5-5.5,5.5-5.5c0.3,0,0.5,0,0.7,0
			c0.4,0.1,0.9,0.2,1.2,0.3c2,0.8,3.5,2.8,3.5,5.1c0,0.5-0.1,1-0.2,1.4s-0.3,0.9-0.5,1.1C513.9,441.8,512.1,442.9,510,442.9
			 M529.4,449.6c-2.3,0-4.2-1.9-4.2-4.2c0-2.3,1.9-4.2,4.2-4.2s4.2,1.9,4.2,4.2C533.6,447.6,531.7,449.6,529.4,449.6"/>
		<path class="st20" d="M529.4,441.1c-2.3,0-4.2,1.9-4.2,4.2s1.9,4.2,4.2,4.2s4.2-1.9,4.2-4.2S531.7,441.1,529.4,441.1 M529.4,450.9
			c-3.1,0-5.5-2.5-5.5-5.5c0-0.6,0.1-1.1,0.2-1.5c0.1-0.4,0.3-0.8,0.5-1.1c0.2-0.3,0.4-0.6,0.6-0.9c0.3-0.3,0.6-0.6,1-0.9
			c0.3-0.2,0.5-0.4,0.8-0.5c0.4-0.2,0.8-0.3,1.2-0.4s0.8-0.1,1.2-0.1c0.5,0,1,0.1,1.4,0.2s0.9,0.3,1.1,0.5c1.7,1,2.9,2.8,2.9,4.8
			C534.9,448.3,532.5,450.9,529.4,450.9"/>
		<path class="st20" d="M550.4,426.9h-4c0,14.8-12.1,26.8-26.9,26.9c-14.8,0-26.8-12-26.9-26.9c0-14.8,12.1-26.8,26.9-26.9
			c14.8,0,26.8,12.1,26.9,26.9h8.1c0-19.3-15.6-35-35-35c-19.3,0-35,15.6-35,35c0,19.3,15.6,35,35,35c19.3,0,35-15.6,35-35H550.4"/>
		<path class="st20" d="M539.2,438.7c-0.2,0-0.5,0-0.7,0c-0.4-0.1-0.9-0.2-1.2-0.3c-0.4-0.2-0.8-0.4-1.1-0.6c-0.4-0.2-0.7-0.5-1-0.9
			c-0.9-1-1.4-2.3-1.4-3.7c0-3.1,2.5-5.5,5.5-5.5s5.5,2.5,5.5,5.5c0,0.5-0.1,1-0.2,1.4c-0.1,0.4-0.3,0.9-0.5,1.1
			C543,437.6,541.3,438.7,539.2,438.7"/>
		<path class="st20" d="M521.9,432.1c-0.2,0-0.5,0-0.7,0c-0.4-0.1-0.9-0.2-1.2-0.3c-0.4-0.2-0.8-0.4-1.1-0.6c-0.4-0.2-0.7-0.5-1-0.9
			c-0.9-1-1.4-2.3-1.4-3.7c0-3.1,2.5-5.5,5.5-5.5c3.1,0,5.5,2.5,5.5,5.5c0,0.5-0.1,1-0.2,1.4s-0.3,0.9-0.5,1.1
			C525.7,430.9,524,432.1,521.9,432.1"/>
		<path class="st20" d="M534.7,430.2l-14.9-18.8l0.4-2.2l15.7,19.6C535.4,429.3,535.1,429.7,534.7,430.2"/>
		<path class="st20" d="M521.1,427.6l-3.6-17.2l1.1-1.1l3.8,18.1C521.9,427.4,521.5,427.5,521.1,427.6"/>
	</g>
	<g>
		<path class="st21" d="M398.7,623.2l-2.5-2.4c0.3-0.2,0.5-0.5,0.8-0.8l2,2L398.7,623.2"/>
		<path class="st21" d="M409.7,634.1L399.5,624l0.3-1.1l10.7,10.5C410.2,633.7,409.9,633.9,409.7,634.1"/>
		<path class="st21" d="M408.8,635.8l-7.5-3c0.2-0.3,0.3-0.7,0.4-1l7.6,3C409,635.1,408.9,635.5,408.8,635.8"/>
		<path class="st21" d="M399,626.6c-0.3-0.1-0.7-0.2-1-0.3l0.8-3l0.3-1.1l0.6-2.5l0.3-1.1l2.1-8.8c0.3,0.1,0.7,0.2,1.1,0.3l-2.1,8.8
			l-0.3,1.1l-0.8,3.1l-0.3,1.1L399,626.6"/>
		<path class="st21" d="M403,612.9c-0.2,0-0.4,0-0.6,0c-0.4-0.1-0.8-0.1-1.1-0.3c-0.4-0.1-0.8-0.3-1.1-0.6c-0.3-0.2-0.7-0.5-0.9-0.8
			c-0.9-0.9-1.3-2.1-1.3-3.4c0-2.8,2.3-5.1,5.1-5.1c2.8,0,5.1,2.3,5.1,5.1c0,0.5-0.1,1-0.2,1.3c-0.1,0.4-0.3,0.8-0.5,1.1
			C406.5,611.8,404.9,612.9,403,612.9"/>
		<path class="st21" d="M393.5,620.7c-1.9,0-3.4-1.5-3.4-3.4s1.5-3.4,3.4-3.4s3.4,1.5,3.4,3.4S395.3,620.7,393.5,620.7"/>
		<path class="st21" d="M393.4,614c-1.9,0-3.4,1.5-3.4,3.4s1.5,3.4,3.4,3.4s3.4-1.5,3.4-3.4C396.9,615.5,395.3,614,393.4,614"/>
		<path class="st21" d="M393.4,621.8c-2.4,0-4.4-1.9-4.4-4.3v-0.2c0.1-2.4,2-4.3,4.4-4.3c1,0,1.7,0.3,2.5,0.8
			c0.3,0.2,0.6,0.4,0.8,0.7c0.8,0.8,1.1,1.8,1.1,3c0,0.2,0,0.5-0.1,0.7c-0.1,0.4-0.1,0.7-0.3,1c-0.2,0.4-0.4,0.8-0.6,1.1
			s-0.5,0.5-0.8,0.8C395.4,621.4,394.5,621.8,393.4,621.8"/>
		<path class="st21" d="M397.6,625.1c-3.1,0-5.6,2.5-5.6,5.6s2.5,5.6,5.6,5.6s5.6-2.5,5.6-5.6C403.2,627.5,400.7,625.1,397.6,625.1"
			/>
		<path class="st21" d="M413.2,640.5c-1.9,0-3.4-1.5-3.4-3.4s1.5-3.4,3.4-3.4s3.4,1.5,3.4,3.4C416.6,638.9,415.1,640.5,413.2,640.5"
			/>
		<path class="st21" d="M413.2,633.7c-1.9,0-3.4,1.5-3.4,3.4s1.5,3.4,3.4,3.4s3.4-1.5,3.4-3.4S415.1,633.7,413.2,633.7 M413.2,641.6
			c-2.5,0-4.4-2-4.4-4.4c0-0.5,0.1-0.9,0.2-1.2c0.1-0.4,0.3-0.7,0.4-1s0.3-0.5,0.5-0.7c0.2-0.3,0.5-0.5,0.8-0.7
			c0.2-0.1,0.4-0.3,0.7-0.4c0.3-0.2,0.7-0.3,1-0.4c0.3-0.1,0.7-0.1,1-0.1c0.4,0,0.8,0.1,1.1,0.2c0.4,0.1,0.7,0.2,1,0.4
			c1.3,0.8,2.3,2.2,2.3,3.9C417.6,639.5,415.6,641.6,413.2,641.6"/>
		<path class="st21" d="M430.2,622.2h-3.3c0,12.1-9.9,21.7-21.7,21.7c-12.1,0-21.7-9.8-21.7-21.7c0-12.1,9.9-21.7,21.7-21.7
			c12.1,0,21.7,9.9,21.7,21.7h6.6c0-15.7-12.7-28.4-28.4-28.4c-15.7,0-28.4,12.7-28.4,28.4s12.7,28.4,28.4,28.4
			c15.7,0,28.4-12.7,28.4-28.4H430.2"/>
		<path class="st21" d="M415.7,614.3c-3.5,0-6.4,2.9-6.4,6.4s2.9,6.4,6.4,6.4s6.4-2.9,6.4-6.4C422.2,617.2,419.4,614.3,415.7,614.3"
			/>
		<path class="st21" d="M414.2,635.3c-0.3-0.1-0.7-0.1-1.1-0.1l0.4-3.1l0.2-1.1l0.3-2.6l0.1-1.1l1.1-9.1c0.3,0.1,0.7,0.1,1.1,0.1
			l-1.1,9.1l-0.1,1.1l-0.4,3.2l-0.2,1.1L414.2,635.3"/>
	</g>
	<g>
		<path class="st13" d="M475.9,600.8l-5.5-2.2c0.1-0.2,0.2-0.5,0.3-0.7l5.5,2.2C476.1,600.3,475.9,600.5,475.9,600.8"/>
		<path class="st13" d="M468.6,594c-0.2-0.1-0.5-0.2-0.8-0.2l0.5-2.1l0.2-0.9l0.5-1.8l0.2-0.8l1.5-6.4c0.2,0.1,0.5,0.2,0.8,0.2
			l-1.5,6.4l-0.2,0.8l-0.6,2.2l-0.2,0.9L468.6,594"/>
		<path class="st13" d="M472.1,581.4c-1.3,0-2.5-1.1-2.5-2.5c0-1.3,1.1-2.5,2.5-2.5c1.3,0,2.5,1.1,2.5,2.5
			C474.5,580.2,473.4,581.4,472.1,581.4"/>
		<path class="st13" d="M472.1,576.4c-1.3,0-2.5,1.1-2.5,2.5c0,1.3,1.1,2.5,2.5,2.5c1.3,0,2.5-1.1,2.5-2.5
			C474.5,577.6,473.4,576.4,472.1,576.4"/>
		<path class="st13" d="M472.1,582.2c-0.1,0-0.3,0-0.4,0c-0.3,0-0.5-0.1-0.8-0.2c-0.2-0.1-0.5-0.2-0.7-0.4c-0.2-0.1-0.4-0.3-0.6-0.5
			c-0.6-0.6-0.9-1.3-0.9-2.2c0-1.8,1.4-3.3,3.3-3.3s3.3,1.4,3.3,3.3c0,0.3,0,0.6-0.1,0.9c-0.1,0.3-0.2,0.5-0.3,0.7
			C474.3,581.5,473.2,582.2,472.1,582.2"/>
		<path class="st13" d="M467.5,599.6c-1.3,0-2.5-1.1-2.5-2.5s1.1-2.5,2.5-2.5s2.5,1.1,2.5,2.5C470.1,598.4,468.9,599.6,467.5,599.6"
			/>
		<path class="st13" d="M467.5,594.6c-1.3,0-2.5,1.1-2.5,2.5c0,1.3,1.1,2.5,2.5,2.5s2.5-1.1,2.5-2.5
			C470.1,595.7,468.9,594.6,467.5,594.6 M467.5,600.3c-1.8,0-3.3-1.4-3.3-3.3c0-1.8,1.4-3.3,3.3-3.3c0.1,0,0.3,0,0.4,0
			c0.3,0,0.5,0.1,0.8,0.2c1.2,0.5,2.1,1.6,2.1,3c0,0.3,0,0.6-0.1,0.9c-0.1,0.3-0.2,0.5-0.3,0.7C469.8,599.7,468.7,600.3,467.5,600.3
			 M479,604.2c-1.3,0-2.5-1.1-2.5-2.5c0-1.3,1.1-2.5,2.5-2.5c1.3,0,2.5,1.1,2.5,2.5C481.4,603,480.3,604.2,479,604.2"/>
		<path class="st13" d="M479,599.3c-1.3,0-2.5,1.1-2.5,2.5c0,1.3,1.1,2.5,2.5,2.5c1.3,0,2.5-1.1,2.5-2.5
			C481.4,600.3,480.3,599.3,479,599.3 M479,604.9c-1.8,0-3.3-1.4-3.3-3.3c0-0.3,0-0.6,0.1-1c0.1-0.3,0.2-0.5,0.3-0.7
			c0.1-0.2,0.2-0.4,0.4-0.5c0.2-0.2,0.4-0.4,0.6-0.5c0.1-0.1,0.3-0.2,0.5-0.3s0.5-0.2,0.7-0.3s0.5-0.1,0.7-0.1c0.3,0,0.6,0,0.9,0.1
			s0.5,0.2,0.7,0.3c1,0.6,1.7,1.6,1.7,2.9C482.1,603.5,480.7,604.9,479,604.9"/>
		<path class="st13" d="M491.3,590.9h-2.4c0,8.6-7,15.7-15.8,15.8c-8.6,0-15.7-7-15.8-15.8c0-8.6,7-15.7,15.8-15.8
			c8.6,0,15.7,7,15.8,15.8h4.8c0-11.4-9.2-20.6-20.6-20.6s-20.6,9.2-20.6,20.6c0,11.4,9.2,20.6,20.6,20.6s20.6-9.2,20.6-20.6H491.3"
			/>
	</g>
	<g>
		<path class="st22" d="M182.9,502.6l-30.2,76.5l3.1,1.2l30.3-76.5"/>
		<path class="st22" d="M186.2,501.7l-62.5-25.5l-1.2,3.2l62.4,25.4"/>
		<path class="st22" d="M136.6,530.1l49.7-25.5l-1.5-3l-49.7,25.5"/>
		<path class="st22" d="M106.3,544.1l43.6,35l2.1-2.6l-43.6-35"/>
		<path class="st22" d="M124.8,475.8l10.9,51.3l-2.4,0.3l-10.9-51.3"/>
		<path class="st22" d="M148.6,528.7c0,7-5.6,12.8-12.7,12.8c-7,0-12.8-5.6-12.8-12.8c0-7.1,5.6-12.8,12.8-12.8
			S148.6,521.7,148.6,528.7"/>
		<path class="st22" d="M198.9,506.8c0,9.6-7.7,17.4-17.4,17.4c-9.6,0-17.4-7.7-17.4-17.4c0-9.8,7.7-17.4,17.4-17.4
			C191.2,489.4,198.9,497.3,198.9,506.8"/>
		<path class="st22" d="M135.9,477.3c0,7-5.6,12.8-12.8,12.8c-7,0-12.7-5.6-12.7-12.8c0-7.1,5.6-12.8,12.7-12.8
			C130.1,464.5,135.9,470.3,135.9,477.3"/>
		<path class="st22" d="M135.9,477.6h-1.7c0,6-4.9,11.1-11.1,11.1c-6,0-11.1-5-11.1-11.1c0-6,4.9-11.1,11.1-11.1
			c6,0,11.1,5,11.1,11.1h3.4c0-7.9-6.4-14.5-14.5-14.5s-14.5,6.4-14.5,14.5c0,7.9,6.4,14.5,14.5,14.5s14.5-6.4,14.5-14.5H135.9"/>
		<path class="st22" d="M115.7,538.7c0,5.8-4.7,10.7-10.7,10.7c-5.8,0-10.7-4.7-10.7-10.7c0-5.9,4.7-10.7,10.7-10.7
			S115.7,532.7,115.7,538.7"/>
		<path class="st22" d="M169.7,580.4c0,8.4-6.8,15.4-15.4,15.4c-8.4,0-15.4-6.8-15.4-15.4c0-8.4,6.8-15.4,15.4-15.4
			C162.8,564.9,169.7,571.9,169.7,580.4"/>
		<circle class="st23" cx="141.3" cy="526.7" r="76.6"/>
	</g>
	<g>
		<path class="st24" d="M372.1,726.3l-2-0.8c0-0.1,0.1-0.2,0.1-0.3l2,0.9C372.2,726.1,372.2,726.2,372.1,726.3"/>
		<path class="st24" d="M369.4,723.8c-0.1,0-0.2-0.1-0.3-0.1l0.2-0.8l0.1-0.3l0.2-0.7l0.1-0.3l0.6-2.4c0.1,0,0.2,0.1,0.3,0.1
			l-0.6,2.4l-0.1,0.3l-0.2,0.9l-0.1,0.3L369.4,723.8"/>
		<path class="st24" d="M370.7,719.1c-0.5,0-1-0.4-1-1c0-0.5,0.4-1,1-1c0.5,0,1,0.4,1,1C371.6,718.7,371.2,719.1,370.7,719.1"/>
		<path class="st24" d="M370.7,717.2c-0.5,0-1,0.4-1,1c0,0.5,0.4,1,1,1c0.5,0,1-0.4,1-1C371.6,717.7,371.2,717.2,370.7,717.2"/>
		<path class="st24" d="M370.7,719.4c-0.1,0-0.1,0-0.2,0s-0.2,0-0.3-0.1c-0.1,0-0.2-0.1-0.3-0.1c-0.1,0-0.2-0.1-0.2-0.2
			c-0.2-0.2-0.3-0.5-0.3-0.9c0-0.7,0.6-1.2,1.2-1.2c0.7,0,1.2,0.6,1.2,1.2c0,0.1,0,0.2,0,0.3s-0.1,0.2-0.1,0.3
			C371.5,719.1,371.1,719.4,370.7,719.4"/>
		<path class="st24" d="M369,725.8c-0.5,0-1-0.4-1-1c0-0.5,0.4-1,1-1c0.5,0,1,0.4,1,1C370,725.5,369.5,725.8,369,725.8"/>
		<path class="st24" d="M369,724c-0.5,0-1,0.4-1,1c0,0.5,0.4,1,1,1c0.5,0,1-0.4,1-1S369.5,724,369,724 M369,726.1
			c-0.7,0-1.2-0.6-1.2-1.2s0.6-1.2,1.2-1.2c0.1,0,0.1,0,0.2,0s0.2,0,0.3,0.1c0.5,0.2,0.8,0.6,0.8,1.1c0,0.1,0,0.2,0,0.3
			s-0.1,0.2-0.1,0.3C369.9,725.9,369.5,726.1,369,726.1 M373.2,727.6c-0.5,0-1-0.4-1-1c0-0.5,0.4-1,1-1c0.5,0,1,0.4,1,1
			C374.2,727.2,373.8,727.6,373.2,727.6"/>
		<path class="st24" d="M373.2,725.8c-0.5,0-1,0.4-1,1c0,0.5,0.4,1,1,1c0.5,0,1-0.4,1-1C374.2,726.1,373.8,725.8,373.2,725.8
			 M373.2,727.9c-0.7,0-1.2-0.6-1.2-1.2c0-0.1,0-0.2,0.1-0.4c0-0.1,0.1-0.2,0.1-0.3s0.1-0.1,0.1-0.2c0.1-0.1,0.1-0.1,0.2-0.2
			c0.1,0,0.1-0.1,0.2-0.1s0.2-0.1,0.3-0.1c0.1,0,0.2,0,0.3,0c0.1,0,0.2,0,0.3,0c0.1,0,0.2,0.1,0.3,0.1c0.4,0.2,0.7,0.6,0.7,1.1
			C374.5,727.4,373.9,727.9,373.2,727.9"/>
		<path class="st24" d="M377.9,722.7H377c0,3.3-2.7,5.8-5.8,5.8c-3.3,0-5.8-2.6-5.8-5.8s2.7-5.8,5.8-5.8c3.3,0,5.8,2.7,5.8,5.8h1.8
			c0-4.2-3.4-7.7-7.7-7.7c-4.2,0-7.7,3.4-7.7,7.7c0,4.2,3.4,7.7,7.7,7.7c4.2,0,7.7-3.4,7.7-7.7H377.9"/>
		<path class="st24" d="M373.4,724.1L373.4,724.1c-0.2,0-0.2,0-0.3-0.1c-0.1,0-0.1-0.1-0.2-0.1s-0.1-0.1-0.2-0.1
			c-0.2-0.2-0.2-0.4-0.2-0.6c0-0.5,0.4-0.9,0.9-0.9s0.9,0.4,0.9,0.9c0,0.1,0,0.2,0,0.2c0,0.1,0,0.1-0.1,0.2
			C374,723.9,373.7,724.1,373.4,724.1"/>
		<path class="st24" d="M371.1,722.6L371.1,722.6c-0.1,0-0.2,0-0.2,0c-0.1,0-0.1,0-0.1-0.1l-0.1-0.1c-0.1-0.1-0.2-0.3-0.2-0.5
			c0-0.4,0.3-0.7,0.7-0.7c0.4,0,0.7,0.3,0.7,0.7c0,0.1,0,0.1,0,0.2c0,0.1,0,0.1-0.1,0.1C371.6,722.4,371.4,722.6,371.1,722.6"/>
		<path class="st24" d="M373.4,727.1c-0.1,0-0.2,0-0.3,0l0.1-0.9v-0.3v-0.7V725l0.2-2.5c0.1,0,0.2,0,0.3,0l-0.2,2.5v0.3l-0.1,0.9
			v0.3V727.1"/>
		<path class="st24" d="M370.9,722.2l-0.2-3.8l0.3-0.2l0.3,4C371.1,722.2,371,722.2,370.9,722.2"/>
	</g>
	<g>
		<path class="st25" d="M239.3,445.8c-0.6-0.7-1.1-1.2-1.9-1.9l5.2-5.5l2.1-2.2l4.4-4.6l1.8-1.9l15.8-16.5c0.6,0.7,1.1,1.2,1.9,1.8
			l-15.9,16.4l-1.8,1.9l-5.4,5.7l-2.1,2.2L239.3,445.8"/>
		<path class="st25" d="M275.3,464.3c-6.1,0-11.1-5-11.1-11.1c0-0.7,0.1-1.2,0.2-1.9c0.2-0.9,0.4-1.7,0.8-2.5
			c1.7-4,5.7-6.8,10.3-6.8c3.8,0,7.2,1.9,9.3,5c0.5,0.7,0.9,1.4,1.1,2.3c0.4,1.1,0.7,2.6,0.7,3.9c0,4.2-2.5,8-6,9.9
			c-0.8,0.4-1.6,0.7-2.5,1C277.1,464.1,276.3,464.2,275.3,464.3"/>
		<path class="st25" d="M263.6,431.8c-0.4,0-1,0-1.3-0.1c-0.9-0.1-1.7-0.4-2.6-0.6c-0.9-0.4-1.6-0.7-2.3-1.1c-0.7-0.5-1.3-1-1.9-1.7
			c-1.9-2-2.9-4.6-2.9-7.4c0-6,5-11,11-11c6.1,0,11,5,11,11c0,1-0.2,2-0.4,2.9c-0.3,0.9-0.6,1.7-1,2.4
			C271.4,429.6,267.9,431.8,263.6,431.8"/>
		<path class="st25" d="M234.1,451.1c-3-1.8-4.1-5.7-2.3-8.9c1.8-3,5.7-4.1,8.9-2.3c0.3,0.2,0.5,0.4,0.7,0.4
			c0.4,0.3,0.8,0.7,1.1,1.1c1.6,2,1.9,5,0.5,7.2c-0.4,0.5-0.7,1-1,1.3c-0.4,0.4-0.8,0.7-1.1,1C238.9,452.3,236.3,452.4,234.1,451.1"
			/>
		<path class="st25" d="M271.6,446.3l-6.5-18.7c0.9-0.3,1.7-0.5,2.5-1l6.5,18.7C273.1,445.7,272.4,446,271.6,446.3"/>
		<circle class="st26" cx="265.2" cy="431.5" r="55"/>
		<path class="st25" d="M289.3,424l-19.7-0.9c0.1-0.9,0.2-1.8,0-2.7l19.7,0.8C289.3,422.2,289.3,423.1,289.3,424"/>
		<path class="st25" d="M308.5,426.1c-1.8,4.4-6.7,6.5-11.1,4.9c-4.4-1.8-6.5-6.7-4.9-11.1c1.8-4.4,6.7-6.5,11.1-4.8
			C308.1,416.8,310.2,421.8,308.5,426.1"/>
		<path class="st25" d="M292.6,419.8c-1.8,4.4,0.4,9.4,4.9,11.1c4.4,1.8,9.4-0.4,11.1-4.9c1.8-4.4-0.4-9.4-4.8-11.1
			C299.4,413.4,294.4,415.4,292.6,419.8 M310.8,427.1c-2.3,5.7-8.8,8.6-14.5,6.2c-1-0.4-1.9-1-2.8-1.5c-0.7-0.5-1.2-1.1-1.9-1.8
			c-0.4-0.5-0.9-1.1-1.1-1.7c-0.4-0.8-0.8-1.6-1-2.4c-0.2-0.6-0.3-1.1-0.3-1.9c0-0.9,0-1.8,0.1-2.7c0.1-0.9,0.4-1.6,0.7-2.4
			c0.4-1,0.9-1.8,1.3-2.6c0.5-0.7,1.1-1.3,1.8-1.9c3-2.6,7.3-3.4,11.3-1.8C310.4,414.8,313.2,421.4,310.8,427.1"/>
		<path class="st25" d="M255.5,404.1l9.7,17.2c-0.8,0.4-1.6,0.8-2.3,1.3l-9.8-17.2C254,405,254.9,404.6,255.5,404.1"/>
		<path class="st25" d="M249,389.4c4.7-0.9,9,2.2,10,6.9c0.9,4.7-2.2,9-6.9,10c-4.7,0.9-9-2.2-9.9-6.9
			C241.3,394.8,244.4,390.4,249,389.4"/>
	</g>
	<g>
		<path class="st27" d="M169,621.5l-1.4-1.4c0.2-0.1,0.3-0.3,0.5-0.4l1.2,1.1L169,621.5"/>
		<path class="st27" d="M175.6,627.8l-6-5.7l0.2-0.7l6.3,6C175.9,627.5,175.7,627.6,175.6,627.8"/>
		<path class="st27" d="M175.1,628.8l-4.5-1.7c0.1-0.2,0.2-0.4,0.2-0.6l4.5,1.7C175.2,628.4,175.1,628.6,175.1,628.8"/>
		<path class="st27" d="M169.2,623.3c-0.2-0.1-0.4-0.1-0.6-0.2l0.5-1.7l0.2-0.7l0.4-1.4l0.2-0.6l1.2-5.1c0.2,0.1,0.4,0.1,0.6,0.1
			l-1.2,5.1l-0.2,0.6l-0.5,1.7l-0.2,0.7L169.2,623.3"/>
		<path class="st27" d="M171.8,613.3c-1.1,0-2-0.9-2-2s0.9-1.9,2-2c1.1,0,2,0.9,2,2C174,612.4,173,613.3,171.8,613.3"/>
		<path class="st27" d="M171.8,609.4c-1.1,0-2,0.9-2,2s0.9,1.9,2,2c1.1,0,2-0.9,2-2C174,610.2,173,609.4,171.8,609.4"/>
		<path class="st27" d="M171.8,613.9c-0.1,0-0.2,0-0.3,0c-0.2,0-0.4-0.1-0.6-0.1c-0.2-0.1-0.4-0.2-0.6-0.3s-0.3-0.3-0.5-0.4
			c-0.5-0.5-0.7-1.1-0.7-1.7c0-1.4,1.1-2.6,2.7-2.6c1.4,0,2.7,1.1,2.7,2.6c0,0.2,0,0.5-0.1,0.7s-0.1,0.4-0.2,0.6
			C173.8,613.4,172.9,613.9,171.8,613.9"/>
		<path class="st27" d="M165.9,620.1c-1.1,0-2-0.9-2-2s1-1.9,2-2c1.1,0,2,0.9,2,2S167,620.1,165.9,620.1"/>
		<path class="st27" d="M165.9,616.2c-1.1,0-2,0.9-2,2s1,1.9,2,1.9c1.1,0,2-0.9,2-1.9C167.9,617,167,616.2,165.9,616.2 M165.9,620.7
			c-1.4,0-2.6-1.1-2.7-2.5v-0.1c0-1.3,1.2-2.5,2.7-2.5c0.6,0,1.1,0.2,1.4,0.5c0.2,0.1,0.3,0.3,0.5,0.4c0.5,0.5,0.7,1.1,0.7,1.7
			c0,0.1,0,0.3,0,0.4c0,0.2-0.1,0.4-0.2,0.6c-0.1,0.2-0.2,0.4-0.4,0.6c-0.1,0.2-0.3,0.3-0.5,0.4
			C167.1,620.5,166.5,620.7,165.9,620.7 M168.2,627.8c-1.1,0-2-0.9-2-2s1-1.9,2-2c1.1,0,2,0.9,2,2
			C170.2,626.9,169.4,627.8,168.2,627.8"/>
		<path class="st27" d="M168.2,623.9c-1.1,0-2,0.9-2,2s1,1.9,2,1.9c1.1,0,2-0.9,2-1.9C170.2,624.8,169.4,623.9,168.2,623.9
			 M168.2,628.4c-1.4,0-2.7-1.1-2.7-2.6s1.1-2.6,2.7-2.6c0.1,0,0.2,0,0.4,0s0.4,0.1,0.6,0.2c1,0.4,1.7,1.3,1.7,2.4
			c0,0.2,0,0.5-0.1,0.7s-0.1,0.4-0.2,0.6C170.1,627.8,169.3,628.4,168.2,628.4 M177.6,631.5c-1.1,0-2-0.9-2-2s1-1.9,2-2
			c1.1,0,2,0.9,2,2S178.7,631.5,177.6,631.5"/>
		<path class="st27" d="M177.6,627.5c-1.1,0-2,0.9-2,2s1,1.9,2,1.9s2-0.9,2-1.9S178.7,627.5,177.6,627.5 M177.6,632
			c-1.4,0-2.7-1.1-2.7-2.6c0-0.3,0-0.5,0.1-0.8c0.1-0.2,0.2-0.4,0.3-0.6c0.1-0.1,0.2-0.3,0.3-0.4c0.1-0.2,0.3-0.3,0.5-0.4
			c0.1-0.1,0.3-0.2,0.4-0.2c0.2-0.1,0.4-0.2,0.6-0.2c0.2,0,0.4-0.1,0.6-0.1c0.2,0,0.5,0,0.7,0.1s0.4,0.1,0.6,0.2
			c0.9,0.5,1.4,1.2,1.4,2.3C180.4,630.9,179,632,177.6,632"/>
		<path class="st27" d="M187.8,620.8h-2c0,6.9-5.8,12.5-13,12.6c-7.2,0-13-5.6-13-12.6c0-6.9,5.8-12.5,13-12.6c7.2,0,13,5.6,13,12.6
			h3.9c0-9.1-7.6-16.4-16.9-16.4c-9.5,0-16.9,7.3-16.9,16.4s7.6,16.4,16.9,16.4s16.9-7.3,16.9-16.4H187.8"/>
		<path class="st27" d="M177.9,624c-0.1,0-0.2,0-0.2,0c-0.2,0-0.3-0.1-0.5-0.1c-0.2-0.1-0.3-0.1-0.4-0.2c-0.1-0.1-0.3-0.2-0.4-0.3
			c-0.3-0.4-0.5-0.8-0.5-1.2c0-1.1,0.9-1.9,2-1.9s2,0.9,2,1.9c0,0.2,0,0.4-0.1,0.5c0,0.2-0.1,0.3-0.2,0.4
			C179.3,623.4,178.6,624,177.9,624"/>
		<path class="st27" d="M172.9,620.7c-0.1,0-0.1,0-0.2,0c-0.1,0-0.2,0-0.3-0.1c-0.1,0-0.2-0.1-0.3-0.2c-0.1-0.1-0.2-0.1-0.3-0.2
			c-0.3-0.3-0.4-0.6-0.4-1c0-0.8,0.7-1.4,1.4-1.4c0.8,0,1.4,0.7,1.4,1.4c0,0.1,0,0.3-0.1,0.4c0,0.1-0.1,0.2-0.1,0.3
			C174,620.4,173.5,620.7,172.9,620.7"/>
		<path class="st27" d="M177.9,630.4c-0.2,0-0.4-0.1-0.6-0.1l0.1-1.7l0.1-0.7l0.1-1.4v-0.6l0.4-5.3c0.2,0,0.4,0.1,0.6,0l-0.4,5.3
			v0.6l-0.1,1.8L178,629L177.9,630.4"/>
		<path class="st27" d="M172.4,619.8l-0.6-8.2l0.6-0.4l0.6,8.6C172.8,619.8,172.6,619.8,172.4,619.8"/>
	</g>
</g>
<g>
	<path class="st28" d="M203.3,204.9c-10.5,0-18.7-8.5-18.9-18.9c0-10.5,8.5-18.7,18.9-18.9c10.5,0,18.7,8.5,18.9,18.9
		C222.2,196.6,213.8,204.9,203.3,204.9"/>
	<path class="st29" d="M324.1,158.3c-15.7,0-28.1-12.8-28.4-28.4c0-15.7,12.8-28.1,28.4-28.4c15.7,0,28.1,12.8,28.4,28.4
		C352.5,145.8,339.8,158.3,324.1,158.3"/>
	<path class="st30" d="M391.1,193.2c-10.5,0-18.7-8.5-18.9-18.9c0-10.5,8.5-18.7,18.9-18.9c10.5,0,18.7,8.5,18.9,18.9
		C410,184.8,401.6,193.2,391.1,193.2"/>
	<path class="st30" d="M324.1,195.5c-5.2,0-9.4-4.3-9.5-9.5c0-5.2,4.3-9.4,9.5-9.5c5.2,0,9.4,4.3,9.5,9.5
		C333.6,191.3,329.4,195.5,324.1,195.5"/>
	<path class="st31" d="M498.1,195.5c-10.5,0-18.7-8.5-18.9-18.9c0-10.5,8.5-18.7,18.9-18.9c10.5,0,18.7,8.5,18.9,18.9
		C517,187.1,508.5,195.5,498.1,195.5"/>
	<path class="st28" d="M352.5,108c-10.5,0-18.7-8.5-18.9-18.9c0-10.5,8.5-18.7,18.9-18.9c10.5,0,18.7,8.5,18.9,18.9
		C371.4,99.7,363,108,352.5,108"/>
	<path class="st29" d="M403,137.1c-10.5,0-18.7-8.5-18.9-18.9c0-10.5,8.5-18.7,18.9-18.9c10.5,0,18.7,8.5,18.9,18.9
		C421.9,128.7,413.4,137.1,403,137.1"/>
	<path class="st32" d="M370.5,143.6c-5.2,0-9.4-4.3-9.5-9.5c0-5.2,4.3-9.4,9.5-9.5c5.2,0,9.4,4.3,9.5,9.5
		C379.9,139.4,375.7,143.6,370.5,143.6"/>
	<path class="st33" d="M276.9,172.9c-10.5,0-18.7-8.5-18.9-18.9c0-10.5,8.5-18.7,18.9-18.9c10.5,0,18.7,8.5,18.9,18.9
		C295.8,164.6,287.3,172.9,276.9,172.9"/>
	<path class="st29" d="M238.2,160.7c-5.2,0-9.4-4.3-9.5-9.5c0-5.2,4.3-9.4,9.5-9.5c5.2,0,9.4,4.3,9.5,9.5
		C247.7,156.5,243.5,160.7,238.2,160.7"/>
	<path class="st34" d="M445.5,186c-13.1,0-23.4-10.6-23.6-23.6c0-13.1,10.6-23.4,23.6-23.6c13.1,0,23.4,10.6,23.6,23.6
		C469.1,175.6,458.5,186,445.5,186"/>
</g>
</svg>
